<?xml version="1.0" encoding="UTF-8"?>
<svg xmlns="http://www.w3.org/2000/svg" xmlns:xlink="http://www.w3.org/1999/xlink" width="100px" height="43px" viewBox="0 0 100 43" version="1.1">
<g id="surface1">
<path style=" stroke:none;fill-rule:nonzero;fill:rgb(86.666667%,26.274511%,23.137255%);fill-opacity:1;" d="M 86.242188 13.28125 L 86.4375 13.292969 C 86.664062 13.566406 86.539062 16.296875 86.371094 16.671875 C 86.175781 17.121094 85.339844 17.859375 85.363281 18.300781 L 85.429688 18.347656 C 85.539062 18.328125 85.601562 18.257812 85.671875 18.179688 C 85.914062 17.914062 86.117188 17.597656 86.34375 17.316406 C 86.898438 16.621094 87.5 15.976562 88.1875 15.410156 C 89.996094 13.914062 92.347656 13.097656 94.703125 13.328125 C 95.8125 13.4375 96.910156 13.882812 97.625 14.765625 C 98.277344 15.570312 98.515625 16.597656 98.402344 17.613281 C 98.335938 18.214844 98.179688 19.011719 97.683594 19.410156 C 97.628906 19.328125 97.496094 19.269531 97.414062 19.222656 C 95.636719 18.296875 92.992188 18.378906 91.121094 18.976562 C 89.113281 19.621094 87.402344 21.183594 86.957031 23.300781 C 86.730469 24.355469 86.765625 25.46875 86.777344 26.542969 C 86.785156 26.960938 86.878906 27.71875 86.683594 28.074219 C 86.675781 28.085938 86.671875 28.09375 86.664062 28.105469 C 86.792969 28.292969 86.785156 28.5625 86.796875 28.78125 C 86.867188 30.195312 86.765625 31.59375 86.765625 33.003906 L 86.769531 35.8125 C 86.769531 36.566406 86.8125 37.34375 86.671875 38.085938 C 86.558594 38.671875 86.3125 39.214844 85.910156 39.65625 C 84.644531 41.046875 82.308594 41.054688 80.5625 41.140625 C 80.730469 40.882812 80.722656 40.386719 80.734375 40.085938 C 80.757812 39.332031 80.710938 38.570312 80.695312 37.816406 C 80.683594 36.9375 80.695312 36.058594 80.695312 35.179688 L 80.699219 23.316406 L 80.695312 19.996094 C 80.691406 19.023438 80.667969 18.046875 80.824219 17.082031 C 80.957031 16.273438 81.234375 15.496094 81.777344 14.871094 C 82.898438 13.589844 84.648438 13.394531 86.242188 13.28125 Z M 86.242188 13.28125 "/>
<path style=" stroke:none;fill-rule:nonzero;fill:rgb(5.098039%,62.352943%,34.509805%);fill-opacity:1;" d="M 60.757812 2.566406 C 60.914062 2.554688 61.0625 2.554688 61.21875 2.570312 C 61.292969 3.566406 61.238281 4.605469 61.238281 5.605469 L 61.238281 11.363281 L 61.242188 19.988281 C 61.242188 21.445312 61.28125 22.914062 61.238281 24.367188 C 61.234375 24.511719 61.214844 24.621094 61.136719 24.746094 C 61.546875 24.519531 61.914062 24.074219 62.261719 23.753906 L 64.007812 22.148438 C 66.402344 19.976562 68.773438 17.78125 71.125 15.5625 C 71.773438 14.960938 72.464844 14.402344 73.109375 13.796875 C 73.273438 13.644531 73.472656 13.472656 73.578125 13.277344 C 74.378906 13.65625 75.429688 14.882812 75.789062 15.695312 C 76.019531 16.214844 76.054688 16.742188 75.847656 17.277344 C 75.695312 17.679688 75.421875 18.058594 75.140625 18.378906 C 73.976562 19.695312 72.578125 20.820312 71.28125 22.007812 C 70.671875 22.566406 69.007812 24.28125 68.355469 24.570312 C 68.617188 24.683594 68.855469 25.085938 69.023438 25.316406 C 69.648438 26.167969 70.222656 27.0625 70.824219 27.929688 L 74.894531 33.800781 L 77.199219 37.113281 C 77.6875 37.8125 78.21875 38.511719 78.640625 39.253906 C 78.652344 39.335938 78.652344 39.40625 78.625 39.484375 C 78.515625 39.789062 78.136719 40.179688 77.851562 40.324219 C 77.84375 40.351562 77.832031 40.367188 77.816406 40.386719 C 77.453125 40.785156 76.574219 40.992188 76.0625 41.039062 C 75.1875 41.117188 74.285156 41.011719 73.554688 40.484375 C 72.300781 39.582031 70.5 36.410156 69.5625 35 L 66.242188 30.035156 C 65.910156 29.527344 65.230469 28.269531 64.84375 27.949219 C 64.785156 28.097656 61.511719 31.121094 61.179688 31.292969 C 61.21875 31.417969 61.222656 31.539062 61.226562 31.671875 C 61.257812 32.613281 61.226562 33.5625 61.226562 34.503906 C 61.230469 35.6875 61.347656 36.984375 61.082031 38.144531 C 60.945312 38.726562 60.6875 39.285156 60.273438 39.726562 C 59.039062 41.035156 56.796875 41.046875 55.121094 41.097656 C 55.125 41.09375 55.128906 41.085938 55.132812 41.082031 C 55.140625 41.070312 55.144531 41.058594 55.148438 41.046875 C 55.308594 40.726562 55.160156 37.210938 55.160156 36.453125 C 55.21875 29.679688 55.230469 22.902344 55.203125 16.125 C 55.210938 14.425781 55.207031 12.726562 55.195312 11.023438 C 55.171875 9.613281 55.066406 8.164062 55.222656 6.757812 C 55.324219 5.871094 55.566406 5.050781 56.132812 4.34375 C 57.257812 2.933594 59.085938 2.753906 60.757812 2.566406 Z M 60.757812 2.566406 "/>
<path style=" stroke:none;fill-rule:nonzero;fill:rgb(96.470588%,70.588237%,0%);fill-opacity:1;" d="M 29.109375 24.839844 C 28.992188 21.402344 29.285156 18.789062 31.726562 16.15625 C 33.984375 13.722656 37.207031 12.484375 40.476562 12.375 C 43.632812 12.265625 46.851562 13.15625 49.195312 15.355469 C 51.253906 17.292969 52.292969 19.644531 52.378906 22.46875 C 52.398438 23.070312 52.390625 23.679688 52.390625 24.285156 C 52.394531 25.390625 52.488281 26.546875 51.671875 27.417969 C 51.035156 28.097656 50.214844 28.242188 49.320312 28.265625 C 47.648438 28.308594 45.960938 28.269531 44.289062 28.269531 L 34.972656 28.269531 C 35.175781 30.347656 34.980469 32.433594 36.773438 33.914062 C 38.164062 35.0625 40.191406 35.339844 41.9375 35.164062 C 43.308594 35.027344 44.824219 34.496094 45.71875 33.394531 C 46.242188 32.75 46.730469 31.511719 46.625 30.679688 C 46.621094 30.640625 46.609375 30.613281 46.59375 30.578125 C 48.070312 30.59375 49.824219 30.535156 50.945312 31.675781 C 51.5 32.242188 51.738281 33.003906 51.726562 33.789062 C 51.710938 35.046875 51.007812 36.171875 50.128906 37.023438 C 47.730469 39.347656 44.003906 40.226562 40.75 40.160156 C 37.289062 40.089844 33.996094 38.949219 31.566406 36.40625 C 30.097656 34.863281 29.136719 32.613281 29.148438 30.472656 C 29.09375 28.597656 29.214844 26.710938 29.109375 24.839844 Z M 40.511719 17.238281 C 38.890625 17.371094 37.28125 17.847656 36.195312 19.136719 C 35.015625 20.53125 35.175781 22.09375 34.96875 23.773438 L 41.382812 23.773438 L 45.03125 23.765625 C 45.597656 23.765625 46.195312 23.714844 46.757812 23.761719 C 46.976562 23.359375 46.621094 21.265625 46.476562 20.769531 C 46.113281 19.539062 45.246094 18.558594 44.125 17.953125 C 43.09375 17.394531 41.675781 17.113281 40.511719 17.238281 Z M 40.511719 17.238281 "/>
<path style=" stroke:none;fill-rule:nonzero;fill:rgb(25.882354%,52.156866%,96.470588%);fill-opacity:1;" d="M 19.679688 30.542969 C 15.847656 30.472656 11.992188 30.511719 8.15625 30.539062 C 7.042969 30.546875 5.933594 30.609375 4.820312 30.597656 C 3.699219 30.582031 2.265625 30.601562 1.429688 29.722656 C 0.960938 29.226562 0.796875 28.546875 0.8125 27.882812 C 0.832031 27.207031 1.039062 26.621094 1.417969 26.066406 C 1.867188 25.402344 2.402344 24.796875 2.910156 24.179688 L 5.144531 21.46875 L 12.28125 12.792969 L 17.53125 6.394531 C 18.511719 5.191406 19.433594 3.855469 20.5625 2.789062 C 21.359375 2.035156 22.324219 1.726562 23.417969 1.761719 C 24.191406 1.789062 24.957031 2.046875 25.492188 2.628906 C 25.917969 3.09375 26.140625 3.691406 26.226562 4.3125 C 26.371094 5.378906 26.292969 6.488281 26.285156 7.5625 L 26.28125 11.882812 L 26.28125 20.046875 C 26.28125 21.671875 26.324219 23.289062 26.257812 24.910156 C 27.207031 24.921875 28.160156 24.949219 29.109375 24.839844 C 29.214844 26.710938 29.09375 28.597656 29.148438 30.472656 C 28.179688 30.5625 27.167969 30.578125 26.195312 30.558594 C 26.246094 30.855469 26.277344 31.15625 26.285156 31.457031 C 26.316406 32.21875 26.28125 32.984375 26.285156 33.746094 C 26.289062 35.453125 26.472656 37.429688 25.210938 38.78125 C 23.851562 40.246094 21.53125 40.246094 19.683594 40.304688 C 19.644531 37.050781 19.6875 33.792969 19.679688 30.542969 Z M 21.601562 9.867188 C 21.023438 10.453125 20.523438 11.152344 20.007812 11.796875 L 17.410156 15.046875 L 11.988281 21.785156 C 11.285156 22.65625 10.550781 23.507812 9.855469 24.386719 C 9.75 24.523438 9.636719 24.667969 9.613281 24.84375 L 9.664062 24.902344 L 9.800781 24.910156 C 11.980469 24.84375 14.175781 24.867188 16.355469 24.890625 C 17.566406 24.902344 18.894531 25.023438 20.09375 24.847656 C 19.851562 21.925781 20.066406 18.984375 20.058594 16.058594 C 20.058594 15.554688 19.9375 13.253906 20.003906 12.921875 C 20.132812 12.277344 20.710938 11.671875 21.097656 11.160156 C 21.359375 10.820312 21.886719 10.289062 21.601562 9.867188 Z M 21.601562 9.867188 "/>
</g>
</svg>
