<?xml version="1.0" encoding="UTF-8"?>
<svg xmlns="http://www.w3.org/2000/svg" xmlns:xlink="http://www.w3.org/1999/xlink" width="42px" height="18px" viewBox="0 0 41 18" version="1.1">
<g id="surface1">
<path style=" stroke:none;fill-rule:nonzero;fill:rgb(86.666667%,26.27451%,23.137255%);fill-opacity:1;" d="M 35.359375 5.558594 L 35.4375 5.566406 C 35.53125 5.679688 35.480469 6.820312 35.414062 6.980469 C 35.332031 7.167969 34.988281 7.476562 35 7.660156 L 35.027344 7.679688 C 35.070312 7.671875 35.097656 7.644531 35.125 7.609375 C 35.226562 7.5 35.308594 7.367188 35.402344 7.246094 C 35.628906 6.957031 35.875 6.6875 36.15625 6.449219 C 36.898438 5.824219 37.863281 5.480469 38.828125 5.578125 C 39.28125 5.625 39.734375 5.8125 40.027344 6.179688 C 40.292969 6.515625 40.390625 6.949219 40.34375 7.375 C 40.320312 7.625 40.253906 7.957031 40.050781 8.125 C 40.027344 8.089844 39.972656 8.066406 39.941406 8.046875 C 39.210938 7.660156 38.125 7.695312 37.359375 7.945312 C 36.535156 8.214844 35.835938 8.867188 35.652344 9.753906 C 35.558594 10.195312 35.574219 10.660156 35.578125 11.109375 C 35.582031 11.285156 35.621094 11.605469 35.539062 11.753906 C 35.539062 11.757812 35.535156 11.761719 35.53125 11.765625 C 35.585938 11.84375 35.582031 11.957031 35.585938 12.046875 C 35.617188 12.640625 35.574219 13.226562 35.574219 13.816406 L 35.574219 14.992188 C 35.578125 15.308594 35.59375 15.632812 35.535156 15.945312 C 35.488281 16.1875 35.390625 16.414062 35.222656 16.601562 C 34.703125 17.183594 33.746094 17.1875 33.03125 17.222656 C 33.097656 17.113281 33.097656 16.90625 33.101562 16.78125 C 33.109375 16.464844 33.089844 16.144531 33.085938 15.832031 C 33.078125 15.460938 33.085938 15.09375 33.085938 14.726562 L 33.085938 8.371094 C 33.085938 7.964844 33.074219 7.554688 33.136719 7.152344 C 33.191406 6.8125 33.304688 6.488281 33.53125 6.226562 C 33.988281 5.6875 34.707031 5.609375 35.359375 5.558594 Z M 35.359375 5.558594 "/>
<path style=" stroke:none;fill-rule:nonzero;fill:rgb(5.098039%,62.352941%,34.509804%);fill-opacity:1;" d="M 24.910156 1.074219 C 24.976562 1.070312 25.035156 1.070312 25.101562 1.078125 C 25.128906 1.492188 25.105469 1.925781 25.105469 2.347656 L 25.109375 4.757812 L 25.109375 8.367188 C 25.109375 8.976562 25.125 9.589844 25.109375 10.199219 C 25.105469 10.261719 25.097656 10.304688 25.066406 10.359375 C 25.234375 10.265625 25.386719 10.078125 25.527344 9.941406 L 26.242188 9.269531 C 27.226562 8.363281 28.195312 7.445312 29.160156 6.515625 C 29.425781 6.261719 29.710938 6.03125 29.976562 5.773438 C 30.042969 5.710938 30.125 5.640625 30.167969 5.558594 C 30.496094 5.71875 30.925781 6.230469 31.074219 6.570312 C 31.167969 6.789062 31.183594 7.007812 31.097656 7.234375 C 31.035156 7.398438 30.921875 7.558594 30.808594 7.691406 C 30.328125 8.246094 29.757812 8.714844 29.226562 9.214844 C 28.976562 9.445312 28.292969 10.164062 28.027344 10.285156 C 28.132812 10.332031 28.230469 10.5 28.300781 10.597656 C 28.554688 10.953125 28.789062 11.328125 29.039062 11.691406 L 30.707031 14.148438 L 31.652344 15.535156 C 31.851562 15.828125 32.070312 16.121094 32.242188 16.433594 C 32.246094 16.464844 32.246094 16.496094 32.238281 16.527344 C 32.191406 16.65625 32.035156 16.820312 31.917969 16.878906 C 31.914062 16.890625 31.910156 16.898438 31.902344 16.90625 C 31.757812 17.074219 31.394531 17.160156 31.183594 17.179688 C 30.828125 17.210938 30.457031 17.167969 30.15625 16.945312 C 29.644531 16.570312 28.90625 15.242188 28.519531 14.652344 L 27.160156 12.570312 C 27.023438 12.359375 26.746094 11.835938 26.585938 11.699219 C 26.5625 11.761719 25.21875 13.027344 25.082031 13.097656 C 25.101562 13.152344 25.101562 13.203125 25.101562 13.257812 C 25.113281 13.652344 25.101562 14.046875 25.101562 14.445312 C 25.105469 14.9375 25.152344 15.480469 25.042969 15.96875 C 24.988281 16.210938 24.882812 16.445312 24.710938 16.628906 C 24.207031 17.175781 23.285156 17.183594 22.601562 17.203125 C 22.601562 17.203125 22.601562 17.199219 22.605469 17.195312 C 22.605469 17.191406 22.609375 17.1875 22.609375 17.183594 C 22.675781 17.046875 22.617188 15.578125 22.617188 15.261719 C 22.640625 12.421875 22.644531 9.585938 22.632812 6.75 C 22.636719 6.039062 22.636719 5.328125 22.628906 4.613281 C 22.621094 4.023438 22.578125 3.417969 22.640625 2.828125 C 22.683594 2.457031 22.78125 2.113281 23.015625 1.820312 C 23.476562 1.226562 24.226562 1.152344 24.910156 1.074219 Z M 24.910156 1.074219 "/>
<path style=" stroke:none;fill-rule:nonzero;fill:rgb(96.470588%,70.588235%,0%);fill-opacity:1;" d="M 11.933594 10.398438 C 11.886719 8.957031 12.007812 7.863281 13.007812 6.761719 C 13.933594 5.746094 15.253906 5.226562 16.59375 5.179688 C 17.890625 5.132812 19.207031 5.507812 20.167969 6.429688 C 21.015625 7.238281 21.441406 8.222656 21.476562 9.40625 C 21.484375 9.65625 21.480469 9.910156 21.480469 10.164062 C 21.480469 10.628906 21.519531 11.113281 21.1875 11.476562 C 20.925781 11.761719 20.585938 11.820312 20.222656 11.832031 C 19.535156 11.851562 18.84375 11.835938 18.15625 11.835938 L 14.339844 11.832031 C 14.421875 12.703125 14.339844 13.578125 15.078125 14.195312 C 15.648438 14.675781 16.480469 14.792969 17.195312 14.71875 C 17.753906 14.660156 18.378906 14.441406 18.746094 13.976562 C 18.960938 13.710938 19.160156 13.191406 19.117188 12.84375 C 19.113281 12.824219 19.109375 12.816406 19.101562 12.800781 C 19.710938 12.804688 20.429688 12.78125 20.886719 13.257812 C 21.117188 13.496094 21.210938 13.816406 21.207031 14.144531 C 21.199219 14.671875 20.914062 15.140625 20.554688 15.496094 C 19.570312 16.472656 18.042969 16.839844 16.707031 16.8125 C 15.289062 16.78125 13.9375 16.304688 12.941406 15.238281 C 12.339844 14.59375 11.945312 13.652344 11.949219 12.753906 C 11.929688 11.972656 11.976562 11.183594 11.933594 10.398438 Z M 16.609375 7.214844 C 15.945312 7.273438 15.285156 7.472656 14.839844 8.011719 C 14.355469 8.59375 14.421875 9.25 14.335938 9.953125 L 16.964844 9.953125 L 18.460938 9.949219 C 18.695312 9.949219 18.941406 9.925781 19.171875 9.945312 C 19.261719 9.777344 19.117188 8.902344 19.054688 8.695312 C 18.90625 8.179688 18.550781 7.769531 18.089844 7.515625 C 17.667969 7.28125 17.085938 7.164062 16.609375 7.214844 Z M 16.609375 7.214844 "/>
<path style=" stroke:none;fill-rule:nonzero;fill:rgb(25.882353%,52.156863%,96.470588%);fill-opacity:1;" d="M 8.070312 12.785156 C 6.496094 12.757812 4.917969 12.773438 3.34375 12.785156 C 2.886719 12.789062 2.433594 12.8125 1.976562 12.808594 C 1.515625 12.800781 0.929688 12.808594 0.585938 12.441406 C 0.394531 12.234375 0.324219 11.949219 0.332031 11.671875 C 0.339844 11.390625 0.425781 11.144531 0.582031 10.910156 C 0.765625 10.632812 0.984375 10.378906 1.191406 10.121094 L 2.109375 8.988281 L 5.035156 5.355469 L 7.1875 2.675781 C 7.589844 2.175781 7.96875 1.613281 8.429688 1.167969 C 8.757812 0.851562 9.152344 0.722656 9.601562 0.738281 C 9.917969 0.75 10.234375 0.855469 10.453125 1.101562 C 10.628906 1.292969 10.71875 1.546875 10.753906 1.804688 C 10.8125 2.25 10.78125 2.714844 10.777344 3.164062 L 10.773438 4.972656 L 10.773438 8.390625 C 10.773438 9.070312 10.792969 9.75 10.765625 10.429688 C 11.15625 10.433594 11.546875 10.445312 11.933594 10.398438 C 11.976562 11.183594 11.929688 11.972656 11.949219 12.753906 C 11.554688 12.792969 11.136719 12.800781 10.738281 12.792969 C 10.761719 12.914062 10.773438 13.042969 10.777344 13.167969 C 10.789062 13.484375 10.773438 13.808594 10.777344 14.125 C 10.777344 14.839844 10.855469 15.667969 10.335938 16.234375 C 9.777344 16.847656 8.828125 16.847656 8.070312 16.871094 C 8.054688 15.511719 8.070312 14.148438 8.070312 12.785156 Z M 8.855469 4.128906 C 8.617188 4.375 8.414062 4.667969 8.203125 4.9375 L 7.136719 6.296875 L 4.914062 9.117188 C 4.628906 9.484375 4.324219 9.839844 4.042969 10.207031 C 3.996094 10.265625 3.949219 10.328125 3.941406 10.398438 L 3.960938 10.425781 L 4.019531 10.425781 C 4.914062 10.398438 5.8125 10.410156 6.707031 10.417969 C 7.203125 10.425781 7.746094 10.472656 8.238281 10.402344 C 8.140625 9.179688 8.226562 7.945312 8.222656 6.722656 C 8.222656 6.511719 8.175781 5.546875 8.203125 5.410156 C 8.253906 5.140625 8.492188 4.886719 8.652344 4.671875 C 8.757812 4.53125 8.972656 4.308594 8.855469 4.128906 Z M 8.855469 4.128906 "/>
</g>
</svg>
