<?xml version="1.0" encoding="utf-8" ?>
<svg xmlns="http://www.w3.org/2000/svg" xmlns:xlink="http://www.w3.org/1999/xlink" width="754" height="527">
	<path fill="#DC4439" transform="scale(0.999735 1)" d="M651.585 222.253C652.055 222.253 652.484 222.321 652.948 222.389C653.418 225.368 653.499 244.592 652.53 246.418C652.355 249.345 645.31 254.738 644.683 258.851C644.569 259.601 644.703 259.736 645.104 260.325C646.514 260.124 648.336 257.155 649.208 256.013C653.997 249.735 659.206 243.987 665.177 238.797C678.286 227.404 696.213 221.195 713.577 222.513C722.027 223.154 730.426 226.216 735.984 232.858C740.951 238.795 742.9 246.639 742.169 254.277C741.788 258.268 740.244 265.059 736.996 267.714C736.615 267.304 736.438 267.195 735.949 266.939C722.539 259.928 702.469 259.831 688.274 264.273C672.981 269.058 659.426 281.117 656.244 297.314C654.65 305.426 655.065 314.038 655.092 322.268C655.1 324.711 655.682 329.739 654.518 331.813C654.483 331.877 654.441 331.937 654.402 331.999C654.814 332.658 654.97 333.247 655.017 334.019C655.727 345.666 655.029 358.7 655.039 370.505L655.072 391.309C655.076 396.54 655.372 402.006 654.42 407.169C653.621 411.5 651.804 415.55 648.811 418.81C639.414 429.043 622.287 429.304 609.42 429.923C609.45 429.863 609.48 429.803 609.512 429.744C609.98 428.873 610.045 428.156 610.091 427.181C610.355 421.487 610.127 415.717 610.1 410.015L610.097 382.66L610.103 292.268L610.076 268.799C610.071 262.454 609.821 255.946 610.889 249.669C611.824 244.176 614.285 238.205 617.985 233.989C626.333 224.477 639.772 223.029 651.585 222.253Z"/>
	<path fill="#0E9E58" transform="scale(0.999735 1)" d="M460.796 142.318L464.086 142.111L464.127 307.868C466.384 305.322 469.063 303.175 471.582 300.895L484.452 289.11C503.003 271.901 521.908 255.028 540.242 237.595C545.574 232.525 551.991 227.989 556.702 222.326C560.321 223.611 569.014 233.489 571.166 236.843C573.773 240.907 575.081 245.302 573.994 250.098C573.224 253.493 570.908 256.75 568.682 259.354C560.618 268.787 550.426 276.754 541.339 285.172L528.993 296.497C525.418 299.836 521.962 303.671 517.812 306.28C522.328 311.398 525.999 317.593 529.897 323.21L550.655 353.062L580.747 396.36C585.147 402.686 589.777 408.947 593.985 415.398C594.278 415.847 594.339 416.193 594.406 416.713C594.408 416.819 594.423 416.926 594.41 417.031C594.191 418.758 591.394 421.626 589.978 422.594C589.552 423.618 587.973 424.663 587.044 425.264C580.779 429.32 572.085 430.45 564.904 428.887C560.745 427.982 556.944 426.063 553.917 423.06C546.118 415.323 536.275 398.672 529.842 389.025C517.078 369.885 504.087 350.854 491.629 331.515C485.468 336.637 479.599 342.259 473.742 347.732C470.585 350.682 467.494 354.012 463.903 356.428L463.953 384.266C463.973 392.032 464.615 400.478 462.835 408.076C461.81 412.456 459.866 416.478 456.687 419.696C447.774 428.718 431.095 429.501 419.153 429.645C418.863 409.559 419.096 389.438 419.1 369.348L419.1 259.591L419.097 202.718C419.097 192.494 418.391 181.64 419.546 171.492C420.229 165.488 422.5 159.735 426.457 155.138C435.21 144.967 448.244 143.34 460.796 142.318Z"/>
	<path fill="#F5B400" transform="scale(0.999735 1)" d="M223.946 308.664C223.781 280.883 224.305 263.555 244.952 242.617C262.959 224.357 286.849 215.527 312.325 215.38C335.623 215.245 359.21 223.023 375.956 239.613C390.979 254.496 397.668 272.093 397.729 293.105Q397.691 299.429 397.75 305.752C397.823 313.778 398.459 321.631 392.303 327.815Q391.784 328.343 391.227 328.829Q390.669 329.315 390.075 329.757Q389.482 330.199 388.856 330.594Q388.231 330.989 387.577 331.335Q386.923 331.681 386.244 331.975Q385.566 332.27 384.867 332.512Q384.167 332.753 383.452 332.941Q382.736 333.128 382.008 333.26C376.413 334.252 370.607 333.95 364.947 333.936L344.102 333.927L269.216 333.929C268.668 333.925 268.126 333.894 267.58 333.857C268.49 349.499 267.205 364.11 280.198 375.724C289.944 384.437 304.705 386.645 317.366 385.852C328.386 385.162 339.8 382.151 347.383 373.608C353.36 366.875 354.732 360.1 355.297 351.443C366.652 351.588 378.57 350.989 387.256 359.824C391.491 364.131 392.948 369.601 392.855 375.53C392.71 384.727 387.315 393.184 380.852 399.387C362.888 416.627 334.323 423.212 310.128 422.666C284.789 422.093 260.378 413.713 242.683 395.094C230.584 382.363 225.043 367.752 224.054 350.375C223.635 336.508 223.974 322.543 223.946 308.664ZM311.712 251.347C298.883 251.751 286.697 254.912 277.587 264.657C267.545 275.399 268.473 287.136 267.576 300.558L313.124 300.578L356.43 300.545C355.981 286.481 355.849 273.34 344.776 262.933C335.574 254.285 323.94 251.609 311.712 251.347Z"/>
	<path fill="#4285F5" transform="scale(0.999735 1)" d="M153.339 351.029C143.12 350.614 132.764 350.962 122.53 350.959L63.4028 350.952C52.8982 350.958 42.0165 351.634 31.5604 350.841C25.7655 350.402 20.0667 348.743 16.1929 344.142C12.6579 339.943 11.645 334.818 12.189 329.457C12.6374 325.039 14.3741 320.904 16.9466 317.304C20.2224 312.72 24.0082 308.415 27.5882 304.066L45.7094 282.096L101.768 214.121L140.829 166.63C146.596 159.606 155.656 147.126 162.413 141.622C167.817 137.22 176.564 135.673 183.343 136.382C188.961 136.969 193.845 139.282 197.42 143.728Q197.902 144.328 198.34 144.961Q198.777 145.594 199.169 146.257Q199.56 146.919 199.903 147.608Q200.246 148.297 200.538 149.009Q200.831 149.721 201.072 150.452Q201.313 151.183 201.501 151.929Q201.689 152.676 201.823 153.434Q201.957 154.191 202.037 154.957C203.023 163.617 202.408 172.762 202.401 181.495L202.381 229.94L202.39 281.716C202.391 290.615 203.01 300.035 202.118 308.874C209.117 309.24 216.991 309.395 223.946 308.664C223.974 322.543 223.635 336.508 224.054 350.375C216.704 351.102 209.31 351.003 201.932 351.049C202.909 357.344 202.402 364.209 202.382 370.584C202.362 377.285 202.584 384.033 202.404 390.726C202.181 399.076 199.668 407.567 193.417 413.396C183.276 422.852 166.661 423.961 153.484 423.56L153.515 380.166C153.519 370.467 153.7 360.721 153.339 351.029ZM167.491 196.57C164.007 199.982 161.057 204.057 158.008 207.862L144.25 225.001L104.032 274.944L86.142 296.981C83.2566 300.55 79.7547 304.216 77.4818 308.196L77.7261 308.774L78.6961 308.969L129.548 308.947C138.377 308.947 147.414 309.329 156.222 308.825C155.523 291.549 156.051 274.06 156.058 256.766L156.066 229.556C156.064 226.111 155.774 222.535 155.912 219.113C155.941 218.405 156.151 217.818 156.433 217.173C159.003 211.312 167.164 204.009 168.663 199.193C168.867 198.537 168.666 198.175 168.485 197.533L167.491 196.57Z"/>
</svg>
