<?xml version="1.0" encoding="UTF-8"?>
<svg xmlns="http://www.w3.org/2000/svg" xmlns:xlink="http://www.w3.org/1999/xlink" width="150px" height="64px" viewBox="0 0 149 64" version="1.1">
<g id="surface1">
<path style=" stroke:none;fill-rule:nonzero;fill:rgb(86.666667%,26.27451%,23.137255%);fill-opacity:1;" d="M 128.503906 19.769531 L 128.789062 19.785156 C 129.128906 20.191406 128.941406 24.257812 128.695312 24.816406 C 128.402344 25.480469 127.152344 26.582031 127.191406 27.238281 L 127.292969 27.304688 C 127.449219 27.28125 127.546875 27.175781 127.652344 27.0625 C 128.011719 26.664062 128.3125 26.191406 128.652344 25.769531 C 129.480469 24.738281 130.375 23.777344 131.398438 22.933594 C 134.09375 20.710938 137.597656 19.492188 141.105469 19.839844 C 142.757812 20.003906 144.394531 20.660156 145.464844 21.980469 C 146.433594 23.171875 146.785156 24.707031 146.621094 26.21875 C 146.523438 27.109375 146.285156 28.292969 145.550781 28.886719 C 145.46875 28.769531 145.273438 28.679688 145.148438 28.613281 C 142.5 27.234375 138.558594 27.355469 135.773438 28.246094 C 132.78125 29.207031 130.230469 31.53125 129.5625 34.679688 C 129.230469 36.246094 129.277344 37.90625 129.300781 39.503906 C 129.308594 40.128906 129.449219 41.257812 129.15625 41.785156 C 129.148438 41.800781 129.140625 41.816406 129.132812 41.828125 C 129.324219 42.109375 129.3125 42.511719 129.328125 42.839844 C 129.433594 44.941406 129.28125 47.023438 129.28125 49.125 L 129.289062 53.304688 C 129.289062 54.425781 129.351562 55.582031 129.140625 56.6875 C 128.972656 57.554688 128.609375 58.367188 128.007812 59.023438 C 126.117188 61.089844 122.640625 61.105469 120.035156 61.230469 C 120.285156 60.847656 120.277344 60.109375 120.292969 59.664062 C 120.332031 58.539062 120.257812 57.410156 120.238281 56.285156 C 120.214844 54.980469 120.238281 53.667969 120.238281 52.359375 L 120.238281 34.707031 L 120.234375 29.761719 C 120.234375 28.316406 120.191406 26.859375 120.425781 25.425781 C 120.625 24.21875 121.039062 23.0625 121.851562 22.132812 C 123.515625 20.222656 126.125 19.9375 128.503906 19.769531 Z M 128.503906 19.769531 "/>
<path style=" stroke:none;fill-rule:nonzero;fill:rgb(5.098039%,62.352941%,34.509804%);fill-opacity:1;" d="M 90.527344 3.824219 C 90.765625 3.800781 90.980469 3.804688 91.21875 3.828125 C 91.324219 5.3125 91.242188 6.851562 91.242188 8.339844 L 91.246094 16.914062 L 91.25 29.753906 C 91.25 31.917969 91.308594 34.105469 91.246094 36.269531 C 91.238281 36.484375 91.210938 36.644531 91.09375 36.828125 C 91.707031 36.496094 92.253906 35.832031 92.765625 35.355469 L 95.371094 32.964844 C 98.9375 29.734375 102.472656 26.464844 105.972656 23.164062 C 106.941406 22.265625 107.972656 21.4375 108.933594 20.535156 C 109.175781 20.308594 109.472656 20.054688 109.628906 19.761719 C 110.824219 20.328125 112.390625 22.152344 112.925781 23.359375 C 113.269531 24.132812 113.324219 24.917969 113.015625 25.714844 C 112.785156 26.3125 112.382812 26.875 111.960938 27.351562 C 110.222656 29.316406 108.140625 30.992188 106.207031 32.757812 C 105.300781 33.589844 102.824219 36.140625 101.851562 36.570312 C 102.242188 36.738281 102.597656 37.339844 102.847656 37.679688 C 103.773438 38.949219 104.628906 40.28125 105.527344 41.570312 L 111.59375 50.308594 L 115.027344 55.238281 C 115.753906 56.28125 116.546875 57.320312 117.171875 58.425781 C 117.191406 58.546875 117.195312 58.652344 117.152344 58.765625 C 116.988281 59.21875 116.425781 59.800781 115.996094 60.015625 C 115.988281 60.054688 115.972656 60.078125 115.945312 60.109375 C 115.40625 60.703125 114.09375 61.011719 113.332031 61.082031 C 112.03125 61.195312 110.683594 61.039062 109.597656 60.257812 C 107.730469 58.910156 105.042969 54.195312 103.644531 52.09375 L 98.703125 44.699219 C 98.207031 43.945312 97.195312 42.078125 96.621094 41.597656 C 96.53125 41.816406 91.648438 46.320312 91.160156 46.574219 C 91.21875 46.761719 91.21875 46.941406 91.226562 47.136719 C 91.273438 48.539062 91.226562 49.949219 91.226562 51.355469 C 91.230469 53.117188 91.410156 55.046875 91.007812 56.773438 C 90.808594 57.640625 90.421875 58.472656 89.808594 59.125 C 87.96875 61.074219 84.628906 61.089844 82.132812 61.171875 C 82.136719 61.160156 82.144531 61.152344 82.148438 61.144531 C 82.15625 61.128906 82.164062 61.113281 82.171875 61.09375 C 82.410156 60.617188 82.1875 55.382812 82.1875 54.257812 C 82.273438 44.171875 82.296875 34.085938 82.253906 24.003906 C 82.265625 21.472656 82.257812 18.941406 82.238281 16.410156 C 82.207031 14.308594 82.050781 12.152344 82.285156 10.058594 C 82.429688 8.738281 82.796875 7.515625 83.636719 6.464844 C 85.316406 4.367188 88.039062 4.097656 90.527344 3.824219 Z M 90.527344 3.824219 "/>
<path style=" stroke:none;fill-rule:nonzero;fill:rgb(96.470588%,70.588235%,0%);fill-opacity:1;" d="M 43.375 36.972656 C 43.195312 31.851562 43.636719 27.964844 47.273438 24.046875 C 50.632812 20.425781 55.4375 18.582031 60.308594 18.417969 C 65.011719 18.253906 69.808594 19.582031 73.300781 22.855469 C 76.371094 25.738281 77.914062 29.238281 78.042969 33.4375 C 78.074219 34.339844 78.0625 35.242188 78.0625 36.144531 C 78.066406 37.789062 78.207031 39.511719 76.992188 40.808594 C 76.046875 41.820312 74.820312 42.035156 73.488281 42.070312 C 70.996094 42.136719 68.484375 42.078125 65.988281 42.078125 L 52.105469 42.074219 C 52.414062 45.167969 52.117188 48.277344 54.792969 50.476562 C 56.863281 52.183594 59.886719 52.597656 62.484375 52.335938 C 64.527344 52.132812 66.789062 51.339844 68.125 49.699219 C 68.902344 48.746094 69.625 46.902344 69.472656 45.664062 C 69.464844 45.601562 69.449219 45.5625 69.421875 45.507812 C 71.625 45.53125 74.238281 45.445312 75.90625 47.144531 C 76.734375 47.988281 77.089844 49.125 77.074219 50.289062 C 77.046875 52.164062 76.003906 53.835938 74.695312 55.105469 C 71.117188 58.566406 65.5625 59.871094 60.714844 59.773438 C 55.558594 59.667969 50.652344 57.972656 47.035156 54.183594 C 44.847656 51.890625 43.414062 48.542969 43.429688 45.351562 C 43.351562 42.566406 43.53125 39.757812 43.375 36.972656 Z M 60.363281 25.660156 C 57.945312 25.855469 55.550781 26.566406 53.929688 28.480469 C 52.175781 30.558594 52.414062 32.882812 52.105469 35.382812 L 61.660156 35.386719 L 67.09375 35.371094 C 67.9375 35.371094 68.832031 35.296875 69.667969 35.367188 C 69.996094 34.765625 69.46875 31.652344 69.25 30.914062 C 68.707031 29.082031 67.417969 27.625 65.746094 26.71875 C 64.210938 25.890625 62.097656 25.46875 60.363281 25.660156 Z M 60.363281 25.660156 "/>
<path style=" stroke:none;fill-rule:nonzero;fill:rgb(25.882353%,52.156863%,96.470588%);fill-opacity:1;" d="M 29.324219 45.457031 C 23.609375 45.355469 17.867188 45.414062 12.152344 45.453125 C 10.496094 45.464844 8.839844 45.558594 7.183594 45.539062 C 5.511719 45.515625 3.375 45.546875 2.132812 44.242188 C 1.429688 43.503906 1.183594 42.488281 1.210938 41.5 C 1.242188 40.496094 1.550781 39.621094 2.113281 38.796875 C 2.78125 37.808594 3.578125 36.90625 4.335938 35.988281 L 7.667969 31.953125 L 18.300781 19.039062 L 26.121094 9.519531 C 27.585938 7.730469 28.957031 5.738281 30.640625 4.148438 C 31.828125 3.027344 33.265625 2.570312 34.890625 2.621094 C 36.042969 2.660156 37.1875 3.046875 37.984375 3.910156 C 38.621094 4.605469 38.953125 5.496094 39.078125 6.417969 C 39.292969 8.003906 39.175781 9.65625 39.164062 11.253906 L 39.15625 17.6875 L 39.15625 29.835938 C 39.15625 32.253906 39.21875 34.664062 39.121094 37.078125 C 40.539062 37.09375 41.960938 37.132812 43.375 36.972656 C 43.53125 39.757812 43.351562 42.566406 43.429688 45.351562 C 41.988281 45.488281 40.476562 45.515625 39.027344 45.480469 C 39.105469 45.921875 39.152344 46.371094 39.164062 46.820312 C 39.207031 47.949219 39.15625 49.09375 39.164062 50.226562 C 39.171875 52.765625 39.445312 55.710938 37.566406 57.722656 C 35.539062 59.898438 32.082031 59.898438 29.328125 59.988281 C 29.269531 55.148438 29.332031 50.300781 29.324219 45.457031 Z M 32.1875 14.683594 C 31.324219 15.558594 30.582031 16.597656 29.8125 17.558594 L 25.941406 22.394531 L 17.863281 32.421875 C 16.816406 33.71875 15.71875 34.988281 14.6875 36.296875 C 14.527344 36.496094 14.359375 36.71875 14.320312 36.976562 L 14.398438 37.066406 L 14.605469 37.074219 C 17.851562 36.972656 21.121094 37.011719 24.371094 37.046875 C 26.175781 37.066406 28.152344 37.242188 29.941406 36.980469 C 29.582031 32.636719 29.902344 28.257812 29.886719 23.902344 C 29.886719 23.152344 29.707031 19.722656 29.804688 19.230469 C 30 18.273438 30.859375 17.371094 31.4375 16.609375 C 31.824219 16.105469 32.613281 15.316406 32.1875 14.683594 Z M 32.1875 14.683594 "/>
</g>
</svg>
