<?xml version="1.0" encoding="utf-8" ?>
<svg xmlns="http://www.w3.org/2000/svg" xmlns:xlink="http://www.w3.org/1999/xlink" width="1813" height="1295">
	<path fill="#C3C3C3" transform="matrix(1.2643 0 0 1.26465 0.00012207 -6.10352e-05)" d="M0 0L1432.77 0C1433.55 1.35287 1433.84 2.273 1433.92 3.82991C1434.39 14.2948 1434 24.9358 1434 35.4235L1434 96.5893L1434.01 282.797L1434 835.994L1434 973.892C1434.01 983.184 1435.15 1015.65 1433.74 1021.9C1433.56 1022.7 1433.19 1023.31 1432.77 1024L0 1024L0 0Z"/>
	<path fill="#A9A9A9" transform="matrix(1.2643 0 0 1.26465 0.00012207 -6.10352e-05)" d="M490.289 249.945C488.99 243.892 490.034 235.812 490.03 229.502L490.051 177.222L490.18 122.742C490.189 113.459 489.502 103.525 490.488 94.3204C491.062 88.9706 494.644 83.8366 498.741 80.5381C496.665 118.852 499.8 157.639 498.578 196.01C498.022 212.377 499.932 234.146 498.13 249.433C495.46 250.064 493.002 250.014 490.289 249.945Z"/>
	<path fill="#A9A9A9" transform="matrix(1.2643 0 0 1.26465 0.00012207 -6.10352e-05)" d="M134.237 517.727C133.635 517.256 132.886 516.714 132.432 516.098C131.23 514.468 131.202 511.714 131.124 509.746C130.654 497.922 131.341 485.749 131.299 473.881L130.962 387.219L130.771 216.954L130.801 169.488C130.818 159.049 130.149 148.072 131.902 137.752C132.42 137.261 132.911 136.772 133.542 136.422C135.387 135.4 380.003 135.388 399.308 136.018C403.382 136.151 407.73 136.336 411.624 137.602C414.637 143.387 412.921 237.67 413.005 251.642Q413.321 279.86 412.819 308.075C401.134 305.208 392.724 306.879 381.678 311.249C374.47 310.923 366.872 312.102 359.608 312.283Q334.567 312.786 309.521 312.576L207.998 312.442C185.012 312.424 161.761 311.96 138.805 313.041C138.689 333.959 137.778 502.252 138.78 504.764C139.007 505.332 139.411 505.814 139.726 506.338C151.893 507.556 164.686 506.861 176.929 506.889C195.516 506.931 214.13 507.246 232.713 507.007Q233.96 511.979 235.12 516.972C201.535 517.692 167.785 516.359 134.237 517.727Z"/>
	<path fill="#CCC" transform="matrix(1.2643 0 0 1.26465 0.00012207 -6.10352e-05)" d="M151.404 302.322Q149.34 302.408 147.275 302.464C144.237 302.548 141.89 302.825 139.569 300.629C137.155 291.302 138.759 248.314 138.779 235.644C138.82 209.366 137.752 182.761 138.72 156.523C138.837 153.35 139.088 150.335 140.077 147.303C141.56 146.664 143.315 146.818 144.924 146.78L144.869 144.911L145.237 146.146C155.576 145.153 166.248 145.648 176.632 145.637L229.703 145.631L402.384 145.738L401.97 302.032Q388.645 301.936 375.32 302.122C363.444 302.231 351.488 302.082 339.625 302.565L315.996 302.538L188.802 302.217C176.335 302.145 163.87 302.596 151.404 302.322Z"/>
	<path fill="#A9A9A9" transform="matrix(1.2643 0 0 1.26465 0.00012207 -6.10352e-05)" d="M1039.83 139.732C1105.32 140.41 1170.92 139.551 1236.42 139.508L1280.43 139.38C1288.3 139.348 1297.54 138.356 1305.19 140.031C1306.7 142.159 1306.46 150.16 1306.5 152.986C1306.7 166.081 1305.96 179.212 1305.96 192.314L1306.03 310.302L1306.02 361.896C1306.01 369.315 1306.9 377.952 1305.75 385.207C1305.59 386.251 1305.14 387.042 1304.67 387.97C1298.98 388.694 1292.81 388.177 1287.28 389.332C1274.87 389.808 1262.31 389.492 1249.88 389.561Q1210.12 389.848 1170.35 389.637L1078.01 388.831C1062.44 388.725 1046.9 389.135 1031.33 388.722C1031.85 387.848 1032.16 387.005 1032.28 385.989C1032.91 380.543 1032.3 374.294 1032.3 368.766L1032.41 334.736L1032.51 279.575C1032.5 270.486 1032.97 261.076 1032.34 252.017C1032.23 250.416 1031.82 249.254 1030.81 248.016C1030.87 247.896 1030.93 247.775 1030.99 247.656C1033.6 242.734 1032.06 218.929 1032.25 211.842C1032.37 201.323 1034.07 167.454 1031.67 159.47L1039.18 158.996C1041.83 155.717 1041.2 145.854 1040.5 141.54C1040.38 140.851 1040.13 140.352 1039.83 139.732Z"/>
	<path fill="#CCC" transform="matrix(1.2643 0 0 1.26465 0.00012207 -6.10352e-05)" d="M1171.36 190.862L1229.67 190.626C1230.22 191.604 1230.62 192.389 1230.73 193.526C1231.3 199.365 1232.06 232.626 1229.57 235.69C1223.78 237.358 1180.09 235.986 1170.77 235.936C1173.67 230.595 1171.72 198.742 1171.36 190.862Z"/>
	<path fill="#CCC" transform="matrix(1.2643 0 0 1.26465 0.00012207 -6.10352e-05)" d="M1171.56 237.789C1190.54 237.189 1210.64 236.504 1229.58 237.886C1230.02 238.616 1230.32 239.116 1230.51 239.957C1231.34 243.571 1231.46 280.243 1230.43 283.541C1230.27 284.057 1229.45 284.939 1229.11 285.419C1223.91 287.024 1179.27 285.77 1170.59 285.776C1173.04 281.893 1171.61 245.329 1171.56 237.789Z"/>
	<path fill="#9A9A9A" transform="matrix(1.2643 0 0 1.26465 0.00012207 -6.10352e-05)" d="M1177.57 239.889C1193.03 238.917 1208.86 239.547 1224.36 239.775C1224.68 240.348 1224.87 240.604 1225.07 241.194C1226.69 245.846 1226.56 278.605 1224.61 282.619L1224.24 283.148C1219.28 284.707 1185.02 283.676 1177.01 283.725C1177.08 283.605 1177.16 283.488 1177.24 283.365C1179.49 279.416 1178.96 246.014 1177.57 239.889Z"/>
	<path fill="#CCC" transform="matrix(1.2643 0 0 1.26465 0.00012207 -6.10352e-05)" d="M1110.24 237.788C1129.56 236.71 1149.34 237.599 1168.71 237.653C1169.14 238.446 1169.44 239.028 1169.63 239.915C1170.46 243.763 1170.58 279.904 1169.7 283.62C1169.59 284.088 1168.86 284.972 1168.58 285.419C1162.74 286.38 1155.7 285.677 1149.74 285.66L1109.51 285.522C1111.65 281.44 1111.17 244.095 1110.24 237.788Z"/>
	<path fill="#CCC" transform="matrix(1.2643 0 0 1.26465 0.00012207 -6.10352e-05)" d="M1058.94 287.516C1075.15 286.8 1091.68 287.17 1107.9 287.431C1110.26 291.608 1109.23 362.559 1108.84 372.583C1107.19 373.811 1103.35 373.244 1101.23 373.263L1052.9 373.273C1057.79 365.565 1051.62 292.667 1055.21 287.951L1058.94 287.516Z"/>
	<path fill="#CCC" transform="matrix(1.2643 0 0 1.26465 0.00012207 -6.10352e-05)" d="M1209.91 287.518Q1219.84 287.738 1229.76 287.32C1230.08 287.865 1230.38 288.36 1230.55 288.975C1231.57 292.582 1231.6 361.847 1231.08 369.749C1230.99 371.057 1230.65 372.088 1230.04 373.246L1191.56 373.157L1170.79 373.125C1171.04 372.609 1171.31 372.038 1171.45 371.482C1172.76 366.379 1171.64 350.946 1171.65 344.873C1171.65 327.021 1172.78 308.417 1171.53 290.642C1171.45 289.468 1171.11 288.746 1170.55 287.735Q1190.23 287.823 1209.91 287.518Z"/>
	<path fill="#CCC" transform="matrix(1.2643 0 0 1.26465 0.00012207 -6.10352e-05)" d="M1110.37 287.517C1129.79 286.86 1149.43 287.272 1168.86 287.527C1169.52 288.529 1169.68 289.466 1169.82 290.634C1171.14 301.239 1170.02 315.648 1170.04 326.762C1170.06 339.737 1171.26 358.316 1169.87 370.71C1169.76 371.715 1169.39 372.206 1168.78 372.971C1162.88 374.573 1118.06 373.244 1109.5 373.246C1110.04 372.268 1110.44 371.459 1110.55 370.331C1111.7 358.463 1110.68 345.427 1110.68 333.435C1110.68 318.382 1111.69 302.472 1110.37 287.517Z"/>
	<path fill="#9A9A9A" transform="matrix(1.2643 0 0 1.26465 0.00012207 -6.10352e-05)" d="M1116.39 291.717C1128.79 290.012 1149.33 291.595 1162.62 291.772C1163.18 292.73 1163.55 293.489 1163.66 294.61C1164.4 301.724 1164.58 328.172 1163.66 334.973C1163.51 336.053 1163.04 336.662 1162.36 337.476C1147.49 339.007 1130.75 337.757 1115.71 337.766C1115.85 337.53 1116.01 337.301 1116.14 337.058C1117.83 333.985 1117.59 296.211 1116.39 291.717Z"/>
	<path fill="#CCC" transform="matrix(1.2643 0 0 1.26465 0.00012207 -6.10352e-05)" d="M1232.12 287.518C1251.54 286.487 1271.41 287.331 1290.88 287.324C1291.26 288.06 1291.62 288.748 1291.81 289.56C1292.45 292.293 1292.72 368.112 1291.82 371.204C1291.67 371.709 1290.87 372.591 1290.55 373.063C1284.59 373.821 1277.85 373.258 1271.82 373.267L1231.53 373.304C1232.31 372.133 1232.55 370.857 1232.62 369.469C1233.44 353.645 1232.54 337.349 1232.52 321.478C1232.51 310.604 1233.86 298.104 1232.12 287.518Z"/>
	<path fill="#9A9A9A" transform="matrix(1.2643 0 0 1.26465 0.00012207 -6.10352e-05)" d="M1239.89 291.72C1255.1 290.611 1271.24 291.566 1286.5 291.769C1286.71 292.172 1287.07 292.807 1287.21 293.275C1288.3 296.906 1288.12 331.457 1287.2 335.447C1287.09 335.912 1286.36 336.804 1286.08 337.249C1279.77 338.902 1247.21 337.864 1238.84 337.922C1241.73 333.23 1240.07 299.592 1239.89 291.72Z"/>
	<path fill="#CCC" transform="matrix(1.2643 0 0 1.26465 0.00012207 -6.10352e-05)" d="M1053.44 160.736C1060.63 160.078 1068.18 160.511 1075.4 160.527L1125.48 160.906L1291.38 160.543C1291.69 161.087 1291.99 161.596 1292.17 162.202C1293.57 166.938 1292.17 196.95 1292.14 204.313C1292.02 229.919 1292.98 255.891 1291.91 281.452C1291.84 283.063 1291.59 284.27 1290.85 285.72Q1261.25 285.89 1231.65 285.719C1232.01 285.094 1232.26 284.671 1232.41 283.957C1233.33 279.452 1233.26 251.427 1231.29 248.31C1231.65 247.716 1231.97 247.133 1232.16 246.456C1233.49 241.507 1232.99 199.305 1232.36 192.209C1232.26 191.015 1231.86 190.05 1231.24 189.045L1168.72 189.196C1169.02 189.793 1169.38 190.396 1169.57 191.039C1170.88 195.462 1170.61 232.739 1168.76 235.941L1107.64 235.895C1107.99 236.444 1108.29 236.987 1108.51 237.604C1109.93 241.575 1109.76 281.87 1108.06 285.67Q1080.51 286.309 1052.96 285.749C1053.84 284.115 1054.11 282.751 1054.18 280.897C1055.08 257.222 1054.15 233.094 1054.18 209.378C1054.19 198.294 1055.29 170.273 1053.44 160.736Z"/>
	<path fill="#CCC" transform="matrix(1.2643 0 0 1.26465 0.00012207 -6.10352e-05)" d="M138.805 313.041C161.761 311.96 185.012 312.424 207.998 312.442L309.521 312.576Q334.567 312.786 359.608 312.283C366.872 312.102 374.47 310.923 381.678 311.249C373.159 317.359 365.474 323.958 361.29 333.829C360.2 337.714 359.41 341.469 358.889 345.471C358.572 348.964 358.382 352.53 357.836 355.992C356.925 358.869 355.777 362.917 353.583 365.105C342.695 380.214 323.372 378.334 319.009 400.673L319.304 408.963C321.113 414.422 323.126 418.004 327.03 422.228C330.387 424.572 333.619 426.686 337.335 428.419C348.763 420.299 361.71 417.819 375.647 419.078C380.317 411.365 381.278 401.771 383.126 393.062L383.494 389.847C393.607 402.407 402.904 412.033 417.132 420.023C417.261 422.801 417.275 425.638 417.599 428.399C422.59 429.468 426.61 433.07 431.49 434.35C445.605 450.996 454.532 500.69 452.436 523.323C452.422 523.479 452.398 523.634 452.379 523.789C444.123 540.275 429.084 550.8 423.778 569.331C420.324 572.841 415.609 575.889 411.521 578.637C412.263 584.042 412.07 593.551 416.341 597.097C418.44 597.682 420.307 597.688 422.464 597.676C421.691 606.47 422.214 616.651 426.159 624.717C435.885 626.103 447.191 626.69 456.388 630.197L456.448 641.176L456.44 697.155C456.436 704.298 455.249 715.525 456.838 722.139C458.263 724.899 458.245 763.372 456.849 767.671C456.646 768.297 456.571 768.268 456.104 768.907Q452.504 776.502 448.676 783.985C445.63 790.435 442.483 796.861 439.64 803.403C435.101 813.41 431.148 824.252 426.055 833.934C423.334 840.07 419.664 846.799 418.287 853.349C414.068 864.067 407.48 874.491 397.116 880.216C389.214 884.592 384.128 894.787 381.149 902.896C378.246 905.542 300.974 906.833 291.48 907.211C289.82 912.079 281.356 938.108 278.139 939.678C276.817 940.323 275.123 940.019 273.705 939.911L272.728 939.13C273.148 929.009 278.876 917.587 281.695 907.769C284.603 895.975 288.305 884.331 291.603 872.636C295.283 859.581 298.563 846.501 303.148 833.715C287.6 832.117 263.272 833.335 247.048 833.675Q215.114 834.091 183.179 833.686C172.692 833.563 160.54 834.694 150.3 832.57C146.36 831.753 142.629 829.467 139.75 826.695C136.082 823.163 134.667 819.587 134.132 814.576C133.222 806.052 133.841 797.08 133.89 788.508L134.235 736.944L134.258 610.85C134.379 579.827 134.838 548.744 134.237 517.727C167.785 516.359 201.535 517.692 235.12 516.972Q233.96 511.979 232.713 507.007C214.13 507.246 195.516 506.931 176.929 506.889C164.686 506.861 151.893 507.556 139.726 506.338C139.411 505.814 139.007 505.332 138.78 504.764C137.778 502.252 138.689 333.959 138.805 313.041Z"/>
	<path fill="#E7E7EA" transform="matrix(1.2643 0 0 1.26465 0.00012207 -6.10352e-05)" d="M420.794 756.629C427.161 756.479 433.526 756.674 439.891 756.815C442.06 765.265 443.814 776.766 448.676 783.985C445.63 790.435 442.483 796.861 439.64 803.403C436.694 798.095 434.87 791.482 432.73 785.771C429.031 775.903 425.199 766.208 420.794 756.629Z"/>
	<path fill="#C3C3C3" transform="matrix(1.2643 0 0 1.26465 0.00012207 -6.10352e-05)" d="M319.009 400.673L319.304 408.963C267.333 409.895 215.206 409.022 163.217 409.034C163.149 406.3 162.817 403.473 163.781 400.873C168.765 399.53 310.471 399.521 319.009 400.673Z"/>
	<path fill="#C3C3C3" transform="matrix(1.2643 0 0 1.26465 0.00012207 -6.10352e-05)" d="M327.03 422.228C330.387 424.572 333.619 426.686 337.335 428.419C335.948 429.483 334.557 430.539 333.205 431.646C330.786 430.717 181.874 432.054 162.549 432.062L162.577 422.215L279.116 422.306Q293.968 422.27 308.817 422.564C313.877 422.693 319.916 423.566 324.894 423.009C325.736 422.914 326.288 422.604 327.03 422.228Z"/>
	<path fill="#C3C3C3" transform="matrix(1.2643 0 0 1.26465 0.00012207 -6.10352e-05)" d="M162.729 355.765L277.77 355.756C304.436 355.716 331.178 355.324 357.836 355.992C356.925 358.869 355.777 362.917 353.583 365.105C352.709 364.67 351.789 364.369 350.811 364.287C343.962 363.717 336.682 364.236 329.78 364.268L287.425 364.448Q225.288 364.016 163.154 364.787L162.729 355.765Z"/>
	<path fill="#C3C3C3" transform="matrix(1.2643 0 0 1.26465 0.00012207 -6.10352e-05)" d="M163.087 342.526C163.052 339.88 162.945 337.405 163.714 334.836C164.08 334.533 164.369 334.098 164.812 333.927C165.478 333.671 349.183 333.327 361.29 333.829C360.2 337.714 359.41 341.469 358.889 345.471L358.366 343.473C356.657 342.279 355.05 342.165 352.987 342.148C328.675 341.94 304.191 342.675 279.854 342.784L163.087 342.526Z"/>
	<path fill="#E7E7EA" transform="matrix(1.2643 0 0 1.26465 0.00012207 -6.10352e-05)" d="M323.667 756.363L343.038 756.307C340.272 765.845 336.322 775.194 333.092 784.598C327.613 800.544 322.58 816.666 316.551 832.416C308.564 857.469 300.661 882.563 291.48 907.211C289.82 912.079 281.356 938.108 278.139 939.678C276.817 940.323 275.123 940.019 273.705 939.911L272.728 939.13C273.148 929.009 278.876 917.587 281.695 907.769C284.603 895.975 288.305 884.331 291.603 872.636C295.283 859.581 298.563 846.501 303.148 833.715C309.766 807.852 317.458 782.35 323.667 756.363Z"/>
	<path fill="#C3C3C3" transform="matrix(1.2643 0 0 1.26465 0.00012207 -6.10352e-05)" d="M316.551 832.416Q346.092 833.56 375.651 833.07C392.293 832.927 409.488 832.235 426.055 833.934C423.334 840.07 419.664 846.799 418.287 853.349C414.068 864.067 407.48 874.491 397.116 880.216C389.214 884.592 384.128 894.787 381.149 902.896C378.246 905.542 300.974 906.833 291.48 907.211C300.661 882.563 308.564 857.469 316.551 832.416Z"/>
	<path fill="#E7E7EA" transform="matrix(1.2643 0 0 1.26465 0.00012207 -6.10352e-05)" d="M241.826 482.467C248.414 478.75 254.136 477.242 261.559 479.394C272.956 482.699 283.108 493.246 291.89 500.896C285.593 515.62 268.081 560.111 273.537 575.009C275.662 580.811 282.038 583.719 287.291 585.984C291.809 597.982 297.444 623.604 303.582 632.908L302.139 636.602C301.878 638.901 301.602 639.954 302.544 642.13C304.095 643.388 305.565 644.097 307.417 644.828C304.083 667.109 302.82 693.55 317.014 712.622C320.124 716.8 323.777 719.623 327.992 722.634L334.447 722.71C348.679 723.443 363.144 722.947 377.407 722.935L456.588 722.868L456.573 744.506L345.774 744.567C329.922 744.558 313.021 745.966 297.302 744.572C295.543 744.416 294.129 744.104 292.8 742.868C290.099 740.356 289.322 736.856 289.348 733.299C289.377 729.255 290.241 726.267 293.138 723.313C297.967 721.622 303.474 722.606 308.46 723.061C303.309 715.982 299.062 708.794 295.994 700.532C284.674 670.057 278.827 637.19 271.013 605.698L253.058 530.743C249.204 514.732 244.651 498.698 241.826 482.467Z"/>
	<path fill="#878787" transform="matrix(1.2643 0 0 1.26465 0.00012207 -6.10352e-05)" d="M426.159 624.717C435.885 626.103 447.191 626.69 456.388 630.197L456.448 641.176L456.44 697.155C456.436 704.298 455.249 715.525 456.838 722.139L376.26 722.216C362.596 722.232 347.997 721.208 334.447 722.71L327.992 722.634C323.777 719.623 320.124 716.8 317.014 712.622C302.82 693.55 304.083 667.109 307.417 644.828C316.867 642.609 326.109 639.528 335.626 637.57C359.964 632.561 383.903 633.144 408.528 634.697C412.277 633.68 416.491 633.646 420.368 633.334C423.046 633.374 425.471 633.648 427.611 631.927C428.265 629.424 427.015 627.061 426.159 624.717Z"/>
	<path fill="#CF753C" transform="matrix(1.2643 0 0 1.26465 0.00012207 -6.10352e-05)" d="M383.494 389.847C393.607 402.407 402.904 412.033 417.132 420.023C417.261 422.801 417.275 425.638 417.599 428.399C422.59 429.468 426.61 433.07 431.49 434.35C445.605 450.996 454.532 500.69 452.436 523.323C452.422 523.479 452.398 523.634 452.379 523.789C444.123 540.275 429.084 550.8 423.778 569.331C420.324 572.841 415.609 575.889 411.521 578.637C412.263 584.042 412.07 593.551 416.341 597.097C418.44 597.682 420.307 597.688 422.464 597.676C421.691 606.47 422.214 616.651 426.159 624.717C427.015 627.061 428.265 629.424 427.611 631.927C425.471 633.648 423.046 633.374 420.368 633.334C416.491 633.646 412.277 633.68 408.528 634.697C383.903 633.144 359.964 632.561 335.626 637.57C326.109 639.528 316.867 642.609 307.417 644.828C305.565 644.097 304.095 643.388 302.544 642.13C301.602 639.954 301.878 638.901 302.139 636.602L303.582 632.908C297.444 623.604 291.809 597.982 287.291 585.984C282.038 583.719 275.662 580.811 273.537 575.009C268.081 560.111 285.593 515.62 291.89 500.896C304.044 473.955 313.698 454.358 333.205 431.646C334.557 430.539 335.948 429.483 337.335 428.419C348.763 420.299 361.71 417.819 375.647 419.078C380.317 411.365 381.278 401.771 383.126 393.062L383.494 389.847Z"/>
	<path fill="#CCC" transform="matrix(1.2643 0 0 1.26465 0.00012207 -6.10352e-05)" d="M320.741 552.581C323.541 546.877 325.699 540.772 328.834 535.252L329.717 535.612Q329.281 545.872 329.066 556.139C326.359 554.839 323.51 553.75 320.741 552.581Z"/>
	<path fill="#C05130" transform="matrix(1.2643 0 0 1.26465 0.00012207 -6.10352e-05)" d="M302.139 636.602C316.959 636.724 337.388 632.514 353.246 631.531C375.833 630.132 397.87 632.289 420.368 633.334C416.491 633.646 412.277 633.68 408.528 634.697C383.903 633.144 359.964 632.561 335.626 637.57C326.109 639.528 316.867 642.609 307.417 644.828C305.565 644.097 304.095 643.388 302.544 642.13C301.602 639.954 301.878 638.901 302.139 636.602Z"/>
	<path fill="#CCC" transform="matrix(1.2643 0 0 1.26465 0.00012207 -6.10352e-05)" d="M287.291 585.984C297.355 589.7 307.979 591.613 318.47 593.71C315.312 603.019 308.632 625.79 303.582 632.908C297.444 623.604 291.809 597.982 287.291 585.984Z"/>
	<path fill="#ECAD85" transform="matrix(1.2643 0 0 1.26465 0.00012207 -6.10352e-05)" d="M383.494 389.847C393.607 402.407 402.904 412.033 417.132 420.023C417.261 422.801 417.275 425.638 417.599 428.399C417.53 430.501 417.213 432.455 416.054 434.251C414.336 436.913 411.698 438.453 408.617 439.009C400.601 440.456 391.144 436.676 384.843 431.914C380.928 428.956 376.339 424.124 375.647 419.078C380.317 411.365 381.278 401.771 383.126 393.062L383.494 389.847Z"/>
	<path fill="#E77A55" transform="matrix(1.2643 0 0 1.26465 0.00012207 -6.10352e-05)" d="M383.494 389.847C393.607 402.407 402.904 412.033 417.132 420.023C417.261 422.801 417.275 425.638 417.599 428.399L416.665 428.039C405.795 423.804 389.302 407.378 384.64 396.48C384.15 395.334 383.629 394.203 383.126 393.062L383.494 389.847Z"/>
	<path fill="#C05130" transform="matrix(1.2643 0 0 1.26465 0.00012207 -6.10352e-05)" d="M368.908 460.51C367.315 477.521 363.256 494.428 362.145 511.441C360.907 530.392 362.772 549.319 362.683 568.269C351.256 564.884 340.167 560.455 329.066 556.139Q329.281 545.872 329.717 535.612C331.356 520.377 359.861 476.9 368.908 460.51Z"/>
	<path fill="#E7E7EA" transform="matrix(1.2643 0 0 1.26465 0.00012207 -6.10352e-05)" d="M498.741 80.5381C502.132 74.1583 506.014 68.6171 513.217 66.3419C522.455 63.4242 552.687 65.1473 563.992 65.1062L687.052 65.0585L879.567 64.8909Q902.411 65.1017 925.257 65.061C933.194 65.0671 941.364 64.6829 949.279 65.1329C952.059 65.2909 954.719 66.3187 957.156 67.6329C961.789 70.1306 964.605 74.3532 965.997 79.3271C968.899 89.7026 967.01 105.595 967.013 116.642L966.866 247.96L966.85 346.863C966.825 363.069 968.287 380.797 966.149 396.783C965.724 399.966 964.505 402.426 962.723 405.058C962.747 405.377 962.781 405.695 962.794 406.015C962.915 408.87 961.235 412.325 959.311 414.361C955.024 418.896 947.791 420.595 941.777 420.915C918.883 422.131 895.285 420.704 872.309 420.731L718.123 420.901L579.078 420.941C556.37 420.975 530.411 422.319 508.124 420.916C503.43 420.62 499.053 419.597 495.529 416.223C492.091 412.932 490.99 408.801 490.399 404.234C488.619 390.478 490.192 369.808 490.239 355.149L490.289 249.945C493.002 250.014 495.46 250.064 498.13 249.433C499.932 234.146 498.022 212.377 498.578 196.01C499.8 157.639 496.665 118.852 498.741 80.5381Z"/>
	<path fill="#C05130" transform="matrix(1.2643 0 0 1.26465 0.00012207 -6.10352e-05)" d="M763.14 308.419C770.207 315.815 777.809 323.203 784.343 331.069C774.863 340.913 765.477 351.714 755.137 360.624C747.617 353.588 740.154 345.752 733.487 337.904L733.266 337.237C741.007 330.705 755.641 311.715 763.14 308.419Z"/>
	<path fill="#878787" transform="matrix(1.2643 0 0 1.26465 0.00012207 -6.10352e-05)" d="M745.003 251.343C754.963 251.102 769.12 249.372 778.644 251.485L778.608 256.243C778.675 273.87 774.058 293.718 763.195 307.839C755.674 299.82 743.628 289.025 738.158 280.075C743.245 272.554 744.526 263.871 745.072 255.011L745.003 251.343Z"/>
	<path fill="#354F7E" transform="matrix(1.2643 0 0 1.26465 0.00012207 -6.10352e-05)" d="M745.003 251.343C754.963 251.102 769.12 249.372 778.644 251.485L778.608 256.243C769.193 257.128 758.396 257.048 748.946 256.528C746.918 256.416 746.405 256.53 745.072 255.011L745.003 251.343Z"/>
	<path fill="#A9A9A9" transform="matrix(1.2643 0 0 1.26465 0.00012207 -6.10352e-05)" d="M708.183 312.463C717.116 319.954 723.831 330.438 733.266 337.237L733.487 337.904C720.356 347.918 702.116 356.281 685.532 357.279C683.71 357.207 680.807 357.483 679.271 356.49C678.225 349.498 677.433 329.576 678.938 322.917C679.246 321.556 679.631 321.62 680.828 320.882C690.029 320.679 699.84 316.127 708.183 312.463Z"/>
	<path fill="#E77A55" transform="matrix(1.2643 0 0 1.26465 0.00012207 -6.10352e-05)" d="M732.968 275.153L738.158 280.075C743.628 289.025 755.674 299.82 763.195 307.839L763.14 308.419C755.641 311.715 741.007 330.705 733.266 337.237C723.831 330.438 717.116 319.954 708.183 312.463C705.967 310.523 704.028 308.221 702.032 306.058Q717.248 290.354 732.968 275.153Z"/>
	<path fill="#9A9A9A" transform="matrix(1.2643 0 0 1.26465 0.00012207 -6.10352e-05)" d="M678.885 149.821C709.879 153.355 736.356 164.033 756.216 189.112Q757.51 190.774 758.738 192.486Q759.966 194.197 761.125 195.956Q762.284 197.715 763.372 199.519Q764.461 201.322 765.477 203.167Q766.494 205.013 767.436 206.897Q768.379 208.781 769.246 210.7Q770.113 212.62 770.904 214.573Q771.695 216.525 772.407 218.508Q773.12 220.49 773.754 222.499Q774.388 224.508 774.942 226.541Q775.496 228.573 775.969 230.626Q776.442 232.679 776.833 234.749Q777.225 236.819 777.534 238.903Q777.843 240.987 778.07 243.081Q778.297 245.176 778.44 247.277Q778.584 249.379 778.644 251.485C769.12 249.372 754.963 251.102 745.003 251.343C744.4 235.312 737.358 219.69 726.358 208.133C713.27 194.384 697.284 187.361 678.493 186.845Q678.481 168.331 678.885 149.821Z"/>
	<path fill="#CCC" transform="matrix(1.2643 0 0 1.26465 0.00012207 -6.10352e-05)" d="M610.577 256.293C611.642 275.16 618.291 291.985 632.575 304.767C646.022 316.801 663.174 321.01 680.828 320.882C679.631 321.62 679.246 321.556 678.938 322.917C677.433 329.576 678.225 349.498 679.271 356.49C680.807 357.483 683.71 357.207 685.532 357.279C682.344 357.955 678.836 357.844 675.573 357.854C647.302 357.945 622.772 347.42 602.876 327.509C584.533 309.153 573.513 282.341 573.462 256.392C585.62 257.396 598.358 256.506 610.577 256.293Z"/>
	<path fill="#E19E4C" transform="matrix(1.2643 0 0 1.26465 0.00012207 -6.10352e-05)" d="M573.462 256.392C574.204 226.791 581.086 203.441 602.114 182.002C622.914 160.795 649.379 150.135 678.885 149.821Q678.481 168.331 678.493 186.845Q676.835 186.858 675.179 186.952Q673.523 187.046 671.874 187.22Q670.225 187.395 668.586 187.65Q666.947 187.905 665.323 188.239Q663.699 188.574 662.093 188.987Q660.487 189.401 658.903 189.892Q657.319 190.384 655.76 190.952Q654.202 191.52 652.674 192.164Q651.145 192.807 649.65 193.525Q648.155 194.242 646.696 195.032Q645.238 195.822 643.82 196.682Q642.401 197.542 641.027 198.47Q639.652 199.398 638.325 200.392Q636.997 201.386 635.72 202.444Q634.442 203.502 633.218 204.621Q631.993 205.74 630.825 206.917Q629.626 208.137 628.487 209.413Q627.349 210.689 626.273 212.02Q625.198 213.35 624.188 214.73Q623.178 216.111 622.237 217.539Q621.295 218.967 620.424 220.439Q619.552 221.91 618.753 223.423Q617.954 224.935 617.229 226.485Q616.504 228.034 615.855 229.617Q615.206 231.199 614.635 232.812Q614.063 234.424 613.57 236.062Q613.077 237.7 612.664 239.36Q612.251 241.02 611.919 242.698Q611.587 244.376 611.337 246.068Q611.087 247.761 610.919 249.463Q610.75 251.165 610.665 252.874Q610.58 254.582 610.577 256.293C598.358 256.506 585.62 257.396 573.462 256.392Z"/>
	<path fill="#C3C3C3" transform="matrix(1.2643 0 0 1.26465 0.00012207 -6.10352e-05)" d="M498.578 196.01L499.245 196.11C498.448 245.18 498.924 294.395 499.28 343.473Q499.41 360.297 499.16 377.12C499.042 383.529 498.281 390.352 498.971 396.701C499.358 400.275 501.181 403.599 503.674 406.149C508.965 411.562 514.952 411.94 522.114 411.926L816.279 411.759L906.126 411.803C920.647 411.816 936.381 413.045 950.73 411.506C955.46 410.998 959.231 408.064 962.723 405.058C962.747 405.377 962.781 405.695 962.794 406.015C962.915 408.87 961.235 412.325 959.311 414.361C955.024 418.896 947.791 420.595 941.777 420.915C918.883 422.131 895.285 420.704 872.309 420.731L718.123 420.901L579.078 420.941C556.37 420.975 530.411 422.319 508.124 420.916C503.43 420.62 499.053 419.597 495.529 416.223C492.091 412.932 490.99 408.801 490.399 404.234C488.619 390.478 490.192 369.808 490.239 355.149L490.289 249.945C493.002 250.014 495.46 250.064 498.13 249.433C499.932 234.146 498.022 212.377 498.578 196.01Z"/>
	<path fill="#E7E7EA" transform="matrix(1.2643 0 0 1.26465 0.00012207 -6.10352e-05)" d="M678.493 186.845C697.284 187.361 713.27 194.384 726.358 208.133C737.358 219.69 744.4 235.312 745.003 251.343L745.072 255.011C744.526 263.871 743.245 272.554 738.158 280.075L732.968 275.153Q717.248 290.354 702.032 306.058C704.028 308.221 705.967 310.523 708.183 312.463C699.84 316.127 690.029 320.679 680.828 320.882C663.174 321.01 646.022 316.801 632.575 304.767C618.291 291.985 611.642 275.16 610.577 256.293Q610.58 254.582 610.665 252.874Q610.75 251.165 610.919 249.463Q611.087 247.761 611.337 246.068Q611.587 244.376 611.919 242.698Q612.251 241.02 612.664 239.36Q613.077 237.7 613.57 236.062Q614.063 234.424 614.635 232.812Q615.206 231.199 615.855 229.617Q616.504 228.034 617.229 226.485Q617.954 224.935 618.753 223.423Q619.552 221.91 620.424 220.439Q621.295 218.967 622.237 217.539Q623.178 216.111 624.188 214.73Q625.198 213.35 626.273 212.02Q627.349 210.689 628.487 209.413Q629.626 208.137 630.825 206.917Q631.993 205.74 633.218 204.621Q634.442 203.502 635.72 202.444Q636.997 201.386 638.325 200.392Q639.652 199.398 641.027 198.47Q642.401 197.542 643.82 196.682Q645.238 195.822 646.696 195.032Q648.155 194.242 649.65 193.525Q651.145 192.807 652.674 192.164Q654.202 191.52 655.76 190.952Q657.319 190.384 658.903 189.892Q660.486 189.401 662.093 188.987Q663.699 188.574 665.323 188.239Q666.947 187.905 668.586 187.65Q670.225 187.395 671.874 187.22Q673.523 187.046 675.179 186.952Q676.835 186.858 678.493 186.845Z"/>
	<path fill="#CCC" transform="matrix(1.2643 0 0 1.26465 0.00012207 -6.10352e-05)" d="M966.866 247.96L1009.25 247.897C1016.27 247.889 1023.84 247.34 1030.81 248.016C1031.82 249.254 1032.23 250.416 1032.34 252.017C1032.97 261.076 1032.5 270.486 1032.51 279.575L1032.41 334.736L1032.3 368.766C1032.3 374.294 1032.91 380.543 1032.28 385.989C1032.16 387.005 1031.85 387.848 1031.33 388.722C1046.9 389.135 1062.44 388.725 1078.01 388.831L1170.35 389.637Q1210.12 389.848 1249.88 389.561C1262.31 389.492 1274.87 389.808 1287.28 389.332Q1291.44 389.449 1295.6 389.364C1297.32 400.421 1296.25 412.998 1296.24 424.211L1296.42 480.258Q1295.08 572.117 1296.79 663.969C1296.81 665.31 1296.94 666.773 1296.11 667.923C1295.77 668.404 1295.46 668.611 1295.02 668.963C1297.02 669.649 1299.25 670.106 1300.67 671.75L1303.02 672.615C1302.4 676.01 1297.13 678.865 1294.5 680.733L1296.46 681.795C1298.41 690.666 1296.67 712.368 1296.67 722.86L1296.71 780.321C1296.7 790.996 1297.2 802.146 1296.1 812.761C1295.72 816.446 1294.69 819.707 1292.73 822.856C1289.79 827.561 1285.75 830.577 1280.32 831.819C1274.26 833.206 1218.79 833.666 1216.27 831.749C1215.8 831.395 1215.66 831.187 1215.31 830.769C1212.4 831.815 1209.09 831.216 1206.04 831.601C1207.51 834.904 1206.49 839.673 1205.97 843.18L1205.96 843.88C1205.43 853.208 1200.91 902.156 1198.66 908.489C1206.94 909.802 1215.89 909.56 1224.28 910.127C1239.08 911.126 1253.48 913.145 1268.15 914.983C1281.67 916.676 1298.59 917.09 1311.07 922.997C1313.37 924.085 1315.46 925.328 1316.32 927.792C1314.77 930.36 1309.52 932.001 1306.67 932.834C1299.8 934.843 1292.37 935.8 1285.3 936.997C1256.76 941.832 1228.29 943.518 1199.44 945.176Q1127.57 949.738 1055.57 951.353Q926.554 955.278 797.489 956.93C745.822 957.274 694.177 956.341 642.526 956.342C496.37 956.344 349.912 955.36 204.119 944.018C186.175 942.622 127.568 939 114.405 930.761C112.744 929.722 112.386 929.207 111.958 927.355C112.314 926.71 112.62 926.144 113.172 925.642C126.358 913.648 258.686 907.22 281.695 907.769C278.876 917.587 273.148 929.009 272.728 939.13L273.705 939.911C275.123 940.019 276.817 940.323 278.139 939.678C281.356 938.108 289.82 912.079 291.48 907.211C300.974 906.833 378.246 905.542 381.149 902.896C384.128 894.787 389.214 884.592 397.116 880.216C407.48 874.491 414.068 864.067 418.287 853.349C419.664 846.799 423.334 840.07 426.055 833.934C431.148 824.252 435.101 813.41 439.64 803.403C442.483 796.861 445.63 790.435 448.676 783.985Q452.504 776.502 456.104 768.907C456.571 768.268 456.646 768.297 456.849 767.671C458.245 763.372 458.263 724.899 456.838 722.139C455.249 715.525 456.436 704.298 456.44 697.155L456.448 641.176L456.388 630.197C447.191 626.69 435.885 626.103 426.159 624.717C422.214 616.651 421.691 606.47 422.464 597.676C420.307 597.688 418.44 597.682 416.341 597.097C412.07 593.551 412.263 584.042 411.521 578.637C415.609 575.889 420.324 572.841 423.778 569.331C429.084 550.8 444.123 540.275 452.379 523.789C452.398 523.634 452.422 523.479 452.436 523.323C454.532 500.69 445.605 450.996 431.49 434.35C426.61 433.07 422.59 429.468 417.599 428.399C417.275 425.638 417.261 422.801 417.132 420.023C402.904 412.033 393.607 402.407 383.494 389.847L383.126 393.062C381.278 401.771 380.317 411.365 375.647 419.078C361.71 417.819 348.763 420.299 337.335 428.419C333.619 426.686 330.387 424.572 327.03 422.228C323.126 418.004 321.113 414.422 319.304 408.963L319.009 400.673C323.372 378.334 342.695 380.214 353.583 365.105C355.777 362.917 356.925 358.869 357.836 355.992C358.382 352.53 358.572 348.964 358.889 345.471C359.41 341.469 360.2 337.714 361.29 333.829C365.474 323.958 373.159 317.359 381.678 311.249C392.724 306.879 401.134 305.208 412.819 308.075Q413.321 279.86 413.005 251.642C438.611 249.985 464.629 249.907 490.289 249.945L490.239 355.149C490.192 369.808 488.619 390.478 490.399 404.234C490.99 408.801 492.091 412.932 495.529 416.223C499.053 419.597 503.43 420.62 508.124 420.916C530.411 422.319 556.37 420.975 579.078 420.941L718.123 420.901L872.309 420.731C895.285 420.704 918.883 422.131 941.777 420.915C947.791 420.595 955.024 418.896 959.311 414.361C961.235 412.325 962.915 408.87 962.794 406.015C962.781 405.695 962.747 405.377 962.723 405.058C964.505 402.426 965.724 399.966 966.149 396.783C968.287 380.797 966.825 363.069 966.85 346.863L966.866 247.96Z"/>
	<path fill="#C3C3C3" transform="matrix(1.2643 0 0 1.26465 0.00012207 -6.10352e-05)" d="M807.517 621.028Q807.904 629.155 808.102 637.288L789.767 637.315C789.79 633.722 789.702 630.091 789.853 626.504C794.677 627.789 801.139 627.882 805.923 626.404C807.65 624.764 807.324 623.295 807.517 621.028Z"/>
	<path fill="#354F7E" transform="matrix(1.2643 0 0 1.26465 0.00012207 -6.10352e-05)" d="M438.949 403.04C441.949 409.216 444.655 415.236 442.269 422.155C440.433 427.481 436.082 431.365 431.49 434.35C426.61 433.07 422.59 429.468 417.599 428.399C417.275 425.638 417.261 422.801 417.132 420.023C420.936 420.58 425.035 420.585 428.576 418.905C434.614 416.04 436.789 408.815 438.949 403.04Z"/>
	<path fill="#C05130" transform="matrix(1.2643 0 0 1.26465 0.00012207 -6.10352e-05)" d="M422.464 597.676C428.378 596.663 434.455 592.445 440.318 592.793C440.443 602.208 440.36 611.683 440.955 621.081L447.745 621.096C450.333 621.043 453.533 620.522 455.798 621.917C457.022 624.318 456.478 627.554 456.388 630.197C447.191 626.69 435.885 626.103 426.159 624.717C422.214 616.651 421.691 606.47 422.464 597.676Z"/>
	<path fill="#27543E" transform="matrix(1.2643 0 0 1.26465 0.00012207 -6.10352e-05)" d="M1129.28 600.241Q1129.76 597.601 1130.49 595.016Q1131.21 592.43 1132.16 589.921Q1133.12 587.412 1134.29 584.999Q1135.47 582.587 1136.86 580.291C1138.87 576.929 1143.01 570.328 1147.08 569.321L1148.13 570.866C1151.94 574.315 1152.9 584.579 1153.14 589.562C1153.6 599.306 1150.96 614.659 1143.78 621.884C1143.66 622.001 1143.53 622.101 1143.4 622.21C1136.88 619.194 1134.42 605.732 1129.28 600.241Z"/>
	<path fill="#878787" transform="matrix(1.2643 0 0 1.26465 0.00012207 -6.10352e-05)" d="M1143.23 622.667C1147.27 641.958 1149.64 655.166 1151.33 674.943C1151.79 680.411 1152.66 686.418 1152.07 691.873C1155.33 687.195 1157.81 670.953 1159.84 664.6C1162.59 656.026 1167.61 646.777 1169.21 638.074L1169.88 638.073L1170.87 638.866C1170.59 645.547 1164.72 653.867 1162.7 660.479C1158.49 674.231 1155.11 688.544 1153.02 702.781C1151.63 712.2 1154.92 733.791 1151.5 740.776C1157.52 736.023 1160.31 724.593 1164.96 718.223C1167.95 714.142 1173.3 710.853 1175.69 706.632L1176.22 708.11C1176.06 708.372 1175.91 708.637 1175.75 708.897C1173.9 711.882 1171.04 714.625 1168.79 717.344C1163.59 723.611 1159.15 730.65 1156.13 738.227C1154.62 742.015 1153.4 745.935 1152.94 749.999C1151.5 762.649 1155.73 806.307 1151.99 813.759L1147.78 813.699C1150.03 808.796 1149.34 764.149 1148.69 756.204C1148.47 753.556 1147.85 750.983 1147.06 748.454C1144.16 739.201 1131.18 703.059 1123.34 698.931L1124.41 698.015C1127.28 699.494 1129.04 703.395 1130.58 706.13C1134.21 712.571 1148.84 739.593 1147.07 745.985C1151.58 738.264 1148.16 670.632 1147.1 658.59Q1145.92 645.928 1143.41 633.463C1142.63 629.716 1142.48 626.171 1139.14 623.973C1140.62 623.807 1141.87 623.239 1143.23 622.667Z"/>
	<path fill="#4C4B4C" transform="matrix(1.2643 0 0 1.26465 0.00012207 -6.10352e-05)" d="M530.034 582.228C555.706 580.636 581.74 581.413 607.468 581.438C617.323 581.447 631.709 580.145 640.882 582.059C640.698 585.067 640.747 588.403 640.134 591.338L483.681 591.085C482.588 590.786 481.534 590.357 480.471 589.963C477.316 587.823 472.761 587.605 470.127 584.961L470.341 583.887C472.101 582.71 473.438 582.389 475.515 582.047C493.175 581.347 511.351 581.399 529.026 581.914L530.034 582.228Z"/>
	<path fill="#ECAD85" transform="matrix(1.2643 0 0 1.26465 0.00012207 -6.10352e-05)" d="M423.778 569.331C434.767 563.156 448.89 563.448 460.793 566.817C465.201 568.065 475.984 571.636 478.172 576.016C478.79 577.254 478.685 578.11 477.938 579.264C477.387 580.115 476.813 580.477 475.897 580.804L475.515 582.047C473.438 582.389 472.101 582.71 470.341 583.887L470.127 584.961C472.761 587.605 477.316 587.823 480.471 589.963C481.534 590.357 482.588 590.786 483.681 591.085C484.7 592.818 485.651 593.9 485.637 595.972C480.549 599.748 456.417 595.278 449.443 594.245C446.397 593.793 443.342 593.375 440.318 592.793C434.455 592.445 428.378 596.663 422.464 597.676C420.307 597.688 418.44 597.682 416.341 597.097C412.07 593.551 412.263 584.042 411.521 578.637C415.609 575.889 420.324 572.841 423.778 569.331Z"/>
	<path fill="#C05130" transform="matrix(1.2643 0 0 1.26465 0.00012207 -6.10352e-05)" d="M480.471 589.963C475.703 589.372 471.671 587.31 467.067 586.156C460.458 584.5 446.737 583.821 441.66 580.169C446.603 576.684 469.246 579.679 475.897 580.804L475.515 582.047C473.438 582.389 472.101 582.71 470.341 583.887L470.127 584.961C472.761 587.605 477.316 587.823 480.471 589.963Z"/>
	<defs>
		<linearGradient id="gradient_0" gradientUnits="userSpaceOnUse" x1="438.62714" y1="542.56018" x2="518.75555" y2="593.66119">
			<stop offset="0" stop-color="#AC4E27"/>
			<stop offset="1" stop-color="#CD753D"/>
		</linearGradient>
	</defs>
	<path fill="url(#gradient_0)" transform="matrix(1.2643 0 0 1.26465 0.00012207 -6.10352e-05)" d="M423.778 569.331C429.084 550.8 444.123 540.275 452.379 523.789C452.528 534.036 453.122 544.487 452.714 554.714C474.707 555.865 496.9 556.583 518.775 559.153C524.572 559.965 530.399 560.473 536.236 559.819C534.158 565.815 531.769 571.855 530.041 577.953L529.026 581.914C511.351 581.399 493.175 581.347 475.515 582.047L475.897 580.804C476.813 580.477 477.387 580.115 477.938 579.264C478.685 578.11 478.79 577.254 478.172 576.016C475.984 571.636 465.201 568.065 460.793 566.817C448.89 563.448 434.767 563.156 423.778 569.331Z"/>
	<path fill="#ECAD85" transform="matrix(1.2643 0 0 1.26465 0.00012207 -6.10352e-05)" d="M518.775 559.153C524.572 559.965 530.399 560.473 536.236 559.819C534.158 565.815 531.769 571.855 530.041 577.953C523.534 577.773 517.064 577.191 510.536 577.102C513.447 571.206 516.922 565.49 518.775 559.153Z"/>
	<defs>
		<linearGradient id="gradient_1" gradientUnits="userSpaceOnUse" x1="1288.3763" y1="707.51361" x2="1187.313" y2="671.27118">
			<stop offset="0" stop-color="#124533"/>
			<stop offset="1" stop-color="#7DBC90"/>
		</linearGradient>
	</defs>
	<path fill="url(#gradient_1)" transform="matrix(1.2643 0 0 1.26465 0.00012207 -6.10352e-05)" d="M1175.69 706.632C1178.31 703.391 1178.9 695.912 1180.34 691.799C1184.62 679.545 1196.02 670.394 1207.44 665.1C1216.23 661.027 1237.41 655.593 1246.82 659.001C1262.49 659.186 1280.39 663.377 1295.02 668.963C1297.02 669.649 1299.25 670.106 1300.67 671.75L1300.44 672.947C1287.73 676.053 1274.08 675.762 1261.36 678.792C1255.48 680.022 1249.23 681.771 1243.26 682.281C1238.88 684.54 1232.44 685.083 1227.61 686.284C1210.77 690.472 1192.33 696.065 1178.9 707.378L1178.83 708.242L1180.3 709.345L1179.78 710.439C1178.76 709.506 1177.4 708.834 1176.22 708.11L1175.69 706.632Z"/>
	<defs>
		<linearGradient id="gradient_2" gradientUnits="userSpaceOnUse" x1="1301.5074" y1="697.54633" x2="1179.4633" y2="689.99158">
			<stop offset="0" stop-color="#226544"/>
			<stop offset="1" stop-color="#8FC19C"/>
		</linearGradient>
	</defs>
	<path fill="url(#gradient_2)" transform="matrix(1.2643 0 0 1.26465 0.00012207 -6.10352e-05)" d="M1300.67 671.75L1303.02 672.615C1302.4 676.01 1297.13 678.865 1294.5 680.733C1287.05 687.804 1273.28 697.703 1263.21 700.464C1257.81 706.955 1223.58 716.58 1213.77 717.533C1201.53 718.722 1190.46 716.504 1179.78 710.439L1180.3 709.345L1178.83 708.242L1178.9 707.378C1192.33 696.065 1210.77 690.472 1227.61 686.284C1232.44 685.083 1238.88 684.54 1243.26 682.281C1249.23 681.771 1255.48 680.022 1261.36 678.792C1274.08 675.762 1287.73 676.053 1300.44 672.947L1300.67 671.75Z"/>
	<defs>
		<linearGradient id="gradient_3" gradientUnits="userSpaceOnUse" x1="1227.2341" y1="592.72906" x2="1201.8795" y2="579.47607">
			<stop offset="0" stop-color="#2E6147"/>
			<stop offset="1" stop-color="#437B5A"/>
		</linearGradient>
	</defs>
	<path fill="url(#gradient_3)" transform="matrix(1.2643 0 0 1.26465 0.00012207 -6.10352e-05)" d="M1233.57 526.084C1236.54 525.144 1239.87 524.433 1242.39 522.554C1247.24 532.318 1235.77 572.577 1232.09 583.477C1225.43 603.207 1214.23 623.475 1194.85 633.057C1187.59 636.644 1178.96 638.514 1170.87 638.866L1169.88 638.073C1179.54 621.832 1187.7 604.564 1197.62 588.567C1208.79 570.549 1221.74 553.828 1233.68 536.364C1235.89 533.141 1237.67 529.584 1239.84 526.303L1238.41 527.264L1240.31 525.534C1238.6 526.038 1236.19 527.029 1234.44 526.433C1234.14 526.332 1233.86 526.2 1233.57 526.084Z"/>
	<defs>
		<linearGradient id="gradient_4" gradientUnits="userSpaceOnUse" x1="1223.9014" y1="585.77386" x2="1168.8958" y2="571.07831">
			<stop offset="0" stop-color="#4D8666"/>
			<stop offset="1" stop-color="#70A982"/>
		</linearGradient>
	</defs>
	<path fill="url(#gradient_4)" transform="matrix(1.2643 0 0 1.26465 0.00012207 -6.10352e-05)" d="M1233.57 526.084C1233.86 526.2 1234.14 526.332 1234.44 526.433C1236.19 527.029 1238.6 526.038 1240.31 525.534L1238.41 527.264L1239.84 526.303C1237.67 529.584 1235.89 533.141 1233.68 536.364C1221.74 553.828 1208.79 570.549 1197.62 588.567C1187.7 604.564 1179.54 621.832 1169.88 638.073L1169.21 638.074C1166.47 634.949 1164.14 631.972 1162.48 628.128C1156.93 615.244 1159.19 599.391 1164.39 586.754C1176.55 557.193 1205.26 537.993 1233.57 526.084Z"/>
	<defs>
		<linearGradient id="gradient_5" gradientUnits="userSpaceOnUse" x1="1142.9203" y1="584.75513" x2="1057.2465" y2="482.2449">
			<stop offset="0" stop-color="#275B40"/>
			<stop offset="1" stop-color="#7FBE93"/>
		</linearGradient>
	</defs>
	<path fill="url(#gradient_5)" transform="matrix(1.2643 0 0 1.26465 0.00012207 -6.10352e-05)" d="M1044 489.367C1078.52 496.338 1119.09 520.305 1138.84 549.965C1142.57 555.561 1146.92 562.649 1148.51 569.18L1148.13 570.866L1147.08 569.321C1143.01 570.328 1138.87 576.929 1136.86 580.291Q1135.47 582.587 1134.29 584.999Q1133.12 587.412 1132.16 589.921Q1131.21 592.43 1130.49 595.016Q1129.76 597.601 1129.28 600.241C1129.25 600.054 1129.24 599.863 1129.19 599.679C1128.09 595.342 1118.37 579.579 1114.55 577.185C1113.92 570.592 1072.21 522.71 1064.93 514.58C1059.1 508.066 1052.63 502.138 1047.22 495.254C1045.74 501.486 1051.05 508.688 1047.4 514.258C1048.14 510.661 1046.2 492.519 1044.25 489.696C1044.18 489.582 1044.09 489.476 1044 489.367Z"/>
	<defs>
		<linearGradient id="gradient_6" gradientUnits="userSpaceOnUse" x1="1156.0975" y1="593.00891" x2="1028.7903" y2="534.15088">
			<stop offset="0" stop-color="#3E6A52"/>
			<stop offset="1" stop-color="#8DC79C"/>
		</linearGradient>
	</defs>
	<path fill="url(#gradient_6)" transform="matrix(1.2643 0 0 1.26465 0.00012207 -6.10352e-05)" d="M1047.4 514.258C1051.05 508.688 1045.74 501.486 1047.22 495.254C1052.63 502.138 1059.1 508.066 1064.93 514.58C1072.21 522.71 1113.92 570.592 1114.55 577.185C1118.37 579.579 1128.09 595.342 1129.19 599.679C1129.24 599.863 1129.25 600.054 1129.28 600.241C1134.42 605.732 1136.88 619.194 1143.4 622.21L1143.23 622.667C1141.87 623.239 1140.62 623.807 1139.14 623.973C1126.19 627.268 1113.95 621.37 1102.69 615.668C1077.25 596.59 1062.7 571.245 1054.19 540.88C1051.82 532.439 1050.88 522.808 1047.61 514.748C1047.54 514.583 1047.47 514.421 1047.4 514.258Z"/>
	<defs>
		<linearGradient id="gradient_7" gradientUnits="userSpaceOnUse" x1="1110.1505" y1="670.7616" x2="1020.4357" y2="684.11487">
			<stop offset="0" stop-color="#3C7B56"/>
			<stop offset="1" stop-color="#83BA93"/>
		</linearGradient>
	</defs>
	<path fill="url(#gradient_7)" transform="matrix(1.2643 0 0 1.26465 0.00012207 -6.10352e-05)" d="M1013.62 653.622Q1015.55 652.789 1017.52 652.041C1041.12 643.081 1070.26 641.864 1093.41 652.585C1095.95 653.763 1101.84 656.403 1102.82 659.042C1109.39 661.015 1115.49 670.351 1118.58 676.078C1121.13 680.818 1124.46 688.04 1123 693.497C1124.27 695.152 1124.63 695.837 1124.41 698.015L1123.34 698.931C1118.08 703.846 1109.14 707.528 1101.9 707.502C1099.97 708.75 1095.5 708.259 1093.3 708.106C1056.74 705.562 1035.68 678.934 1013.62 653.622Z"/>
	<path fill="#27543E" transform="matrix(1.2643 0 0 1.26465 0.00012207 -6.10352e-05)" d="M1110.37 689.825C1114.94 690.931 1118.71 694.964 1123.17 695.57C1123.13 694.88 1123.13 694.175 1123 693.497C1124.27 695.152 1124.63 695.837 1124.41 698.015L1123.34 698.931C1118.08 703.846 1109.14 707.528 1101.9 707.502C1100.82 707.219 1101.24 707.207 1100.16 707.398C1099.91 707.443 1099.66 707.502 1099.41 707.554L1098.31 705.847L1097.96 707.073C1102.69 705.622 1105.28 705.977 1109.04 701.979C1110.81 700.089 1113.44 695.927 1113.2 693.204C1113.08 691.863 1111.36 690.742 1110.37 689.825Z"/>
	<defs>
		<linearGradient id="gradient_8" gradientUnits="userSpaceOnUse" x1="1127.1486" y1="683.85413" x2="1098.4181" y2="670.57587">
			<stop offset="0" stop-color="#23583E"/>
			<stop offset="1" stop-color="#3C7A56"/>
		</linearGradient>
	</defs>
	<path fill="url(#gradient_8)" transform="matrix(1.2643 0 0 1.26465 0.00012207 -6.10352e-05)" d="M1102.82 659.042C1109.39 661.015 1115.49 670.351 1118.58 676.078C1121.13 680.818 1124.46 688.04 1123 693.497C1123.13 694.175 1123.13 694.88 1123.17 695.57C1118.71 694.964 1114.94 690.931 1110.37 689.825C1109.23 687.278 1094.43 680.446 1091.03 678.452L1091.55 677.986C1092.59 678.561 1093.36 678.929 1094.53 679.128C1094.74 678.94 1094.95 678.756 1095.15 678.562C1099.02 674.792 1103.08 665.16 1102.87 659.869C1102.86 659.593 1102.84 659.318 1102.82 659.042Z"/>
	<path fill="#354F7E" transform="matrix(1.2643 0 0 1.26465 0.00012207 -6.10352e-05)" d="M381.678 311.249C392.724 306.879 401.134 305.208 412.819 308.075C418.763 310.265 423.713 313.807 429.449 316.118C437.556 319.384 450.683 318.835 454.809 328.164C459.012 337.667 455.804 358.243 451.83 367.659C449.828 372.402 447.137 376.233 443.907 380.214C442.719 387.299 441.807 396.564 438.949 403.04C436.789 408.815 434.614 416.04 428.576 418.905C425.035 420.585 420.936 420.58 417.132 420.023C402.904 412.033 393.607 402.407 383.494 389.847L383.126 393.062C381.278 401.771 380.317 411.365 375.647 419.078C361.71 417.819 348.763 420.299 337.335 428.419C333.619 426.686 330.387 424.572 327.03 422.228C323.126 418.004 321.113 414.422 319.304 408.963L319.009 400.673C323.372 378.334 342.695 380.214 353.583 365.105C355.777 362.917 356.925 358.869 357.836 355.992C358.382 352.53 358.572 348.964 358.889 345.471C359.41 341.469 360.2 337.714 361.29 333.829C365.474 323.958 373.159 317.359 381.678 311.249Z"/>
	<path fill="#ECAD85" transform="matrix(1.2643 0 0 1.26465 0.00012207 -6.10352e-05)" d="M389.254 368.836C399.271 371.418 413.668 366.668 422.232 361.68C431.702 356.165 438.661 349.17 443.148 339.172C446.922 353.048 445.707 366.192 443.907 380.214C442.719 387.299 441.807 396.564 438.949 403.04C436.789 408.815 434.614 416.04 428.576 418.905C425.035 420.585 420.936 420.58 417.132 420.023C402.904 412.033 393.607 402.407 383.494 389.847C382.087 384.138 373.149 382.849 372.249 370.567C372.758 368.753 373.479 367.131 374.743 365.698C375.966 364.313 377.647 363.36 379.517 363.349C383.743 363.324 386.486 366.061 389.254 368.836Z"/>
	<path fill="#CF753C" transform="matrix(1.2643 0 0 1.26465 0.00012207 -6.10352e-05)" d="M377.325 368.456C378.652 367.566 379.534 367.16 381.088 366.789C382.393 367.911 382.833 368.951 383.476 370.528C383.096 372.501 383.329 374.261 382.478 376.159C381.286 377.097 381.278 377.213 379.782 377.198C379.549 376.934 379.318 376.669 379.099 376.393C376.904 373.632 376.919 371.747 377.325 368.456Z"/>
	<path fill="#B8B8B8" transform="matrix(1.2643 0 0 1.26465 0.00012207 -6.10352e-05)" d="M372.249 370.567C372.758 368.753 373.479 367.131 374.743 365.698C375.966 364.313 377.647 363.36 379.517 363.349C383.743 363.324 386.486 366.061 389.254 368.836C387.436 369.455 385.391 370.393 383.476 370.528C382.833 368.951 382.393 367.911 381.088 366.789C379.534 367.16 378.652 367.566 377.325 368.456C377.427 366.72 378.885 365.617 379.985 364.299C377.071 365.306 374.356 368.382 372.249 370.567Z"/>
	<path fill="#878787" transform="matrix(1.2643 0 0 1.26465 0.00012207 -6.10352e-05)" d="M536.236 559.819C540.981 547.561 561.09 490.284 566.404 484.616C568.176 482.726 574.08 482.185 576.613 481.976C587.378 481.09 598.695 481.831 609.525 481.831L666.478 481.606C671.525 481.612 672.791 481.442 676.402 485.064C677.064 486.847 677.263 488.161 676.874 490.038C674.619 500.912 669.142 512.287 665.199 522.755C658.509 540.521 652.278 559.128 644.362 576.359C643.442 578.36 642.366 580.41 640.882 582.059C631.709 580.145 617.323 581.447 607.468 581.438C581.74 581.413 555.706 580.636 530.034 582.228L529.026 581.914L530.041 577.953C531.769 571.855 534.158 565.815 536.236 559.819Z"/>
	<path fill="#4C4B4C" transform="matrix(1.2643 0 0 1.26465 0.00012207 -6.10352e-05)" d="M536.236 559.819C540.981 547.561 561.09 490.284 566.404 484.616C568.176 482.726 574.08 482.185 576.613 481.976C587.378 481.09 598.695 481.831 609.525 481.831L666.478 481.606C671.525 481.612 672.791 481.442 676.402 485.064C676.211 485.089 676.021 485.116 675.83 485.138C667.177 486.148 657.757 485.427 648.989 485.424L596.378 485.347C589.136 485.31 580.872 484.472 573.721 485.447C572.109 485.666 570.557 486.182 569.476 487.459C564.807 492.973 562.303 502.638 559.812 509.414C553.956 525.349 538.813 570.377 530.034 582.228L529.026 581.914L530.041 577.953C531.769 571.855 534.158 565.815 536.236 559.819Z"/>
	<path fill="#C3C3C3" transform="matrix(1.2643 0 0 1.26465 0.00012207 -6.10352e-05)" d="M608.459 833.257C669.104 832.244 729.915 833.435 790.588 833.323L790.499 900.586L676.454 900.616C654.415 900.71 632.318 901.515 610.289 901.021L606.495 889.349C608.175 889.146 609.804 889.143 611.189 888.069C611.714 882.281 611.032 876.194 610.726 870.393L608.459 833.257Z"/>
	<path fill="#CCC" transform="matrix(1.2643 0 0 1.26465 0.00012207 -6.10352e-05)" d="M1294.5 680.733L1296.46 681.795C1298.41 690.666 1296.67 712.368 1296.67 722.86L1296.71 780.321C1296.7 790.996 1297.2 802.146 1296.1 812.761C1295.72 816.446 1294.69 819.707 1292.73 822.856C1289.79 827.561 1285.75 830.577 1280.32 831.819C1274.26 833.206 1218.79 833.666 1216.27 831.749C1215.8 831.395 1215.66 831.187 1215.31 830.769C1215.46 830.43 1215.67 830.009 1215.78 829.638C1216.89 825.893 1216.92 817.832 1214.93 814.484C1194.03 813.339 1172.93 814.664 1151.99 813.759C1155.73 806.307 1151.5 762.649 1152.94 749.999C1153.4 745.935 1154.62 742.015 1156.13 738.227C1159.15 730.65 1163.59 723.611 1168.79 717.344C1171.04 714.625 1173.9 711.882 1175.75 708.897C1175.91 708.637 1176.06 708.372 1176.22 708.11C1177.4 708.834 1178.76 709.506 1179.78 710.439C1190.46 716.504 1201.53 718.722 1213.77 717.533C1223.58 716.58 1257.81 706.955 1263.21 700.464C1273.28 697.703 1287.05 687.804 1294.5 680.733Z"/>
	<path fill="#878787" transform="matrix(1.2643 0 0 1.26465 0.00012207 -6.10352e-05)" d="M472.648 634.076C495.903 637.882 518.175 642.785 541.047 648.379C557.91 653.163 584.005 660.931 593.171 677.234C595.723 681.773 597.299 687.002 598.187 692.109C601.551 711.445 601.928 732.007 603.238 751.587C605.053 778.718 607.312 806.106 608.459 833.257L610.726 870.393C611.032 876.194 611.714 882.281 611.189 888.069C609.804 889.143 608.175 889.146 606.495 889.349L601.595 889.719L592.807 890.778C587.29 891.147 579.738 890.704 574.52 892.185C573.353 892.012 572.284 891.92 571.265 891.272C568.987 889.824 557.134 840.418 555.498 833.986C532.147 834.562 508.618 833.411 485.215 833.726C480.549 839.656 475.701 845.507 471.199 851.559Q472.2 816.564 472.642 781.558C472.712 771.322 471.43 750.666 473.242 741.774L473.59 740.887C473.492 740.718 473.375 740.559 473.297 740.38C471.855 737.057 472.213 726.682 473.454 723.293L475.248 722.501L473.047 721.993C471.638 718.711 472.631 653.33 472.616 644.102L472.648 634.076Z"/>
	<path fill="#E7E7EA" transform="matrix(1.2643 0 0 1.26465 0.00012207 -6.10352e-05)" d="M475.248 722.501C477.387 722.576 479.526 722.607 481.651 722.885C480.789 728.501 476.178 735.715 473.59 740.887C473.492 740.718 473.375 740.559 473.297 740.38C471.855 737.057 472.213 726.682 473.454 723.293L475.248 722.501Z"/>
	<path fill="#CCC" transform="matrix(1.2643 0 0 1.26465 0.00012207 -6.10352e-05)" d="M485.215 833.726C502.764 811.376 520.77 789.403 537.815 766.661L555.498 833.986C532.147 834.562 508.618 833.411 485.215 833.726Z"/>
	<path fill="#A9A9A9" transform="matrix(1.2643 0 0 1.26465 0.00012207 -6.10352e-05)" d="M447.745 621.096C455.892 619.395 466.442 620.676 474.862 620.686L534.71 620.689L787.981 620.545C791.904 620.47 804.788 619.08 807.517 621.028C807.324 623.295 807.65 624.764 805.923 626.404C801.139 627.882 794.677 627.789 789.853 626.504L788.701 625.339L573.263 626.017C539.422 626.056 505.435 625.351 471.613 625.934C472.003 638.464 470.977 738.836 472.247 741.159L472.922 740.906L473.031 741.618L473.242 741.774C471.43 750.666 472.712 771.322 472.642 781.558Q472.2 816.564 471.199 851.559C475.701 845.507 480.549 839.656 485.215 833.726C508.618 833.411 532.147 834.562 555.498 833.986C557.134 840.418 568.987 889.824 571.265 891.272C572.284 891.92 573.353 892.012 574.52 892.185C579.738 890.704 587.29 891.147 592.807 890.778L601.595 889.719L606.495 889.349L610.289 901.021C632.318 901.515 654.415 900.71 676.454 900.616L790.499 900.586C790.424 915.549 790.516 930.541 789.975 945.495L808.901 945.446L808.688 900.823L808.794 833.404Q880.34 833.76 951.885 833.359L1045.11 833.408C1057.5 833.388 1069.99 833.812 1082.36 833.532C1084.66 833.48 1086.86 833.583 1088.98 832.639L1089.27 831.38C1087.95 831.371 1086.66 831.26 1085.35 831.13C1081.48 826.584 1086.15 819.445 1083.06 814.126C1103.84 813.34 1127.66 815.575 1147.78 813.699L1151.99 813.759C1172.93 814.664 1194.03 813.339 1214.93 814.484C1216.92 817.832 1216.89 825.893 1215.78 829.638C1215.67 830.009 1215.46 830.43 1215.31 830.769C1212.4 831.815 1209.09 831.216 1206.04 831.601C1207.51 834.904 1206.49 839.673 1205.97 843.18L1205.96 843.88C1205.43 853.208 1200.91 902.156 1198.66 908.489C1206.94 909.802 1215.89 909.56 1224.28 910.127C1239.08 911.126 1253.48 913.145 1268.15 914.983C1281.67 916.676 1298.59 917.09 1311.07 922.997C1313.37 924.085 1315.46 925.328 1316.32 927.792C1314.77 930.36 1309.52 932.001 1306.67 932.834C1299.8 934.843 1292.37 935.8 1285.3 936.997C1256.76 941.832 1228.29 943.518 1199.44 945.176Q1127.57 949.738 1055.57 951.353Q926.554 955.278 797.489 956.93C745.822 957.274 694.177 956.341 642.526 956.342C496.37 956.344 349.912 955.36 204.119 944.018C186.175 942.622 127.568 939 114.405 930.761C112.744 929.722 112.386 929.207 111.958 927.355C112.314 926.71 112.62 926.144 113.172 925.642C126.358 913.648 258.686 907.22 281.695 907.769C278.876 917.587 273.148 929.009 272.728 939.13L273.705 939.911C275.123 940.019 276.817 940.323 278.139 939.678C281.356 938.108 289.82 912.079 291.48 907.211C300.974 906.833 378.246 905.542 381.149 902.896C384.128 894.787 389.214 884.592 397.116 880.216C407.48 874.491 414.068 864.067 418.287 853.349C419.664 846.799 423.334 840.07 426.055 833.934C431.148 824.252 435.101 813.41 439.64 803.403C442.483 796.861 445.63 790.435 448.676 783.985Q452.504 776.502 456.104 768.907C456.571 768.268 456.646 768.297 456.849 767.671C458.245 763.372 458.263 724.899 456.838 722.139C455.249 715.525 456.436 704.298 456.44 697.155L456.448 641.176L456.388 630.197C456.478 627.554 457.022 624.318 455.798 621.917C453.533 620.522 450.333 621.043 447.745 621.096Z"/>
	<path fill="#E7E7EA" transform="matrix(1.2643 0 0 1.26465 0.00012207 -6.10352e-05)" d="M456.681 869.207C457.74 876.087 457.285 883.487 457.251 890.445C454.559 886.418 453.301 881.969 450.037 878.158C452.399 875.301 454.51 872.213 456.681 869.207Z"/>
	<path fill="#C3C3C3" transform="matrix(1.2643 0 0 1.26465 0.00012207 -6.10352e-05)" d="M446.906 876.717L450.037 878.158C453.301 881.969 454.559 886.418 457.251 890.445C457.59 894.785 457.532 899.078 457.456 903.425C453.608 903.572 449.729 903.622 445.888 903.881C443.291 901.649 440.998 897.62 440.59 894.248C439.818 887.865 442.904 881.486 446.906 876.717Z"/>
	<path fill="#E7E7EA" transform="matrix(1.2643 0 0 1.26465 0.00012207 -6.10352e-05)" d="M471.164 880.339C476.153 886.445 477.827 896.287 481.172 903.491C483.579 910.185 485.826 917.03 488.542 923.602C489.999 927.126 492.417 930.616 493.444 934.271C493.941 936.037 494.093 936.751 493.163 938.286C491.273 938.51 489.769 938.41 487.904 938.043C481.761 929.532 478.505 913.196 471.383 902.595L470.83 901.783Q470.865 891.059 471.164 880.339Z"/>
	<path fill="#354F7E" transform="matrix(1.2643 0 0 1.26465 0.00012207 -6.10352e-05)" d="M397.116 880.216C408.439 896.582 423.802 925.4 444.713 929.172C447.708 929.712 451.009 929.628 454.043 929.524C458.819 929.988 461.569 930.342 464.953 934.095C467.364 936.769 469.583 939.621 469.413 943.409C468.666 944.873 468.551 945.324 467.118 946.215C461.1 946.168 452.941 947.188 447.231 945.328C435.863 941.626 393.585 911.304 381.149 902.896C384.128 894.787 389.214 884.592 397.116 880.216Z"/>
	<path fill="#E19E4C" transform="matrix(1.2643 0 0 1.26465 0.00012207 -6.10352e-05)" d="M397.116 880.216C407.48 874.491 414.068 864.067 418.287 853.349C425.281 864.794 437.853 868.069 446.906 876.717C442.904 881.486 439.818 887.865 440.59 894.248C440.998 897.62 443.291 901.649 445.888 903.881C451.457 911.57 453.334 920.184 454.043 929.524C451.009 929.628 447.708 929.712 444.713 929.172C423.802 925.4 408.439 896.582 397.116 880.216Z"/>
	<path fill="#878787" transform="matrix(1.2643 0 0 1.26465 0.00012207 -6.10352e-05)" d="M456.104 768.907C457.004 776.791 457.768 866.15 456.681 869.207C454.51 872.213 452.399 875.301 450.037 878.158L446.906 876.717C437.853 868.069 425.281 864.794 418.287 853.349C419.664 846.799 423.334 840.07 426.055 833.934C431.148 824.252 435.101 813.41 439.64 803.403C442.483 796.861 445.63 790.435 448.676 783.985Q452.504 776.502 456.104 768.907Z"/>
	<path fill="#354F7E" transform="matrix(1.2643 0 0 1.26465 0.00012207 -6.10352e-05)" d="M601.595 889.719L606.495 889.349L610.289 901.021C611.769 904.094 613.209 907.586 615.606 910.066C622.249 916.938 647.8 926.747 657.645 931.354C660.472 931.705 663.857 932.915 666.465 934.052C669.624 935.43 674.242 939.457 675.192 942.821C675.65 944.443 675.243 945.205 674.432 946.576C667.48 948.419 646.207 947.027 637.781 947.009L572.236 947.234C572.084 941.041 571.513 934.332 572.527 928.217C573.308 923.512 575.103 919.608 579.087 916.762Q577.627 908.44 575.963 900.157C575.693 897.431 575.132 894.849 574.52 892.185C579.738 890.704 587.29 891.147 592.807 890.778L601.595 889.719Z"/>
	<path fill="#E19E4C" transform="matrix(1.2643 0 0 1.26465 0.00012207 -6.10352e-05)" d="M601.595 889.719L606.495 889.349L610.289 901.021C611.769 904.094 613.209 907.586 615.606 910.066C622.249 916.938 647.8 926.747 657.645 931.354C636.431 936.111 614.279 932.406 594.306 924.338C588.955 922.379 584.049 919.524 579.087 916.762Q577.627 908.44 575.963 900.157C575.693 897.431 575.132 894.849 574.52 892.185C579.738 890.704 587.29 891.147 592.807 890.778L601.595 889.719Z"/>
	<path fill="#CB8034" transform="matrix(1.2643 0 0 1.26465 0.00012207 -6.10352e-05)" d="M574.52 892.185C579.738 890.704 587.29 891.147 592.807 890.778C591.262 899.547 586.9 913.824 592.323 921.669Q593.276 923.032 594.306 924.338C588.955 922.379 584.049 919.524 579.087 916.762Q577.627 908.44 575.963 900.157C575.693 897.431 575.132 894.849 574.52 892.185Z"/>
	<path fill="#C3C3C3" transform="matrix(1.2643 0 0 1.26465 0.00012207 -6.10352e-05)" d="M471.199 851.559C475.701 845.507 480.549 839.656 485.215 833.726C508.618 833.411 532.147 834.562 555.498 833.986C557.134 840.418 568.987 889.824 571.265 891.272C572.284 891.92 573.353 892.012 574.52 892.185C575.132 894.849 575.693 897.431 575.963 900.157C574.9 901.407 574.707 901.238 573.069 901.386C563.53 902.249 553.322 901.338 543.701 901.439C530.367 901.579 517.049 902.504 503.715 902.695C497.981 902.777 486.214 901.653 481.172 903.491C477.827 896.287 476.153 886.445 471.164 880.339C471.123 880.227 471.064 880.12 471.042 880.003C470.053 874.641 471.252 868.041 471.094 862.512C471.017 859.8 469.956 855.249 470.439 852.775C470.531 852.306 470.946 851.964 471.199 851.559Z"/>
	<path fill="#CB8034" transform="matrix(1.2643 0 0 1.26465 0.00012207 -6.10352e-05)" d="M1147.78 813.699L1151.99 813.759C1172.93 814.664 1194.03 813.339 1214.93 814.484C1216.92 817.832 1216.89 825.893 1215.78 829.638C1215.67 830.009 1215.46 830.43 1215.31 830.769C1212.4 831.815 1209.09 831.216 1206.04 831.601C1207.51 834.904 1206.49 839.673 1205.97 843.18L1205.96 843.88C1205.43 853.208 1200.91 902.156 1198.66 908.489C1199.44 912.342 1198.95 927.165 1197.04 930.382C1196.95 930.532 1196.83 930.663 1196.72 930.803Q1151.97 930.606 1107.22 930.86C1108.59 927.267 1107.47 923.089 1106.22 919.6C1106.28 919.275 1106.37 918.954 1106.41 918.625C1106.8 915.257 1106.06 908.205 1103.97 905.651C1104.14 905.157 1104.37 904.604 1104.46 904.074C1105.18 899.528 1095.78 845.584 1093.63 842.479C1094.6 839.059 1093.24 835.174 1092.02 831.967L1089.27 831.38C1087.95 831.371 1086.66 831.26 1085.35 831.13C1081.48 826.584 1086.15 819.445 1083.06 814.126C1103.84 813.34 1127.66 815.575 1147.78 813.699Z"/>
	<path fill="#CF753C" transform="matrix(1.2643 0 0 1.26465 0.00012207 -6.10352e-05)" d="M1195.63 831.346C1198.96 831.291 1202.79 830.889 1206.04 831.601C1207.51 834.904 1206.49 839.673 1205.97 843.18C1202.64 843.661 1198.69 843.165 1195.3 843.079C1196.69 839.657 1196.12 834.96 1195.63 831.346Z"/>
	<path fill="#E19E4C" transform="matrix(1.2643 0 0 1.26465 0.00012207 -6.10352e-05)" d="M1147.78 813.699L1151.99 813.759C1172.93 814.664 1194.03 813.339 1214.93 814.484C1216.92 817.832 1216.89 825.893 1215.78 829.638C1215.67 830.009 1215.46 830.43 1215.31 830.769C1212.4 831.815 1209.09 831.216 1206.04 831.601C1202.79 830.889 1198.96 831.291 1195.63 831.346C1188.62 830.515 1181.17 830.824 1174.11 830.77L1133.1 830.688C1121.67 830.683 1105.38 829.52 1094.52 830.867C1093.46 830.999 1092.86 831.343 1092.02 831.967L1089.27 831.38C1087.95 831.371 1086.66 831.26 1085.35 831.13C1081.48 826.584 1086.15 819.445 1083.06 814.126C1103.84 813.34 1127.66 815.575 1147.78 813.699Z"/>
	<path fill="#E19E4C" transform="matrix(1.2643 0 0 1.26465 0.00012207 -6.10352e-05)" d="M1093.63 842.479C1123.37 842.951 1153.26 842.607 1182.97 843.437C1186.57 843.915 1190.07 844.096 1193.7 844.132C1195.45 853.136 1184.16 868.09 1179.32 875.283C1165.15 896.377 1143.89 913.325 1118.47 918.239C1114.44 919.019 1110.31 919.289 1106.22 919.6C1106.28 919.275 1106.37 918.954 1106.41 918.625C1106.8 915.257 1106.06 908.205 1103.97 905.651C1104.14 905.157 1104.37 904.604 1104.46 904.074C1105.18 899.528 1095.78 845.584 1093.63 842.479Z"/>
	<path fill="#C3C3C3" transform="matrix(1.2643 0 0 1.26465 0.00012207 -6.10352e-05)" d="M1089.27 831.38L1092.02 831.967C1093.24 835.174 1094.6 839.059 1093.63 842.479C1095.78 845.584 1105.18 899.528 1104.46 904.074C1104.37 904.604 1104.14 905.157 1103.97 905.651C1103.07 906.132 1054.1 904.072 1048.93 903.955Q928.823 901.334 808.688 900.823L808.794 833.404Q880.34 833.76 951.885 833.359L1045.11 833.408C1057.5 833.388 1069.99 833.812 1082.36 833.532C1084.66 833.48 1086.86 833.583 1088.98 832.639L1089.27 831.38Z"/>
</svg>
