<?xml version="1.0" encoding="utf-8" ?>
<svg xmlns="http://www.w3.org/2000/svg" xmlns:xlink="http://www.w3.org/1999/xlink" width="1813" height="1295">
	<path fill="#CCC" transform="matrix(1.2643 0 0 1.26465 0.00012207 -6.10352e-05)" d="M0 0L1432.77 0C1433.55 1.35287 1433.84 2.273 1433.92 3.82991C1434.39 14.2948 1434 24.9358 1434 35.4235L1434 96.5893L1434.01 282.797L1434 835.994L1434 973.892C1434.01 983.184 1435.15 1015.65 1433.74 1021.9C1433.56 1022.7 1433.19 1023.31 1432.77 1024L0 1024L0 0Z"/>
	<path fill="#A9A9A9" transform="matrix(1.2643 0 0 1.26465 0.00012207 -6.10352e-05)" d="M205.975 910.929C206.781 920.088 203.062 935.512 210.76 942.007C211.407 942.554 211.423 942.536 212.039 942.904C214.032 944.189 215.749 944.992 218.126 945.238C226.847 946.14 236.051 945.564 244.833 945.564L293.847 945.612L360.07 945.679C371.925 945.683 384.085 946.226 395.909 945.402C399.528 945.149 402.752 944.997 405.619 942.544C410.358 938.49 409.999 931.456 410.349 925.751C414.022 933.123 415.693 939.806 424.45 942.704C432.485 945.363 517.726 943.562 531.452 943.548L570.262 943.507C576.673 943.501 583.431 943.943 589.808 943.416C632.731 942.667 675.809 943.382 718.75 943.345L924.141 942.77C950.121 942.758 976.209 943.596 1002.17 943.239C1008.52 943.151 1015.19 942.19 1019.71 937.244C1023.42 933.19 1024.07 927.579 1023.69 922.343C1030.54 922.534 1082.63 923.089 1085.07 921.816C1085.92 924.155 1085.92 924.201 1085.05 926.527C1090.21 925.766 1095.44 925.475 1100.64 925.094C1101.18 923.98 1101.27 923.057 1101.42 921.843C1101.76 922.073 1102.06 922.403 1102.45 922.531C1104.76 923.28 1115.36 922.099 1118.66 922.064Q1135.52 922.026 1152.38 922.204C1157.27 922.24 1162.58 922.943 1167.4 922.194L1167.84 921.03C1168.04 919.174 1168.04 919.069 1167.13 917.444C1171.28 917.541 1176.43 917.887 1180.34 916.28L1183.26 916.24C1184.78 919.281 1184.39 922.138 1185.24 925.268C1204.26 925.214 1284.58 930.217 1297.7 940.349L1298.25 941.84C1296.51 945.042 1291.15 946.269 1287.88 947.218C1260.89 955.056 1214.37 957.166 1185.69 958.789C1127.17 962.101 1068.84 963.651 1010.25 964.854Q778.921 969.59 547.563 966.58C427.59 965.042 307.422 963.286 187.9 952.023C174.549 950.765 141.117 949.026 130.768 943.778C129.978 943.378 129.481 942.958 128.826 942.368L128.441 940.954C130.259 937.991 135.074 936.97 138.295 936.232Q140.263 935.8 142.258 935.517C162.233 930.497 185.143 928.983 205.756 927.948Q205.628 919.435 205.975 910.929Z"/>
	<path fill="#393A39" transform="matrix(1.2643 0 0 1.26465 0.00012207 -6.10352e-05)" d="M1100.64 925.094C1101.62 925.381 1102.58 925.359 1103.07 926.309C1104.4 928.862 1105.07 940.283 1104.28 943.146C1104.17 943.549 1103.87 944.09 1103.7 944.437C1097.21 944.495 1054.78 945.634 1051.95 942.919C1051.39 940.832 1050.91 938.955 1051.95 936.932C1053.29 934.32 1056.6 933.105 1059.28 932.408C1064.72 930.994 1081.63 929.604 1085.05 926.527C1090.21 925.766 1095.44 925.475 1100.64 925.094Z"/>
	<path fill="#393A39" transform="matrix(1.2643 0 0 1.26465 0.00012207 -6.10352e-05)" d="M1180.34 916.28L1183.26 916.24C1184.78 919.281 1184.39 922.138 1185.24 925.268L1185.26 925.837C1186.32 925.916 1187.65 925.714 1188.4 926.509C1190.54 928.759 1190.53 939.419 1190.05 942.372C1189.9 943.35 1189.57 943.963 1189.12 944.833C1182.65 944.833 1139.93 945.629 1137.53 944.766C1137.07 944.602 1136.81 944.107 1136.46 943.777C1136.06 941.133 1135.75 938.822 1137.48 936.572C1142.86 929.595 1162.99 931.846 1168.4 927.135C1168.72 926.557 1169.19 925.834 1169.35 925.174C1169.81 923.311 1168.83 922.427 1167.84 921.03C1168.04 919.174 1168.04 919.069 1167.13 917.444C1171.28 917.541 1176.43 917.887 1180.34 916.28Z"/>
	<path fill="#878787" transform="matrix(1.2643 0 0 1.26465 0.00012207 -6.10352e-05)" d="M1180.34 916.28L1183.26 916.24C1184.78 919.281 1184.39 922.138 1185.24 925.268L1185.26 925.837C1179.7 926.118 1173.86 926.053 1168.4 927.135C1168.72 926.557 1169.19 925.834 1169.35 925.174C1169.81 923.311 1168.83 922.427 1167.84 921.03C1168.04 919.174 1168.04 919.069 1167.13 917.444C1171.28 917.541 1176.43 917.887 1180.34 916.28Z"/>
	<path fill="#E7E7EA" transform="matrix(1.2643 0 0 1.26465 0.00012207 -6.10352e-05)" d="M142.258 935.517C141.808 935.023 141.685 934.921 141.283 934.273C133.878 922.324 127.793 902.343 123.597 888.684C93.0183 789.131 104.584 669.244 132.851 570.302Q140.618 542.406 150.468 515.177Q160.318 487.947 172.194 461.539C200.997 398.371 253.816 312.361 315.948 277.999C337.694 265.973 362.003 260.325 386.769 264.73C395.437 266.271 404.021 269.087 412.474 271.506L412.471 637.349L412.327 742.785C412.314 759.807 412.815 776.955 412.348 793.961C412.278 796.479 412.308 799.323 411.276 801.651L410.786 801.253C409.07 810.914 410.388 827.5 410.403 837.839C410.445 867.136 410.713 896.458 410.349 925.751C409.999 931.456 410.358 938.49 405.619 942.544C402.752 944.997 399.528 945.149 395.909 945.402C384.085 946.226 371.925 945.683 360.07 945.679L293.847 945.612L244.833 945.564C236.051 945.564 226.847 946.14 218.126 945.238C215.749 944.992 214.032 944.189 212.039 942.904C211.423 942.536 211.407 942.554 210.76 942.007C203.062 935.512 206.781 920.088 205.975 910.929Q205.628 919.435 205.756 927.948C185.143 928.983 162.233 930.497 142.258 935.517Z"/>
	<path fill="#49774C" transform="matrix(1.2643 0 0 1.26465 0.00012207 -6.10352e-05)" d="M249.563 786.848C248.718 780.257 249.023 773.381 249.02 766.735C249.013 747.606 249.218 731.18 261.662 715.313Q262.552 714.192 263.496 713.116Q264.44 712.041 265.436 711.012Q266.431 709.984 267.476 709.006Q268.521 708.028 269.612 707.102Q270.704 706.177 271.839 705.306Q272.975 704.435 274.152 703.621Q275.329 702.806 276.544 702.051Q277.76 701.296 279.011 700.601Q280.262 699.906 281.545 699.273Q282.829 698.64 284.142 698.071Q285.455 697.502 286.794 696.998Q288.134 696.495 289.496 696.057Q290.858 695.619 292.241 695.249Q293.623 694.879 295.022 694.577Q296.421 694.275 297.832 694.042Q299.244 693.809 300.666 693.646C314.89 691.95 329.872 696.785 341.009 705.678Q342.056 706.53 343.059 707.432Q344.062 708.335 345.019 709.286Q345.976 710.238 346.885 711.235Q347.794 712.233 348.652 713.275Q349.51 714.316 350.315 715.399Q351.121 716.482 351.871 717.604Q352.622 718.725 353.316 719.883Q354.01 721.04 354.646 722.23Q355.282 723.421 355.858 724.641Q356.434 725.862 356.949 727.11Q357.464 728.357 357.916 729.629Q358.368 730.901 358.756 732.193Q359.145 733.486 359.469 734.796Q359.793 736.106 360.051 737.431Q360.31 738.755 360.503 740.091Q360.695 741.427 360.821 742.771C362.374 757.801 361.114 773.494 361.33 788.622C372.149 788.525 398.466 785.717 405.988 792.87C408.264 795.034 409.87 798.284 410.786 801.253C409.07 810.914 410.388 827.5 410.403 837.839C410.445 867.136 410.713 896.458 410.349 925.751C409.999 931.456 410.358 938.49 405.619 942.544C402.752 944.997 399.528 945.149 395.909 945.402C384.085 946.226 371.925 945.683 360.07 945.679L293.847 945.612L244.833 945.564C236.051 945.564 226.847 946.14 218.126 945.238C215.749 944.992 214.032 944.189 212.039 942.904C211.423 942.536 211.407 942.554 210.76 942.007C203.062 935.512 206.781 920.088 205.975 910.929L205.842 834.9C205.815 823.724 204.516 810.649 206.282 799.685C206.738 796.854 207.908 794.054 210.013 792.052C217.168 785.25 233.85 788.854 243.099 788.679C245.73 788.63 247.705 788.787 249.563 786.848Z"/>
	<path fill="#E7E7EA" transform="matrix(1.2643 0 0 1.26465 0.00012207 -6.10352e-05)" d="M271.095 788.478C270.994 775.446 268.917 748.376 273.175 737.319C276.399 728.95 283.408 722.359 291.57 718.848C301.225 714.694 310.206 715.648 319.763 719.408C328.595 725.089 335.324 731.952 337.602 742.545C340.226 754.751 338.123 775.32 338.217 788.496L309.871 788.365L271.095 788.478Z"/>
	<path fill="#365F3D" transform="matrix(1.2643 0 0 1.26465 0.00012207 -6.10352e-05)" d="M249.563 786.848C248.718 780.257 249.023 773.381 249.02 766.735C249.013 747.606 249.218 731.18 261.662 715.313Q262.552 714.192 263.496 713.116Q264.44 712.041 265.436 711.012Q266.431 709.984 267.476 709.006Q268.521 708.028 269.612 707.102Q270.704 706.177 271.839 705.306Q272.975 704.435 274.152 703.621Q275.329 702.806 276.544 702.051Q277.76 701.296 279.011 700.601Q280.262 699.906 281.545 699.273Q282.829 698.64 284.142 698.071Q285.455 697.502 286.794 696.998Q288.134 696.495 289.496 696.057Q290.858 695.619 292.241 695.249Q293.623 694.879 295.022 694.577Q296.421 694.275 297.832 694.042Q299.244 693.809 300.666 693.646C314.89 691.95 329.872 696.785 341.009 705.678Q342.056 706.53 343.059 707.432Q344.062 708.335 345.019 709.286Q345.976 710.238 346.885 711.235Q347.794 712.233 348.652 713.275Q349.51 714.316 350.315 715.399Q351.121 716.482 351.871 717.604Q352.622 718.725 353.316 719.883Q354.01 721.04 354.646 722.23Q355.282 723.421 355.858 724.641Q356.434 725.862 356.949 727.11Q357.464 728.357 357.916 729.629Q358.368 730.901 358.756 732.193Q359.145 733.486 359.469 734.796Q359.793 736.106 360.051 737.431Q360.31 738.755 360.503 740.091Q360.695 741.427 360.821 742.771C362.374 757.801 361.114 773.494 361.33 788.622C372.149 788.525 398.466 785.717 405.988 792.87C408.264 795.034 409.87 798.284 410.786 801.253C409.07 810.914 410.388 827.5 410.403 837.839C410.445 867.136 410.713 896.458 410.349 925.751C409.999 931.456 410.358 938.49 405.619 942.544C402.752 944.997 399.528 945.149 395.909 945.402C384.085 946.226 371.925 945.683 360.07 945.679L293.847 945.612L244.833 945.564C236.051 945.564 226.847 946.14 218.126 945.238C215.749 944.992 214.032 944.189 212.039 942.904C217.304 942.38 223.7 943.581 229.091 943.701C245.525 944.07 262.01 943.86 278.449 943.857C287.381 943.856 298.293 945.024 306.932 943.106C308.465 941.422 308.431 938.753 308.719 936.568L362.546 936.571C371.36 936.564 380.898 937.262 389.618 936.231C392.555 935.884 397.361 935.054 399.373 932.736C401.217 930.61 401.363 925.363 401.384 922.636C401.558 900.237 400.713 877.808 400.674 855.403C400.646 839.587 401.721 823.065 400.534 807.328C400.323 804.53 400.06 800.596 398.019 798.533C387.89 795.328 324.67 797.516 309.768 797.708L309.871 788.365L338.217 788.496C338.123 775.32 340.226 754.751 337.602 742.545C335.324 731.952 328.595 725.089 319.763 719.408L320.231 717.972C317.355 716.364 314.014 715.581 310.865 714.637C300.331 713.771 290.269 715.592 282.007 722.61C274.402 729.069 270.265 738.618 269.619 748.475C268.759 761.581 269.485 775.111 269.583 788.254C263.609 788.49 256.613 789.413 250.724 788.269C250.806 785.208 250.715 782.163 250.624 779.104C250.224 781.629 250.411 784.462 249.563 786.848Z"/>
	<path fill="#9A9A9A" transform="matrix(1.2643 0 0 1.26465 0.00012207 -6.10352e-05)" d="M302.147 695.401C314.933 693.228 327.707 698.487 338.013 705.803C349.319 713.829 356.534 726.361 358.689 740.008C361.112 755.36 359.128 773.076 359.196 788.702L340.08 788.602L340.262 764.675C340.366 749.762 341.113 736.538 329.814 725.021C326.954 722.106 323.76 719.982 320.231 717.972C317.355 716.364 314.014 715.581 310.865 714.637C311.422 711.9 309.99 708.925 310.151 706.082C310.209 705.055 310.146 704.383 309.822 703.378C309.801 700.99 309.926 698.667 309.167 696.375C307.285 694.958 304.419 695.397 302.147 695.401Z"/>
	<path fill="#CCC" transform="matrix(1.2643 0 0 1.26465 0.00012207 -6.10352e-05)" d="M250.624 779.104C251.976 756.575 247.582 735.268 263.226 716.154Q264.124 715.06 265.075 714.012Q266.025 712.964 267.026 711.964Q268.027 710.964 269.076 710.015Q270.125 709.065 271.22 708.168Q272.314 707.271 273.451 706.429Q274.588 705.587 275.765 704.802Q276.942 704.017 278.157 703.29Q279.371 702.564 280.619 701.898Q281.868 701.233 283.148 700.629Q284.427 700.026 285.735 699.486Q287.043 698.946 288.376 698.471Q289.708 697.996 291.063 697.587Q292.417 697.179 293.79 696.837Q295.163 696.495 296.551 696.221Q297.939 695.948 299.339 695.742Q300.739 695.537 302.147 695.401C304.419 695.397 307.285 694.958 309.167 696.375C309.926 698.667 309.801 700.99 309.822 703.378C310.146 704.383 310.209 705.055 310.151 706.082C309.99 708.925 311.422 711.9 310.865 714.637C300.331 713.771 290.269 715.592 282.007 722.61C274.402 729.069 270.265 738.618 269.619 748.475C268.759 761.581 269.485 775.111 269.583 788.254C263.609 788.49 256.613 789.413 250.724 788.269C250.806 785.208 250.715 782.163 250.624 779.104Z"/>
	<path fill="#A9A9A9" transform="matrix(1.2643 0 0 1.26465 0.00012207 -6.10352e-05)" d="M309.822 703.378C310.146 704.383 310.209 705.055 310.151 706.082C309.99 708.925 311.422 711.9 310.865 714.637C300.331 713.771 290.269 715.592 282.007 722.61C274.402 729.069 270.265 738.618 269.619 748.475C268.759 761.581 269.485 775.111 269.583 788.254C263.609 788.49 256.613 789.413 250.724 788.269C254.793 787.669 259.138 787.894 263.253 787.84C263.287 765.056 258.208 737.448 275.468 719.488C283.01 711.64 294.146 705.675 305.211 705.467C306.675 705.44 307.839 705.348 309.256 704.987L309.822 703.378Z"/>
	<path fill="#878787" transform="matrix(1.2643 0 0 1.26465 0.00012207 -6.10352e-05)" d="M308.628 936.199C296.56 936.136 222.1 937.914 218.39 934.864C216.193 933.059 215.453 931.188 215.207 928.384C214.554 920.937 215.021 913.081 215.042 905.599L215.263 861.529L215.439 824.58C215.473 818.149 215.011 811.179 215.785 804.808C215.995 803.084 216.618 801.528 217.834 800.254C218.434 799.626 219.557 798.514 220.342 798.142C223.074 796.844 299.506 797.741 309.487 797.749C309.492 806.089 307.906 828.577 310.238 835.252C316.357 836.774 321.916 839.301 325.336 844.905C327.99 849.253 328.831 854.285 327.539 859.21C326.266 864.064 323.402 867.294 319.525 870.33C319.612 879.904 320.18 889.938 319.023 899.444L308.757 899.54L308.628 936.199Z"/>
	<path fill="#E7E7EA" transform="matrix(1.2643 0 0 1.26465 0.00012207 -6.10352e-05)" d="M310.238 835.252C316.357 836.774 321.916 839.301 325.336 844.905C327.99 849.253 328.831 854.285 327.539 859.21C326.266 864.064 323.402 867.294 319.525 870.33C319.612 879.904 320.18 889.938 319.023 899.444L308.757 899.54C306.281 899.678 302.949 900.253 301.002 898.393C296.464 894.058 298.497 876.651 298.473 870.387C292.769 865.863 291.038 861.888 288.975 855.063C289.854 850.506 290.996 846.158 294.003 842.485C298.276 837.267 303.832 835.895 310.238 835.252Z"/>
	<path fill="#E7E7EA" transform="matrix(1.2643 0 0 1.26465 0.00012207 -6.10352e-05)" d="M859.913 153.896C889.193 140.663 917.003 124.412 946.424 111.341C1020.51 78.4277 1118.36 50.1636 1199.38 62.8015C1214.22 65.1163 1229.21 69.4257 1243.25 74.7046C1277.25 87.4791 1300.24 110.952 1315.05 143.892C1329.09 175.086 1334.12 208.87 1336.7 242.697C1345.39 356.707 1320.84 473.997 1280.32 580.218C1265.43 619.263 1249.44 657.636 1229.76 694.571C1217.89 716.835 1204.42 738.154 1191.12 759.567C1189.08 762.85 1182.35 776.454 1179.83 777.914L1177.71 777.352C1179.07 772.984 1171.87 666.875 1169.86 662.497L1171.2 660.786C1172.05 653.947 1172.86 610.788 1171.12 606.689C1164.3 607.909 1157.73 610.632 1150.87 611.406C1143.33 613.064 1106.79 621.07 1101.91 618.673C1101.59 617.631 1101.26 616.655 1101.13 615.569L1100.59 614.993C1099.08 617.652 1095.64 618.196 1092.75 618.997Q1086.25 620.779 1079.64 622.06C1072.96 620.799 1075.36 616.256 1071.25 613.438C1070.31 612.796 1069.02 613.305 1067.92 613.466C1068.2 610.506 1068.2 608.061 1067.69 605.123C1067.9 604.613 1068.06 604.105 1068.18 603.563C1069.28 598.508 1069.93 532.297 1068.99 529.189C1068.81 528.564 1068.32 528.073 1067.98 527.515L1068.08 526.57C1064.84 524.539 1044.62 525.799 1039.64 525.83C1039.75 525.621 1039.91 525.431 1039.98 525.204C1040.67 523.077 1040.61 520.402 1039.76 518.38C1040.33 516.268 1040.76 514.603 1040.54 512.39C1036.91 508.512 1030.49 513.355 1025.53 510.742C1025.07 508.765 1024.7 506.786 1024.36 504.783L1023.54 503.659C1022.3 500.968 1020.05 498.005 1017.44 496.545C1014.39 494.837 1010.69 494.071 1007.3 495.184C1004.24 496.191 1001.98 498.463 1000.59 501.32L999.904 501.231L999.587 500.855C1000.33 493.439 999.757 485.453 999.762 477.972L999.773 361.582C999.17 356.935 999.362 352.037 999.267 347.348L999.326 195.523C991.938 193.892 968.104 195.218 958.924 195.238L859.243 195.361C859.15 186.239 857.778 174.791 859.699 165.939L859.818 165.204Q859.937 159.551 859.913 153.896Z"/>
	<path fill="#4F504E" transform="matrix(1.2643 0 0 1.26465 0.00012207 -6.10352e-05)" d="M1057.87 477.402L1059.59 478.63C1060.33 485.832 1055.58 514.069 1057.86 517.789C1054.41 518.726 1050.06 519.084 1046.56 518.325C1048.6 513.754 1047.64 501.714 1048.3 495.823C1048.71 492.177 1050.41 487.453 1049.76 483.943C1052.72 482.394 1055.42 479.643 1057.87 477.402Z"/>
	<path fill="#878787" transform="matrix(1.2643 0 0 1.26465 0.00012207 -6.10352e-05)" d="M999.832 322.37C1007.34 316.567 1018.77 299.153 1024.47 296.134L1024.57 297.76C1026.7 306.404 1025.54 336.987 1025.58 347.597L1025.44 415.973C1025.42 429.099 1025.93 442.489 1025.23 455.587C1025.15 457.08 1024.9 457.94 1024.14 459.233C1026.05 462.935 1026.15 498.72 1024.91 503.377C1024.79 503.824 1024.53 504.379 1024.36 504.783L1023.54 503.659C1022.3 500.968 1020.05 498.005 1017.44 496.545C1014.39 494.837 1010.69 494.071 1007.3 495.184C1004.24 496.191 1001.98 498.463 1000.59 501.32L999.904 501.231L999.587 500.855C1000.33 493.439 999.757 485.453 999.762 477.972L999.773 361.582C1001.13 348.964 999.982 335.097 999.832 322.37Z"/>
	<path fill="#393A39" transform="matrix(1.2643 0 0 1.26465 0.00012207 -6.10352e-05)" d="M1061.63 358.704C1071.15 358.725 1119.83 355.224 1124.29 358.544C1133.12 360.516 1140.89 368.387 1145.55 375.816C1151.6 385.449 1153.85 397.588 1151.27 408.706C1149.18 417.72 1144.11 424.942 1136.28 429.845Q1133.94 431.284 1131.38 432.269C1131.07 434.501 1130.96 437.064 1130.08 439.143C1132.31 442.304 1132.3 453.706 1131.6 457.692C1131.43 458.649 1131.09 459.239 1130.63 460.079C1123.61 465.32 1115.18 472.367 1107.26 476.001C1106.96 472.483 1103.05 467.516 1100.48 465.096C1100.44 464.908 1100.43 464.717 1100.38 464.534C1099.77 462.419 1098.27 461.11 1096.44 460.054C1098.01 457.915 1097.34 455.759 1097.02 453.317L1096.4 452.789C1094.18 452.566 1092.11 452.123 1090.03 451.336C1074.87 445.624 1074.7 434.679 1075.74 420.655C1076.31 412.95 1077.26 405.278 1077.8 397.57C1078.03 394.283 1078.75 390.396 1077.36 387.321C1075.89 385.495 1073.85 384.338 1072.25 382.628C1067.55 377.611 1065.96 372.432 1063.19 366.377C1063.24 366.182 1063.31 365.992 1063.34 365.792C1063.71 363.428 1062.84 360.719 1061.63 358.704Z"/>
	<path fill="#A9A9A9" transform="matrix(1.2643 0 0 1.26465 0.00012207 -6.10352e-05)" d="M1121.6 414.611C1121.86 414.42 1122.13 414.24 1122.38 414.038C1126 411.126 1124.44 401.858 1131.05 401.905C1133.79 401.924 1137.36 404.423 1139.06 406.45C1140.44 408.095 1141.13 410.182 1140.87 412.326C1139.9 420.162 1134.1 421.227 1131.88 425.509C1131.17 426.873 1131.42 430.608 1131.38 432.269C1131.07 434.501 1130.96 437.064 1130.08 439.143C1132.31 442.304 1132.3 453.706 1131.6 457.692C1131.43 458.649 1131.09 459.239 1130.63 460.079C1123.61 465.32 1115.18 472.367 1107.26 476.001C1106.96 472.483 1103.05 467.516 1100.48 465.096C1100.44 464.908 1100.43 464.717 1100.38 464.534C1099.77 462.419 1098.27 461.11 1096.44 460.054C1098.01 457.915 1097.34 455.759 1097.02 453.317C1102.86 451.295 1108.77 451.436 1114.5 448.364C1117.6 446.703 1120.4 444.359 1121.48 440.916C1123.49 434.776 1123.87 420.738 1121.6 414.611Z"/>
	<path fill="#4F504E" transform="matrix(1.2643 0 0 1.26465 0.00012207 -6.10352e-05)" d="M1061.63 358.704C1071.15 358.725 1119.83 355.224 1124.29 358.544C1124.21 358.81 1124.12 359.074 1124.04 359.342C1121.77 367.147 1126.78 371.449 1117.38 377.041C1108.55 382.292 1096.46 382.67 1086.73 380.12C1070.46 375.853 1072.98 369.489 1064.76 364.708C1064.13 365.263 1063.66 365.673 1063.19 366.377C1063.24 366.182 1063.31 365.992 1063.34 365.792C1063.71 363.428 1062.84 360.719 1061.63 358.704Z"/>
	<path fill="#CCC" transform="matrix(1.2643 0 0 1.26465 0.00012207 -6.10352e-05)" d="M1077.36 387.321C1085.05 389.41 1092.34 390.79 1100.3 391.249C1105.06 391.523 1111.51 390.765 1115.98 392.008C1118.74 395.677 1122.46 409.646 1121.72 414.153C1121.7 414.309 1121.64 414.458 1121.6 414.611C1123.87 420.738 1123.49 434.776 1121.48 440.916C1120.4 444.359 1117.6 446.703 1114.5 448.364C1108.77 451.436 1102.86 451.295 1097.02 453.317L1096.4 452.789C1094.18 452.566 1092.11 452.123 1090.03 451.336C1074.87 445.624 1074.7 434.679 1075.74 420.655C1076.31 412.95 1077.26 405.278 1077.8 397.57C1078.03 394.283 1078.75 390.396 1077.36 387.321Z"/>
	<path fill="#9A9A9A" transform="matrix(1.2643 0 0 1.26465 0.00012207 -6.10352e-05)" d="M859.699 165.939Q915.156 165.059 970.616 165.65C982.743 165.708 1001.24 164.148 1012.62 165.635C1015.88 166.062 1018.87 167.311 1021.24 169.659C1023.9 172.294 1024.71 175.789 1025.1 179.382C1026.69 194.081 1025.15 214.781 1025.09 230.059C1025.02 251.014 1026.15 272.218 1025.47 293.131C1025.41 294.951 1025.57 296.189 1024.57 297.76L1024.47 296.134C1018.77 299.153 1007.34 316.567 999.832 322.37C999.982 335.097 1001.13 348.964 999.773 361.582C999.17 356.935 999.362 352.037 999.267 347.348L999.326 195.523C991.938 193.892 968.104 195.218 958.924 195.238L859.243 195.361C859.15 186.239 857.778 174.791 859.699 165.939Z"/>
	<path fill="#878787" transform="matrix(1.2643 0 0 1.26465 0.00012207 -6.10352e-05)" d="M1096.44 460.054C1098.27 461.11 1099.77 462.419 1100.38 464.534C1100.43 464.717 1100.44 464.908 1100.48 465.096C1103.05 467.516 1106.96 472.483 1107.26 476.001C1115.18 472.367 1123.61 465.32 1130.63 460.079C1140.57 463.425 1171.09 468.966 1177.47 473.409C1179.1 473.9 1179.76 473.818 1180.67 475.433C1184.24 481.72 1215.76 590.298 1215.55 591.011C1215.48 591.268 1215.38 591.519 1215.3 591.773C1215.5 592.739 1215.91 593.305 1215.33 594.181C1213.11 597.562 1177 605.935 1171.12 606.689C1164.3 607.909 1157.73 610.632 1150.87 611.406C1143.33 613.064 1106.79 621.07 1101.91 618.673C1101.59 617.631 1101.26 616.655 1101.13 615.569L1100.59 614.993C1099.08 617.652 1095.64 618.196 1092.75 618.997Q1086.25 620.779 1079.64 622.06C1072.96 620.799 1075.36 616.256 1071.25 613.438C1070.31 612.796 1069.02 613.305 1067.92 613.466C1068.2 610.506 1068.2 608.061 1067.69 605.123C1067.9 604.613 1068.06 604.105 1068.18 603.563C1069.28 598.508 1069.93 532.297 1068.99 529.189C1068.81 528.564 1068.32 528.073 1067.98 527.515L1068.08 526.57C1064.84 524.539 1044.62 525.799 1039.64 525.83C1039.75 525.621 1039.91 525.431 1039.98 525.204C1040.67 523.077 1040.61 520.402 1039.76 518.38C1041.74 518.686 1044.77 519.465 1046.56 518.325C1050.06 519.084 1054.41 518.726 1057.86 517.789C1055.58 514.069 1060.33 485.832 1059.59 478.63L1057.87 477.402C1070.14 470.492 1082.48 462.869 1096.44 460.054Z"/>
	<path fill="#E7E7EA" transform="matrix(1.2643 0 0 1.26465 0.00012207 -6.10352e-05)" d="M1172.61 564.877L1173.64 565.523C1175.38 569.426 1176.81 573 1177.2 577.306L1175.76 578.773L1174.56 579.474L1173.43 579.124C1172.07 575.055 1172.78 569.216 1172.61 564.877Z"/>
	<path fill="#4F504E" transform="matrix(1.2643 0 0 1.26465 0.00012207 -6.10352e-05)" d="M1101.13 615.569C1108.77 613.419 1117.24 613.115 1125.09 611.539C1146.61 607.215 1168.17 602.516 1189.56 597.629C1193.56 596.717 1212.62 590.87 1215.3 591.773C1215.5 592.739 1215.91 593.305 1215.33 594.181C1213.11 597.562 1177 605.935 1171.12 606.689C1164.3 607.909 1157.73 610.632 1150.87 611.406C1143.33 613.064 1106.79 621.07 1101.91 618.673C1101.59 617.631 1101.26 616.655 1101.13 615.569Z"/>
	<path fill="#CCC" transform="matrix(1.2643 0 0 1.26465 0.00012207 -6.10352e-05)" d="M1079.43 598.697C1085.08 597.004 1090.54 597.298 1096.36 597.435C1099.13 600.636 1099.88 610.682 1100.59 614.993C1099.08 617.652 1095.64 618.196 1092.75 618.997Q1086.25 620.779 1079.64 622.06C1072.96 620.799 1075.36 616.256 1071.25 613.438C1070.31 612.796 1069.02 613.305 1067.92 613.466C1068.2 610.506 1068.2 608.061 1067.69 605.123C1069.17 605.069 1070.45 605.182 1071.68 604.211L1071.3 601.708C1073.31 599.03 1076.9 600.797 1079.43 598.697Z"/>
	<path fill="#49774C" transform="matrix(1.2643 0 0 1.26465 0.00012207 -6.10352e-05)" d="M1057.86 517.789C1064.95 517.657 1072.15 517.231 1079.23 517.421C1079.87 518.447 1080.29 519.459 1080.41 520.678C1081.8 535.312 1080.65 551.096 1080.67 565.83C1080.67 574.739 1081.83 587.497 1080.52 596.054C1080.37 597.064 1079.91 597.814 1079.43 598.697C1076.9 600.797 1073.31 599.03 1071.3 601.708L1071.68 604.211C1070.45 605.182 1069.17 605.069 1067.69 605.123C1067.9 604.613 1068.06 604.105 1068.18 603.563C1069.28 598.508 1069.93 532.297 1068.99 529.189C1068.81 528.564 1068.32 528.073 1067.98 527.515L1068.08 526.57C1064.84 524.539 1044.62 525.799 1039.64 525.83C1039.75 525.621 1039.91 525.431 1039.98 525.204C1040.67 523.077 1040.61 520.402 1039.76 518.38C1041.74 518.686 1044.77 519.465 1046.56 518.325C1050.06 519.084 1054.41 518.726 1057.86 517.789Z"/>
	<path fill="#E7E7EA" transform="matrix(1.2643 0 0 1.26465 0.00012207 -6.10352e-05)" d="M677.142 145.099C677.432 127.127 676.475 111.406 690.617 97.9011Q691.357 97.1825 692.132 96.5014Q692.907 95.8203 693.715 95.1784Q694.522 94.5365 695.361 93.9354Q696.199 93.3343 697.066 92.7754Q697.933 92.2165 698.827 91.7012Q699.721 91.1859 700.639 90.7155Q701.557 90.2451 702.497 89.8207Q703.437 89.3963 704.397 89.0189Q705.357 88.6416 706.335 88.3122Q707.312 87.9829 708.305 87.7023Q709.298 87.4218 710.303 87.1907Q711.308 86.9596 712.324 86.7786Q713.339 86.5975 714.362 86.467Q715.386 86.3365 716.414 86.2567Q717.443 86.177 718.474 86.1483Q719.505 86.1196 720.536 86.1419C731.089 86.4642 741.66 91.0393 748.845 98.8217C761.259 112.266 760.324 127.967 760.219 144.898C771.365 144.829 853.739 143.065 856.973 146.321C861.819 151.199 857.535 159.393 859.818 165.204L859.699 165.939C857.778 174.791 859.15 186.239 859.243 195.361L958.924 195.238C968.104 195.218 991.938 193.892 999.326 195.523L999.267 347.348C999.362 352.037 999.17 356.935 999.773 361.582L999.762 477.972C999.757 485.453 1000.33 493.439 999.587 500.855L999.904 501.231L1000.59 501.32C1001.98 498.463 1004.24 496.191 1007.3 495.184C1010.69 494.071 1014.39 494.837 1017.44 496.545C1020.05 498.005 1022.3 500.968 1023.54 503.659L1024.36 504.783C1024.7 506.786 1025.07 508.765 1025.53 510.742C1030.49 513.355 1036.91 508.512 1040.54 512.39C1040.76 514.603 1040.33 516.268 1039.76 518.38C1040.61 520.402 1040.67 523.077 1039.98 525.204C1039.91 525.431 1039.75 525.621 1039.64 525.83C1044.62 525.799 1064.84 524.539 1068.08 526.57L1067.98 527.515C1068.32 528.073 1068.81 528.564 1068.99 529.189C1069.93 532.297 1069.28 598.508 1068.18 603.563C1068.06 604.105 1067.9 604.613 1067.69 605.123C1068.2 608.061 1068.2 610.506 1067.92 613.466C1069.02 613.305 1070.31 612.796 1071.25 613.438C1075.36 616.256 1072.96 620.799 1079.64 622.06Q1086.25 620.779 1092.75 618.997C1095.64 618.196 1099.08 617.652 1100.59 614.993L1101.13 615.569C1101.26 616.655 1101.59 617.631 1101.91 618.673C1106.79 621.07 1143.33 613.064 1150.87 611.406C1157.73 610.632 1164.3 607.909 1171.12 606.689C1172.86 610.788 1172.05 653.947 1171.2 660.786L1169.86 662.497C1171.87 666.875 1179.07 772.984 1177.71 777.352C1179.83 781.456 1188.09 898.914 1189.39 914.279C1187.92 915.88 1185.38 915.836 1183.26 916.24L1180.34 916.28C1176.43 917.887 1171.28 917.541 1167.13 917.444C1168.04 919.069 1168.04 919.174 1167.84 921.03L1167.4 922.194C1162.58 922.943 1157.27 922.24 1152.38 922.204Q1135.52 922.026 1118.66 922.064C1115.36 922.099 1104.76 923.28 1102.45 922.531C1102.06 922.403 1101.76 922.073 1101.42 921.843C1101.27 923.057 1101.18 923.98 1100.64 925.094C1095.44 925.475 1090.21 925.766 1085.05 926.527C1085.92 924.201 1085.92 924.155 1085.07 921.816C1082.63 923.089 1030.54 922.534 1023.69 922.343C1024.07 927.579 1023.42 933.19 1019.71 937.244C1015.19 942.19 1008.52 943.151 1002.17 943.239C976.209 943.596 950.121 942.758 924.141 942.77L718.75 943.345C675.809 943.382 632.731 942.667 589.808 943.416C583.431 943.943 576.673 943.501 570.262 943.507L531.452 943.548C517.726 943.562 432.485 945.363 424.45 942.704C415.693 939.806 414.022 933.123 410.349 925.751C410.713 896.458 410.445 867.136 410.403 837.839C410.388 827.5 409.07 810.914 410.786 801.253L411.276 801.651C412.308 799.323 412.278 796.479 412.348 793.961C412.815 776.955 412.314 759.807 412.327 742.785L412.471 637.349L412.474 271.506L412.45 211.396C412.44 201.072 411.294 189.275 413.162 179.151C413.776 175.827 415.229 173.12 417.601 170.724C420.188 168.109 423.424 166.284 427.057 165.623C435.968 164.001 460.069 165.226 470.745 165.21L581.191 165.337C581.15 160.357 579.927 150.231 583.583 146.43C584.852 145.111 586.802 145.168 588.548 145.042C598.718 144.305 609.273 144.898 619.487 144.92L677.142 145.099Z"/>
	<path fill="#CCC" transform="matrix(1.2643 0 0 1.26465 0.00012207 -6.10352e-05)" d="M928.415 618.978C933.701 610.733 938.935 602.465 944.657 594.513C944.808 602.857 944.681 611.31 945.192 619.634C935.697 619.805 925.966 620.138 916.511 619.262C920.389 618.748 924.499 618.984 928.415 618.978Z"/>
	<path fill="#9A9A9A" transform="matrix(1.2643 0 0 1.26465 0.00012207 -6.10352e-05)" d="M869.237 528.701L917.723 528.66C926.542 528.667 935.606 529.104 944.394 528.404C944.922 526.442 944.898 524.247 945.029 522.223C945.62 528.125 944.462 533.971 944.566 539.881L861.392 539.949C862.587 536.106 866.432 531.589 869.237 528.701Z"/>
	<path fill="#A9A9A9" transform="matrix(1.2643 0 0 1.26465 0.00012207 -6.10352e-05)" d="M661.782 832.657C700.458 834.277 739.431 832.32 778.16 832.944C775.781 836.6 773.475 840.342 770.882 843.851C767.539 842.506 736.363 843.505 731.449 843.895L691.225 843.98C683.127 844.024 674.288 844.76 666.289 843.47C662.691 842.889 661.34 841.773 659.192 838.857L661.782 832.657Z"/>
	<path fill="#A9A9A9" transform="matrix(1.2643 0 0 1.26465 0.00012207 -6.10352e-05)" d="M719.596 744.476C733.459 743.223 748.056 744.226 762.006 744.221C787.687 744.211 813.344 743.963 839.022 744.583C836.793 748.167 834.651 752.456 831.784 755.537L831.057 755.728L755.633 755.45C745.32 755.444 733.644 756.756 723.461 755.491C720.337 755.103 719.135 752.909 717.365 750.567C717.94 748.474 718.79 746.487 719.596 744.476Z"/>
	<path fill="#9A9A9A" transform="matrix(1.2643 0 0 1.26465 0.00012207 -6.10352e-05)" d="M839.47 744.423L918.047 744.233C927.064 744.198 942.24 743.139 950.58 743.926C952.248 744.084 954.088 744.857 955.241 746.098C956.232 747.165 956.786 748.556 956.722 750.018C956.656 751.506 955.947 752.81 954.806 753.752C953.422 754.895 951.956 755.219 950.204 755.374C933.458 756.859 915.803 755.722 898.929 755.736C876.667 755.755 853.999 756.661 831.784 755.537C834.651 752.456 836.793 748.167 839.022 744.583L839.47 744.423Z"/>
	<path fill="#878787" transform="matrix(1.2643 0 0 1.26465 0.00012207 -6.10352e-05)" d="M916.511 619.262C925.966 620.138 935.697 619.805 945.192 619.634C945.395 625.294 945.543 631.226 944.659 636.837C944.619 634.761 944.443 632.744 944.198 630.683C941.652 629.006 923.754 630.131 919.338 630.196L798.373 630.354C799.584 626.48 803.393 622.619 805.682 619.165L879.025 619.302C891.423 619.316 904.141 619.866 916.511 619.262Z"/>
	<path fill="#A9A9A9" transform="matrix(1.2643 0 0 1.26465 0.00012207 -6.10352e-05)" d="M797.576 630.571C786.319 629.816 774.64 630.336 763.343 630.311L694.449 630.361C685.202 630.378 675.44 631.175 666.273 630.543C664.54 630.423 662.571 630.005 661.132 628.975C659.906 628.098 659.196 626.836 659.063 625.338C658.933 623.872 659.399 622.557 660.385 621.47C662.246 619.417 665.428 619.515 667.997 619.344C682.666 618.37 697.883 619.331 712.622 619.315L805.682 619.165C803.393 622.619 799.584 626.48 798.373 630.354L797.576 630.571Z"/>
	<path fill="#A9A9A9" transform="matrix(1.2643 0 0 1.26465 0.00012207 -6.10352e-05)" d="M687.906 787.202Q749.219 786.873 810.531 787.27C808.517 789.987 804.527 793.801 804.078 797.07C805.352 798.336 806.329 798.199 808.073 798.478L802.358 798.427C789.413 797.841 776.36 798.133 763.396 798.076Q724.05 797.724 684.709 798.467C678.658 798.514 667.107 801.055 662.383 796.586C661.265 795.528 660.462 793.935 660.49 792.379C660.515 790.983 660.889 789.975 661.961 789.056C666.413 785.239 682.057 787.127 687.906 787.202Z"/>
	<path fill="#A9A9A9" transform="matrix(1.2643 0 0 1.26465 0.00012207 -6.10352e-05)" d="M859.771 540.038C828.071 539.312 796.137 539.89 764.422 539.968C750.914 540.001 736.947 540.89 723.511 539.948C721.591 539.814 719.378 539.653 717.78 538.472C716.601 537.601 715.875 536.212 715.731 534.767C715.556 533.015 716.076 531.042 717.312 529.75C720.206 526.726 729.974 528.15 734.143 528.209C753.067 530.223 773.361 528.854 792.408 528.821L845.33 528.603C853.272 528.588 861.307 528.971 869.237 528.701C866.432 531.589 862.587 536.106 861.392 539.949L859.771 540.038Z"/>
	<path fill="#9A9A9A" transform="matrix(1.2643 0 0 1.26465 0.00012207 -6.10352e-05)" d="M810.531 787.27L907.858 787.129C920.949 787.113 934.898 785.671 947.897 786.734C950.628 786.957 953.756 787.654 955.674 789.754C956.646 790.818 956.985 792.043 956.891 793.467C956.804 794.786 956.239 795.569 955.503 796.624C953.95 797.706 952.629 798.153 950.747 798.352C940.781 799.403 922.542 798.339 911.837 798.355C877.305 798.407 842.582 797.666 808.073 798.478C806.329 798.199 805.352 798.336 804.078 797.07C804.527 793.801 808.517 789.987 810.531 787.27Z"/>
	<path fill="#9A9A9A" transform="matrix(1.2643 0 0 1.26465 0.00012207 -6.10352e-05)" d="M778.513 832.749L894.931 832.748L934.405 832.84C939.312 832.861 944.357 832.446 949.239 832.68C950.87 832.759 953.466 832.928 954.7 834.108C956.216 835.558 956.467 837.005 956.41 839.057C956.358 840.892 955.642 841.899 954.388 843.142C952.175 844.188 949.808 844.292 947.404 844.37C936.557 844.721 925.533 844.205 914.671 844.125Q888.131 844.013 861.592 844.194Q830.507 844.491 799.421 844.331C789.989 844.258 780.281 844.562 770.882 843.851C773.475 840.342 775.781 836.6 778.16 832.944L778.513 832.749Z"/>
	<path fill="#A9A9A9" transform="matrix(1.2643 0 0 1.26465 0.00012207 -6.10352e-05)" d="M719.612 305.352C737.025 304.385 755.048 305.298 772.51 305.302L879.815 305.334L924.105 305.339C931.908 305.311 940.413 304.612 948.153 305.47C949.662 305.637 951.338 305.974 952.439 307.112C953.479 308.188 953.773 309.214 953.777 310.663C953.784 313.144 952.504 314.664 950.815 316.31C942.241 317.616 932.667 316.837 923.996 316.788L875.221 316.523C825.049 316.427 774.736 317.565 724.579 316.588C722.66 316.551 720.156 316.507 718.622 315.198C717.214 313.996 716.74 312.472 716.755 310.656C716.774 308.432 718.201 306.895 719.612 305.352Z"/>
	<path fill="#A9A9A9" transform="matrix(1.2643 0 0 1.26465 0.00012207 -6.10352e-05)" d="M720.62 394.523C740.016 395.875 759.982 395.029 779.439 395.038L892.062 394.837L929.209 394.803C935.297 394.804 942.034 394.29 948.065 395.092C949.831 395.326 951.561 396.096 952.549 397.651C953.459 399.082 953.613 400.791 953.084 402.388C952.447 404.31 951.202 405.14 949.511 406.091C900.366 407.302 850.932 406.344 801.755 406.252L748.495 406.235C739.401 406.246 729.925 406.815 720.879 406.115C718.927 405.964 717.94 405.224 716.69 403.78C716.091 402.141 715.925 401.06 716.313 399.328C716.885 396.771 718.505 395.85 720.62 394.523Z"/>
	<path fill="#A9A9A9" transform="matrix(1.2643 0 0 1.26465 0.00012207 -6.10352e-05)" d="M719.022 350.223Q719.613 350.184 720.204 350.157C735.359 349.572 750.674 350.006 765.85 350.035L844.39 350.12L912.294 350.155C923.739 350.142 935.497 349.569 946.914 350.151C948.883 350.252 950.936 350.839 952.336 352.302C953.405 353.418 953.851 354.97 953.799 356.494C953.719 358.821 952.555 360.14 950.988 361.717C938.828 362.553 926.354 362.057 914.162 362.064L844.997 361.933L763.09 362.014C749.967 362.07 736.696 362.639 723.59 362.283C721.551 362.228 719.253 361.608 717.675 360.262C716.562 359.313 716.052 357.99 716.037 356.544C716.009 353.831 717.291 352.159 719.022 350.223Z"/>
	<path fill="#A9A9A9" transform="matrix(1.2643 0 0 1.26465 0.00012207 -6.10352e-05)" d="M837.356 572.287C851.078 572.156 934.784 570.489 940.74 573.512C941.94 574.886 942.553 575.547 942.552 577.5C942.55 579.148 941.591 580.969 940.338 582.009C939.203 582.95 937.934 583.549 936.45 583.527C924.168 584.795 911.244 584.052 898.876 584.064L829.018 584.116C816.442 583.662 803.74 583.99 791.153 583.966L711.827 584.007C698.189 584.01 684.023 584.914 670.455 583.938C667.187 583.702 662.635 583.256 659.97 581.188C659.116 580.526 658.486 579.756 658.452 578.654C658.381 576.41 660.138 575.058 661.559 573.53C668.756 570.413 815.415 572.685 837.356 572.287Z"/>
	<path fill="#9A9A9A" transform="matrix(1.2643 0 0 1.26465 0.00012207 -6.10352e-05)" d="M837.356 572.287C851.078 572.156 934.784 570.489 940.74 573.512C941.94 574.886 942.553 575.547 942.552 577.5C942.55 579.148 941.591 580.969 940.338 582.009C939.203 582.95 937.934 583.549 936.45 583.527C924.289 582.499 911.559 583.237 899.319 583.246L829.498 583.507C832.15 579.879 835.706 576.516 837.356 572.287Z"/>
	<path fill="#878787" transform="matrix(1.2643 0 0 1.26465 0.00012207 -6.10352e-05)" d="M574.008 216.118C582.439 216.952 591.851 215.822 600.411 215.795L663.81 215.722L859.345 215.577C861.3 215.701 863.457 215.415 864.824 217.1C866.351 218.983 867.134 222.663 866.694 225.015C866.371 226.738 865.451 228.283 863.883 229.14C861.876 230.236 859.231 230.301 856.994 230.33C839.397 230.559 821.666 229.788 804.043 229.766L672.831 229.745C642.606 229.62 612.277 230.763 582.077 230.372C579.509 230.338 576.741 230.226 574.318 229.307C573.389 228.954 572.493 227.732 572.145 226.807C571.308 224.582 571.422 220.138 572.402 217.942C572.756 217.149 573.358 216.66 574.008 216.118Z"/>
	<path fill="#A9A9A9" transform="matrix(1.2643 0 0 1.26465 0.00012207 -6.10352e-05)" d="M496.018 738.318C507.097 737.821 518.369 738.213 529.471 738.205L586.906 738.152C589.246 738.162 598.3 737.805 599.511 739.377C601.268 741.657 601.591 746.959 601.785 749.761C602.849 765.108 601.919 781.16 601.886 796.586C601.856 810.58 602.756 825.368 601.592 839.27C601.325 842.457 600.138 843.229 597.746 845.25C580.636 845.803 563.407 845.337 546.284 845.311C532.331 845.29 518.301 845.755 504.361 845.46C500.096 845.37 495.705 845.613 492.7 842.062C491.732 840.918 491.575 839.366 491.465 837.927C490.535 825.714 491.484 812.743 491.481 800.452C491.478 782.653 490.707 764.478 491.575 746.718C491.781 742.495 493.047 741.001 496.018 738.318Z"/>
	<path fill="#A9A9A9" transform="matrix(1.2643 0 0 1.26465 0.00012207 -6.10352e-05)" d="M496.062 523.942C507.241 522.905 519.306 523.801 530.571 523.807C549.817 523.818 569.094 523.442 588.333 523.598C591.883 523.627 598.198 523.664 600.755 526.272C601.592 529.665 602.029 533.057 602.147 536.551C602.513 547.41 602.307 630.195 601.318 633.683C600.893 635.178 598.979 636.183 597.761 636.965C578.274 637.221 558.738 636.635 539.24 636.731C526.349 636.795 512.79 637.931 499.974 636.858C497.321 636.636 495.106 636.451 493.368 634.272C492.073 632.646 491.706 630.866 491.542 628.842C490.134 611.489 491.327 592.475 491.256 574.951C491.207 562.671 489.852 541.714 491.44 530.258C491.883 527.059 493.667 525.824 496.062 523.942Z"/>
	<path fill="#878787" transform="matrix(1.2643 0 0 1.26465 0.00012207 -6.10352e-05)" d="M999.077 695.849C1007.19 696.295 1015.55 695.728 1023.68 695.585L1023.69 922.343C1024.07 927.579 1023.42 933.19 1019.71 937.244C1015.19 942.19 1008.52 943.151 1002.17 943.239C976.209 943.596 950.121 942.758 924.141 942.77L718.75 943.345C675.809 943.382 632.731 942.667 589.808 943.416C595.671 933.49 601.939 923.54 608.499 914.058L609.221 913.973Q664.583 914.326 719.945 914.045L999.227 913.879Q999.456 870.668 998.997 827.458L999.077 695.849Z"/>
	<path fill="#878787" transform="matrix(1.2643 0 0 1.26465 0.00012207 -6.10352e-05)" d="M579.842 441.486C577.911 441.672 575.955 441.686 574.017 441.657C551.774 441.322 529.652 432.093 514.296 415.917C498.226 398.988 490.482 378.887 491.094 355.522C491.69 332.723 500.871 311.998 517.56 296.404C534.167 280.887 556.594 273.519 579.114 274.37C601.131 275.709 622.445 284.772 637.153 301.558C652.576 319.16 659.743 340.431 658.106 363.799Q658.027 364.831 657.923 365.86Q657.818 366.889 657.689 367.916Q657.56 368.942 657.405 369.965Q657.251 370.988 657.072 372.007Q656.893 373.026 656.689 374.04Q656.485 375.055 656.256 376.064Q656.028 377.073 655.775 378.076Q655.522 379.079 655.244 380.075Q654.967 381.072 654.666 382.062Q654.364 383.051 654.038 384.033Q653.713 385.015 653.363 385.989Q653.014 386.963 652.641 387.928Q652.268 388.893 651.872 389.848Q651.475 390.804 651.056 391.75Q650.636 392.695 650.194 393.63Q649.751 394.565 649.286 395.49Q648.821 396.414 648.334 397.326Q647.846 398.239 647.337 399.139Q646.827 400.039 646.296 400.927Q645.765 401.815 645.212 402.689Q644.659 403.563 644.085 404.424Q643.511 405.285 642.917 406.131Q642.322 406.978 641.707 407.809Q641.092 408.641 640.457 409.458Q639.821 410.274 639.167 411.075Q638.512 411.876 637.837 412.66Q637.163 413.445 636.47 414.213Q635.777 414.981 635.066 415.732Q634.354 416.482 633.624 417.216Q632.895 417.949 632.147 418.664Q631.4 419.379 630.636 420.076Q629.871 420.773 629.09 421.451C615.112 433.49 598.039 439.733 579.842 441.486Z"/>
	<path fill="#E7E7EA" transform="matrix(1.2643 0 0 1.26465 0.00012207 -6.10352e-05)" d="M613.651 319.924C618.466 324.546 623.356 329.111 628.093 333.812C610.701 347.918 595.942 365.602 579.578 380.899Q568.319 391.76 557.483 403.044C544.865 390.951 532.714 378.328 520.324 365.999C525.545 361.774 530.222 356.629 534.961 351.865C542.505 359.548 550.009 367.212 558.021 374.415Q569.581 364.253 580.121 353.036C591.287 341.993 602.367 330.846 613.651 319.924Z"/>
	<path fill="#E7E7EA" transform="matrix(1.2643 0 0 1.26465 0.00012207 -6.10352e-05)" d="M1000.59 501.32C1001.98 498.463 1004.24 496.191 1007.3 495.184C1010.69 494.071 1014.39 494.837 1017.44 496.545C1020.05 498.005 1022.3 500.968 1023.54 503.659L1024.36 504.783C1024.7 506.786 1025.07 508.765 1025.53 510.742C1030.49 513.355 1036.91 508.512 1040.54 512.39C1040.76 514.603 1040.33 516.268 1039.76 518.38C1040.61 520.402 1040.67 523.077 1039.98 525.204C1039.91 525.431 1039.75 525.621 1039.64 525.83C1044.62 525.799 1064.84 524.539 1068.08 526.57L1067.98 527.515C1068.32 528.073 1068.81 528.564 1068.99 529.189C1069.93 532.297 1069.28 598.508 1068.18 603.563C1068.06 604.105 1067.9 604.613 1067.69 605.123C1068.2 608.061 1068.2 610.506 1067.92 613.466C1069.02 613.305 1070.31 612.796 1071.25 613.438C1075.36 616.256 1072.96 620.799 1079.64 622.06L1079.68 622.488C1078 627.661 1079.15 670.299 1079.12 679.205C1079.11 683.927 1079.76 689.678 1078.41 694.217C1075.68 695.094 1072.84 694.698 1070.19 695.641C1065.31 694.943 1059.71 695.423 1054.76 695.441L1023.68 695.585C1015.55 695.728 1007.19 696.295 999.077 695.849C988.917 695.742 952.821 697.829 945.91 694.884C943.133 688.295 944.608 647.482 944.659 636.837C945.543 631.226 945.395 625.294 945.192 619.634C944.681 611.31 944.808 602.857 944.657 594.513C944.243 576.327 944.563 558.074 944.566 539.881C944.462 533.971 945.62 528.125 945.029 522.223C945.141 522.107 945.25 521.987 945.366 521.874C949.436 517.878 964.933 519.722 970.553 519.851L981.627 519.947L981.683 511.298L997.891 511.345C998.248 507.787 998.778 504.629 999.904 501.231L1000.59 501.32Z"/>
	<path fill="#365F3D" transform="matrix(1.2643 0 0 1.26465 0.00012207 -6.10352e-05)" d="M1000.59 501.32C1001.98 498.463 1004.24 496.191 1007.3 495.184C1010.69 494.071 1014.39 494.837 1017.44 496.545C1020.05 498.005 1022.3 500.968 1023.54 503.659L1024.36 504.783C1024.7 506.786 1025.07 508.765 1025.53 510.742C1030.49 513.355 1036.91 508.512 1040.54 512.39C1040.76 514.603 1040.33 516.268 1039.76 518.38C1040.61 520.402 1040.67 523.077 1039.98 525.204C1039.91 525.431 1039.75 525.621 1039.64 525.83C1044.62 525.799 1064.84 524.539 1068.08 526.57L1067.98 527.515L1038.66 527.441C1039.76 529.741 1040.76 533.635 1039.76 536.13C1039.1 537.756 1037.71 538.739 1036.1 539.306C1028.77 541.882 1016.75 539.931 1008.88 539.969L1008.41 540.117C1002.02 539.856 994.613 541.164 988.402 540.1C986.271 539.735 984.009 538.964 982.751 537.081C980.94 534.369 981.912 530.67 982.411 527.683L954.474 527.594L954.587 613.6C954.783 636.792 955.518 660.474 954.399 683.636L953.332 682.938L952.835 525.926C962.004 526.014 972.09 526.97 981.145 525.732C982.135 524.032 981.724 521.847 981.627 519.947L981.683 511.298L997.891 511.345C998.248 507.787 998.778 504.629 999.904 501.231L1000.59 501.32Z"/>
	<path fill="#49774C" transform="matrix(1.2643 0 0 1.26465 0.00012207 -6.10352e-05)" d="M1000.59 501.32C1001.98 498.463 1004.24 496.191 1007.3 495.184C1010.69 494.071 1014.39 494.837 1017.44 496.545C1020.05 498.005 1022.3 500.968 1023.54 503.659C1022.67 506.146 1022.65 508.019 1020.24 509.28C1020.06 509.258 1019.87 509.23 1019.69 509.213C1018.96 509.148 1018.34 509.215 1017.62 509.313C1016.98 510.402 1017.13 510.742 1015.84 511.081C1012.75 511.89 1008.7 511.384 1005.54 511.041C1003.28 511.258 1001.97 511.666 999.851 510.616C998.83 508.052 1000.09 504.017 1000.59 501.32Z"/>
	<path fill="#DCDCDC" transform="matrix(1.2643 0 0 1.26465 0.00012207 -6.10352e-05)" d="M1005.54 511.041L1005.62 508.548C1005.66 506.625 1005.51 504.716 1006.65 503.053C1007.89 501.235 1009.37 500.484 1011.49 500.163C1012.81 500.448 1013.74 500.691 1014.76 501.63C1017.11 503.795 1017.55 506.251 1017.62 509.313C1016.98 510.402 1017.13 510.742 1015.84 511.081C1012.75 511.89 1008.7 511.384 1005.54 511.041Z"/>
	<path fill="#878787" transform="matrix(1.2643 0 0 1.26465 0.00012207 -6.10352e-05)" d="M982.411 527.683C984.244 524.241 980.658 513.926 984.251 512.866C989.86 511.211 1004.12 512.814 1011.16 512.253C1010.83 521.505 1008.96 530.761 1008.88 539.969L1008.41 540.117C1002.02 539.856 994.613 541.164 988.402 540.1C986.271 539.735 984.009 538.964 982.751 537.081C980.94 534.369 981.912 530.67 982.411 527.683Z"/>
	<defs>
		<linearGradient id="gradient_0" gradientUnits="userSpaceOnUse" x1="1057.3315" y1="710.40143" x2="916.0791" y2="548.50751">
			<stop offset="0" stop-color="#3F7447"/>
			<stop offset="1" stop-color="#5B9C63"/>
		</linearGradient>
	</defs>
	<path fill="url(#gradient_0)" transform="matrix(1.2643 0 0 1.26465 0.00012207 -6.10352e-05)" d="M970.553 519.851L981.627 519.947C981.724 521.847 982.135 524.032 981.145 525.732C972.09 526.97 962.004 526.014 952.835 525.926L953.332 682.938L954.399 683.636L954.854 683.622C960.852 685.633 1054.7 684.258 1068.09 684.287C1068.24 684.03 1068.39 683.779 1068.53 683.515C1069.96 680.65 1069.58 617.849 1067.92 613.466C1069.02 613.305 1070.31 612.796 1071.25 613.438C1075.36 616.256 1072.96 620.799 1079.64 622.06L1079.68 622.488C1078 627.661 1079.15 670.299 1079.12 679.205C1079.11 683.927 1079.76 689.678 1078.41 694.217C1075.68 695.094 1072.84 694.698 1070.19 695.641C1065.31 694.943 1059.71 695.423 1054.76 695.441L1023.68 695.585C1015.55 695.728 1007.19 696.295 999.077 695.849C988.917 695.742 952.821 697.829 945.91 694.884C943.133 688.295 944.608 647.482 944.659 636.837C945.543 631.226 945.395 625.294 945.192 619.634C944.681 611.31 944.808 602.857 944.657 594.513C944.243 576.327 944.563 558.074 944.566 539.881C944.462 533.971 945.62 528.125 945.029 522.223C945.141 522.107 945.25 521.987 945.366 521.874C949.436 517.878 964.933 519.722 970.553 519.851Z"/>
	<path fill="#A9A9A9" transform="matrix(1.2643 0 0 1.26465 0.00012207 -6.10352e-05)" d="M677.142 145.099C677.432 127.127 676.475 111.406 690.617 97.9011Q691.357 97.1825 692.132 96.5014Q692.907 95.8203 693.715 95.1784Q694.522 94.5365 695.361 93.9354Q696.199 93.3343 697.066 92.7754Q697.933 92.2165 698.827 91.7012Q699.721 91.1859 700.639 90.7155Q701.557 90.2451 702.497 89.8207Q703.437 89.3963 704.397 89.0189Q705.357 88.6416 706.335 88.3122Q707.312 87.9829 708.305 87.7023Q709.298 87.4218 710.303 87.1907Q711.308 86.9596 712.324 86.7786Q713.339 86.5975 714.362 86.467Q715.386 86.3365 716.414 86.2567Q717.443 86.177 718.474 86.1483Q719.505 86.1196 720.536 86.1419C731.089 86.4642 741.66 91.0393 748.845 98.8217C761.259 112.266 760.324 127.967 760.219 144.898C771.365 144.829 853.739 143.065 856.973 146.321C861.819 151.199 857.535 159.393 859.818 165.204L859.699 165.939C857.778 174.791 859.15 186.239 859.243 195.361L958.924 195.238C968.104 195.218 991.938 193.892 999.326 195.523C984.041 196.984 967.942 195.963 952.552 195.945C921.526 195.909 890.479 195.703 859.455 196.101L859.345 215.577L663.81 215.722L600.411 215.795C591.851 215.822 582.439 216.952 574.008 216.118L581.425 215.364C582.321 209.872 582.467 201.462 581.246 196.069C581.586 185.847 581.275 175.564 581.191 165.337C581.15 160.357 579.927 150.231 583.583 146.43C584.852 145.111 586.802 145.168 588.548 145.042C598.718 144.305 609.273 144.898 619.487 144.92L677.142 145.099Z"/>
	<path fill="#E7E7EA" transform="matrix(1.2643 0 0 1.26465 0.00012207 -6.10352e-05)" d="M714.182 108.684C717.95 108.296 721.848 107.944 725.436 109.39Q725.857 109.557 726.269 109.745Q726.681 109.934 727.083 110.143Q727.485 110.352 727.875 110.581Q728.266 110.81 728.644 111.06Q729.023 111.309 729.388 111.577Q729.753 111.845 730.104 112.131Q730.455 112.417 730.791 112.721Q731.126 113.025 731.446 113.346Q731.766 113.667 732.069 114.003Q732.373 114.34 732.658 114.692Q732.944 115.043 733.211 115.409Q733.478 115.775 733.726 116.154Q733.974 116.533 734.203 116.924Q734.431 117.316 734.639 117.718Q734.847 118.12 735.035 118.533Q735.222 118.945 735.388 119.367C737.218 123.932 737.188 129.253 735.079 133.722C732.582 139.014 728.309 141.672 722.976 143.532C719.386 143.973 716.374 144.151 712.907 142.906C708.206 141.218 704.616 137.888 702.594 133.324C700.637 128.904 700.734 123.591 702.515 119.151C704.785 113.493 708.901 110.987 714.182 108.684Z"/>
	<path fill="#9A9A9A" transform="matrix(1.2643 0 0 1.26465 0.00012207 -6.10352e-05)" d="M412.474 271.506L412.45 211.396C412.44 201.072 411.294 189.275 413.162 179.151C413.776 175.827 415.229 173.12 417.601 170.724C420.188 168.109 423.424 166.284 427.057 165.623C435.968 164.001 460.069 165.226 470.745 165.21L581.191 165.337C581.275 175.564 581.586 185.847 581.246 196.069L490.956 196.106C476.89 196.106 462.426 195.424 448.4 196.295C445.976 196.446 440.663 196.664 438.798 198.243C438.002 198.917 438.357 241.598 438.345 247.472L438.886 914.03L608.499 914.058C601.939 923.54 595.671 933.49 589.808 943.416C583.431 943.943 576.673 943.501 570.262 943.507L531.452 943.548C517.726 943.562 432.485 945.363 424.45 942.704C415.693 939.806 414.022 933.123 410.349 925.751C410.713 896.458 410.445 867.136 410.403 837.839C410.388 827.5 409.07 810.914 410.786 801.253L411.276 801.651C412.308 799.323 412.278 796.479 412.348 793.961C412.815 776.955 412.314 759.807 412.327 742.785L412.471 637.349L412.474 271.506Z"/>
	<path fill="#4F504E" transform="matrix(1.2643 0 0 1.26465 0.00012207 -6.10352e-05)" d="M1150.87 611.406C1157.73 610.632 1164.3 607.909 1171.12 606.689C1172.86 610.788 1172.05 653.947 1171.2 660.786L1169.86 662.497C1171.87 666.875 1179.07 772.984 1177.71 777.352C1179.83 781.456 1188.09 898.914 1189.39 914.279C1187.92 915.88 1185.38 915.836 1183.26 916.24L1180.34 916.28C1176.43 917.887 1171.28 917.541 1167.13 917.444C1168.04 919.069 1168.04 919.174 1167.84 921.03L1167.4 922.194C1162.58 922.943 1157.27 922.24 1152.38 922.204Q1135.52 922.026 1118.66 922.064C1115.36 922.099 1104.76 923.28 1102.45 922.531C1102.06 922.403 1101.76 922.073 1101.42 921.843C1101.27 923.057 1101.18 923.98 1100.64 925.094C1095.44 925.475 1090.21 925.766 1085.05 926.527C1085.92 924.201 1085.92 924.155 1085.07 921.816C1082.63 923.089 1030.54 922.534 1023.69 922.343L1023.68 695.585L1054.76 695.441C1059.71 695.423 1065.31 694.943 1070.19 695.641C1072.84 694.698 1075.68 695.094 1078.41 694.217C1079.76 689.678 1079.11 683.927 1079.12 679.205C1079.15 670.299 1078 627.661 1079.68 622.488L1079.64 622.06Q1086.25 620.779 1092.75 618.997C1095.64 618.196 1099.08 617.652 1100.59 614.993L1101.13 615.569C1101.26 616.655 1101.59 617.631 1101.91 618.673C1106.79 621.07 1143.33 613.064 1150.87 611.406Z"/>
	<path fill="#878787" transform="matrix(1.2643 0 0 1.26465 0.00012207 -6.10352e-05)" d="M1084.77 916.941C1090.63 916.878 1096.52 916.69 1102.39 916.78C1102.15 918.493 1102 920.207 1101.42 921.843C1101.27 923.057 1101.18 923.98 1100.64 925.094C1095.44 925.475 1090.21 925.766 1085.05 926.527C1085.92 924.201 1085.92 924.155 1085.07 921.816C1085.9 919.286 1085.92 919.342 1084.77 916.941Z"/>
	<path fill="#393A39" transform="matrix(1.2643 0 0 1.26465 0.00012207 -6.10352e-05)" d="M1084.11 691.862C1095.44 691.731 1106.83 692.07 1118.16 692.207C1118.63 692.855 1119.04 693.389 1119.3 694.161C1121.01 699.349 1125.61 719.823 1123.2 724.294C1123.56 725.495 1123.71 726.564 1123.6 727.825L1108.28 909.245C1108.11 911.137 1107.91 913.914 1106.95 915.579C1106.85 915.751 1106.71 915.897 1106.59 916.057C1105.57 916.172 1104.67 916.282 1103.65 916.258C1101.26 916.227 1098.99 916.285 1096.67 915.629C1095.37 907.679 1096.88 898.158 1097.02 889.958C1097.79 847.542 1100.32 805.099 1102.31 762.724C1103.11 745.635 1104.54 728.342 1104.62 711.25C1104.63 708.908 1104.75 706.979 1103.64 704.852C1101.15 700.15 1089.22 693.721 1084.11 691.862Z"/>
	<path fill="#CCC" transform="matrix(1.2643 0 0 1.26465 0.00012207 -6.10352e-05)" d="M1123.2 724.294C1125.16 725.64 1125.2 726.082 1125.7 728.407C1133.3 763.695 1139.32 799.513 1146.13 834.969C1150.96 860.135 1157.11 885.44 1160.52 910.818C1160.78 912.676 1160.88 914.231 1160.29 916.055C1162.26 916.307 1165.53 916.289 1167.13 917.444C1168.04 919.069 1168.04 919.174 1167.84 921.03L1167.4 922.194C1162.58 922.943 1157.27 922.24 1152.38 922.204Q1135.52 922.026 1118.66 922.064C1115.36 922.099 1104.76 923.28 1102.45 922.531C1102.06 922.403 1101.76 922.073 1101.42 921.843C1102 920.207 1102.15 918.493 1102.39 916.78L1103.65 916.258C1104.67 916.282 1105.57 916.172 1106.59 916.057C1106.71 915.897 1106.85 915.751 1106.95 915.579C1107.91 913.914 1108.11 911.137 1108.28 909.245L1123.6 727.825C1123.71 726.564 1123.56 725.495 1123.2 724.294Z"/>
	<path fill="#393A39" transform="matrix(1.2643 0 0 1.26465 0.00012207 -6.10352e-05)" d="M1150.87 611.406C1157.73 610.632 1164.3 607.909 1171.12 606.689C1172.86 610.788 1172.05 653.947 1171.2 660.786L1169.86 662.497C1171.87 666.875 1179.07 772.984 1177.71 777.352C1179.83 781.456 1188.09 898.914 1189.39 914.279C1187.92 915.88 1185.38 915.836 1183.26 916.24L1180.34 916.28C1178.01 915.32 1178.39 912.738 1178.22 910.52C1176.8 892.543 1173.41 874.586 1171.46 856.627L1154.63 704.127C1153.8 697.054 1153.36 673.757 1150.1 669.024C1126.5 669.607 1103.03 669.49 1079.42 669.092C1082.15 673.899 1080.6 688.114 1079.59 693.604L1078.41 694.217C1079.76 689.678 1079.11 683.927 1079.12 679.205C1079.15 670.299 1078 627.661 1079.68 622.488L1079.64 622.06Q1086.25 620.779 1092.75 618.997C1095.64 618.196 1099.08 617.652 1100.59 614.993L1101.13 615.569C1101.26 616.655 1101.59 617.631 1101.91 618.673C1106.79 621.07 1143.33 613.064 1150.87 611.406Z"/>
	<path fill="#9A9A9A" transform="matrix(1.2643 0 0 1.26465 0.00012207 -6.10352e-05)" d="M1150.87 611.406C1157.73 610.632 1164.3 607.909 1171.12 606.689C1172.86 610.788 1172.05 653.947 1171.2 660.786L1169.86 662.497C1168.13 661.366 1120.89 662.701 1113.2 662.005C1101.87 662.073 1090.53 661.299 1079.22 660.707C1079.32 660.548 1079.43 660.398 1079.51 660.23C1081.16 656.818 1081.21 626.891 1079.68 622.488L1079.64 622.06Q1086.25 620.779 1092.75 618.997C1095.64 618.196 1099.08 617.652 1100.59 614.993L1101.13 615.569C1101.26 616.655 1101.59 617.631 1101.91 618.673C1106.79 621.07 1143.33 613.064 1150.87 611.406Z"/>
	<path fill="#878787" transform="matrix(1.2643 0 0 1.26465 0.00012207 -6.10352e-05)" d="M1150.87 611.406C1157.73 610.632 1164.3 607.909 1171.12 606.689C1172.86 610.788 1172.05 653.947 1171.2 660.786L1169.86 662.497C1168.13 661.366 1120.89 662.701 1113.2 662.005C1125.64 660.997 1138.71 661.755 1151.21 661.747C1151.79 660.778 1152.2 660.01 1152.33 658.868C1152.93 653.424 1153.55 617.048 1152.3 613.269C1152.13 612.773 1151.22 611.863 1150.87 611.406Z"/>
	<path fill="#E7E7EA" transform="matrix(1.2643 0 0 1.26465 0.00012207 -6.10352e-05)" d="M1023.68 695.585L1054.76 695.441C1059.71 695.423 1065.31 694.943 1070.19 695.641C1073.03 701.042 1073.02 736.312 1073.32 745.204C1075.15 799.28 1076.84 853.527 1079.82 907.543C1079.93 909.672 1079.8 915.258 1081.79 916.158C1082.67 916.551 1083.83 916.72 1084.77 916.941C1085.92 919.342 1085.9 919.286 1085.07 921.816C1082.63 923.089 1030.54 922.534 1023.69 922.343L1023.68 695.585Z"/>
</svg>
