<?xml version="1.0" encoding="utf-8" ?>
<svg xmlns="http://www.w3.org/2000/svg" xmlns:xlink="http://www.w3.org/1999/xlink" width="1813" height="1295">
	<path fill="#DCDCDC" transform="matrix(1.2643 0 0 1.26465 0.00012207 -6.10352e-05)" d="M0 0L1432.77 0C1433.38 1.03006 1433.77 1.76058 1433.87 2.9811C1435.16 18.9759 1434 36.0252 1434 52.1063L1434.01 155.234L1434 556.567L1434 650.259C1434 657.616 1435.09 677.903 1433.73 683.671C1433.55 684.446 1433.19 685.032 1432.78 685.699C1433.4 686.685 1433.78 687.625 1433.88 688.802C1434.69 698.783 1434 709.284 1434.01 719.325L1434.02 780.448L1434.01 957.098L1434 1003.19C1434 1008.76 1434.88 1016.13 1433.81 1021.53C1433.63 1022.46 1433.27 1023.21 1432.77 1024L0 1024L0 685.626L0 0Z"/>
	<path fill="#459268" transform="matrix(1.2643 0 0 1.26465 0.00012207 -6.10352e-05)" d="M1221.07 656.24C1222.41 655.934 1223.2 655.39 1224.41 656.168C1225.52 656.882 1225.78 657.578 1226.27 658.762C1226.07 660.545 1226.09 660.62 1224.86 661.908C1222.92 662.318 1221.59 662.175 1219.67 661.717C1220.08 661.391 1220.3 661.247 1220.65 660.814C1221.94 659.247 1221.39 658.043 1221.07 656.24Z"/>
	<path fill="#3EB16B" transform="matrix(1.2643 0 0 1.26465 0.00012207 -6.10352e-05)" d="M1162.73 643.735C1160.27 642.96 1156.51 641.875 1155.25 639.507C1155.67 637.425 1156.37 637.261 1157.98 635.954C1160.25 636.249 1162.09 636.557 1164.14 637.625C1164.83 638.714 1165.21 638.973 1164.87 640.308C1164.57 641.485 1163.53 642.817 1162.73 643.735Z"/>
	<path fill="#9A9A9A" transform="matrix(1.2643 0 0 1.26465 0.00012207 -6.10352e-05)" d="M758.257 539.927C764.457 538.803 770.896 539.014 777.179 538.916L777.106 551.376L777.184 556.74L777.179 557.766L776.702 557.632C776.262 547.996 770.87 547.867 770.013 542.043C769.916 541.384 769.755 540.769 769.585 540.125C765.815 539.813 762.036 539.897 758.257 539.927Z"/>
	<path fill="#4E4D4E" transform="matrix(1.2643 0 0 1.26465 0.00012207 -6.10352e-05)" d="M1173.53 448.61C1178.91 447.494 1196.18 446.427 1200.63 449.169C1200.93 450.96 1200.49 451.233 1199.61 452.765C1196.12 453.459 1177.13 453.75 1174.54 452.48L1173.53 448.61Z"/>
	<path fill="#3EB16B" transform="matrix(1.2643 0 0 1.26465 0.00012207 -6.10352e-05)" d="M1211.93 636.606C1217.08 636.508 1223.74 637.766 1227.47 641.703C1228.15 642.419 1228.37 643.163 1228.64 644.09C1227.92 646.171 1226.76 647.643 1224.66 648.569C1223.52 649.066 1222.39 648.92 1221.19 648.87C1219.91 648.816 1218.75 648.989 1217.52 649.342C1214.81 646.719 1209.2 644.747 1205.69 643.085C1208.47 642.094 1210.36 638.984 1211.93 636.606Z"/>
	<path fill="#4E4D4E" transform="matrix(1.2643 0 0 1.26465 0.00012207 -6.10352e-05)" d="M452.344 930.665C453.281 927.265 454.337 924.644 457.625 922.839C459.671 921.716 461.974 921.52 464.203 922.22C466.847 923.049 469.019 925.13 470.138 927.636C470.593 928.655 470.913 929.694 471.169 930.777C470.901 931.964 470.615 933.102 470.08 934.202C468.927 936.568 466.706 938.496 464.192 939.282Q463.76 939.42 463.315 939.513Q462.871 939.605 462.42 939.651Q461.968 939.697 461.514 939.696Q461.061 939.694 460.609 939.646Q460.158 939.597 459.715 939.502Q459.271 939.407 458.839 939.266Q458.408 939.126 457.994 938.941Q457.579 938.756 457.186 938.529C453.853 936.636 453.193 934.119 452.344 930.665Z"/>
	<path fill="#4E4D4E" transform="matrix(1.2643 0 0 1.26465 0.00012207 -6.10352e-05)" d="M343.101 930.731C344.53 927.5 345.975 925.159 349.415 923.728C351.932 922.681 354.739 922.471 357.229 923.698C359.545 924.84 360.835 926.654 361.498 929.105C361.63 929.593 361.739 930.087 361.849 930.581C361.553 932.43 361.27 934.26 360.39 935.937C359.172 938.256 357.163 940.041 354.585 940.656C352.367 941.186 349.975 940.556 348.103 939.306C344.872 937.147 343.932 934.291 343.101 930.731Z"/>
	<path fill="#4E4D4E" transform="matrix(1.2643 0 0 1.26465 0.00012207 -6.10352e-05)" d="M399.633 931.065C400.713 927.66 401.672 925.218 405.05 923.441C407.039 922.394 409.239 922.179 411.378 922.897C413.868 923.734 415.99 925.33 417.104 927.738C417.302 928.166 417.471 928.607 417.65 929.043C417.897 929.651 418.145 930.252 418.38 930.864C418.036 932.241 417.629 933.591 417.003 934.87C415.762 937.407 413.478 939.545 410.753 940.388Q410.365 940.508 409.966 940.587Q409.567 940.665 409.162 940.701Q408.757 940.736 408.35 940.728Q407.944 940.72 407.54 940.669Q407.137 940.618 406.742 940.524Q406.346 940.43 405.963 940.294Q405.579 940.159 405.213 939.983Q404.846 939.808 404.5 939.594C401.229 937.615 400.504 934.504 399.633 931.065Z"/>
	<path fill="#4E4D4E" transform="matrix(1.2643 0 0 1.26465 0.00012207 -6.10352e-05)" d="M1129.28 387.298C1129.47 385.582 1129.24 384.536 1130.51 383.309C1137.63 382.495 1162.29 381.814 1168.26 383.753C1173.64 383.955 1178.99 384.171 1184.37 383.939C1190.12 384.287 1200.54 382.951 1205.45 385.721L1205.71 386.907L1204.52 388.183C1196.86 388.385 1189.18 388.282 1181.52 388.271C1176.62 388.212 1171.03 388.674 1166.3 387.368C1163.09 385.929 1134.72 387.209 1129.28 387.298Z"/>
	<path fill="#E7A75D" transform="matrix(1.2643 0 0 1.26465 0.00012207 -6.10352e-05)" d="M484.316 691.511C491.113 691.252 497.627 689.169 504.378 688.83C508.477 691.547 516.79 697.01 517.495 702.333C517.709 703.95 517.255 705.383 516.16 706.589C511.636 711.569 493.553 709.762 487.158 709.565C485.993 709.529 485.17 709.531 484.097 708.982C485.684 703.081 484.939 697.486 484.316 691.511Z"/>
	<path fill="#E7E7EA" transform="matrix(1.2643 0 0 1.26465 0.00012207 -6.10352e-05)" d="M1129.43 364.562C1141.61 363.619 1154.29 364.404 1166.52 364.506L1166.68 364.814C1167.23 365.869 1167.57 366.848 1167.71 368.044C1168.16 371.97 1168.78 378.812 1166.16 382.075C1158.03 383.384 1137.91 382.272 1128.32 382.324C1130.52 378.6 1130.12 368.842 1129.43 364.562Z"/>
	<path fill="#9A9A9A" transform="matrix(1.2643 0 0 1.26465 0.00012207 -6.10352e-05)" d="M173.603 934.562C177.206 932.333 230.311 927.358 239.272 927.122L237.557 931.483C233.133 937.535 229.666 940.625 222.042 941.876C212.261 943.48 185.127 944.391 177.475 938.596C176.036 937.507 174.674 935.995 173.603 934.562Z"/>
	<path fill="#E7E7EA" transform="matrix(1.2643 0 0 1.26465 0.00012207 -6.10352e-05)" d="M653.351 212.396C671.164 210.261 689.58 210.696 707.496 210.678C730.384 210.655 753.583 210.519 776.415 212.363C776.749 212.665 776.968 213.176 777.197 213.565C777.055 213.709 776.932 213.874 776.771 213.996C770.672 218.595 685.389 217.481 672.652 216.647C667.253 216.294 657.003 216.549 653.351 212.396Z"/>
	<path fill="#878787" transform="matrix(1.2643 0 0 1.26465 0.00012207 -6.10352e-05)" d="M1223.14 364.233C1235.03 364.164 1247.25 364.642 1259.1 363.89C1261.67 368.483 1260.41 378.533 1260.31 383.926L1259.98 384.622L1259.26 387.353C1257.01 389.245 1228.36 388.341 1223.6 387.984L1223.99 385.107L1224.15 383.808C1224.68 378.301 1225.79 369.195 1223.14 364.233Z"/>
	<path fill="#2F764D" transform="matrix(1.2643 0 0 1.26465 0.00012207 -6.10352e-05)" d="M1224.15 383.808C1228.26 382.789 1256.67 382.108 1259.6 383.812L1259.98 384.622L1259.26 387.353C1257.01 389.245 1228.36 388.341 1223.6 387.984L1223.99 385.107L1224.15 383.808Z"/>
	<path fill="#4E4D4E" transform="matrix(1.2643 0 0 1.26465 0.00012207 -6.10352e-05)" d="M546.053 910.298L566.847 906.127C566.966 909.656 566.832 914.098 568.887 917.13C581.007 921.817 597.205 920.938 605.371 932.261C605.971 933.771 606.321 935.054 606.591 936.656L605.667 937.582C598.227 938.375 590.539 937.576 583.052 937.612C571.491 937.668 559.074 938.9 547.632 937.527C546.2 935.799 546.366 934.506 546.144 932.363C546.276 927.519 546.746 922.881 548.347 918.288C547.91 915.668 546.814 912.862 546.053 910.298Z"/>
	<path fill="#E7A75D" transform="matrix(1.2643 0 0 1.26465 0.00012207 -6.10352e-05)" d="M546.053 910.298L566.847 906.127C566.966 909.656 566.832 914.098 568.887 917.13C563.999 920.162 558.594 922.03 552.805 920.435Q551.602 920.105 550.478 919.564Q549.355 919.023 548.347 918.288C547.91 915.668 546.814 912.862 546.053 910.298Z"/>
	<path fill="#2F764D" transform="matrix(1.2643 0 0 1.26465 0.00012207 -6.10352e-05)" d="M1201.81 644.327L1203.51 642.171L1205.69 643.085C1209.2 644.747 1214.81 646.719 1217.52 649.342C1218.73 652.655 1222.8 652.145 1221.07 656.24C1221.39 658.043 1221.94 659.247 1220.65 660.814C1220.3 661.247 1220.08 661.391 1219.67 661.717L1219.12 662.824L1216.91 663.18C1216.12 664.895 1214.26 667.368 1212.46 668.019C1211.86 668.236 1211.02 668.305 1210.38 668.39C1210.01 672.283 1212.45 675.653 1211.26 679.326C1206.11 680.509 1184.8 679.363 1177.85 679.33C1179.36 676.886 1179.06 673.359 1178.7 670.619L1177.06 669.793L1175.67 668.958L1171.91 665.439C1174.07 663.64 1176.88 663.719 1179.09 661.834C1182.32 658.522 1185.72 654.889 1188.75 651.389L1188.34 648.262C1189.34 646.542 1192.34 645.833 1194.12 644.698L1194.54 644.427C1197.09 643.781 1199.12 644.09 1201.42 645.395L1201.81 644.327Z"/>
	<path fill="#3EB16B" transform="matrix(1.2643 0 0 1.26465 0.00012207 -6.10352e-05)" d="M1179.3 663.297C1183.08 662.887 1186.85 662.538 1190.46 664.017L1191.16 665.244C1190.14 666.502 1189.23 666.502 1187.61 666.695C1186.82 666.791 1186 666.79 1185.19 666.796C1184.14 665.842 1183.05 665.648 1181.69 665.684C1180.41 665.718 1179.26 665.674 1177.99 665.52L1177.52 665.462L1179.3 663.297Z"/>
	<path fill="#459268" transform="matrix(1.2643 0 0 1.26465 0.00012207 -6.10352e-05)" d="M1190.46 664.017C1192.26 663.553 1193.23 663.34 1195.02 663.956C1195.24 664.951 1195.98 666.799 1195.49 667.686C1194.97 668.62 1194.33 668.922 1193.45 669.472C1190.46 669.656 1188.14 669.737 1185.24 668.836L1185.19 666.796C1186 666.79 1186.82 666.791 1187.61 666.695C1189.23 666.502 1190.14 666.502 1191.16 665.244L1190.46 664.017Z"/>
	<path fill="#34A25F" transform="matrix(1.2643 0 0 1.26465 0.00012207 -6.10352e-05)" d="M1171.91 665.439C1174.07 663.64 1176.88 663.719 1179.09 661.834L1179.3 663.297L1177.52 665.462L1177.99 665.52C1179.26 665.674 1180.41 665.718 1181.69 665.684C1183.05 665.648 1184.14 665.842 1185.19 666.796L1185.24 668.836C1183.61 668.187 1179.15 669.78 1177.06 669.793L1175.67 668.958L1171.91 665.439Z"/>
	<path fill="#34A25F" transform="matrix(1.2643 0 0 1.26465 0.00012207 -6.10352e-05)" d="M1195.02 663.956C1196.12 663.685 1197.02 663.471 1198 662.874C1203.92 659.252 1207.09 664.343 1212.9 663.251C1214.47 662.956 1215.32 662.936 1216.91 663.18C1216.12 664.895 1214.26 667.368 1212.46 668.019C1211.86 668.236 1211.02 668.305 1210.38 668.39C1205.13 667.726 1199.11 669.829 1193.45 669.472C1194.33 668.922 1194.97 668.62 1195.49 667.686C1195.98 666.799 1195.24 664.951 1195.02 663.956Z"/>
	<path fill="#E7A75D" transform="matrix(1.2643 0 0 1.26465 0.00012207 -6.10352e-05)" d="M1193.45 669.472C1199.11 669.829 1205.13 667.726 1210.38 668.39C1210.01 672.283 1212.45 675.653 1211.26 679.326C1206.11 680.509 1184.8 679.363 1177.85 679.33C1179.36 676.886 1179.06 673.359 1178.7 670.619L1177.06 669.793C1179.15 669.78 1183.61 668.187 1185.24 668.836C1188.14 669.737 1190.46 669.656 1193.45 669.472Z"/>
	<path fill="#B8B8B8" transform="matrix(1.2643 0 0 1.26465 0.00012207 -6.10352e-05)" d="M207.091 858.555L207.617 861.54C210.945 863.12 240.631 861.655 246.972 861.715L246.917 876.299C244.485 876.319 241.906 876.498 239.488 876.338C231.673 875.843 223.595 876.24 215.755 876.228Q192.882 876.119 170.009 876.328C167.174 876.41 165.282 876.758 163.09 874.838C161.523 871.347 162.463 865.634 162.47 861.77C169.081 861.552 200.207 862.932 203.504 861.003C203.94 861.622 204.604 861.762 205.28 862.079C206.853 860.811 206.697 860.467 207.091 858.555Z"/>
	<defs>
		<linearGradient id="gradient_0" gradientUnits="userSpaceOnUse" x1="1202.9088" y1="713.97998" x2="1189.8199" y2="675.49292">
			<stop offset="0" stop-color="#9A674F"/>
			<stop offset="1" stop-color="#C18461"/>
		</linearGradient>
	</defs>
	<path fill="url(#gradient_0)" transform="matrix(1.2643 0 0 1.26465 0.00012207 -6.10352e-05)" d="M1177.85 679.33C1184.8 679.363 1206.11 680.509 1211.26 679.326C1212.92 679.676 1214.15 679.671 1215.43 680.827C1214.57 687.309 1210 709.659 1206.83 714.398L1205.74 715.089C1201.04 715.178 1183.82 716.14 1180.4 714.57C1179.77 714.282 1178.94 713.404 1178.38 712.949C1180.38 705.254 1172.71 689.633 1172.66 680.884C1174.11 679.454 1175.92 679.522 1177.85 679.33Z"/>
	<path fill="#9A9A9A" transform="matrix(1.2643 0 0 1.26465 0.00012207 -6.10352e-05)" d="M170.009 876.328Q192.882 876.119 215.755 876.228C223.595 876.24 231.673 875.843 239.488 876.338L239.629 890.371C239.643 896.905 239.891 903.536 239.591 910.057L239.621 917.136C234.273 915.796 229.168 911.879 224.542 908.965C214.686 902.756 188.189 884.93 177.923 882.26C175.52 881.635 172.573 881.896 170.096 881.962L170.009 876.328Z"/>
	<path fill="#B8B8B8" transform="matrix(1.2643 0 0 1.26465 0.00012207 -6.10352e-05)" d="M193.464 882.282C208.612 882.815 225.042 886.411 239.629 890.371C239.643 896.905 239.891 903.536 239.591 910.057C231.35 901.303 205.013 891.563 193.464 882.282Z"/>
	<path fill="#3EB16B" transform="matrix(1.2643 0 0 1.26465 0.00012207 -6.10352e-05)" d="M1173.96 618.665C1175.01 618.161 1176.07 617.697 1177.07 617.102C1179.02 615.935 1181.8 616.101 1183.93 616.691C1188.29 617.896 1191.65 622.544 1193.8 626.289C1193.91 626.195 1194.02 626.103 1194.13 626.006C1198.65 622.057 1200.53 615.474 1208 616.021C1209.95 616.163 1211.64 617.096 1212.86 618.619C1214.9 621.188 1215.22 624.549 1214.69 627.691C1214.26 630.221 1213.35 631.631 1211.39 633.239L1212.71 635.45L1211.93 636.606C1210.36 638.984 1208.47 642.094 1205.69 643.085L1203.51 642.171L1201.81 644.327L1201.42 645.395C1199.12 644.09 1197.09 643.781 1194.54 644.427L1194.12 644.698C1192.34 645.833 1189.34 646.542 1188.34 648.262L1188.75 651.389C1185.72 654.889 1182.32 658.522 1179.09 661.834C1176.88 663.719 1174.07 663.64 1171.91 665.439C1171.77 665.037 1171.29 664.586 1171.02 664.254Q1167.48 664.172 1163.98 663.653Q1160.47 663.135 1157.06 662.187C1155.25 661.673 1154.4 661.185 1153.48 659.576C1155.26 655.709 1161.79 649.925 1165.33 647.31C1165.49 647.193 1165.65 647.079 1165.81 646.963L1165.22 645.778C1164.75 644.878 1163.57 644.309 1162.73 643.735C1163.53 642.817 1164.57 641.485 1164.87 640.308C1165.21 638.973 1164.83 638.714 1164.14 637.625C1162.09 636.557 1160.25 636.249 1157.98 635.954C1161.16 634.32 1164.91 634.799 1168.32 633.756C1169.49 633.397 1169.49 633.615 1170.07 632.489C1168.67 631.398 1166.95 630.227 1165.84 628.838C1163.94 626.453 1164.27 622.708 1164.49 619.859C1165.35 618.706 1165.6 618.247 1167.07 617.854C1169.16 617.295 1172.15 617.545 1173.96 618.665Z"/>
	<path fill="#E7E7EA" transform="matrix(1.2643 0 0 1.26465 0.00012207 -6.10352e-05)" d="M1211.39 633.239L1212.71 635.45L1211.93 636.606C1210.36 638.984 1208.47 642.094 1205.69 643.085L1203.51 642.171L1201.81 644.327C1202.42 642.658 1202.33 641.19 1202.28 639.434C1202.79 638.423 1202.79 638.077 1202.8 636.981C1205.5 636.196 1209.55 635.437 1211.39 633.239Z"/>
	<path fill="#34A25F" transform="matrix(1.2643 0 0 1.26465 0.00012207 -6.10352e-05)" d="M1193.75 639.416C1192.17 637.368 1189.81 635.186 1189.76 632.583L1191 631.931L1193.07 633.081L1193.86 632.418C1193.8 631.583 1193.71 630.945 1193.46 630.137C1193.38 629.896 1193.29 629.658 1193.21 629.418L1194.27 628.314C1197.54 630.517 1201.07 633.357 1202.8 636.981C1202.79 638.077 1202.79 638.423 1202.28 639.434C1202.33 641.19 1202.42 642.658 1201.81 644.327L1201.42 645.395C1199.12 644.09 1197.09 643.781 1194.54 644.427L1195.38 643.112C1195.47 641.172 1194.91 640.917 1193.75 639.416Z"/>
	<path fill="#459268" transform="matrix(1.2643 0 0 1.26465 0.00012207 -6.10352e-05)" d="M1193.75 639.416C1194.49 638.207 1195.07 637.11 1196.24 636.259C1198.46 635.878 1199.7 635.671 1201.79 636.612C1202.64 637.865 1202.49 637.912 1202.28 639.434C1202.33 641.19 1202.42 642.658 1201.81 644.327L1201.42 645.395C1199.12 644.09 1197.09 643.781 1194.54 644.427L1195.38 643.112C1195.47 641.172 1194.91 640.917 1193.75 639.416Z"/>
	<path fill="#34A25F" transform="matrix(1.2643 0 0 1.26465 0.00012207 -6.10352e-05)" d="M1157.98 635.954C1161.16 634.32 1164.91 634.799 1168.32 633.756C1169.49 633.397 1169.49 633.615 1170.07 632.489C1168.67 631.398 1166.95 630.227 1165.84 628.838C1163.94 626.453 1164.27 622.708 1164.49 619.859C1165.35 618.706 1165.6 618.247 1167.07 617.854C1169.16 617.295 1172.15 617.545 1173.96 618.665L1175.44 620.263C1174.7 623.348 1172.29 625.826 1174.16 629.094C1175.99 632.291 1180.78 634.394 1183.78 636.35C1184.44 636.78 1184.24 636.703 1184.77 637.543C1184.35 639.904 1183.69 641.348 1182.31 643.305C1182.53 647.363 1186.68 649.31 1184 652.367L1184.3 652.308L1183.71 651.84C1183.08 649.583 1182.93 647.997 1181.19 646.312C1175.95 644.954 1170.56 645.972 1165.22 645.778C1164.75 644.878 1163.57 644.309 1162.73 643.735C1163.53 642.817 1164.57 641.485 1164.87 640.308C1165.21 638.973 1164.83 638.714 1164.14 637.625C1162.09 636.557 1160.25 636.249 1157.98 635.954Z"/>
	<path fill="#A9A9A9" transform="matrix(1.2643 0 0 1.26465 0.00012207 -6.10352e-05)" d="M1178.38 712.949C1178.94 713.404 1179.77 714.282 1180.4 714.57C1183.82 716.14 1201.04 715.178 1205.74 715.089L1206.83 714.398C1213.14 717.098 1263.23 714.94 1274.62 715.288C1275.57 717.228 1276.65 720.122 1275.88 722.25C1275.5 723.328 1274.78 723.953 1273.76 724.457C1270.7 725.974 1267.24 725.219 1264.27 726.433L1263.66 725.762C1249.21 725.479 1234.72 725.729 1220.26 725.788C1213.34 725.251 1206.25 725.693 1199.3 725.702L1158.47 725.764C1143.9 725.79 1128.24 724.215 1113.81 725.694C1114.46 726.003 1115.39 726.311 1115.91 726.83L1103.42 727.108C1103.76 726.509 1104.07 725.97 1104.25 725.295C1105.04 722.228 1104.72 717.561 1103.09 714.805C1112.37 714.663 1176.17 715.451 1178.47 714.668L1178.38 712.949Z"/>
	<path fill="#A9A9A9" transform="matrix(1.2643 0 0 1.26465 0.00012207 -6.10352e-05)" d="M750.151 734.642C751.07 742.431 750.645 750.452 750.647 758.291L750.638 797.412L750.447 931.579C750.523 934.969 751.371 939.239 749.521 942.168C747.98 943.11 746.52 943.26 744.754 943.514C743.796 943.149 743.226 942.784 742.399 942.202C741.211 939.11 741.678 935.339 741.769 932.054L740.786 739.829C743.85 740.449 746.773 740.246 749.83 740.6L750.151 734.642Z"/>
	<path fill="#878787" transform="matrix(1.2643 0 0 1.26465 0.00012207 -6.10352e-05)" d="M740.786 739.829C743.85 740.449 746.773 740.246 749.83 740.6C748.887 740.82 745.788 741.257 745.379 742.008C743.687 745.119 745.056 883.949 745.13 900.777C745.183 912.956 746.636 932.176 744.754 943.514C743.796 943.149 743.226 942.784 742.399 942.202C741.211 939.11 741.678 935.339 741.769 932.054L740.786 739.829Z"/>
	<path fill="#4E4D4E" transform="matrix(1.2643 0 0 1.26465 0.00012207 -6.10352e-05)" d="M715.072 116.591C715.063 110.942 714.261 72.1785 715.994 70.2697C718.231 85.1152 716.572 101.486 716.5 116.526C720.983 117.696 724.87 118.932 727.495 123.128C729.238 125.914 729.813 129.272 730.359 132.463C767.825 131.602 805.4 132.099 842.878 132.125C867.585 132.141 892.707 131.252 917.373 132.342Q916.951 189.633 917.395 246.922C917.491 263.914 919.11 289.932 916.851 306.23C916.092 285.294 916.622 264.216 916.627 243.262L916.592 133.039C895.132 133.03 737.167 131.535 730.759 134.048C730.058 140.684 731.912 152.98 733.31 159.67C721.749 158.162 708.709 158.698 697.121 159.754C698.792 150.933 699.111 141.798 700.07 132.872L508.215 133.012L508.66 243.152C508.739 264.081 509.464 285.193 508.514 306.099C505.987 297.339 507.691 264.013 507.692 252.793L507.742 132.454C571.671 131.814 635.874 131.297 699.791 132.584C700.88 127.501 701.991 122.504 706.567 119.367C709.115 117.619 712.068 117.02 715.072 116.591Z"/>
	<path fill="#B8B8B8" transform="matrix(1.2643 0 0 1.26465 0.00012207 -6.10352e-05)" d="M266.553 770.747C276.866 769.041 289.515 771.705 298.849 776.111C286.067 789.617 264.213 804.192 247.362 812.033C245.367 812.786 243.351 813.544 241.295 814.116C236.763 815.377 226.247 816.042 222.289 813.015C220.635 811.751 220.228 806.196 220.058 804.097C219.526 797.53 222.312 790.441 226.5 785.462C236.651 773.394 251.899 771.894 266.553 770.747Z"/>
	<path fill="#B8B8B8" transform="matrix(1.2643 0 0 1.26465 0.00012207 -6.10352e-05)" d="M170.096 881.962C172.573 881.896 175.52 881.635 177.923 882.26C188.189 884.93 214.686 902.756 224.542 908.965C229.168 911.879 234.273 915.796 239.621 917.136C239.556 920.418 239.693 923.873 239.272 927.122C230.311 927.358 177.206 932.333 173.603 934.562L171.744 931.702C167.618 920.167 170.059 895.206 170.096 881.962Z"/>
	<path fill="#9A9A9A" transform="matrix(1.2643 0 0 1.26465 0.00012207 -6.10352e-05)" d="M838.517 769.343L974.613 769.23C995.814 769.23 1017.28 770.029 1038.44 769.28C1040.25 772.666 1039.85 777.689 1039.18 781.377C1038.59 781.966 1038.03 782.591 1037.39 783.12C1011.16 783.773 984.72 782.965 958.48 782.857L845.936 783.051C843.252 782.993 841.702 783.293 839.398 781.853C837.331 778.525 838.362 773.141 838.517 769.343Z"/>
	<path fill="#878787" transform="matrix(1.2643 0 0 1.26465 0.00012207 -6.10352e-05)" d="M328.106 793.137C332.168 794.143 347.09 795.414 350.579 793.558C355.067 795.284 367.786 793.842 373.208 793.987C397.555 795.445 422.658 794.117 447.081 794.019C455.023 793.987 465.56 792.72 473.148 794.522L473.774 795.063C475.815 796.839 478.642 801.263 481.019 801.442C481.077 801.446 481.134 801.424 481.191 801.415C480.543 804.555 479.832 808.201 476.939 810.094C471.653 813.553 425.823 811.766 415.821 811.761L398.356 811.774L353.975 811.809C346.129 811.846 337.436 812.616 329.674 811.544C327.227 811.206 325.098 810.313 323.199 808.717C320.936 806.816 319.124 803.958 318.989 800.942C318.891 798.754 319.809 796.495 321.329 794.931C323.212 792.995 325.614 793.152 328.106 793.137Z"/>
	<path fill="#236846" transform="matrix(1.2643 0 0 1.26465 0.00012207 -6.10352e-05)" d="M219.327 732.613C234.706 713.958 250.075 697.35 269.606 682.963C265.032 703.997 259.486 745.26 249.371 762.748Q248.789 763.765 248.145 764.743Q247.501 765.722 246.797 766.659Q246.094 767.596 245.334 768.487Q244.574 769.379 243.761 770.222Q242.947 771.065 242.083 771.856Q241.219 772.647 240.308 773.383Q239.397 774.119 238.442 774.798Q237.487 775.476 236.492 776.094C232.422 778.669 228.047 780.776 223.397 782.058C220.46 781.304 217.518 780.633 214.744 779.38C212.85 776.691 210.026 774.66 208.108 771.736C205.761 768.158 205.806 764.708 206.688 760.707C214.574 751.57 217.185 744.375 219.327 732.613Z"/>
	<path fill="#E7E7EA" transform="matrix(1.2643 0 0 1.26465 0.00012207 -6.10352e-05)" d="M184.977 422.45C194.445 422.265 204.11 421.895 213.546 422.919L213.353 524.704L185.951 524.562C184.446 490.395 185.055 456.616 184.977 422.45Z"/>
	<path fill="#878787" transform="matrix(1.2643 0 0 1.26465 0.00012207 -6.10352e-05)" d="M197.63 503.215C198.98 503.372 200.589 503.784 201.67 504.676C202.956 505.737 203.709 507.156 203.68 508.831C203.643 510.944 202.22 512.163 200.745 513.449C199.304 513.351 197.279 513.018 196.131 512.118C195.024 511.249 194.518 510.338 194.491 508.928C194.447 506.698 196.284 504.808 197.63 503.215Z"/>
	<path fill="#4E4D4E" transform="matrix(1.2643 0 0 1.26465 0.00012207 -6.10352e-05)" d="M197.391 438.98C198.726 439.039 200.465 439.131 201.647 439.812C203.143 440.672 204.022 441.928 204.207 443.649C204.435 445.772 202.859 447.566 201.663 449.136C199.828 449.207 197.632 449.193 196.151 447.943C195.027 446.995 194.526 445.974 194.48 444.5C194.41 442.285 196.045 440.54 197.391 438.98Z"/>
	<path fill="#9A9A9A" transform="matrix(1.2643 0 0 1.26465 0.00012207 -6.10352e-05)" d="M120.482 422.348L148.818 422.306L149.032 514.54C148.439 517.905 148.521 521.472 148.418 524.888Q134.458 524.804 120.501 525.104C120.547 517.906 120.6 510.721 120.318 503.526L120.482 422.348Z"/>
	<path fill="#4E4D4E" transform="matrix(1.2643 0 0 1.26465 0.00012207 -6.10352e-05)" d="M132.812 438.545C134.569 438.901 136.659 439.268 137.887 440.719C138.846 441.853 139.121 442.934 138.972 444.374C138.69 447.096 136.59 448.76 134.628 450.367C133.641 450.214 132.631 450.042 131.718 449.62C130.062 448.856 128.686 447.273 128.103 445.545Q128.017 445.299 127.958 445.045Q127.898 444.792 127.866 444.533Q127.833 444.275 127.827 444.015Q127.821 443.754 127.843 443.495Q127.864 443.235 127.913 442.979Q127.961 442.723 128.036 442.474Q128.111 442.224 128.212 441.984Q128.312 441.744 128.437 441.515C129.413 439.723 130.979 439.166 132.812 438.545Z"/>
	<path fill="#878787" transform="matrix(1.2643 0 0 1.26465 0.00012207 -6.10352e-05)" d="M131.574 502.829C133.493 502.781 135.67 502.571 137.342 503.688C138.801 504.662 139.601 506.009 139.827 507.711C140.163 510.242 138.743 512.15 137.262 514.028C135.117 514.104 132.684 514.129 130.831 512.906C129.681 512.146 128.907 510.956 128.736 509.602C128.369 506.711 129.843 504.973 131.574 502.829Z"/>
	<path fill="#E7E7EA" transform="matrix(1.2643 0 0 1.26465 0.00012207 -6.10352e-05)" d="M153.29 422.563L181.539 422.372Q182.819 458.999 182.46 495.647C182.376 504.961 183.025 515.361 181.788 524.565Q167.789 524.481 153.79 524.608C152.154 509.219 153.087 493.405 153.248 477.959L153.29 422.563Z"/>
	<path fill="#878787" transform="matrix(1.2643 0 0 1.26465 0.00012207 -6.10352e-05)" d="M164.958 503.365C166.644 503.374 168.676 503.389 170.126 504.39C171.394 505.266 172.088 506.51 172.122 508.05C172.168 510.191 170.626 511.892 169.359 513.445C168.027 513.278 166.271 512.931 165.091 512.298C163.382 511.381 163.043 510.27 162.503 508.579C162.742 506.268 163.51 505.143 164.958 503.365Z"/>
	<path fill="#878787" transform="matrix(1.2643 0 0 1.26465 0.00012207 -6.10352e-05)" d="M165.259 439.012C167.095 438.976 168.967 439.023 170.426 440.317C171.81 441.544 172.343 442.901 172.311 444.73C172.273 446.93 170.754 448.294 169.283 449.723C167.924 449.648 166.244 449.352 165.079 448.581C163.559 447.577 162.833 446.238 162.68 444.449C162.497 442.315 164.042 440.586 165.259 439.012Z"/>
	<path fill="#E7E7EA" transform="matrix(1.2643 0 0 1.26465 0.00012207 -6.10352e-05)" d="M1129.28 387.298C1134.72 387.209 1163.09 385.929 1166.3 387.368C1167.38 390.234 1167.46 464.915 1166.66 467.119C1166.43 467.736 1166.26 467.957 1165.94 468.469C1156 469.963 1139.65 468.626 1129.13 468.526C1130.27 463.402 1130.72 392.956 1129.28 387.298Z"/>
	<path fill="#4E4D4E" transform="matrix(1.2643 0 0 1.26465 0.00012207 -6.10352e-05)" d="M1131.77 447.908C1132.5 447.755 1133.25 447.609 1133.99 447.536C1140.12 446.936 1159.66 445.559 1163.82 448.955C1163.74 451.218 1163.46 451.214 1162 452.816C1152.65 452.869 1142.22 453.795 1133 452.326C1132.39 450.879 1132.09 449.435 1131.77 447.908Z"/>
	<path fill="#C3C3C3" transform="matrix(1.2643 0 0 1.26465 0.00012207 -6.10352e-05)" d="M398.356 811.774L415.821 811.761L415.762 907.882C431.755 907.675 447.768 907.817 463.763 907.792L463.549 919.34C449.743 919.915 435.799 919.586 421.975 919.59L350.742 919.582C350.392 915.536 350.358 911.431 350.203 907.371C366.195 907.105 382.28 907.623 398.279 907.768L398.356 811.774Z"/>
	<path fill="#2E2723" transform="matrix(1.2643 0 0 1.26465 0.00012207 -6.10352e-05)" d="M373.508 596.15C371.674 594.444 369.898 592.78 368.636 590.584C364.369 583.165 359.809 562.777 362.646 554.495C365.067 547.428 370.58 549.147 375.78 546.283C378.902 544.563 381.098 541.298 384.319 539.816C393.296 535.688 404.338 542.316 412.639 545.169C415.459 546.138 418.508 546.338 421.266 547.46C422.908 548.128 424.565 549.286 425.206 551.012C425.96 553.043 425.223 555.085 424.222 556.883C422.071 560.748 418.96 562.384 414.913 563.609L414.073 563.86C413.719 574.227 414.915 593.991 410.31 602.779C408.895 604.086 407.769 604.569 405.81 604.587C403.657 604.607 401.174 604.006 399.089 603.518L399.179 610.337C395.186 609.143 391.429 607.47 387.618 605.804C388.223 607.882 389.401 607.667 390.937 609.002C389.333 608.962 387.802 609.012 386.203 609.157C382.302 608.693 378.304 607.163 374.532 606.049C374.339 605.892 374.116 605.766 373.953 605.578C372.265 603.62 373.151 598.604 373.508 596.15Z"/>
	<path fill="#E39F79" transform="matrix(1.2643 0 0 1.26465 0.00012207 -6.10352e-05)" d="M377.55 585.332L376.84 584.837C374.189 582.967 371.944 580.979 371.24 577.631C370.859 575.82 371.12 573.752 372.156 572.191C372.74 571.311 373.659 570.753 374.547 570.222C376.505 569.965 376.854 570.053 378.671 570.845C381.323 573.7 381.686 577.214 381.575 580.97C381.283 590.889 380.592 597.845 387.618 605.804C388.223 607.882 389.401 607.667 390.937 609.002C389.333 608.962 387.802 609.012 386.203 609.157C382.302 608.693 378.304 607.163 374.532 606.049C374.339 605.892 374.116 605.766 373.953 605.578C372.265 603.62 373.151 598.604 373.508 596.15Q375.399 590.692 377.55 585.332Z"/>
	<path fill="#E39F79" transform="matrix(1.2643 0 0 1.26465 0.00012207 -6.10352e-05)" d="M389.937 559.609C398.009 562.554 405.394 564.662 414.073 563.86C413.719 574.227 414.915 593.991 410.31 602.779C408.895 604.086 407.769 604.569 405.81 604.587C403.657 604.607 401.174 604.006 399.089 603.518C396.182 602.844 393.224 601.484 390.985 599.473C384.51 593.657 384.432 584.058 383.958 576.037C387.558 570.272 389.073 566.357 389.937 559.609Z"/>
	<path fill="#B95645" transform="matrix(1.2643 0 0 1.26465 0.00012207 -6.10352e-05)" d="M328.106 793.137C323.124 773.349 320.576 752.889 316.593 732.847Q311.37 706.596 306.507 680.275C305.357 673.924 303.498 667.159 302.919 660.773C302.687 658.213 302.929 655.445 304.238 653.182C305.581 650.859 307.755 649.638 310.343 649.118C314.105 648.362 318.732 649.379 321.874 651.566C324.282 653.243 325.026 655.301 325.804 658.003C328.876 668.678 329.802 680.651 331.723 691.654L342.252 750.907C344.773 765.105 346.945 779.599 350.579 793.558C347.09 795.414 332.168 794.143 328.106 793.137Z"/>
	<path fill="#459268" transform="matrix(1.2643 0 0 1.26465 0.00012207 -6.10352e-05)" d="M79.3889 747.551C96.6013 749.814 113.738 752.378 130.593 756.63C146.496 760.643 167.286 766.439 176.091 781.478C180.71 789.367 181.065 798.079 178.729 806.742C188.691 818.17 196.788 831.994 201.44 846.458C202.824 850.764 203.007 855.568 204.598 859.731L205.029 859.646C203.17 829.278 204.79 799.328 199.761 769.207L201.156 768.878C200.853 767.663 200.704 766.413 200.514 765.175C201.202 763.407 202.121 762.04 203.806 761.061C204.699 760.543 205.702 760.441 206.688 760.707C205.806 764.708 205.761 768.158 208.108 771.736C210.026 774.66 212.85 776.691 214.744 779.38L213.771 782.219C213.744 782.42 213.722 782.623 213.69 782.823C212.666 789.344 208.792 795.358 206.954 801.686C203.007 815.275 204.95 835.901 206.397 849.903C208.087 838.804 210.97 827.743 217.208 818.247L217.801 818.083C216.406 822.854 213.718 827.128 212.081 831.821C209.08 840.425 208.059 849.545 207.091 858.555C206.697 860.467 206.853 860.811 205.28 862.079C204.604 861.762 203.94 861.622 203.504 861.003C198.65 840.427 190.967 822.887 177.032 806.743C173.963 808.24 171.172 809.296 167.757 809.681Q166.438 809.836 165.112 809.895Q163.785 809.954 162.458 809.916Q161.131 809.879 159.81 809.744Q158.489 809.61 157.181 809.379Q155.874 809.149 154.586 808.824Q153.299 808.499 152.039 808.081Q150.778 807.663 149.552 807.154Q148.325 806.646 147.139 806.049C138.101 801.614 130.382 793.861 122.988 787.141C108.868 774.311 95.179 759.851 80.1695 748.153L79.3889 747.551Z"/>
	<path fill="#E7E7EA" transform="matrix(1.2643 0 0 1.26465 0.00012207 -6.10352e-05)" d="M201.156 768.878C200.853 767.663 200.704 766.413 200.514 765.175C201.202 763.407 202.121 762.04 203.806 761.061C204.699 760.543 205.702 760.441 206.688 760.707C205.806 764.708 205.761 768.158 208.108 771.736C210.026 774.66 212.85 776.691 214.744 779.38L213.771 782.219C209.934 788.38 207.567 796.148 204.964 802.925C204.648 791.349 203.084 780.293 201.156 768.878Z"/>
	<path fill="#9A9A9A" transform="matrix(1.2643 0 0 1.26465 0.00012207 -6.10352e-05)" d="M1260.32 364.124L1297.04 364.231C1297.49 364.969 1297.82 365.481 1298.02 366.335C1298.95 370.311 1299.32 379.854 1296.93 383.207C1297.83 385.222 1297.58 385.276 1296.92 387.276C1297.61 388.24 1298.07 389.207 1298.19 390.401C1299.52 403.193 1298.36 417.331 1298.33 430.246C1298.31 440.937 1299.5 456.561 1297.9 466.578C1297.78 467.325 1297.56 467.97 1297.23 468.649C1293.52 470.513 1266.5 468.912 1260.68 468.763C1261.28 467.744 1261.58 466.603 1261.68 465.43C1262.47 456.498 1262.55 389.917 1261.12 383.888C1261.21 383.557 1261.35 383.112 1261.41 382.759C1262.23 378.282 1262.61 367.771 1260.32 364.124Z"/>
	<path fill="#4E4D4E" transform="matrix(1.2643 0 0 1.26465 0.00012207 -6.10352e-05)" d="M1267.67 446.51C1268.29 446.406 1268.88 446.311 1269.51 446.262C1274.78 445.85 1287.99 444.299 1292.01 447.817C1291.98 449.86 1291.54 450.173 1290.4 451.801C1283.91 452.573 1274.88 452.423 1268.42 451.525L1267.67 446.51Z"/>
	<path fill="#4E4D4E" transform="matrix(1.2643 0 0 1.26465 0.00012207 -6.10352e-05)" d="M1296.92 387.276C1296.52 387.359 1296.34 387.404 1295.88 387.44C1289.89 387.907 1266.09 389.203 1262.16 386.128C1262.09 384.574 1262.1 384.448 1262.92 383.129C1269.85 382.095 1290.21 381.865 1296.93 383.207C1297.83 385.222 1297.58 385.276 1296.92 387.276Z"/>
	<path fill="#878787" transform="matrix(1.2643 0 0 1.26465 0.00012207 -6.10352e-05)" d="M697.121 159.754C708.709 158.698 721.749 158.162 733.31 159.67C741.948 170.117 750.41 180.747 759.196 191.067C764.94 197.812 771.051 204.292 776.625 211.173L776.415 212.363C753.583 210.519 730.384 210.655 707.496 210.678C689.58 210.696 671.164 210.261 653.351 212.396C653.742 208.51 691.598 169.528 697.121 159.754Z"/>
	<path fill="#E7E7EA" transform="matrix(1.2643 0 0 1.26465 0.00012207 -6.10352e-05)" d="M1034.36 120.101C1041.71 119.435 1048.46 119.909 1055.36 122.743C1063.81 126.212 1070.53 132.235 1074.14 140.676C1075.88 140.464 1077.67 139.487 1079.48 139.183C1085.2 138.222 1092.67 140.311 1097.34 143.714C1100.62 146.102 1103.87 151.091 1104.38 155.162C1105.22 154.717 1106.06 154.29 1106.89 153.833C1111.85 151.081 1116.68 150.317 1122.2 151.719C1127.52 153.068 1133.4 156.716 1136.13 161.589C1138.09 165.08 1139.37 169.662 1138.25 173.583L1091.43 173.54L982.137 173.684C982.901 170.964 983.888 168.442 985.352 166.019C989.01 159.964 994.105 157.676 1000.74 156.029C1001.94 149.875 1003.59 143.777 1006.82 138.348C1012.96 128.038 1023.08 122.938 1034.36 120.101Z"/>
	<path fill="#878787" transform="matrix(1.2643 0 0 1.26465 0.00012207 -6.10352e-05)" d="M148.263 646.679C175.619 664.897 198.177 681.277 212.167 712.227C215.102 718.722 216.329 725.811 219.142 732.208C219.202 732.344 219.265 732.478 219.327 732.613C217.185 744.375 214.574 751.57 206.688 760.707C205.702 760.441 204.699 760.543 203.806 761.061C202.121 762.04 201.202 763.407 200.514 765.175C200.704 766.413 200.853 767.663 201.156 768.878L199.761 769.207C199.388 767.442 199.158 765.855 198.104 764.36Q192.72 763.823 187.347 763.189C177.305 761.932 169.631 756.288 163.557 748.312C144.596 723.412 144.441 676.226 148.263 646.679Z"/>
	<path fill="#E7E7EA" transform="matrix(1.2643 0 0 1.26465 0.00012207 -6.10352e-05)" d="M285.575 136.763C292.047 135.838 299.512 136.401 305.664 138.597C317.59 142.854 325.119 151.747 330.426 162.903Q331.111 162.517 331.807 162.153C337.815 159.037 344.842 158.213 351.303 160.426C360.92 163.718 365.896 172.075 370.067 180.725C378.465 177.716 388.501 176.683 396.989 179.906C404.537 182.771 409.963 188.712 413.238 195.951L363.447 195.923C346.6 195.519 329.688 196 312.833 195.98L227.955 195.51C229.222 193.527 230.559 191.578 232.07 189.77C237.058 183.806 243.343 183.08 250.623 182.421C250.388 172.469 252.454 162.817 258.017 154.446C264.813 144.221 273.73 139.124 285.575 136.763Z"/>
	<path fill="#459268" transform="matrix(1.2643 0 0 1.26465 0.00012207 -6.10352e-05)" d="M439.942 739.441C458.433 736.271 477.555 741.693 495.159 747.209C496.517 748.444 496.313 749.352 496.395 751.184C496.755 759.186 496.411 767.343 496.376 775.361C496.504 781.698 497.697 813.535 495.703 817.043L495.25 816.86C490.402 811.902 485.653 806.723 481.191 801.415C481.134 801.424 481.077 801.446 481.019 801.442C478.642 801.263 475.815 796.839 473.774 795.063L473.148 794.522C465.56 792.72 455.023 793.987 447.081 794.019C422.658 794.117 397.555 795.445 373.208 793.987C370.672 792.17 368.19 790.314 366.156 787.924C357.153 777.346 357.662 763.045 358.659 750.041C365.085 747.715 377.903 747.895 385.183 747.069Q406.214 744.493 427.172 741.384C431.442 740.883 435.696 740.114 439.942 739.441Z"/>
	<path fill="#236846" transform="matrix(1.2643 0 0 1.26465 0.00012207 -6.10352e-05)" d="M473.148 794.522C480.76 793.905 488.278 792.303 495.859 791.759C495.904 797.713 497.208 811.911 495.25 816.86C490.402 811.902 485.653 806.723 481.191 801.415C481.134 801.424 481.077 801.446 481.019 801.442C478.642 801.263 475.815 796.839 473.774 795.063L473.148 794.522Z"/>
	<path fill="#2F764D" transform="matrix(1.2643 0 0 1.26465 0.00012207 -6.10352e-05)" d="M439.942 739.441C458.433 736.271 477.555 741.693 495.159 747.209C496.517 748.444 496.313 749.352 496.395 751.184C496.755 759.186 496.411 767.343 496.376 775.361L495.194 774.899C492.413 769.925 488.291 764.096 483.737 760.584C472.128 751.629 429.603 744.653 427.172 741.384C431.442 740.883 435.696 740.114 439.942 739.441Z"/>
	<path fill="#B8B8B8" transform="matrix(1.2643 0 0 1.26465 0.00012207 -6.10352e-05)" d="M1261.12 383.888C1262.55 389.917 1262.47 456.498 1261.68 465.43C1261.58 466.603 1261.28 467.744 1260.68 468.763C1266.5 468.912 1293.52 470.513 1297.23 468.649C1303.14 470.884 1335.17 469.324 1343.73 469.295C1344.12 469.93 1344.39 470.354 1344.56 471.092C1345.37 474.654 1345.38 483.802 1343.65 486.94C1266.9 486.055 1190.04 486.718 1113.28 486.906C1113.68 486.146 1113.96 485.589 1114.13 484.743C1114.86 481.185 1115.02 471.592 1113.15 468.56Q1121.14 468.672 1129.13 468.526C1139.65 468.626 1156 469.963 1165.94 468.469C1178.29 468.708 1191.49 469.639 1203.77 468.52C1209.97 469.046 1216.41 468.788 1222.65 468.851C1225.45 463.22 1223.9 397.096 1223.99 385.107L1223.6 387.984C1228.36 388.341 1257.01 389.245 1259.26 387.353L1259.98 384.622L1260.31 383.926L1261.12 383.888Z"/>
	<path fill="#878787" transform="matrix(1.2643 0 0 1.26465 0.00012207 -6.10352e-05)" d="M1259.26 387.353C1259.68 388.23 1260.06 389.17 1260.16 390.145C1260.78 396.798 1261.14 465.571 1260.32 467.756C1260.04 468.493 1260 468.533 1259.68 469.172L1223.22 469.195C1224.04 467.672 1224.26 466.474 1224.36 464.761C1224.79 457.429 1225.7 394.38 1224.2 389.405C1223.94 388.577 1223.94 388.627 1223.6 387.984C1228.36 388.341 1257.01 389.245 1259.26 387.353Z"/>
	<path fill="#236846" transform="matrix(1.2643 0 0 1.26465 0.00012207 -6.10352e-05)" d="M1231.4 446.511C1236.33 446.342 1249.92 444.574 1253.44 447.741C1253.13 449.789 1252.84 449.821 1251.38 451.178C1247.36 451.244 1235.21 453.11 1232.3 450.511C1231.39 449.696 1231.54 447.717 1231.4 446.511Z"/>
	<path fill="#236846" transform="matrix(1.2643 0 0 1.26465 0.00012207 -6.10352e-05)" d="M506.846 829.053C506.53 817.536 507.513 805.747 507.579 794.181C507.636 784.182 506.458 756.86 508.16 748.692L508.708 749.277L508.504 748.351L508.922 748.25C521.224 752.144 534.324 756.989 540.743 769.139Q543.476 774.349 545.01 780.029C548.362 792.312 572.494 902.928 572.088 904.652C570.284 905.617 568.87 905.888 566.847 906.127L546.053 910.298C543.326 911.017 540.755 911.944 537.925 911.408C536.097 909.99 535.92 909.067 535.049 906.965C525.448 906.837 515.826 906.946 506.222 906.94C506.829 898.656 504.796 888.434 506.848 880.597L506.049 879.915C504.988 877.129 505.108 874.251 506.132 871.468C505.528 857.791 505.122 842.604 506.846 829.053Z"/>
	<path fill="#E7E7EA" transform="matrix(1.2643 0 0 1.26465 0.00012207 -6.10352e-05)" d="M521.093 870.406C523.948 876.049 525.664 882.181 528.286 887.931L519.746 885.218C520.891 880.303 520.385 875.372 521.093 870.406Z"/>
	<path fill="#E7A75D" transform="matrix(1.2643 0 0 1.26465 0.00012207 -6.10352e-05)" d="M506.132 871.468C511.011 870.566 515.808 869.974 520.772 869.826L521.093 870.406C520.385 875.372 520.891 880.303 519.746 885.218C515.37 883.946 511.112 882.204 506.848 880.597L506.049 879.915C504.988 877.129 505.108 874.251 506.132 871.468Z"/>
	<path fill="#2F764D" transform="matrix(1.2643 0 0 1.26465 0.00012207 -6.10352e-05)" d="M506.132 871.468C505.528 857.791 505.122 842.604 506.846 829.053C507.066 836.907 517.273 861.628 520.772 869.826C515.808 869.974 511.011 870.566 506.132 871.468Z"/>
	<path fill="#4E4D4E" transform="matrix(1.2643 0 0 1.26465 0.00012207 -6.10352e-05)" d="M506.848 880.597C511.112 882.204 515.37 883.946 519.746 885.218L528.286 887.931C530.573 894.216 533.189 900.548 535.049 906.965C525.448 906.837 515.826 906.946 506.222 906.94C506.829 898.656 504.796 888.434 506.848 880.597Z"/>
	<defs>
		<linearGradient id="gradient_1" gradientUnits="userSpaceOnUse" x1="533.38892" y1="674.91199" x2="693.38837" y2="656.87952">
			<stop offset="0" stop-color="#606061"/>
			<stop offset="1" stop-color="#7A7A7A"/>
		</linearGradient>
	</defs>
	<path fill="url(#gradient_1)" transform="matrix(1.2643 0 0 1.26465 0.00012207 -6.10352e-05)" d="M609.008 623.263C636.529 622.502 664.746 622.105 692.254 622.975C687.051 650.201 676.555 676.653 670.562 703.774C667.568 703.444 664.875 703.131 661.884 703.686L663.451 704.458C660.731 706.997 656.435 707.408 653.291 709.527L590.788 709.573C588.045 711.081 544.134 709.648 536.264 710.195C536.202 707.76 536.192 705.569 536.716 703.164C539.515 700.53 580.294 702.143 587.146 702.21C593.765 675.879 600.663 649.107 609.008 623.263Z"/>
	<path fill="#E7E7EA" transform="matrix(1.2643 0 0 1.26465 0.00012207 -6.10352e-05)" d="M637.294 656.837C640.065 656.93 642.454 657.04 644.407 659.29C645.593 660.656 646.071 662.492 645.885 664.274C645.541 667.553 643.806 669.207 641.424 671.185C639.124 671.126 637.142 670.819 635.362 669.231C633.894 667.921 633.206 666.301 633.25 664.335C633.327 660.971 635.087 659.075 637.294 656.837Z"/>
	<path fill="#4E4D4E" transform="matrix(1.2643 0 0 1.26465 0.00012207 -6.10352e-05)" d="M590.788 709.573L589.722 709.121C590.966 708.757 592.224 708.681 593.509 708.565C592.538 707.093 591.492 706.255 591.745 704.47C598.248 703.05 606.821 704.029 613.536 704.005Q637.711 704.011 661.884 703.686L663.451 704.458C660.731 706.997 656.435 707.408 653.291 709.527L590.788 709.573Z"/>
	<path fill="#C3C3C3" transform="matrix(1.2643 0 0 1.26465 0.00012207 -6.10352e-05)" d="M217.66 428.049C225.239 423.659 233.117 419.478 240.339 414.522C253.485 435.916 265.085 458.283 278.085 479.775C282.382 486.881 288.898 491.947 292.402 499.676C294.753 504.863 295.54 509.655 294.256 515.253C293.487 518.607 292.026 521.549 290.352 524.528L335.508 524.542L335.455 541.633C335.051 542.732 334.569 543.846 334.255 544.972L92.5034 545.033Q92.4993 534.851 92.6604 524.671L119.787 524.774C119.839 517.694 119.756 510.585 120.318 503.526C120.6 510.721 120.547 517.906 120.501 525.104Q134.458 524.804 148.418 524.888C148.521 521.472 148.439 517.905 149.032 514.54C149.076 517.543 148.335 521.675 149.979 524.192C151.356 524.675 152.368 524.677 153.79 524.608Q167.789 524.481 181.788 524.565L185.951 524.562L213.353 524.704C227.693 524.856 242.059 525.177 256.4 525.083C254.203 520.63 252.649 516.092 254.239 511.093C255.575 506.892 258.447 504.352 261.574 501.459Q244.875 474.453 228.872 447.029C225.164 440.693 221.025 434.574 217.66 428.049Z"/>
	<path fill="#4E4D4E" transform="matrix(1.2643 0 0 1.26465 0.00012207 -6.10352e-05)" d="M238.908 438.279C240.656 438.237 242.503 438.288 243.927 439.463C245.133 440.458 245.591 441.466 245.718 442.98C245.929 445.508 244.339 447.157 242.778 448.934C241.365 448.981 239.667 449.074 238.437 448.22C236.933 447.177 236.234 445.921 236.139 444.099C236.016 441.743 237.521 439.993 238.908 438.279Z"/>
	<path fill="#878787" transform="matrix(1.2643 0 0 1.26465 0.00012207 -6.10352e-05)" d="M282.444 493.046C283.883 494.034 283.859 493.993 284.304 495.68C282.279 500.099 270.593 505.195 266.333 507.633C266.275 507.586 266.213 507.544 266.16 507.492C264.864 506.215 264.486 506.027 264.517 504.184C268.033 498.974 276.954 495.795 282.444 493.046Z"/>
	<path fill="#878787" transform="matrix(1.2643 0 0 1.26465 0.00012207 -6.10352e-05)" d="M661.884 703.686C664.875 703.131 667.568 703.444 670.562 703.774L668.446 710.056C679.239 711.446 691.302 710.382 702.229 710.352C726.684 710.287 751.167 709.953 775.619 710.187C775.545 715.105 775.614 720.075 775.133 724.971C767.8 724.954 760.248 725.296 752.947 724.679C752.858 727.603 753.081 730.819 751.625 733.443L750.151 734.642L749.83 740.6C746.773 740.246 743.85 740.449 740.786 739.829L740.888 734.164C739.86 733.23 738.903 733.067 737.551 732.981C714.362 731.512 686.299 732.649 662.606 732.646L508.289 732.673L507.745 733.016C507.686 736.541 506.524 745.754 508.922 748.25L508.504 748.351L508.708 749.277L508.16 748.692C506.458 756.86 507.636 784.182 507.579 794.181C507.513 805.747 506.53 817.536 506.846 829.053C505.122 842.604 505.528 857.791 506.132 871.468C505.108 874.251 504.988 877.129 506.049 879.915L506.848 880.597C504.796 888.434 506.829 898.656 506.222 906.94C505.653 915.078 505.917 923.338 506.04 931.493C505.978 933.152 506.314 935.266 505.074 936.471C504.18 937.339 502.539 937.926 501.316 937.854C499.928 937.771 498.979 937.026 497.886 936.247C497.422 934.817 497.308 933.85 497.332 932.346C497.254 916.027 497.74 822.517 495.703 817.043C497.697 813.535 496.504 781.698 496.376 775.361C496.411 767.343 496.755 759.186 496.395 751.184C496.313 749.352 496.517 748.444 495.159 747.209C477.555 741.693 458.433 736.271 439.942 739.441C439.345 735.458 438.643 731.533 437.794 727.597C437.248 725.137 435.603 721.542 436.563 719.167C438.814 717.63 444.952 718.475 447.788 718.469C451.42 718.356 456.048 719.647 459.354 718.159C461.065 716.108 460.902 714.517 461.249 711.937L461.531 711.116C464.628 708.882 478.943 710.292 483.479 710.354C493.461 711.257 527.184 711.905 536.264 710.195C544.134 709.648 588.045 711.081 590.788 709.573L653.291 709.527C656.435 707.408 660.731 706.997 663.451 704.458L661.884 703.686Z"/>
	<path fill="#4E4D4E" transform="matrix(1.2643 0 0 1.26465 0.00012207 -6.10352e-05)" d="M740.888 734.164C744 734.545 747.018 734.643 750.151 734.642L749.83 740.6C746.773 740.246 743.85 740.449 740.786 739.829L740.888 734.164Z"/>
	<path fill="#4E4D4E" transform="matrix(1.2643 0 0 1.26465 0.00012207 -6.10352e-05)" d="M661.884 703.686C664.875 703.131 667.568 703.444 670.562 703.774L668.446 710.056L653.291 709.527C656.435 707.408 660.731 706.997 663.451 704.458L661.884 703.686Z"/>
	<path fill="#4E4D4E" transform="matrix(1.2643 0 0 1.26465 0.00012207 -6.10352e-05)" d="M495.482 732.042C495.56 731.028 495.385 728.934 496.165 728.27C497.651 727.004 501.123 726.293 503.002 726.631C505.194 727.024 506.694 727.714 508.097 729.382L508.289 732.673L507.745 733.016C507.65 733.047 507.548 733.063 507.46 733.11C506.556 733.598 505.856 734.075 504.852 734.368C501.791 735.262 498.904 735.874 495.98 734.284L495.482 732.042Z"/>
	<path fill="#C3C3C3" transform="matrix(1.2643 0 0 1.26465 0.00012207 -6.10352e-05)" d="M502.208 818.591C502.63 818.963 502.73 818.973 502.964 819.53C504.774 823.828 503.744 858.485 502.979 864.88C502.668 867.473 502.048 869.766 501.05 872.179C500.726 871.707 500.793 871.842 500.498 871.148C498.376 866.154 499.844 823.647 502.208 818.591Z"/>
	<path fill="#4E4D4E" transform="matrix(1.2643 0 0 1.26465 0.00012207 -6.10352e-05)" d="M468.136 724.723C468.579 724.39 468.951 723.931 469.465 723.722C473.309 722.156 674.498 723.588 692.005 723.617C681.525 726.698 659.78 724.844 647.763 724.835L543.135 725.597L512.59 725.628C506.964 725.584 500.742 724.93 495.178 725.652C488.868 725.767 473.543 727.284 468.136 724.723Z"/>
	<path fill="#DCDCDC" transform="matrix(1.2643 0 0 1.26465 0.00012207 -6.10352e-05)" d="M447.788 718.469C451.42 718.356 456.048 719.647 459.354 718.159C461.065 716.108 460.902 714.517 461.249 711.937C461.35 715.256 460.472 720.465 462.101 723.222C463.879 724.649 465.95 724.547 468.136 724.723C468.365 727.149 468.195 728.48 469.764 730.486C477.866 733.869 486.878 729.338 495.003 731.786C495.06 736.89 495.332 742.115 495.159 747.209C477.555 741.693 458.433 736.271 439.942 739.441C439.345 735.458 438.643 731.533 437.794 727.597C437.248 725.137 435.603 721.542 436.563 719.167C438.814 717.63 444.952 718.475 447.788 718.469Z"/>
	<path fill="#E7E7EA" transform="matrix(1.2643 0 0 1.26465 0.00012207 -6.10352e-05)" d="M387.618 605.804C391.429 607.47 395.186 609.143 399.179 610.337L399.483 610.758C405.287 610.842 411.709 615.086 415.659 619.112C425.338 628.976 428.692 642.561 435.607 654.14C442.619 665.881 452.87 676.347 462.154 686.322C457.142 685.805 436.507 684.783 433.718 682.061C432.511 675.8 432.176 661.835 429.332 656.969L428.964 657.954L430.304 658.628L429.158 657.182C429.16 657.333 429.169 657.483 429.166 657.633C429.161 657.866 429.144 658.098 429.133 658.33L430.434 658.41L430.68 659.12L429.217 659.739C430.155 665.59 433.104 674.985 432.249 680.625C430.984 682.014 430.265 682.248 428.374 682.365C424.891 682.58 421.07 682.573 417.65 681.824L417.32 681.986C426.652 684.867 454.416 686.272 465.329 686.781C470.827 687.038 477.705 686.427 482.866 688.204C483.442 689.3 483.964 690.316 484.316 691.511C484.939 697.486 485.684 703.081 484.097 708.982L483.479 710.354C478.943 710.292 464.628 708.882 461.531 711.116L461.249 711.937C460.902 714.517 461.065 716.108 459.354 718.159C456.048 719.647 451.42 718.356 447.788 718.469C444.952 718.475 438.814 717.63 436.563 719.167C435.603 721.542 437.248 725.137 437.794 727.597C438.643 731.533 439.345 735.458 439.942 739.441C435.696 740.114 431.442 740.883 427.172 741.384Q406.214 744.493 385.183 747.069C377.903 747.895 365.085 747.715 358.659 750.041C357.235 750.205 356.668 750.063 355.394 749.413C351.542 744.385 337.361 687.247 335.027 677.278C331.444 661.978 332.581 642.916 341.117 629.347C347.033 619.941 363.578 608.457 374.532 606.049C378.304 607.163 382.302 608.693 386.203 609.157C387.802 609.012 389.333 608.962 390.937 609.002C389.401 607.667 388.223 607.882 387.618 605.804Z"/>
	<path fill="#CD9075" transform="matrix(1.2643 0 0 1.26465 0.00012207 -6.10352e-05)" d="M387.618 605.804C391.429 607.47 395.186 609.143 399.179 610.337L399.483 610.758C399.325 612.27 399.537 613.066 398.419 614.143C394.343 613.531 390.25 610.52 386.203 609.157C387.802 609.012 389.333 608.962 390.937 609.002C389.401 607.667 388.223 607.882 387.618 605.804Z"/>
	<path fill="#E7E7EA" transform="matrix(1.2643 0 0 1.26465 0.00012207 -6.10352e-05)" d="M555.225 307.467L681.326 307.678Q682.326 366.778 681.781 425.883L602.456 425.96C586.713 426 570.958 426.405 555.221 425.871L555.225 307.467Z"/>
	<path fill="#C3C3C3" transform="matrix(1.2643 0 0 1.26465 0.00012207 -6.10352e-05)" d="M845.936 783.051L958.48 782.857C984.72 782.965 1011.16 783.773 1037.39 783.12C1036.79 783.989 1036.4 784.613 1036.29 785.684C1035.04 796.917 1036.13 809.49 1036.13 820.868L1035.77 883.49C1035.79 893.224 1037.21 923.937 1033.47 931.655L1033.28 932.424C1031.95 933.338 1031.09 933.738 1029.41 933.559C1026.45 933.244 1025.72 932.549 1024.07 930.246C1025.58 919.695 1022.32 903.931 1022.18 892.645L859.881 892.642C859.832 903.915 858.792 915.305 858.31 926.578C857.916 929.205 858.091 930.712 856.248 932.734C854.038 933.831 851.213 933.273 848.944 932.461C848.336 932.243 848.005 932.058 847.393 931.763C845.47 917.787 846.108 902.761 846.069 888.631L846.142 822.381C846.192 809.303 846.675 796.106 845.936 783.051Z"/>
	<path fill="#4E4D4E" transform="matrix(1.2643 0 0 1.26465 0.00012207 -6.10352e-05)" d="M940.98 817.926C941.909 817.919 942.974 817.864 943.88 818.077C945.677 818.5 946.245 819.335 947.191 820.806C947.346 823.096 946.617 824.197 945.348 826.046C944.311 825.952 943.137 825.901 942.143 825.588C940.4 825.038 939.863 824.203 939.029 822.685C939.21 820.385 939.738 819.812 940.98 817.926Z"/>
	<path fill="#878787" transform="matrix(1.2643 0 0 1.26465 0.00012207 -6.10352e-05)" d="M941.574 863.883C942.65 863.958 944.259 864.054 945.231 864.554C946.822 865.372 947.031 866.535 947.48 868.078C947.207 870.39 946.286 871.452 944.751 873.14C943.901 872.998 942.937 872.874 942.142 872.538C940.332 871.774 939.927 870.923 939.18 869.262C939.308 866.914 940.181 865.72 941.574 863.883Z"/>
	<path fill="#9A9A9A" transform="matrix(1.2643 0 0 1.26465 0.00012207 -6.10352e-05)" d="M1115.91 726.83C1115.39 726.311 1114.46 726.003 1113.81 725.694C1128.24 724.215 1143.9 725.79 1158.47 725.764L1199.3 725.702C1206.25 725.693 1213.34 725.251 1220.26 725.788C1234.72 725.729 1249.21 725.479 1263.66 725.762L1264.27 726.433C1265.96 734.04 1264.86 743.981 1264.93 751.819Q1265.42 786.178 1264.98 820.538C1264.89 832.398 1266.14 847.909 1264.35 859.325L1264.56 859.99C1264.66 869.933 1266.24 927.907 1263.45 932.358C1247.84 932.383 1122.33 933.699 1117.97 931.53L1117.44 931.53C1118.64 914.553 1117.67 896.985 1117.66 879.946L1117.6 782.779C1117.59 774.961 1118.7 733.912 1117.26 728.786C1117.11 728.271 1116.24 727.314 1115.91 726.83Z"/>
	<path fill="#878787" transform="matrix(1.2643 0 0 1.26465 0.00012207 -6.10352e-05)" d="M1220.26 725.788C1234.72 725.729 1249.21 725.479 1263.66 725.762L1263.12 726.292C1259.56 727.501 1130.1 727.859 1123.7 726.735C1122.61 726.543 1122.15 726.393 1121.04 726.715C1128.81 726.039 1136.99 726.503 1144.8 726.469Q1168.38 726.284 1191.96 726.413C1200.98 726.471 1210.86 727.197 1219.78 725.867C1219.94 725.843 1220.1 725.814 1220.26 725.788Z"/>
	<path fill="#878787" transform="matrix(1.2643 0 0 1.26465 0.00012207 -6.10352e-05)" d="M1169.76 748.056C1175.2 748.307 1209.59 748.704 1211.73 747.297L1212.24 749.727C1209.58 752.337 1179.24 751.716 1173.33 751.615C1172.56 751.602 1171.89 751.465 1171.15 751.235C1170.68 750.182 1170.17 749.132 1169.76 748.056Z"/>
	<path fill="#878787" transform="matrix(1.2643 0 0 1.26465 0.00012207 -6.10352e-05)" d="M1211.16 811.709C1212.55 813.584 1213.1 815.03 1212.96 817.438C1212.92 818.115 1212.58 818.618 1212.25 819.18C1206.2 820.404 1177.37 820.831 1171.25 819.759L1169.23 815.22C1174.78 817.55 1203.62 816 1211.85 815.939C1212.26 814.188 1211.74 813.386 1211.16 811.709Z"/>
	<path fill="#4E4D4E" transform="matrix(1.2643 0 0 1.26465 0.00012207 -6.10352e-05)" d="M1169.23 815.22C1169.67 813.684 1170.03 812.605 1171.04 811.357C1177.03 810.857 1206.89 810.131 1211.16 811.709C1211.74 813.386 1212.26 814.188 1211.85 815.939C1203.62 816 1174.78 817.55 1169.23 815.22Z"/>
	<path fill="#4E4D4E" transform="matrix(1.2643 0 0 1.26465 0.00012207 -6.10352e-05)" d="M1169.76 748.056C1170.08 746.25 1170.25 744.867 1171.38 743.392C1176.7 742.794 1182.06 743.405 1187.4 743.301C1194.43 743.164 1202.3 742.076 1209.27 743.1C1210.97 743.349 1211.53 743.39 1212.51 744.764L1211.73 747.297C1209.59 748.704 1175.2 748.307 1169.76 748.056Z"/>
	<path fill="#878787" transform="matrix(1.2643 0 0 1.26465 0.00012207 -6.10352e-05)" d="M1117.06 858.698L1224.1 858.727C1232.39 858.738 1257.64 857.551 1264.35 859.325L1264.56 859.99C1264.66 869.933 1266.24 927.907 1263.45 932.358C1247.84 932.383 1122.33 933.699 1117.97 931.53C1119.05 923.54 1119.52 862.668 1117.06 858.698Z"/>
	<path fill="#4E4D4E" transform="matrix(1.2643 0 0 1.26465 0.00012207 -6.10352e-05)" d="M1169.21 878.913L1170.43 875.203C1178.23 873.568 1203.51 874.616 1212.33 874.964L1213.17 875.882L1212.43 878.301C1209.7 880.26 1175.08 879.143 1169.21 878.913Z"/>
	<path fill="#E7E7EA" transform="matrix(1.2643 0 0 1.26465 0.00012207 -6.10352e-05)" d="M813.568 307.511L942.461 307.323L978.573 307.143C985.644 307.071 992.913 306.518 999.946 307.219C1004.86 307.709 1008.31 308.217 1011.9 311.763C1014.06 313.905 1016.28 316.767 1016.98 319.776C1019.1 328.973 1017.89 340.538 1017.86 350.005L1017.69 401.994L1017.3 552.958L1017.41 599.649C1017.42 607.197 1018.19 615.86 1016.97 623.274C1016.28 627.471 1013.54 630.592 1010.66 633.508C999.474 637.025 967.03 635.189 953.924 635.182L866.947 635.142L813.088 635.158C803.385 635.158 793.219 635.762 783.584 634.76C781.067 632.449 779.158 630.325 777.342 627.426Q777.021 604.53 777.341 581.634C777.39 573.842 778.001 565.501 777.179 557.766L777.184 556.74C783.226 555.823 803.482 557.098 807.285 554.371L806.931 553.073C804.437 551.473 799.624 552.351 796.603 551.589C794.946 551.171 793.464 550.047 791.787 549.807C788.08 549.275 781.928 550.668 778.099 551.128C778.08 549.405 778.045 547.89 778.526 546.225C783.082 544.132 789.698 547.748 794.762 546.071C796.296 545.563 797.755 544.718 798.483 543.229C798.346 543.057 798.227 542.87 798.073 542.713C796.41 541.024 794.099 540.596 791.835 540.431C791.628 540.417 791.422 540.407 791.216 540.395L791.243 540.024Q801.804 540.094 812.364 539.902C813.648 540.912 817.023 541.639 818.638 541.23C818.957 541.149 819.253 540.999 819.561 540.883L819.547 539.19L819.746 540.104C817.541 540.166 815.628 540.616 813.695 539.488C812.185 533.588 813.464 514.309 813.494 506.871L813.58 427.238L931.278 426.859C951.186 426.76 971.503 427.629 991.357 426.361C991.062 426.347 990.766 426.354 990.473 426.319C990.237 426.291 990.008 426.219 989.774 426.172C982.537 424.716 955.325 425.877 945.493 425.877L813.535 426.541L813.568 307.511Z"/>
	<path fill="#FCBB1F" transform="matrix(1.2643 0 0 1.26465 0.00012207 -6.10352e-05)" d="M848.274 516.054C848.173 515.273 848.074 514.549 848.147 513.761C848.521 509.721 850.608 506.763 853.69 504.334L853.1 506.842C852.394 510.887 852.078 514.552 854.683 518.096C855.343 518.994 856.16 519.765 856.955 520.54C857.363 520.938 857.765 521.333 858.184 521.72C860.334 522.047 862.651 522.413 864.83 522.308C869.524 522.083 871.905 519.976 874.947 516.758C874.533 518.097 874.101 519.499 873.455 520.749C871.774 524.001 868.603 526.569 865.061 527.474C861.5 528.384 857.802 527.725 854.688 525.799C850.612 523.278 849.402 520.453 848.274 516.054Z"/>
	<path fill="#3EB16B" transform="matrix(1.2643 0 0 1.26465 0.00012207 -6.10352e-05)" d="M853.69 504.334C856.682 501.858 859.693 500.424 863.716 500.785C867.469 501.12 870.73 503.177 873.074 506.064C873.963 507.159 874.715 508.418 875.462 509.613C877.335 509.81 878.223 509.127 879.911 508.347L880.075 508.989L876.214 511.073L875.767 512.622L875.132 511.739C871.149 510.456 864.736 511.828 860.361 511.554L859.524 511.498L853.1 506.842L853.69 504.334Z"/>
	<path fill="#E7A75D" transform="matrix(1.2643 0 0 1.26465 0.00012207 -6.10352e-05)" d="M975.754 462.074C976.439 465.381 976.009 469.04 974.058 471.88C972.104 474.721 968.721 476.602 965.323 477.017C962.067 477.414 958.974 476.55 956.512 474.358C955.355 473.327 953.844 471.823 953.682 470.219C959.001 465.903 968.81 465.921 975.754 462.074Z"/>
	<path fill="#459268" transform="matrix(1.2643 0 0 1.26465 0.00012207 -6.10352e-05)" d="M853.1 506.842L859.524 511.498L860.361 511.554C864.736 511.828 871.149 510.456 875.132 511.739L875.767 512.622L874.947 516.758C871.905 519.976 869.524 522.083 864.83 522.308C862.651 522.413 860.334 522.047 858.184 521.72C857.765 521.333 857.363 520.938 856.955 520.54C856.16 519.765 855.343 518.994 854.683 518.096C852.078 514.552 852.394 510.887 853.1 506.842Z"/>
	<path fill="#FCBB1F" transform="matrix(1.2643 0 0 1.26465 0.00012207 -6.10352e-05)" d="M953.682 470.219C953.026 468.084 952.639 465.231 953.062 463.017C953.646 459.963 955.4 457.115 958.076 455.48C960.886 453.762 964.356 453.47 967.5 454.345C971.713 455.518 973.633 458.577 975.754 462.074C968.81 465.921 959.001 465.903 953.682 470.219Z"/>
	<path fill="#DCDCDC" transform="matrix(1.2643 0 0 1.26465 0.00012207 -6.10352e-05)" d="M936.924 583.487L990.77 583.436L990.748 593.277Q963.807 593.524 936.864 593.429L936.924 583.487Z"/>
	<path fill="#DCDCDC" transform="matrix(1.2643 0 0 1.26465 0.00012207 -6.10352e-05)" d="M876.628 583.57L930.436 583.538L930.412 593.478L876.598 593.734L876.628 583.57Z"/>
	<path fill="#DCDCDC" transform="matrix(1.2643 0 0 1.26465 0.00012207 -6.10352e-05)" d="M937.016 568.876L990.892 568.737L990.878 579.202L936.95 579.142L937.016 568.876Z"/>
	<path fill="#DCDCDC" transform="matrix(1.2643 0 0 1.26465 0.00012207 -6.10352e-05)" d="M876.728 568.95C894.543 569.537 912.659 568.76 930.513 568.744L930.444 579.149C912.505 579.378 894.541 579.189 876.599 579.197L876.728 568.95Z"/>
	<path fill="#DCDCDC" transform="matrix(1.2643 0 0 1.26465 0.00012207 -6.10352e-05)" d="M815.019 583.446L869.488 583.53L869.434 593.738Q842.226 593.666 815.019 593.976L815.019 583.446Z"/>
	<path fill="#DCDCDC" transform="matrix(1.2643 0 0 1.26465 0.00012207 -6.10352e-05)" d="M815.158 568.747L869.691 568.76L869.592 579.162L815.029 579.149L815.158 568.747Z"/>
	<path fill="#DCDCDC" transform="matrix(1.2643 0 0 1.26465 0.00012207 -6.10352e-05)" d="M876.626 552.835C882.797 553.313 889.178 552.85 895.378 552.78L930.541 552.483L930.489 564.163Q903.559 564.475 876.627 564.358L876.626 552.835Z"/>
	<path fill="#DCDCDC" transform="matrix(1.2643 0 0 1.26465 0.00012207 -6.10352e-05)" d="M937.255 552.239C953.796 553 974.336 553.427 990.82 551.916L990.804 563.922C972.847 564.438 954.767 564.24 936.805 564.096C936.781 560.192 936.499 556.076 937.255 552.239Z"/>
	<path fill="#DCDCDC" transform="matrix(1.2643 0 0 1.26465 0.00012207 -6.10352e-05)" d="M814.706 551.525C827.343 554.173 856.293 552.81 870.125 552.883L869.858 564.192C854.174 565.778 831.476 564.517 815.083 564.511L814.706 551.525Z"/>
	<path fill="#DCDCDC" transform="matrix(1.2643 0 0 1.26465 0.00012207 -6.10352e-05)" d="M876.648 598.872L930.654 598.786L930.543 611.734Q903.548 611.498 876.555 611.968L876.648 598.872Z"/>
	<path fill="#DCDCDC" transform="matrix(1.2643 0 0 1.26465 0.00012207 -6.10352e-05)" d="M936.836 598.558C954.725 599.301 972.852 598.762 990.769 598.82L990.643 611.748C972.713 611.499 954.694 611.363 936.772 611.944L936.836 598.558Z"/>
	<path fill="#DCDCDC" transform="matrix(1.2643 0 0 1.26465 0.00012207 -6.10352e-05)" d="M814.999 598.721Q842.269 598.599 869.539 598.851L869.632 611.671C851.434 611.53 833.193 612.257 815.007 611.756L814.999 598.721Z"/>
	<path fill="#517DB6" transform="matrix(1.2643 0 0 1.26465 0.00012207 -6.10352e-05)" d="M915.399 365.969C925.871 367.297 936.285 369.166 946.807 370.033C945.892 381.188 942.804 390.965 933.99 398.436C926.636 404.669 916.957 407.307 907.423 406.458C898.111 405.629 891.161 401.185 884.839 394.57C886.454 392.319 887.937 389.884 890.384 388.463C897.178 387.543 909.478 370.881 915.399 365.969Z"/>
	<path fill="#B95645" transform="matrix(1.2643 0 0 1.26465 0.00012207 -6.10352e-05)" d="M884.839 394.57C881.248 389.642 878.377 384.82 876.951 378.83Q876.744 377.962 876.581 377.085Q876.419 376.208 876.3 375.324Q876.182 374.44 876.109 373.55Q876.035 372.661 876.006 371.77Q875.978 370.878 875.994 369.986Q876.01 369.094 876.072 368.204Q876.133 367.314 876.239 366.428Q876.345 365.543 876.496 364.663Q876.647 363.784 876.842 362.914Q877.036 362.043 877.275 361.183Q877.513 360.324 877.795 359.477Q878.076 358.631 878.4 357.8Q878.724 356.968 879.089 356.155Q879.454 355.341 879.86 354.546Q880.266 353.752 880.712 352.979Q881.157 352.206 881.641 351.457Q882.112 350.716 882.619 349.999Q883.126 349.282 883.668 348.591Q884.21 347.9 884.786 347.238Q885.361 346.575 885.969 345.941Q886.577 345.308 887.216 344.705Q887.855 344.103 888.523 343.533Q889.191 342.963 889.886 342.427Q890.581 341.891 891.303 341.39Q892.024 340.89 892.769 340.426Q893.514 339.961 894.281 339.535Q895.049 339.108 895.837 338.72Q896.624 338.333 897.43 337.984Q898.236 337.636 899.058 337.329Q899.881 337.021 900.717 336.755Q901.554 336.489 902.402 336.264Q903.251 336.04 904.11 335.858C913.219 334.011 923.254 335.923 930.977 341.11C940.201 347.305 944.741 356.72 946.8 367.356C936.342 364.558 924.7 363.882 913.95 362.566C905.426 370.137 897.302 379.41 890.384 388.463C887.937 389.884 886.454 392.319 884.839 394.57Z"/>
	<path fill="#E7E7EA" transform="matrix(1.2643 0 0 1.26465 0.00012207 -6.10352e-05)" d="M426.485 313.391C430.646 308.837 433.562 307.658 439.697 307.384C453.618 306.764 467.807 307.382 481.752 307.444L553.961 307.456C554.56 346.919 553.466 386.498 554.422 425.92C540.072 425.902 458.19 424.484 452.54 426.67C452.956 426.828 453.4 426.634 453.831 426.55L453.62 427.311Q504.046 426.95 554.472 427.172L554.627 500.618C554.552 508.829 553.476 518.555 555.203 526.54C556.722 516.228 555.387 503.898 555.397 493.391C555.42 471.325 555.903 449.303 555.577 427.233L681.911 427.233L682.032 490.749C682.049 497.768 680.864 511.452 682.603 517.543C683.479 506.442 682.733 495.131 682.686 483.998L682.766 427.178Q719.236 427.277 755.703 426.853C767.649 426.745 779.882 427.333 791.777 426.216C780.682 424.57 767.837 425.798 756.517 425.813L682.769 425.93L682.645 307.674L812.296 307.489Q812.837 388.538 812.466 469.588C812.405 492.918 813.23 516.606 812.364 539.902C812.15 539.868 811.937 539.831 811.723 539.799C803.321 538.568 794.119 539.203 785.61 539.043C766.04 538.675 746.545 538.477 726.967 538.498L532.483 538.501L474.847 538.383C462.968 538.393 450.876 538.858 439.019 538.118C435.844 537.92 432.24 537.427 429.452 535.789C428.571 535.272 427.81 534.624 427.256 533.757C425.049 530.303 425.848 329.6 426.485 313.391Z"/>
	<path fill="#DCDCDC" transform="matrix(1.2643 0 0 1.26465 0.00012207 -6.10352e-05)" d="M481.148 483.325C489.808 483.158 499.86 482.03 508.369 483.56C509.464 485.365 509.008 488.15 508.95 490.215C500.156 490.522 489.698 491.76 481.101 490.051L481.148 483.325Z"/>
	<path fill="#DCDCDC" transform="matrix(1.2643 0 0 1.26465 0.00012207 -6.10352e-05)" d="M510.479 471.922C510.475 469.905 509.991 466.322 510.988 464.595C520.073 463.797 529.313 463.978 538.433 463.766L538.471 472.199Q524.474 472.189 510.479 471.922Z"/>
	<path fill="#2F764D" transform="matrix(1.2643 0 0 1.26465 0.00012207 -6.10352e-05)" d="M712.035 471.962C712.838 468.942 711.201 467.12 711.884 464.509C712.949 465.096 713.999 465.662 715.102 466.175C715.872 464.236 714.52 461.87 714.426 459.735C716.839 460.492 716.28 463.609 718.824 464.438C720.61 462.479 721.235 459.753 722.077 457.281L723.083 458.174L722.368 456.817L723.046 456.498L724.789 462.174C725.921 461.528 725.383 461.874 726.406 461.143L727.56 461.847C728.638 461.462 729.597 460.989 730.755 461.034C730.344 463.044 730.104 463.566 730.816 465.548C732.181 466.259 733.491 466.996 734.795 467.816C735.043 471.171 732.372 473.937 732.128 477.357C731.881 477.563 731.545 477.881 731.235 478.031C728.513 479.343 717.763 478.75 714.889 477.605C714.643 476.273 714.417 474.33 713.414 473.349C713.08 473.022 712.714 472.725 712.401 472.377C712.278 472.24 712.157 472.101 712.035 471.962Z"/>
	<path fill="#DCDCDC" transform="matrix(1.2643 0 0 1.26465 0.00012207 -6.10352e-05)" d="M684.816 486.885C693.634 486.125 703.304 486.546 712.157 486.91Q711.972 502.749 712.139 518.589Q698.487 518.8 684.834 518.83L684.816 486.885Z"/>
	<path fill="#DCDCDC" transform="matrix(1.2643 0 0 1.26465 0.00012207 -6.10352e-05)" d="M732.128 477.357C734.02 475.504 735.885 473.6 737.828 471.802Q738.226 495.352 738.054 518.904L713.242 518.795Q713.473 502.958 713.466 487.12C713.747 483.931 713.844 480.653 714.889 477.605C717.763 478.75 728.513 479.343 731.235 478.031C731.545 477.881 731.881 477.563 732.128 477.357Z"/>
	<path fill="#DCDCDC" transform="matrix(1.2643 0 0 1.26465 0.00012207 -6.10352e-05)" d="M701.638 370.502L731.008 370.479L731.056 406.852C721.275 406.488 711.446 406.774 701.66 406.873L701.638 370.502Z"/>
	<path fill="#DCDCDC" transform="matrix(1.2643 0 0 1.26465 0.00012207 -6.10352e-05)" d="M577.099 477.659L605.178 477.643C607.252 486.627 605.783 508.876 605.697 519.017C596.372 518.951 587.01 519.058 577.691 518.744L577.534 486.353L577.099 477.659Z"/>
	<path fill="#DCDCDC" transform="matrix(1.2643 0 0 1.26465 0.00012207 -6.10352e-05)" d="M607.017 463.144Q621.784 463.326 636.547 462.979C634.121 474.127 636.076 505.357 635.756 519.016C626.331 518.583 616.664 519.079 607.209 519.01C606.724 500.407 607.233 481.759 607.017 463.144Z"/>
	<path fill="#DCDCDC" transform="matrix(1.2643 0 0 1.26465 0.00012207 -6.10352e-05)" d="M732.336 352.23L762.669 352.29C763.463 370.598 762.993 389.026 763.25 407.354Q747.756 406.928 732.257 406.873L732.336 352.23Z"/>
	<path fill="#DCDCDC" transform="matrix(1.2643 0 0 1.26465 0.00012207 -6.10352e-05)" d="M739.45 456.621Q753.188 456.441 766.927 456.536C768.087 463.77 767.512 471.817 767.513 479.168L767.457 518.975C758.09 518.98 748.701 519.125 739.337 518.939C739.343 501.849 738.251 484.008 739.558 467.01C738.742 463.832 739.304 459.904 739.45 456.621Z"/>
	<path fill="#DCDCDC" transform="matrix(1.2643 0 0 1.26465 0.00012207 -6.10352e-05)" d="M637.386 443.791L665.236 443.775Q665.001 481.184 665.192 518.592Q651.205 518.956 637.214 518.814C637.112 495.468 637.704 472.055 638.011 448.707L637.386 443.791Z"/>
	<path fill="#DCDCDC" transform="matrix(1.2643 0 0 1.26465 0.00012207 -6.10352e-05)" d="M764.765 335.465C774.494 335.594 784.388 335.345 794.09 335.995C793.225 359.688 794.437 383.442 793.415 407.148L764.451 407.324C764.505 383.424 763.963 359.342 764.765 335.465Z"/>
	<path fill="#DCDCDC" transform="matrix(1.2643 0 0 1.26465 0.00012207 -6.10352e-05)" d="M768.829 436.288L794.895 436C796.043 445.421 795.174 455.771 795.097 465.299L794.811 518.899L768.713 518.896Q768.539 485.202 768.799 451.509L768.829 436.288Z"/>
	<path fill="#878787" transform="matrix(1.2643 0 0 1.26465 0.00012207 -6.10352e-05)" d="M494.519 335.319C505.566 335.785 515.746 339.277 523.328 347.657Q523.862 348.24 524.367 348.847Q524.872 349.455 525.347 350.086Q525.823 350.717 526.268 351.37Q526.713 352.023 527.126 352.697Q527.539 353.37 527.92 354.063Q528.3 354.755 528.648 355.465Q528.995 356.175 529.307 356.901Q529.62 357.626 529.898 358.366Q530.176 359.106 530.418 359.858Q530.66 360.611 530.866 361.373Q531.072 362.136 531.242 362.908Q531.411 363.68 531.543 364.459Q531.676 365.238 531.771 366.023Q531.866 366.807 531.923 367.596Q531.98 368.384 532 369.174Q532.02 369.964 532.002 370.754C531.989 371.328 531.919 371.818 531.856 372.398Q531.754 373.942 531.535 375.473Q531.315 377.005 530.98 378.515Q530.645 380.026 530.195 381.506Q529.745 382.987 529.185 384.428Q528.624 385.87 527.954 387.265Q527.285 388.66 526.511 390Q525.738 391.34 524.865 392.616Q523.991 393.893 523.023 395.1C517.124 402.408 507.926 407.541 498.557 408.512C489.239 409.478 480.218 406.319 473.109 400.322C465.454 393.864 460.364 384.237 459.61 374.221Q459.551 373.324 459.536 372.426Q459.521 371.527 459.55 370.629Q459.579 369.731 459.653 368.836Q459.727 367.94 459.845 367.049Q459.962 366.158 460.124 365.274Q460.286 364.391 460.491 363.516Q460.696 362.641 460.944 361.777Q461.192 360.913 461.482 360.063Q461.772 359.213 462.104 358.378Q462.436 357.543 462.809 356.725Q463.182 355.908 463.594 355.109Q464.007 354.311 464.458 353.534Q464.91 352.758 465.399 352.004Q465.889 351.25 466.414 350.522Q466.94 349.793 467.502 349.092Q468.063 348.39 468.658 347.717C475.482 339.973 484.325 336.025 494.519 335.319Z"/>
	<path fill="#E7A75D" transform="matrix(1.2643 0 0 1.26465 0.00012207 -6.10352e-05)" d="M494.519 335.319C505.566 335.785 515.746 339.277 523.328 347.657Q523.862 348.24 524.367 348.847Q524.872 349.455 525.347 350.086Q525.823 350.717 526.268 351.37Q526.713 352.023 527.126 352.697Q527.539 353.37 527.92 354.063Q528.3 354.755 528.648 355.465Q528.995 356.175 529.307 356.901Q529.62 357.626 529.898 358.366Q530.176 359.106 530.418 359.858Q530.66 360.611 530.866 361.373Q531.072 362.136 531.242 362.908Q531.411 363.68 531.543 364.459Q531.676 365.238 531.771 366.023Q531.866 366.807 531.923 367.596Q531.98 368.384 532 369.174Q532.02 369.964 532.002 370.754C531.989 371.328 531.919 371.818 531.856 372.398C530.276 370.82 499.353 371.587 494.903 371.586C494.902 359.499 495.029 347.397 494.519 335.319Z"/>
</svg>
