<?xml version="1.0" encoding="utf-8" ?>
<svg xmlns="http://www.w3.org/2000/svg" xmlns:xlink="http://www.w3.org/1999/xlink" width="1813" height="1295">
	<path fill="#E7E7EA" transform="matrix(1.2643 0 0 1.26465 0.00012207 -6.10352e-05)" d="M0 0L1432.77 0C1433.55 1.35287 1433.84 2.273 1433.92 3.82991C1434.39 14.2948 1434 24.9358 1434 35.4235L1434 96.5893L1434.01 282.797L1434 835.994L1434 973.892C1434.01 983.184 1435.15 1015.65 1433.74 1021.9C1433.56 1022.7 1433.19 1023.31 1432.77 1024L0 1024L0 0Z"/>
	<path fill="#9A9A9A" transform="matrix(1.2643 0 0 1.26465 0.00012207 -6.10352e-05)" d="M350.025 915.692C359.071 917.756 369.307 916.9 378.572 916.906L418.077 916.917L577.077 916.812L934.361 916.882L1038.43 916.978C1052.48 916.995 1075.04 918.322 1088.02 916.644L1088.68 916.129C1098.93 918.247 1129.99 916.718 1142.3 916.659L1279.2 916.427C1285.23 916.405 1315.53 915.093 1319.5 916.22C1319.87 916.323 1320.1 916.688 1320.4 916.923L1320.52 917.523C1320.55 918.089 1320.58 918.677 1320.43 919.234C1318.7 925.926 1309.68 933.078 1304.02 936.371C1296.47 940.758 1289.18 941.999 1280.59 942.116C1206.04 943.134 1131.3 941.507 1056.74 941.48L456.904 940.607L229.872 940.562L182.02 940.595C167.764 940.655 149.171 942.538 135.567 938.836C123.63 935.587 115.517 927.462 109.603 916.947C164.569 917.506 219.575 916.7 274.543 916.6L324.773 916.632C332.761 916.665 341.481 917.556 349.383 916.613L350.025 915.692Z"/>
	<path fill="#CCC" transform="matrix(1.2643 0 0 1.26465 0.00012207 -6.10352e-05)" d="M981.271 520.422C995.914 507.845 1009.11 493.286 1022.79 479.687L1104.02 398.344L1296.91 205.507C1300.01 202.366 1324.77 177.592 1325.52 175.547C1326.56 177.516 1326.69 179.124 1326.72 181.312C1327.33 221.076 1326.76 260.962 1326.66 300.739L1326.82 430.047L1326.88 478.32C1326.89 484.353 1328.05 493.322 1326.59 499.068C1326.42 499.735 1326.13 500.272 1325.8 500.87C1327.59 495.287 1326.13 458.972 1326.14 450.28C1326.19 408.66 1327.34 366.733 1326.13 325.148C1326.07 323.155 1325.93 321.443 1325.07 319.615C1324.81 320.335 1324.63 320.938 1324.13 321.539C1320.94 325.41 1316.49 328.802 1312.95 332.456Q1296.34 349.708 1279.43 366.656L1182.24 464.873L1051.58 595.823L1008.72 638.729C999.666 647.762 990.766 657.16 981.037 665.469C981.054 648.993 981.313 632.473 980.863 616.004C981.714 574.181 979.853 532.282 980.518 490.465C982.441 493.652 981.282 515.395 981.271 520.422Z"/>
	<path fill="#CCC" transform="matrix(1.2643 0 0 1.26465 0.00012207 -6.10352e-05)" d="M322.5 504.57L387.115 569.024C396.445 578.384 405.422 588.072 414.858 597.332C430.095 583.5 444.266 567.852 458.8 553.221L458.838 610.495C458.855 621.149 459.312 632.019 458.725 642.649C459.307 695.142 458.81 747.689 458.784 800.187L458.676 842.603C458.633 850.812 458.025 859.455 458.981 867.595C459.36 870.821 460.855 873.305 462.773 875.852C449.352 877.078 435.118 875.866 421.601 875.856L335.919 875.888C335.952 884.611 335.825 893.369 336.15 902.085C338.593 908.515 341.683 912.005 347.986 914.873C348.663 915.181 349.325 915.439 350.025 915.692L349.383 916.613C341.481 917.556 332.761 916.665 324.773 916.632L274.543 916.6C219.575 916.7 164.569 917.506 109.603 916.947C108.409 914.428 107.489 911.698 106.477 909.096C102.58 897.265 104.375 836.989 104.379 820.064C104.388 788.695 103.575 757.074 104.81 725.738C111.782 717.76 119.882 710.399 127.239 702.733Q162.757 666.185 198.724 630.079L285.415 541.987C297.765 529.499 309.848 516.759 322.5 504.57Z"/>
	<path fill="#C3C3C3" transform="matrix(1.2643 0 0 1.26465 0.00012207 -6.10352e-05)" d="M981.037 665.469C990.766 657.16 999.666 647.762 1008.72 638.729L1051.58 595.823L1182.24 464.873L1279.43 366.656Q1296.34 349.708 1312.95 332.456C1316.49 328.802 1320.94 325.41 1324.13 321.539C1324.63 320.938 1324.81 320.335 1325.07 319.615C1325.93 321.443 1326.07 323.155 1326.13 325.148C1327.34 366.733 1326.19 408.66 1326.14 450.28C1326.13 458.972 1327.59 495.287 1325.8 500.87C1326.6 502.563 1326.71 503.919 1326.76 505.772C1327.35 530.632 1326.81 555.637 1326.79 580.511L1326.78 717.225L1326.71 832.537C1326.69 853.042 1327.25 873.74 1326.43 894.222C1326.15 901.183 1325.65 907.945 1322.91 914.461C1322.38 915.732 1321.62 916.697 1320.52 917.523L1320.4 916.923C1320.1 916.688 1319.87 916.323 1319.5 916.22C1315.53 915.093 1285.23 916.405 1279.2 916.427L1142.3 916.659C1129.99 916.718 1098.93 918.247 1088.68 916.129C1093.15 914.053 1110.4 905.858 1112.62 902.155C1113.02 901.694 1113.53 901.184 1113.78 900.61C1115.14 897.362 1114.46 878.189 1112.91 875.133C1105.47 873.53 1093.35 874.813 1085.54 874.829L1017.2 875.043C1005.46 874.006 992.731 875.01 980.892 875.08L981.037 665.469Z"/>
	<path fill="#E7E7EA" transform="matrix(1.2643 0 0 1.26465 0.00012207 -6.10352e-05)" d="M688.59 171.536C709.719 171.821 731.426 170.34 752.452 171.817C755.641 193.334 759.393 215.29 761.296 236.943C768.748 236.844 821.953 235.342 825.055 238.379C827.159 240.438 827.555 242.856 827.558 245.701C827.561 248.277 827.423 250.867 827.315 253.441L920.655 253.444C935.068 253.429 952.619 252.043 966.724 253.977C970.488 254.493 973.282 255.241 976.07 258.013C978.22 260.148 979.647 262.794 980.032 265.797C980.964 273.046 980.394 280.94 980.382 288.257L980.312 330.382L980.635 440.084C980.667 456.868 980.273 473.687 980.518 490.465C979.853 532.282 981.714 574.181 980.863 616.004C981.313 632.473 981.054 648.993 981.037 665.469L980.892 875.08C992.731 875.01 1005.46 874.006 1017.2 875.043L1085.54 874.829C1093.35 874.813 1105.47 873.53 1112.91 875.133C1114.46 878.189 1115.14 897.362 1113.78 900.61C1113.53 901.184 1113.02 901.694 1112.62 902.155C1110.4 905.858 1093.15 914.053 1088.68 916.129L1088.02 916.644C1075.04 918.322 1052.48 916.995 1038.43 916.978L934.361 916.882L577.077 916.812L418.077 916.917L378.572 916.906C369.307 916.9 359.071 917.756 350.025 915.692C349.325 915.439 348.663 915.181 347.986 914.873C341.683 912.005 338.593 908.515 336.15 902.085C335.825 893.369 335.952 884.611 335.919 875.888L421.601 875.856C435.118 875.866 449.352 877.078 462.773 875.852C460.855 873.305 459.36 870.821 458.981 867.595C458.025 859.455 458.633 850.812 458.676 842.603L458.784 800.187C458.81 747.689 459.307 695.142 458.725 642.649C459.312 632.019 458.855 621.149 458.838 610.495L458.8 553.221C459.743 486.688 459.06 420.075 459.04 353.532L458.793 301.388C458.734 291.755 458.008 281.626 459.179 272.076C459.804 266.982 461.826 263.11 465.418 259.49C468.822 256.059 473.402 254.948 478.056 254.321C489.6 252.766 502.578 253.966 514.304 253.998L585.715 254.013C594.226 253.7 602.776 253.865 611.293 253.878C611.384 248.884 610.23 241.971 613.49 237.877C620.512 234.674 667.474 236.383 678.165 236.677C678.889 228.794 680.707 220.706 682.065 212.896Q685.84 192.297 688.59 171.536Z"/>
	<path fill="#FED75B" transform="matrix(1.2643 0 0 1.26465 0.00012207 -6.10352e-05)" d="M571.595 353.486C581.667 354.693 590.721 358.587 598.065 365.653Q598.812 366.358 599.523 367.1Q600.234 367.842 600.907 368.618Q601.58 369.394 602.214 370.203Q602.848 371.012 603.44 371.851Q604.033 372.691 604.583 373.559Q605.132 374.427 605.638 375.321Q606.145 376.215 606.605 377.133Q607.066 378.052 607.481 378.992Q607.895 379.932 608.262 380.892Q608.63 381.852 608.948 382.829Q609.267 383.805 609.537 384.797Q609.807 385.788 610.027 386.792Q610.247 387.796 610.417 388.809Q610.587 389.823 610.706 390.843Q610.825 391.864 610.893 392.889Q610.961 393.915 610.978 394.942C597.849 394.507 584.693 394.709 571.558 394.747L571.595 353.486Z"/>
	<path fill="#878787" transform="matrix(1.2643 0 0 1.26465 0.00012207 -6.10352e-05)" d="M522.947 400.423C537.179 400.533 551.517 400.081 565.727 400.539L565.742 401.227C565.324 414.398 565.503 427.603 565.554 440.779C557.402 440.191 548.982 437.344 542.179 432.819C530.466 425.029 525.656 413.717 522.947 400.423Z"/>
	<path fill="#C3C3C3" transform="matrix(1.2643 0 0 1.26465 0.00012207 -6.10352e-05)" d="M565.742 401.227C580.822 401.362 596.208 400.636 611.231 401.496C608.127 415.107 602.3 426.757 590.145 434.369C582.464 439.179 574.484 440.695 565.554 440.779C565.503 427.603 565.324 414.398 565.742 401.227Z"/>
	<path fill="#E08376" transform="matrix(1.2643 0 0 1.26465 0.00012207 -6.10352e-05)" d="M522.947 400.423C522.733 387.782 526 376.37 535.009 367.102C541.515 360.408 553.898 353.463 563.481 353.798C563.965 353.815 564.589 353.955 565.041 354.039C567.084 357.382 565.677 393.848 565.727 400.539C551.517 400.081 537.179 400.533 522.947 400.423Z"/>
	<path fill="#265638" transform="matrix(1.2643 0 0 1.26465 0.00012207 -6.10352e-05)" d="M827.524 296.187C831.096 296.153 844.88 295.091 847.253 297.46C848.702 298.908 849.295 300.422 849.319 302.48C849.345 304.652 848.557 307.041 846.911 308.52C845.629 309.673 843.923 310.29 842.228 310.472C838.267 310.896 833.922 310.349 829.922 310.282C821.957 310.15 813.974 310.249 806.007 310.247L718.724 310.322C718.925 305.505 719.308 300.928 720.172 296.168C755.554 296.529 791.37 297.353 826.723 296.159L827.524 296.187Z"/>
	<path fill="#217642" transform="matrix(1.2643 0 0 1.26465 0.00012207 -6.10352e-05)" d="M720.09 295.576L793.962 295.652C802.063 295.648 819.475 294.317 826.723 296.159C791.37 297.353 755.554 296.529 720.172 296.168C719.308 300.928 718.925 305.505 718.724 310.322C708.081 310.32 595.044 310.753 593.777 309.459C591.457 307.089 592.446 299.605 592.534 296.357L611.487 296.234C647.537 294.481 683.982 296.02 720.09 295.576Z"/>
	<path fill="#24A25D" transform="matrix(1.2643 0 0 1.26465 0.00012207 -6.10352e-05)" d="M761.296 236.943C768.748 236.844 821.953 235.342 825.055 238.379C827.159 240.438 827.555 242.856 827.558 245.701C827.561 248.277 827.423 250.867 827.315 253.441C826.762 263.447 826.926 273.738 827.274 283.755Q827.502 289.969 827.524 296.187L826.723 296.159C819.475 294.317 802.063 295.648 793.962 295.652L720.09 295.576C721.599 287.928 724.85 279.869 727.301 272.45C731.183 260.699 734.835 248.727 739.323 237.199C746.664 237.28 753.96 237.265 761.296 236.943Z"/>
	<defs>
		<linearGradient id="gradient_0" gradientUnits="userSpaceOnUse" x1="1003.1738" y1="587.05499" x2="511.22122" y2="545.07599">
			<stop offset="0" stop-color="#565656"/>
			<stop offset="1" stop-color="#6C6C6C"/>
		</linearGradient>
	</defs>
	<path fill="url(#gradient_0)" transform="matrix(1.2643 0 0 1.26465 0.00012207 -6.10352e-05)" d="M827.315 253.441L920.655 253.444C935.068 253.429 952.619 252.043 966.724 253.977C970.488 254.493 973.282 255.241 976.07 258.013C978.22 260.148 979.647 262.794 980.032 265.797C980.964 273.046 980.394 280.94 980.382 288.257L980.312 330.382L980.635 440.084C980.667 456.868 980.273 473.687 980.518 490.465C979.853 532.282 981.714 574.181 980.863 616.004C978.947 640.277 980.586 669.975 980.465 694.755L980.187 874.213C910.663 874.203 840.875 873.002 771.375 874.768C762.048 874.163 752.187 874.837 742.817 874.864L685.608 874.841L495.036 874.721C489.978 872.153 485.592 867.898 483.82 862.323C483.196 860.359 483.424 859.351 484.361 857.567L486.714 856.998C497.874 857.564 509.229 857.159 520.407 857.153L585.227 856.945L758.378 856.648L892.317 856.76C913.546 856.711 935.483 858.214 956.565 856.086C958.163 853.759 958.209 849.62 958.273 846.88C958.667 829.948 958.174 812.903 958.208 795.956L958.166 657.388L958.195 283.523L827.274 283.755C826.926 273.738 826.762 263.447 827.315 253.441Z"/>
	<path fill="#878787" transform="matrix(1.2643 0 0 1.26465 0.00012207 -6.10352e-05)" d="M688.59 171.536C709.719 171.821 731.426 170.34 752.452 171.817C755.641 193.334 759.393 215.29 761.296 236.943C753.96 237.265 746.664 237.28 739.323 237.199C734.835 248.727 731.183 260.699 727.301 272.45C724.85 279.869 721.599 287.928 720.09 295.576C683.982 296.02 647.537 294.481 611.487 296.234L611.428 283.793L483.678 283.8L483.704 724.909L483.734 827.911C483.746 833.379 482.776 851.441 483.865 855.288C483.981 855.698 484.315 856.012 484.54 856.374L486.714 856.998L484.361 857.567C483.424 859.351 483.196 860.359 483.82 862.323C485.592 867.898 489.978 872.153 495.036 874.721L685.608 874.841L742.817 874.864C752.187 874.837 762.048 874.163 771.375 874.768C840.875 873.002 910.663 874.203 980.187 874.213L980.465 694.755C980.586 669.975 978.947 640.277 980.863 616.004C981.313 632.473 981.054 648.993 981.037 665.469L980.892 875.08C992.731 875.01 1005.46 874.006 1017.2 875.043L1085.54 874.829C1093.35 874.813 1105.47 873.53 1112.91 875.133C1114.46 878.189 1115.14 897.362 1113.78 900.61C1113.53 901.184 1113.02 901.694 1112.62 902.155C1110.4 905.858 1093.15 914.053 1088.68 916.129L1088.02 916.644C1075.04 918.322 1052.48 916.995 1038.43 916.978L934.361 916.882L577.077 916.812L418.077 916.917L378.572 916.906C369.307 916.9 359.071 917.756 350.025 915.692C349.325 915.439 348.663 915.181 347.986 914.873C341.683 912.005 338.593 908.515 336.15 902.085C335.825 893.369 335.952 884.611 335.919 875.888L421.601 875.856C435.118 875.866 449.352 877.078 462.773 875.852C460.855 873.305 459.36 870.821 458.981 867.595C458.025 859.455 458.633 850.812 458.676 842.603L458.784 800.187C458.81 747.689 459.307 695.142 458.725 642.649C459.312 632.019 458.855 621.149 458.838 610.495L458.8 553.221C459.743 486.688 459.06 420.075 459.04 353.532L458.793 301.388C458.734 291.755 458.008 281.626 459.179 272.076C459.804 266.982 461.826 263.11 465.418 259.49C468.822 256.059 473.402 254.948 478.056 254.321C489.6 252.766 502.578 253.966 514.304 253.998L585.715 254.013C594.226 253.7 602.776 253.865 611.293 253.878C611.384 248.884 610.23 241.971 613.49 237.877C620.512 234.674 667.474 236.383 678.165 236.677C678.889 228.794 680.707 220.706 682.065 212.896Q685.84 192.297 688.59 171.536Z"/>
	<path fill="#A9A9A9" transform="matrix(1.2643 0 0 1.26465 0.00012207 -6.10352e-05)" d="M714.915 189.183C718.24 189.048 721.084 189.062 724.279 190.212C728.272 191.65 731.803 194.65 733.526 198.561Q733.81 199.212 734.027 199.889Q734.244 200.565 734.392 201.26Q734.54 201.955 734.618 202.661Q734.696 203.368 734.702 204.078Q734.709 204.788 734.644 205.496Q734.58 206.204 734.445 206.901Q734.309 207.599 734.105 208.279Q733.901 208.959 733.629 209.616C731.527 214.778 727.696 217.375 722.8 219.512C718.949 220.052 715.075 219.824 711.593 217.941C706.274 215.063 704.279 209.995 702.688 204.535C703.129 202.538 703.602 200.569 704.387 198.676C706.536 193.49 709.981 191.227 714.915 189.183Z"/>
	<path fill="#343334" transform="matrix(1.2643 0 0 1.26465 0.00012207 -6.10352e-05)" d="M660.315 880.38L777.274 880.377L777.106 890.973C763.893 891.462 750.499 891.015 737.269 890.995L660.281 891.012L660.315 880.38Z"/>
	<path fill="#5F5F5F" transform="matrix(1.2643 0 0 1.26465 0.00012207 -6.10352e-05)" d="M336.15 902.085C340.772 899.446 520.972 900.855 544.47 900.858L961.848 900.587L1068.66 900.702C1078.2 900.714 1104.12 899.551 1112.1 900.992L1112.62 902.155C1110.4 905.858 1093.15 914.053 1088.68 916.129L1088.02 916.644C1075.04 918.322 1052.48 916.995 1038.43 916.978L934.361 916.882L577.077 916.812L418.077 916.917L378.572 916.906C369.307 916.9 359.071 917.756 350.025 915.692C349.325 915.439 348.663 915.181 347.986 914.873C341.683 912.005 338.593 908.515 336.15 902.085Z"/>
	<path fill="#343334" transform="matrix(1.2643 0 0 1.26465 0.00012207 -6.10352e-05)" d="M521.363 497.466C521.691 497.163 521.925 496.701 522.348 496.557C524.446 495.842 625.099 496.569 636.03 496.564L825.18 496.513L887.096 496.626C896.308 496.648 905.799 496.046 914.972 496.57C916.321 496.647 917.219 496.642 918.274 497.591C913.195 499.668 835.351 498.059 823.509 498.041L823.524 539.803C854.968 539.596 886.761 540.611 918.148 539.328L918.62 541.301L823.58 541.419Q823.884 563.83 823.613 586.242C854.965 586.252 886.643 585.3 917.958 586.341L918.23 586.949C917.766 587.27 917.367 587.716 916.838 587.911C913.25 589.231 835.097 587.898 823.569 587.881L823.502 633.704L888.251 633.656C897.165 633.653 909.95 632.335 918.34 634.264C917.107 666.44 918.41 699.024 918.433 731.24C918.441 742.26 916.538 763.546 918.626 773.242L918.295 775.008C917.892 789.864 917.677 805.077 918.213 819.932C914.845 822.12 853.87 820.904 844.486 820.921L592.752 821.048C583.461 821.05 527.891 820.152 524.717 821.18C524.346 821.301 524.132 821.696 523.839 821.954L523.62 820.956L521.741 820.998L521.284 820.248C527.233 817.877 608.332 819.411 621.665 819.424L621.564 775.158L520.996 775.098L521.023 773.243C554.458 774.272 588.172 773.424 621.63 773.44L621.7 729.27L521.091 729.207L521.473 727.508C554.877 727.951 588.324 727.639 621.733 727.671L621.73 682.243L557.058 682.284C545.116 682.288 532.877 682.879 520.982 681.999L521.466 680.558C554.836 681.192 588.298 680.684 621.678 680.683L621.648 635.37L521.633 635.431L521.04 634.504C525.558 632.558 609.386 633.847 621.675 633.864L621.738 587.772L520.925 588.331L521.429 586.61L621.714 586.253L621.698 541.247L521.048 541.235L521.05 539.385L621.733 539.537L621.732 498.082C608.721 498.214 527.157 499.316 521.363 497.466Z"/>
	<path fill="#E7E7EA" transform="matrix(1.2643 0 0 1.26465 0.00012207 -6.10352e-05)" d="M623.174 498.045L720.419 498.024L720.416 539.835C687.979 539.396 655.505 539.518 623.064 539.618C623.262 525.766 623.158 511.899 623.174 498.045Z"/>
	<path fill="#E7E7EA" transform="matrix(1.2643 0 0 1.26465 0.00012207 -6.10352e-05)" d="M721.966 498.052L821.959 498.039L821.943 539.811C788.653 540.164 755.328 539.756 722.033 539.865L721.966 498.052Z"/>
	<path fill="#24A25D" transform="matrix(1.2643 0 0 1.26465 0.00012207 -6.10352e-05)" d="M823.63 774.997L918.295 775.008C917.892 789.864 917.677 805.077 918.213 819.932C911.6 817.826 836.949 819.373 823.628 819.408L823.63 774.997Z"/>
	<path fill="#E7E7EA" transform="matrix(1.2643 0 0 1.26465 0.00012207 -6.10352e-05)" d="M623.161 775.191L720.407 775.252L720.326 819.34C688.015 819.95 655.587 819.252 623.255 819.409L623.161 775.191Z"/>
	<path fill="#E7E7EA" transform="matrix(1.2643 0 0 1.26465 0.00012207 -6.10352e-05)" d="M623.201 729.266L720.443 729.244L720.439 773.512L623.11 773.47L623.201 729.266Z"/>
	<path fill="#E7E7EA" transform="matrix(1.2643 0 0 1.26465 0.00012207 -6.10352e-05)" d="M623.171 541.287L720.455 541.418L720.422 586.225L623.122 586.261L623.171 541.287Z"/>
	<path fill="#E7E7EA" transform="matrix(1.2643 0 0 1.26465 0.00012207 -6.10352e-05)" d="M623.063 635.368L720.435 635.394L720.425 680.646L623.075 680.676L623.063 635.368Z"/>
	<path fill="#E7E7EA" transform="matrix(1.2643 0 0 1.26465 0.00012207 -6.10352e-05)" d="M721.998 729.24L822.054 729.276C822.244 743.928 822.028 758.609 821.998 773.264L722.011 773.525L721.998 729.24Z"/>
	<path fill="#E7E7EA" transform="matrix(1.2643 0 0 1.26465 0.00012207 -6.10352e-05)" d="M623.169 682.254L720.382 682.256C720.22 697.366 720.375 712.492 720.389 727.604L623.098 727.686L623.169 682.254Z"/>
	<path fill="#E7E7EA" transform="matrix(1.2643 0 0 1.26465 0.00012207 -6.10352e-05)" d="M799.802 775.005L821.995 774.956L822 819.393L743.838 819.336L721.926 819.393L721.954 775.308L799.802 775.005Z"/>
	<path fill="#E7E7EA" transform="matrix(1.2643 0 0 1.26465 0.00012207 -6.10352e-05)" d="M623.145 587.763L720.445 587.8L720.413 633.803L623.013 633.904L623.145 587.763Z"/>
	<path fill="#E7E7EA" transform="matrix(1.2643 0 0 1.26465 0.00012207 -6.10352e-05)" d="M721.98 541.454L822.085 541.447L822.205 586.246L722.016 586.258L721.98 541.454Z"/>
	<path fill="#E7E7EA" transform="matrix(1.2643 0 0 1.26465 0.00012207 -6.10352e-05)" d="M722.015 635.383L821.712 635.345L821.802 680.669L721.986 680.655L722.015 635.383Z"/>
	<path fill="#E7E7EA" transform="matrix(1.2643 0 0 1.26465 0.00012207 -6.10352e-05)" d="M721.947 682.266L821.937 682.241L821.97 727.64L721.924 727.596L721.947 682.266Z"/>
	<path fill="#E7E7EA" transform="matrix(1.2643 0 0 1.26465 0.00012207 -6.10352e-05)" d="M722.058 587.903C755.387 588.255 788.757 587.893 822.091 587.835L821.973 633.722L722.03 633.798L722.058 587.903Z"/>
	<path fill="#24A25D" transform="matrix(1.2643 0 0 1.26465 0.00012207 -6.10352e-05)" d="M918.34 634.264C917.107 666.44 918.41 699.024 918.433 731.24C918.441 742.26 916.538 763.546 918.626 773.242C907.908 772.512 896.72 773.139 885.957 773.144L823.586 773.128L823.803 729.377L884.108 729.44C895.055 729.465 906.994 730.385 917.82 728.772L916.986 728.504L917.007 728.924L917.802 728.752C911.748 725.736 837.005 727.463 823.645 727.489L823.595 682.357C842.676 682.601 861.784 682.359 880.868 682.372C889.838 682.378 909.711 683.983 917.46 681.595L917.392 681.029C907.955 679.339 896.551 680.54 886.915 680.544L823.547 680.569L823.569 635.364C846.356 635.1 869.174 635.35 891.965 635.343C898.937 635.341 910.158 636.44 916.562 635.193C917.313 635.047 917.735 634.7 918.34 634.264Z"/>
</svg>
