<?xml version="1.0" encoding="utf-8" ?>
<svg xmlns="http://www.w3.org/2000/svg" xmlns:xlink="http://www.w3.org/1999/xlink" width="1813" height="1295">
	<path fill="#CCC" transform="matrix(1.2643 0 0 1.26465 0.00012207 -6.10352e-05)" d="M0 0L1432.77 0C1433.55 1.35287 1433.84 2.273 1433.92 3.82991C1434.39 14.2948 1434 24.9358 1434 35.4235L1434 96.5893L1434.01 282.797L1434 835.994L1434 973.892C1434.01 983.184 1435.15 1015.65 1433.74 1021.9C1433.56 1022.7 1433.19 1023.31 1432.77 1024L0 1024L0 0Z"/>
	<path fill="#DCDCDC" transform="matrix(1.2643 0 0 1.26465 0.00012207 -6.10352e-05)" d="M1186.72 445.81C1200.87 444.679 1215.44 445.322 1229.63 445.428L1290.28 445.575C1291.99 448.817 1291.72 454.832 1291.44 458.482C1291.25 461.108 1291.27 461.843 1289.3 463.482L1235.98 463.117C1219.33 463.148 1202.67 463.6 1186.03 463.092C1188.45 459.083 1187.09 450.44 1186.72 445.81Z"/>
	<path fill="#DCDCDC" transform="matrix(1.2643 0 0 1.26465 0.00012207 -6.10352e-05)" d="M257.602 257.161C289.36 257.295 321.118 256.624 352.876 257.009C352.977 261.657 354.541 275.691 351.999 279.356Q304.85 278.959 257.7 279.157Q257.485 268.16 257.602 257.161Z"/>
	<path fill="#DCDCDC" transform="matrix(1.2643 0 0 1.26465 0.00012207 -6.10352e-05)" d="M1186.5 482.932C1200.03 482.398 1213.69 482.826 1227.25 482.869L1289.35 482.752Q1290.07 483.91 1290.35 485.247C1291.28 489.9 1291.62 502.173 1289.17 506.047C1279.07 507.64 1265.77 506.416 1255.33 506.411C1232.32 506.402 1209.21 506.808 1186.22 506.037C1188 500.023 1187.22 489.284 1186.5 482.932Z"/>
	<path fill="#DCDCDC" transform="matrix(1.2643 0 0 1.26465 0.00012207 -6.10352e-05)" d="M1161.45 171.949C1175.49 170.372 1193.33 171.627 1207.79 171.586L1314.48 171.58C1314.91 172.329 1315.2 172.871 1315.39 173.717C1316.36 178.049 1316.19 225.067 1315.05 226.974L1312.25 227.486L1161.16 227.474C1162.69 223.892 1162.64 177.445 1161.45 171.949Z"/>
	<path fill="#DCDCDC" transform="matrix(1.2643 0 0 1.26465 0.00012207 -6.10352e-05)" d="M1217.32 577.114C1222.78 577.934 1246.75 610.352 1251.02 616.161C1285.38 662.901 1289.28 723.743 1280.65 779.208Q1280 783.517 1279.22 787.804Q1278.44 792.091 1277.52 796.353Q1276.61 800.614 1275.57 804.845Q1274.53 809.077 1273.36 813.275Q1272.19 817.473 1270.89 821.633Q1269.6 825.793 1268.17 829.912Q1266.75 834.031 1265.2 838.105Q1263.66 842.178 1261.98 846.203Q1260.31 850.227 1258.52 854.199Q1256.73 858.171 1254.82 862.086Q1252.9 866.002 1250.87 869.857Q1248.84 873.712 1246.69 877.504Q1244.54 881.295 1242.28 885.02Q1240.02 888.744 1237.65 892.398Q1235.27 896.051 1232.79 899.631Q1230.3 903.211 1227.71 906.713C1223.48 912.462 1219.04 919.73 1213.86 924.498C1208.8 925.221 1135.74 925.421 1132.16 924.549C1134.37 923.496 1136 922.298 1137.25 920.139C1139.45 916.321 1152.65 824.475 1151.69 820.395C1154.81 820.016 1160.03 820.69 1162.79 819.406C1164.05 818.815 1164.49 817.251 1164.88 816.014C1167.07 809.189 1167.06 794.588 1163.44 788.264C1158.34 784.6 1126.6 786.606 1119.33 786.655C1119.62 786.164 1119.91 785.615 1120.08 785.073C1121.42 780.67 1121.04 724.499 1120.55 717.244C1120.45 715.746 1120.16 714.534 1119.45 713.207C1125.36 711.269 1143.32 703.83 1146.97 699.083C1150.42 698.126 1153.68 695.227 1156.41 692.989C1161.7 688.645 1175.78 675.787 1176.39 669.481C1173.24 667.841 1169.09 667.269 1165.6 666.773C1162.58 664.197 1147.8 661.315 1143.28 660.376Q1163.52 658.29 1183.85 657.527C1183.94 657.456 1184.04 657.384 1184.14 657.314C1184.88 656.78 1185.52 656.255 1186.12 655.541C1189.7 651.239 1199.74 633.794 1199.38 628.958C1194.27 626.484 1175.69 623.777 1169.16 622.583C1180.73 620.795 1192.43 619.973 1204.03 618.392C1204.26 618.154 1204.5 617.926 1204.72 617.68C1208.06 613.927 1217.83 581.999 1217.32 577.114Z"/>
	<defs>
		<linearGradient id="gradient_0" gradientUnits="userSpaceOnUse" x1="1250.121" y1="603.98926" x2="827.87048" y2="235.94478">
			<stop offset="0" stop-color="#878A85"/>
			<stop offset="1" stop-color="#B1AEB0"/>
		</linearGradient>
	</defs>
	<path fill="url(#gradient_0)" transform="matrix(1.2643 0 0 1.26465 0.00012207 -6.10352e-05)" d="M936.39 95.0287C937.358 102.897 936.903 111.159 936.904 119.09L1029.52 119.336C1042.63 119.473 1055.97 119.002 1069.05 119.876C1082.28 119.644 1095.8 117.665 1106.07 127.781C1111.11 132.751 1116.26 141.92 1117.19 148.984C1118.59 159.553 1117.54 171.57 1117.54 182.284L1117.5 249.908L1117.43 478.993C1117.42 485.341 1118.54 506.76 1116.36 511.39C1130.28 511.743 1165.38 531.318 1177.56 539.63C1177.85 540.245 1178.16 540.749 1178.23 541.433C1186.96 540.115 1195.9 536.159 1204.42 533.696C1211.67 531.601 1219.09 530.464 1226.35 528.506C1228.16 533.39 1220.66 569.771 1218.13 575.614C1217.91 576.126 1217.59 576.637 1217.32 577.114C1217.83 581.999 1208.06 613.927 1204.72 617.68C1204.5 617.926 1204.26 618.154 1204.03 618.392C1192.43 619.973 1180.73 620.795 1169.16 622.583C1175.69 623.777 1194.27 626.484 1199.38 628.958C1199.74 633.794 1189.7 651.239 1186.12 655.541C1185.52 656.255 1184.88 656.78 1184.14 657.314C1184.04 657.384 1183.94 657.456 1183.85 657.527Q1163.52 658.29 1143.28 660.376C1147.8 661.315 1162.58 664.197 1165.6 666.773C1169.09 667.269 1173.24 667.841 1176.39 669.481C1175.78 675.787 1161.7 688.645 1156.41 692.989C1153.68 695.227 1150.42 698.126 1146.97 699.083C1143.32 703.83 1125.36 711.269 1119.45 713.207C1116.03 714.778 1112.53 716.004 1108.98 717.226L1108.16 717.28L1103.41 714.56C1104.16 717.493 1096.91 770.644 1095.36 773.401C1094.98 774.077 1094.89 774.116 1094.41 774.603C1095.61 777.912 1095.31 782.766 1093.75 785.936C1093.67 786.102 1093.56 786.256 1093.47 786.416L1092.88 786.997C1088.64 787.877 1083.67 787.365 1079.33 787.334C1079.6 786.712 1079.82 786.209 1079.86 785.522C1080.3 777.973 1072.55 755.55 1068.07 749.68C1070.28 747.372 1069.71 744.386 1069.76 741.393C1070.55 699.109 1069.93 656.86 1069.84 614.577L1069.86 444.457L1069.5 219.166C1069.39 201.487 1069.77 183.785 1069.48 166.111C1069.4 161.458 1069.59 151.795 1065.9 148.452C1062.78 145.641 1059.32 143.204 1055.13 142.381C1043.94 140.186 1027.48 141.621 1015.83 141.631L927.756 142.04Q927.778 130.572 927.58 119.106L936.191 119.107C936.145 111.085 935.986 103.042 936.39 95.0287Z"/>
	<path fill="#4D4D4D" transform="matrix(1.2643 0 0 1.26465 0.00012207 -6.10352e-05)" d="M1085 620.895L1086.39 621.525C1089.82 626.199 1109.89 658.528 1110.62 662.245C1110.71 662.722 1110.4 663.849 1110.33 664.377C1109.61 664.316 1109.16 663.894 1108.65 663.41C1103.93 658.982 1085.05 626.906 1085 620.895Z"/>
	<path fill="#878787" transform="matrix(1.2643 0 0 1.26465 0.00012207 -6.10352e-05)" d="M1094.35 706.081C1096.64 707.369 1102.44 712.085 1103.41 714.56C1104.16 717.493 1096.91 770.644 1095.36 773.401C1094.98 774.077 1094.89 774.116 1094.41 774.603C1094.93 773.582 1095.18 773.177 1095.07 772.002C1093.99 760.749 1097.79 712.99 1094.35 706.081Z"/>
	<path fill="#878787" transform="matrix(1.2643 0 0 1.26465 0.00012207 -6.10352e-05)" d="M1069.05 119.876C1082.28 119.644 1095.8 117.665 1106.07 127.781C1111.11 132.751 1116.26 141.92 1117.19 148.984C1118.59 159.553 1117.54 171.57 1117.54 182.284L1117.5 249.908L1117.43 478.993C1117.42 485.341 1118.54 506.76 1116.36 511.39C1118.15 515.218 1117.94 567.631 1116.25 573.043C1116.27 574.998 1116.24 575.351 1114.8 576.837C1114.21 577.44 1113.55 577.989 1112.92 578.539C1112.31 579.685 1111.54 580.81 1111.47 582.133C1105.29 584.228 1100.81 597.441 1094.66 601.106C1095.16 600.143 1095.68 599.247 1095.83 598.157C1097.06 589.433 1096.01 579.145 1095.91 570.306Q1095.72 544.978 1095.84 519.649L1095.73 254.323L1095.9 184.868C1095.89 173.808 1097.29 154.972 1094.45 144.867C1090.75 131.698 1080.23 126.068 1069.05 119.876Z"/>
	<defs>
		<linearGradient id="gradient_1" gradientUnits="userSpaceOnUse" x1="1180.5142" y1="669.92651" x2="1166.5977" y2="536.02863">
			<stop offset="0" stop-color="#727970"/>
			<stop offset="1" stop-color="#989C95"/>
		</linearGradient>
	</defs>
	<path fill="url(#gradient_1)" transform="matrix(1.2643 0 0 1.26465 0.00012207 -6.10352e-05)" d="M1116.36 511.39C1130.28 511.743 1165.38 531.318 1177.56 539.63C1177.85 540.245 1178.16 540.749 1178.23 541.433C1186.96 540.115 1195.9 536.159 1204.42 533.696C1211.67 531.601 1219.09 530.464 1226.35 528.506C1228.16 533.39 1220.66 569.771 1218.13 575.614C1217.91 576.126 1217.59 576.637 1217.32 577.114C1217.83 581.999 1208.06 613.927 1204.72 617.68C1204.5 617.926 1204.26 618.154 1204.03 618.392C1192.43 619.973 1180.73 620.795 1169.16 622.583C1175.69 623.777 1194.27 626.484 1199.38 628.958C1199.74 633.794 1189.7 651.239 1186.12 655.541C1185.52 656.255 1184.88 656.78 1184.14 657.314C1184.04 657.384 1183.94 657.456 1183.85 657.527Q1163.52 658.29 1143.28 660.376C1147.8 661.315 1162.58 664.197 1165.6 666.773C1169.09 667.269 1173.24 667.841 1176.39 669.481C1175.78 675.787 1161.7 688.645 1156.41 692.989C1153.68 695.227 1150.42 698.126 1146.97 699.083C1143.32 703.83 1125.36 711.269 1119.45 713.207C1116.03 714.778 1112.53 716.004 1108.98 717.226L1108.16 717.28L1103.41 714.56C1102.44 712.085 1096.64 707.369 1094.35 706.081C1094.09 703.799 1091.04 700.439 1089.7 698.402C1081.09 685.358 1073.66 669.573 1076.09 653.488C1076.25 652.43 1076.43 651.508 1076.27 650.437C1076.23 650.182 1076.18 649.929 1076.13 649.675C1078.19 653.111 1082.87 664.382 1082.38 668.204C1083.04 668.575 1083.75 668.903 1084.3 669.425C1086.56 671.544 1089.56 680.487 1089.81 683.523C1095.21 682.083 1110.89 680.446 1114.09 677.387C1114.27 676.735 1114.47 676.094 1114.66 675.446C1117.06 667.285 1133.8 638.225 1133.93 634.189C1134.03 633.458 1134.09 633.252 1134.09 632.569C1134.16 624.487 1116.47 587.187 1111.47 582.133C1111.54 580.81 1112.31 579.685 1112.92 578.539C1113.55 577.989 1114.21 577.44 1114.8 576.837C1116.24 575.351 1116.27 574.998 1116.25 573.043C1117.94 567.631 1118.15 515.218 1116.36 511.39Z"/>
	<path fill="#DCDCDC" transform="matrix(1.2643 0 0 1.26465 0.00012207 -6.10352e-05)" d="M1116.36 511.39C1130.28 511.743 1165.38 531.318 1177.56 539.63C1177.85 540.245 1178.16 540.749 1178.23 541.433C1172.11 545.019 1164.13 547.266 1157.57 550.171C1151.9 552.679 1146.39 556.1 1140.7 558.379C1142.45 561.884 1145.21 582.823 1143.85 586.652C1143.8 586.804 1143.73 586.949 1143.68 587.101C1143.6 587.316 1143.54 587.537 1143.46 587.753C1143.41 587.883 1143.36 588.009 1143.31 588.138C1143.74 582.939 1136.23 569.009 1132.89 564.921C1132.59 564.551 1132.07 564.088 1131.75 563.78C1128.45 566.41 1121.29 573.153 1117.43 573.805L1116.25 573.043C1117.94 567.631 1118.15 515.218 1116.36 511.39Z"/>
	<path fill="#5D5F5D" transform="matrix(1.2643 0 0 1.26465 0.00012207 -6.10352e-05)" d="M1136.72 628.415C1136.84 628.326 1136.97 628.24 1137.09 628.148C1142.33 624.123 1147.08 614.773 1151.03 609.281C1163.38 592.107 1183.19 565.248 1200.17 553.433L1200.73 553.707C1171.59 588.032 1145.9 618.389 1127.4 660.066C1125.13 665.178 1120.96 672.507 1120.74 678.087C1121.54 677.512 1121.78 677.241 1122.31 676.453C1132.88 672.883 1144.71 668.308 1155.61 666.096C1158.82 665.444 1162.89 667.907 1165.6 666.773C1169.09 667.269 1173.24 667.841 1176.39 669.481C1175.78 675.787 1161.7 688.645 1156.41 692.989C1153.68 695.227 1150.42 698.126 1146.97 699.083C1143.32 703.83 1125.36 711.269 1119.45 713.207C1116.03 714.778 1112.53 716.004 1108.98 717.226L1108.16 717.28L1103.41 714.56C1102.44 712.085 1096.64 707.369 1094.35 706.081C1094.09 703.799 1091.04 700.439 1089.7 698.402C1081.09 685.358 1073.66 669.573 1076.09 653.488C1076.25 652.43 1076.43 651.508 1076.27 650.437C1076.23 650.182 1076.18 649.929 1076.13 649.675C1078.19 653.111 1082.87 664.382 1082.38 668.204C1083.04 668.575 1083.75 668.903 1084.3 669.425C1086.56 671.544 1089.56 680.487 1089.81 683.523C1095.21 682.083 1110.89 680.446 1114.09 677.387C1114.27 676.735 1114.47 676.094 1114.66 675.446C1117.06 667.285 1133.8 638.225 1133.93 634.189C1134.03 633.458 1134.09 633.252 1134.09 632.569C1134.16 624.487 1116.47 587.187 1111.47 582.133C1111.54 580.81 1112.31 579.685 1112.92 578.539C1118.12 582.731 1136.21 619.403 1136.78 626.922C1136.82 627.456 1136.76 627.868 1136.72 628.415Z"/>
	<path fill="#4D4D4D" transform="matrix(1.2643 0 0 1.26465 0.00012207 -6.10352e-05)" d="M1094.35 706.081C1094.09 703.799 1091.04 700.439 1089.7 698.402C1081.09 685.358 1073.66 669.573 1076.09 653.488C1076.25 652.43 1076.43 651.508 1076.27 650.437C1076.23 650.182 1076.18 649.929 1076.13 649.675C1078.19 653.111 1082.87 664.382 1082.38 668.204C1082.48 668.379 1082.59 668.553 1082.7 668.729C1090.26 681.452 1093 708.327 1106.96 715.687C1115.41 717.119 1144.01 698.394 1146.97 699.083C1143.32 703.83 1125.36 711.269 1119.45 713.207C1116.03 714.778 1112.53 716.004 1108.98 717.226L1108.16 717.28L1103.41 714.56C1102.44 712.085 1096.64 707.369 1094.35 706.081Z"/>
	<path fill="#878787" transform="matrix(1.2643 0 0 1.26465 0.00012207 -6.10352e-05)" d="M263.637 649.126C264.692 643.062 265.752 637.066 267.33 631.11L268.056 631.447C272.539 633.5 277.544 634.164 281.788 636.646C282.093 637.504 282.15 637.929 282.181 638.812C280.742 639.041 280.449 638.831 279.604 639.994C282.684 644.315 289.029 645.861 293.587 648.301C296.686 649.926 304.222 649.99 307.595 648.954C309.11 649.041 310.681 649.051 312.173 649.313L362.335 649.203C370.372 649.19 379.239 648.497 387.195 649.478C401.316 659.709 414.571 670.92 424.223 685.653C429.885 695.101 435.103 704.416 438.034 715.116C465.068 714.589 492.203 715.06 519.248 715.05L536.385 715.044Q535.893 772.138 535.982 829.234C535.935 840.937 534.197 865.633 536.166 875.867C536.808 879.206 538.796 882.02 541.153 884.387C543.686 886.932 546.724 888.971 550.369 889.331C565.204 890.799 586.644 889.35 602.389 889.358L715.471 889.448C823.004 889.351 930.627 890.609 1038.15 889.515C1039.01 889.506 1040.19 889.479 1040.94 888.952C1042.74 891.486 1045.47 908.57 1044.9 912.008C1044.83 912.415 1044.6 912.999 1044.47 913.355C1040.12 913.355 1035.68 913.173 1031.34 913.427C1034.85 913.874 1043.77 913.005 1046.01 915.677C1046.91 916.748 1047.44 918.918 1047.49 920.301C1048.42 921.644 1050.04 923.424 1050.15 925.082C1059.4 925.779 1128.83 926.45 1132.16 924.549C1135.74 925.421 1208.8 925.221 1213.86 924.498C1236.24 925.392 1258.79 924.88 1281.19 924.817C1289.55 924.794 1299.16 923.732 1307.37 924.757C1310.12 925.1 1313.69 926.037 1315.55 928.198C1316.73 929.567 1316.82 930.356 1316.75 932.091C1315.39 934.696 1313.46 936.011 1310.7 936.963C1303.54 939.432 1241.6 937.818 1229.03 937.804L1040.95 937.825L463.754 938.687L220.484 938.811L150.008 938.567C141.331 938.54 132.525 939.042 123.878 938.794C121.571 938.727 119.036 938.367 116.97 937.302C115.095 936.335 113.29 934.459 112.708 932.387C112.359 931.146 112.463 930.109 113.153 929.008C114.505 926.85 117.922 926.098 120.286 925.713C130.656 924.024 143.327 925.338 153.861 925.542C150.912 917.37 147.339 909.447 144.604 901.189Q141.305 891.007 138.53 880.67Q135.756 870.333 133.512 859.867Q131.269 849.402 129.563 838.835Q127.857 828.269 126.692 817.629Q125.431 806.555 124.843 795.426Q124.254 784.296 124.341 773.151Q124.427 762.006 125.188 750.887Q125.949 739.768 127.381 728.715C127.883 724.879 128.246 717.681 130.586 714.734L132.287 714.918C132.432 708.077 130.773 690.546 132.973 685.083L267.131 684.888C259.796 672.661 261.271 662.58 263.637 649.126Z"/>
	<path fill="#E7E7EA" transform="matrix(1.2643 0 0 1.26465 0.00012207 -6.10352e-05)" d="M208.874 788.187C211.067 788.442 212.739 788.332 214.559 789.684C217.686 809.354 219.224 829.21 224.246 848.566C221.495 848.711 218.621 848.666 215.96 849.419C209.875 849.698 203.685 849.511 197.587 849.553C202.001 829.211 204.994 808.625 208.874 788.187Z"/>
	<path fill="#2D2D2D" transform="matrix(1.2643 0 0 1.26465 0.00012207 -6.10352e-05)" d="M391.501 897.474L416.95 908.093C423.843 910.859 431.212 912.144 438.037 914.999C439.933 915.763 440.562 916.361 441.665 918.07C441.502 920.371 441.72 923.902 440.5 925.863C427.498 926.628 414.206 926.005 401.176 925.896C390.673 925.807 379.547 926.401 369.145 925.138C367.966 923.363 368.272 920.321 368.202 918.221C368.161 914.636 368.083 911.036 368.188 907.453C368.29 903.996 368.339 901.307 371.017 898.793C374.156 900.933 377.599 903.415 381.204 904.685C383.152 905.371 385.432 905.513 387.305 904.522C390.045 903.073 390.723 900.214 391.501 897.474Z"/>
	<path fill="#2D2D2D" transform="matrix(1.2643 0 0 1.26465 0.00012207 -6.10352e-05)" d="M465.885 889.041C466.185 890.674 466.507 892.303 466.707 893.952L468.416 898.827C477.151 904.743 488.115 908.825 497.955 912.502C502.567 914.225 508.481 915.607 512.458 918.428C513.925 919.469 514.633 920.97 515.35 922.569L514.428 925.255C511.532 927.583 453.047 926.209 445.921 926.212C445.958 917.81 446.207 909.344 445.833 900.95L446.358 898.904C447.484 895.754 446.07 892.805 444.88 889.924C451.55 890.124 458.233 890.445 464.902 890.135L465.885 889.041Z"/>
	<path fill="#E49A8A" transform="matrix(1.2643 0 0 1.26465 0.00012207 -6.10352e-05)" d="M466.707 893.952L468.416 898.827C467.545 901.133 466.896 903.64 464.451 904.706C462.081 905.74 460.03 905.414 457.72 904.41C455.246 903.334 453.034 901.94 450.824 900.407C452.227 893.968 463.069 897.548 466.707 893.952Z"/>
	<path fill="#BE6A63" transform="matrix(1.2643 0 0 1.26465 0.00012207 -6.10352e-05)" d="M465.885 889.041C466.185 890.674 466.507 892.303 466.707 893.952C463.069 897.548 452.227 893.968 450.824 900.407L446.358 898.904C447.484 895.754 446.07 892.805 444.88 889.924C451.55 890.124 458.233 890.445 464.902 890.135L465.885 889.041Z"/>
	<path fill="#A9A9A9" transform="matrix(1.2643 0 0 1.26465 0.00012207 -6.10352e-05)" d="M163.424 925.902C165.591 907.498 170.194 889.462 173.244 871.208Q179.641 832.47 186.807 793.868C189.556 778.2 191.848 762.382 194.995 746.791C195.643 747.936 195.462 748.268 196.824 748.613C200.566 749.56 210.488 746.862 212.567 749.991L191.066 868.042C187.588 887.29 184.673 906.903 180.303 925.961L163.424 925.902Z"/>
	<path fill="#5D5F5D" transform="matrix(1.2643 0 0 1.26465 0.00012207 -6.10352e-05)" d="M560.566 913.128L882.867 913.298L1031.34 913.427C1034.85 913.874 1043.77 913.005 1046.01 915.677C1046.91 916.748 1047.44 918.918 1047.49 920.301C1048.42 921.644 1050.04 923.424 1050.15 925.082C1028.46 924.035 1006.39 924.753 984.668 924.926L894.668 925.15L560.794 925.301L560.566 913.128Z"/>
	<path fill="#DCDCDC" transform="matrix(1.2643 0 0 1.26465 0.00012207 -6.10352e-05)" d="M208.874 788.187C218.983 786.656 233.226 787.944 243.844 787.923L314.669 787.917C328.476 787.91 342.626 788.427 356.386 787.321C356.538 789.869 356.532 792.549 357.024 795.053C357.319 812.256 358.889 829.867 360.947 846.949L360.32 848.541C354.584 850.139 326.081 848.952 318.036 848.983C284.083 849.116 249.892 850.23 215.96 849.419C218.621 848.666 221.495 848.711 224.246 848.566C219.224 829.21 217.686 809.354 214.559 789.684C212.739 788.332 211.067 788.442 208.874 788.187Z"/>
	<path fill="#DCDCDC" transform="matrix(1.2643 0 0 1.26465 0.00012207 -6.10352e-05)" d="M330.656 714.532C339.512 717.643 347.951 721.703 356.714 725.012C356.139 742.818 355.873 760.403 356.421 778.216C319.683 778.189 282.907 777.806 246.173 778.3C234.286 777.889 222.273 778.249 210.374 778.288C212.352 767.342 214.732 756.437 216.316 745.426L221.688 715.075L291.531 715.016C304.495 714.983 317.729 715.481 330.656 714.532Z"/>
	<path fill="#DCDCDC" transform="matrix(1.2643 0 0 1.26465 0.00012207 -6.10352e-05)" d="M153.861 925.542C150.912 917.37 147.339 909.447 144.604 901.189Q141.305 891.007 138.53 880.67Q135.756 870.333 133.512 859.867Q131.269 849.402 129.563 838.835Q127.857 828.269 126.692 817.629Q125.431 806.555 124.843 795.426Q124.254 784.296 124.341 773.151Q124.427 762.006 125.188 750.887Q125.949 739.768 127.381 728.715C127.883 724.879 128.246 717.681 130.586 714.734L132.287 714.918C154.345 716.36 177.297 715.205 199.424 715.169L197.775 727.175C196.378 733.555 195.769 740.3 194.995 746.791C191.848 762.382 189.556 778.2 186.807 793.868Q179.641 832.47 173.244 871.208C170.194 889.462 165.591 907.498 163.424 925.902L153.861 925.542Z"/>
	<path fill="#DCDCDC" transform="matrix(1.2643 0 0 1.26465 0.00012207 -6.10352e-05)" d="M196.297 859.223C208.88 857.083 233.567 858.822 247.575 858.853L361.805 858.835C362.226 863.62 362.002 875.714 364.432 879.31C366.286 879.522 368.869 879.316 370.173 880.65C370.543 886.549 371.39 892.916 371.017 898.793C368.339 901.307 368.29 903.996 368.188 907.453C368.083 911.036 368.161 914.636 368.202 918.221C368.028 920.227 368.18 923.521 367.07 925.191C354.027 926.369 340.133 925.338 326.997 925.307L247.906 925.275L184.538 925.383C188.893 903.428 191.585 881.085 196.297 859.223Z"/>
	<path fill="#4D4D4D" transform="matrix(1.2643 0 0 1.26465 0.00012207 -6.10352e-05)" d="M263.637 649.126C264.692 643.062 265.752 637.066 267.33 631.11L268.056 631.447C272.539 633.5 277.544 634.164 281.788 636.646C282.093 637.504 282.15 637.929 282.181 638.812C280.742 639.041 280.449 638.831 279.604 639.994C282.684 644.315 289.029 645.861 293.587 648.301C296.686 649.926 304.222 649.99 307.595 648.954C309.11 649.041 310.681 649.051 312.173 649.313L362.335 649.203C370.372 649.19 379.239 648.497 387.195 649.478C401.316 659.709 414.571 670.92 424.223 685.653C429.885 695.101 435.103 704.416 438.034 715.116C443.21 733.673 446.841 752.976 450.523 771.885Q459.418 816.663 465.822 861.864C466.67 867.926 469.074 876.497 468.2 882.448C467.259 883.436 467.021 883.578 465.72 883.992L465.885 889.041L464.902 890.135C458.233 890.445 451.55 890.124 444.88 889.924C446.07 892.805 447.484 895.754 446.358 898.904L445.833 900.95C445.797 901.112 445.757 901.272 445.724 901.434C444.157 909.057 447.04 918.839 443.769 925.958L442.834 925.718C441.846 922.85 442.109 920.889 441.665 918.07C440.562 916.361 439.933 915.763 438.037 914.999C431.212 912.144 423.843 910.859 416.95 908.093L391.501 897.474C390.723 900.214 390.045 903.073 387.305 904.522C385.432 905.513 383.152 905.371 381.204 904.685C377.599 903.415 374.156 900.933 371.017 898.793C371.39 892.916 370.543 886.549 370.173 880.65C368.869 879.316 366.286 879.522 364.432 879.31C362.002 875.714 362.226 863.62 361.805 858.835C361.331 854.959 362 850.669 360.947 846.949C358.889 829.867 357.319 812.256 357.024 795.053C357.727 789.777 356.693 783.599 356.421 778.216C355.873 760.403 356.139 742.818 356.714 725.012C347.951 721.703 339.512 717.643 330.656 714.532C314.549 705.107 278.676 696.449 267.131 684.888C259.796 672.661 261.271 662.58 263.637 649.126Z"/>
	<path fill="#CD7873" transform="matrix(1.2643 0 0 1.26465 0.00012207 -6.10352e-05)" d="M263.637 649.126C264.692 643.062 265.752 637.066 267.33 631.11L268.056 631.447C272.539 633.5 277.544 634.164 281.788 636.646C282.093 637.504 282.15 637.929 282.181 638.812C280.742 639.041 280.449 638.831 279.604 639.994C282.684 644.315 289.029 645.861 293.587 648.301C284.02 649.669 273.32 649.103 263.637 649.126Z"/>
	<path fill="#C3C3C3" transform="matrix(1.2643 0 0 1.26465 0.00012207 -6.10352e-05)" d="M364.432 879.31C374.303 879.087 384.852 879.861 394.631 878.862C393.468 879.395 392.392 879.521 391.906 880.76C390.55 884.22 389.583 893.336 391.032 896.633C391.319 897.286 391.22 897.138 391.501 897.474C390.723 900.214 390.045 903.073 387.305 904.522C385.432 905.513 383.152 905.371 381.204 904.685C377.599 903.415 374.156 900.933 371.017 898.793C371.39 892.916 370.543 886.549 370.173 880.65C368.869 879.316 366.286 879.522 364.432 879.31Z"/>
	<path fill="#878787" transform="matrix(1.2643 0 0 1.26465 0.00012207 -6.10352e-05)" d="M399.266 831.274C399.435 824.692 401.163 794.69 403.004 790.034C406.705 802.359 411.877 814.194 416.674 826.122C418.529 830.734 421.827 836.853 422.599 841.732C425.758 849.011 437.927 882.194 443.579 884.32C443.762 884.389 443.954 884.435 444.141 884.493L444.88 889.924C446.07 892.805 447.484 895.754 446.358 898.904L445.833 900.95C445.797 901.112 445.757 901.272 445.724 901.434C444.157 909.057 447.04 918.839 443.769 925.958L442.834 925.718C441.846 922.85 442.109 920.889 441.665 918.07C440.562 916.361 439.933 915.763 438.037 914.999C431.212 912.144 423.843 910.859 416.95 908.093L391.501 897.474C391.22 897.138 391.319 897.286 391.032 896.633C389.583 893.336 390.55 884.22 391.906 880.76C392.392 879.521 393.468 879.395 394.631 878.862C396.514 873.225 396.498 865.63 397.123 859.654C398.124 853.888 397.033 848.041 398.341 842.352C398.763 838.666 399.016 834.975 399.266 831.274Z"/>
	<path fill="#E7E7EA" transform="matrix(1.2643 0 0 1.26465 0.00012207 -6.10352e-05)" d="M399.266 831.274L400.136 830.962C402.089 836.069 403.501 844.109 403.467 849.57C401.902 849.599 400.713 849.497 399.192 849.136C397.911 846.993 398.341 844.816 398.341 842.352C398.763 838.666 399.016 834.975 399.266 831.274Z"/>
	<path fill="#4D4D4D" transform="matrix(1.2643 0 0 1.26465 0.00012207 -6.10352e-05)" d="M403.954 849.664C410.326 849.1 416.732 849.094 423.125 848.985L425.474 858.901C422.235 861.464 410.111 859.754 405.88 859.566L403.954 849.664Z"/>
	<path fill="#CCC" transform="matrix(1.2643 0 0 1.26465 0.00012207 -6.10352e-05)" d="M423.125 848.985C422.681 846.461 422.49 844.303 422.599 841.732C425.758 849.011 437.927 882.194 443.579 884.32C443.762 884.389 443.954 884.435 444.141 884.493L444.88 889.924C446.07 892.805 447.484 895.754 446.358 898.904L445.833 900.95C445.797 901.112 445.757 901.272 445.724 901.434C444.157 909.057 447.04 918.839 443.769 925.958L442.834 925.718C441.846 922.85 442.109 920.889 441.665 918.07C440.562 916.361 439.933 915.763 438.037 914.999C433.502 896.438 429.837 877.535 425.474 858.901L423.125 848.985Z"/>
	<path fill="#DCDCDC" transform="matrix(1.2643 0 0 1.26465 0.00012207 -6.10352e-05)" d="M397.123 859.654C400.172 859.696 403.247 859.665 406.29 859.848C410.403 875.907 414.425 891.69 416.95 908.093L391.501 897.474C391.22 897.138 391.319 897.286 391.032 896.633C389.583 893.336 390.55 884.22 391.906 880.76C392.392 879.521 393.468 879.395 394.631 878.862C396.514 873.225 396.498 865.63 397.123 859.654Z"/>
	<path fill="#2D2D2D" transform="matrix(1.2643 0 0 1.26465 0.00012207 -6.10352e-05)" d="M312.173 649.313L362.335 649.203C370.372 649.19 379.239 648.497 387.195 649.478C401.316 659.709 414.571 670.92 424.223 685.653C429.885 695.101 435.103 704.416 438.034 715.116C443.21 733.673 446.841 752.976 450.523 771.885Q459.418 816.663 465.822 861.864C466.67 867.926 469.074 876.497 468.2 882.448C467.259 883.436 467.021 883.578 465.72 883.992L465.885 889.041L464.902 890.135C458.233 890.445 451.55 890.124 444.88 889.924L444.141 884.493C443.954 884.435 443.762 884.389 443.579 884.32C437.927 882.194 425.758 849.011 422.599 841.732C421.827 836.853 418.529 830.734 416.674 826.122C411.877 814.194 406.705 802.359 403.004 790.034C401.269 784.202 402.958 774.974 403.319 768.757C404.101 755.303 405.934 724.753 402.471 712.29C396.92 692.311 357.375 670.866 339.956 662.368C331.037 658.017 321.23 654.56 312.663 649.603C312.498 649.508 312.336 649.41 312.173 649.313Z"/>
	<path fill="#A54F4B" transform="matrix(1.2643 0 0 1.26465 0.00012207 -6.10352e-05)" d="M444.141 884.493Q454.933 884.35 465.72 883.992L465.885 889.041L464.902 890.135C458.233 890.445 451.55 890.124 444.88 889.924L444.141 884.493Z"/>
	<path fill="#A9A9A9" transform="matrix(1.2643 0 0 1.26465 0.00012207 -6.10352e-05)" d="M519.248 715.05L536.385 715.044Q535.893 772.138 535.982 829.234C535.935 840.937 534.197 865.633 536.166 875.867C536.808 879.206 538.796 882.02 541.153 884.387C543.686 886.932 546.724 888.971 550.369 889.331C565.204 890.799 586.644 889.35 602.389 889.358L715.471 889.448C823.004 889.351 930.627 890.609 1038.15 889.515C1039.01 889.506 1040.19 889.479 1040.94 888.952C1042.74 891.486 1045.47 908.57 1044.9 912.008C1044.83 912.415 1044.6 912.999 1044.47 913.355C1040.12 913.355 1035.68 913.173 1031.34 913.427L882.867 913.298L560.566 913.128L560.794 925.301L560.109 925.528C554.933 925.995 517.457 926.76 515.383 925.258L515.35 922.569C514.633 920.97 513.925 919.469 512.458 918.428C508.481 915.607 502.567 914.225 497.955 912.502C488.115 908.825 477.151 904.743 468.416 898.827L466.707 893.952C466.507 892.303 466.185 890.674 465.885 889.041L465.72 883.992C467.021 883.578 467.259 883.436 468.2 882.448C469.074 876.497 466.67 867.926 465.822 861.864Q459.418 816.663 450.523 771.885C446.841 752.976 443.21 733.673 438.034 715.116C465.068 714.589 492.203 715.06 519.248 715.05Z"/>
	<path fill="#DCDCDC" transform="matrix(1.2643 0 0 1.26465 0.00012207 -6.10352e-05)" d="M438.034 715.116C465.068 714.589 492.203 715.06 519.248 715.05C519.855 757.802 519.207 800.527 519.259 843.278C519.273 855.148 517.878 881.883 520.032 892.394C520.982 897.031 524.524 902.46 527.856 905.771C535.322 913.191 544.773 913.519 554.658 913.369L560.01 913.267L560.109 925.528C554.933 925.995 517.457 926.76 515.383 925.258L515.35 922.569C514.633 920.97 513.925 919.469 512.458 918.428C508.481 915.607 502.567 914.225 497.955 912.502C488.115 908.825 477.151 904.743 468.416 898.827L466.707 893.952C466.507 892.303 466.185 890.674 465.885 889.041L465.72 883.992C467.021 883.578 467.259 883.436 468.2 882.448C469.074 876.497 466.67 867.926 465.822 861.864Q459.418 816.663 450.523 771.885C446.841 752.976 443.21 733.673 438.034 715.116Z"/>
	<path fill="#DCDCDC" transform="matrix(1.2643 0 0 1.26465 0.00012207 -6.10352e-05)" d="M352.645 320.031C391.186 292.61 378.822 256.032 383.577 217.276C386.219 195.747 393.338 175.755 403.874 156.904C425.301 118.57 463.841 91.6003 505.685 79.8998C561.587 64.2685 613.644 75.8743 663.3 103.849C664.032 109.557 663.749 115.46 663.746 121.208L587.225 121.523C574.531 121.466 552.674 119.827 540.939 122.043C536.195 122.939 531.083 125.679 527.63 129.04C518.898 137.543 519.631 148.531 519.634 159.745L519.372 685.713L536.48 685.712L554.938 685.735L554.609 715.015L536.385 715.044L519.248 715.05C492.203 715.06 465.068 714.589 438.034 715.116C435.103 704.416 429.885 695.101 424.223 685.653C414.571 670.92 401.316 659.709 387.195 649.478C379.239 648.497 370.372 649.19 362.335 649.203L312.173 649.313C310.681 649.051 309.11 649.041 307.595 648.954C304.222 649.99 296.686 649.926 293.587 648.301C289.029 645.861 282.684 644.315 279.604 639.994C280.449 638.831 280.742 639.041 282.181 638.812C282.15 637.929 282.093 637.504 281.788 636.646C277.544 634.164 272.539 633.5 268.056 631.447L267.33 631.11C265.752 637.066 264.692 643.062 263.637 649.126C261.271 662.58 259.796 672.661 267.131 684.888L132.973 685.083C137.339 674.522 139.574 662.951 142.838 652.002C148.121 634.279 155.208 616.389 163.606 599.916C176.002 575.601 191.783 553.536 206.074 530.38C218.335 510.512 229.578 488.876 238.574 467.354C212.035 465.708 184.329 467.044 157.687 467.092L157.701 413.554C191.732 412.615 226.073 413.385 260.131 413.534C273.258 384.454 291.432 360.514 317.922 342.467C328.997 334.923 340.748 328.4 351.605 320.537C344.274 318.93 329.874 320.582 321.519 320.661C300.211 320.86 278.799 320.889 257.493 320.574C256.973 313.27 257.231 305.799 257.198 298.472C288.614 297.354 321.085 298.46 352.622 298.43C352.84 305.653 352.891 312.808 352.645 320.031Z"/>
	<path fill="#A54F4B" transform="matrix(1.2643 0 0 1.26465 0.00012207 -6.10352e-05)" d="M365.061 512.693C375.248 522.13 379.086 536.211 383.305 549.026Q371.555 549.825 359.808 548.993L364.139 548.013C366.511 544.253 363.176 529.914 362.809 524.874C362.511 520.767 362.229 516.003 365.061 512.693Z"/>
	<path fill="#4D4D4D" transform="matrix(1.2643 0 0 1.26465 0.00012207 -6.10352e-05)" d="M519.372 685.713L536.48 685.712L554.938 685.735L554.609 715.015L536.385 715.044L519.248 715.05C492.203 715.06 465.068 714.589 438.034 715.116C435.103 704.416 429.885 695.101 424.223 685.653L519.372 685.713Z"/>
	<path fill="#4D4D4D" transform="matrix(1.2643 0 0 1.26465 0.00012207 -6.10352e-05)" d="M303.219 430.582C301.488 429.42 299.728 428.25 298.102 426.942C293.606 423.327 290.312 417.73 289.718 411.965C289.07 405.677 291.205 399.032 295.277 394.215C298.645 390.23 303.307 387.566 308.577 387.268C312.525 387.044 316.57 388.222 319.47 390.989C325.116 396.377 324.927 404.076 324.91 411.258Q327.573 411.066 330.242 411.138Q332.911 411.21 335.56 411.543Q338.208 411.877 340.812 412.47Q343.415 413.064 345.947 413.91C353.559 416.511 360.344 421.23 363.926 428.616C369.185 439.46 366.048 450.374 362.259 461.038C358.858 471.685 358.844 484.102 347.838 490.259C344.99 491.853 341.462 492.281 338.289 492.89L338.354 499.888L338.65 500.465L337.522 505.019C336.537 506.496 335.397 508.039 333.943 509.078C330.416 511.598 325.756 512.237 321.547 511.453C317.781 510.751 314.281 508.901 312.156 505.631C310.379 502.897 310.357 500.802 310.913 497.672C314.029 491.456 314.919 483.948 318.557 478.146C314.015 474.651 310.65 470.041 307.902 465.04C301.66 453.678 299.653 443.098 303.219 430.582Z"/>
	<path fill="#C3C3C3" transform="matrix(1.2643 0 0 1.26465 0.00012207 -6.10352e-05)" d="M327.939 450.188C336.436 445.194 344.514 441.013 351.466 433.838C359.085 443.049 361.669 449.156 362.259 461.038C358.858 471.685 358.844 484.102 347.838 490.259C344.99 491.853 341.462 492.281 338.289 492.89L338.354 499.888L338.65 500.465L337.522 505.019C336.537 506.496 335.397 508.039 333.943 509.078C330.416 511.598 325.756 512.237 321.547 511.453C317.781 510.751 314.281 508.901 312.156 505.631C310.379 502.897 310.357 500.802 310.913 497.672C314.029 491.456 314.919 483.948 318.557 478.146C319.728 475.181 319.295 471.016 319.173 467.864C317.723 467.21 316.189 466.553 314.953 465.534C313.349 464.21 312.147 461.936 312.084 459.839C312.016 457.603 312.783 456.496 314.214 454.995C315.838 454.733 316.226 454.584 317.653 455.382C320.35 456.888 320.898 460.454 321.677 463.207C324.559 460.205 325.932 454.072 327.939 450.188Z"/>
	<path fill="#9A9A9A" transform="matrix(1.2643 0 0 1.26465 0.00012207 -6.10352e-05)" d="M329.396 497.064C326.75 492.957 325.541 489.307 324.734 484.516L325.503 485.182C328.144 487.448 337.433 491.879 337.796 495.106C337.928 496.284 337.762 497.672 337.683 498.848L338.354 499.888L338.65 500.465L337.522 505.019C334.996 502.255 331.981 499.838 329.396 497.064Z"/>
	<path fill="#878787" transform="matrix(1.2643 0 0 1.26465 0.00012207 -6.10352e-05)" d="M383.305 549.026C401.466 548.288 419.763 548.615 437.942 548.535C448.535 548.489 460.55 547.407 470.992 548.986C472.853 549.267 473.928 549.612 475.295 550.949C475.604 551.251 475.89 551.578 476.176 551.902C470.971 573.191 464.664 594.169 459.579 615.511C457.834 622.835 455.692 630.506 454.614 637.952C459.089 637.908 472.537 636.308 475.593 638.926C475.438 640.661 475.495 641.77 474.032 643.005C472.562 644.248 470.118 644.701 468.257 644.9C460.358 645.741 451.77 645.162 443.809 645.199Q416.551 645.275 389.293 645.056L387.195 649.478C379.239 648.497 370.372 649.19 362.335 649.203L312.173 649.313C310.681 649.051 309.11 649.041 307.595 648.954C304.222 649.99 296.686 649.926 293.587 648.301C289.029 645.861 282.684 644.315 279.604 639.994C280.449 638.831 280.742 639.041 282.181 638.812Q293.908 638.945 305.633 638.714C309.899 638.808 313.972 638.87 318.204 638.175L324.133 638.005Q325.475 637.881 326.814 637.725C329.572 637.38 330.076 636.971 331.717 634.841C332.295 631.003 333.605 627.051 334.554 623.273L347.265 577.693C349.382 570.193 351.053 560.639 354.752 553.806C356.016 551.471 357.596 550.33 359.808 548.993Q371.555 549.825 383.305 549.026Z"/>
	<path fill="#E7E7EA" transform="matrix(1.2643 0 0 1.26465 0.00012207 -6.10352e-05)" d="M401.878 589.055C402.939 588.96 404.014 588.866 405.08 588.9C407.336 588.971 409.469 589.823 410.973 591.546C412.218 592.973 412.649 594.876 412.429 596.731C411.988 600.442 409.694 602.26 406.956 604.388C405.892 604.627 404.755 604.907 403.661 604.926C401.938 604.955 399.999 604.053 398.816 602.822C397.315 601.262 396.876 599.143 397.027 597.037C397.292 593.343 399.253 591.321 401.878 589.055Z"/>
	<path fill="#4D4D4D" transform="matrix(1.2643 0 0 1.26465 0.00012207 -6.10352e-05)" d="M383.305 549.026C401.466 548.288 419.763 548.615 437.942 548.535C448.535 548.489 460.55 547.407 470.992 548.986C472.853 549.267 473.928 549.612 475.295 550.949C475.604 551.251 475.89 551.578 476.176 551.902C462.378 552.279 363.907 550.255 358.525 553.306C353.113 561.693 336.838 624.715 333.579 637.974C330.411 638.125 327.301 638.117 324.133 638.005Q325.475 637.881 326.814 637.725C329.572 637.38 330.076 636.971 331.717 634.841C332.295 631.003 333.605 627.051 334.554 623.273L347.265 577.693C349.382 570.193 351.053 560.639 354.752 553.806C356.016 551.471 357.596 550.33 359.808 548.993Q371.555 549.825 383.305 549.026Z"/>
	<path fill="#2D2D2D" transform="matrix(1.2643 0 0 1.26465 0.00012207 -6.10352e-05)" d="M454.614 637.952C459.089 637.908 472.537 636.308 475.593 638.926C475.438 640.661 475.495 641.77 474.032 643.005C472.562 644.248 470.118 644.701 468.257 644.9C460.358 645.741 451.77 645.162 443.809 645.199Q416.551 645.275 389.293 645.056L387.195 649.478C379.239 648.497 370.372 649.19 362.335 649.203L312.173 649.313C310.681 649.051 309.11 649.041 307.595 648.954C304.222 649.99 296.686 649.926 293.587 648.301C289.029 645.861 282.684 644.315 279.604 639.994C280.449 638.831 280.742 639.041 282.181 638.812Q293.908 638.945 305.633 638.714C309.899 638.808 313.972 638.87 318.204 638.175L324.133 638.005C327.301 638.117 330.411 638.125 333.579 637.974C373.892 639.123 414.287 637.231 454.614 637.952Z"/>
	<path fill="#BE6A63" transform="matrix(1.2643 0 0 1.26465 0.00012207 -6.10352e-05)" d="M307.595 648.954C307.554 647.696 307.628 646.446 307.688 645.19C310.82 644.033 379.911 645.064 389.293 645.056L387.195 649.478C379.239 648.497 370.372 649.19 362.335 649.203L312.173 649.313C310.681 649.051 309.11 649.041 307.595 648.954Z"/>
	<path fill="#BE6A63" transform="matrix(1.2643 0 0 1.26465 0.00012207 -6.10352e-05)" d="M310.913 497.672C310.357 500.802 310.379 502.897 312.156 505.631C314.281 508.901 317.781 510.751 321.547 511.453C325.756 512.237 330.416 511.598 333.943 509.078C335.397 508.039 336.537 506.496 337.522 505.019L338.65 500.465C348.082 503.761 356.93 506.673 365.061 512.693C362.229 516.003 362.511 520.767 362.809 524.874C363.176 529.914 366.511 544.253 364.139 548.013L359.808 548.993C357.596 550.33 356.016 551.471 354.752 553.806C351.053 560.639 349.382 570.193 347.265 577.693L334.554 623.273C333.605 627.051 332.295 631.003 331.717 634.841C330.076 636.971 329.572 637.38 326.814 637.725Q325.475 637.881 324.133 638.005L318.204 638.175C313.972 638.87 309.899 638.808 305.633 638.714Q293.908 638.945 282.181 638.812C282.15 637.929 282.093 637.504 281.788 636.646C277.544 634.164 272.539 633.5 268.056 631.447L267.33 631.11L267.267 630.372C260.36 624.603 238.995 626.471 233.052 619.376C231.249 617.224 231.107 613.993 231.28 611.307C232.408 593.803 253.884 548.307 263.448 532.341C269.006 523.063 275.641 513.31 283.723 506.099C291.101 500.147 301.868 499.138 310.913 497.672Z"/>
	<path fill="#CD7873" transform="matrix(1.2643 0 0 1.26465 0.00012207 -6.10352e-05)" d="M283.723 506.099C291.6 508.741 297.198 511.244 301.055 518.99Q301.697 520.253 302.249 521.557Q301.382 526.622 300.716 531.717C300.856 540.364 280.174 584.605 274.56 592.091L274.71 601.741C284.181 606.173 316.632 617.556 321.59 623.822C325.074 622.718 330.652 621.127 334.053 622.924C334.233 623.019 334.387 623.156 334.554 623.273C333.605 627.051 332.295 631.003 331.717 634.841C330.076 636.971 329.572 637.38 326.814 637.725Q325.475 637.881 324.133 638.005L318.204 638.175C313.972 638.87 309.899 638.808 305.633 638.714Q293.908 638.945 282.181 638.812C282.15 637.929 282.093 637.504 281.788 636.646C277.544 634.164 272.539 633.5 268.056 631.447L267.33 631.11L267.267 630.372C260.36 624.603 238.995 626.471 233.052 619.376C231.249 617.224 231.107 613.993 231.28 611.307C232.408 593.803 253.884 548.307 263.448 532.341C269.006 523.063 275.641 513.31 283.723 506.099Z"/>
	<path fill="#E7E7EA" transform="matrix(1.2643 0 0 1.26465 0.00012207 -6.10352e-05)" d="M273.404 586.682C273.853 590.839 275.415 596.862 272.801 600.384C271.267 600.781 269.997 600.387 268.498 600.046L273.404 586.682Z"/>
	<path fill="#A54F4B" transform="matrix(1.2643 0 0 1.26465 0.00012207 -6.10352e-05)" d="M274.1 579.664L274.43 584.494L273.404 586.682L268.498 600.046C266.654 599.19 265.423 598.874 264.212 597.148C264.311 591.028 270.385 584.266 274.1 579.664Z"/>
	<path fill="#A54F4B" transform="matrix(1.2643 0 0 1.26465 0.00012207 -6.10352e-05)" d="M267.267 630.372C271.632 628.278 299.691 636.749 305.633 638.714Q293.908 638.945 282.181 638.812C282.15 637.929 282.093 637.504 281.788 636.646C277.544 634.164 272.539 633.5 268.056 631.447L267.33 631.11L267.267 630.372Z"/>
	<path fill="#A54F4B" transform="matrix(1.2643 0 0 1.26465 0.00012207 -6.10352e-05)" d="M300.716 531.717C300.856 540.364 280.174 584.605 274.56 592.091L274.43 584.494L274.1 579.664C283.944 564.409 293.657 548.493 300.716 531.717Z"/>
	<path fill="#C3C3C3" transform="matrix(1.2643 0 0 1.26465 0.00012207 -6.10352e-05)" d="M321.59 623.822C325.074 622.718 330.652 621.127 334.053 622.924C334.233 623.019 334.387 623.156 334.554 623.273C333.605 627.051 332.295 631.003 331.717 634.841C330.076 636.971 329.572 637.38 326.814 637.725Q325.475 637.881 324.133 638.005L318.204 638.175C316.245 638.036 313.543 638.449 312.172 637.064L312.604 635.458C313.567 633.298 314.52 631.112 315.678 629.048C317.296 626.162 318.438 624.731 321.59 623.822Z"/>
	<path fill="#E49A8A" transform="matrix(1.2643 0 0 1.26465 0.00012207 -6.10352e-05)" d="M312.604 635.458L313.478 636.168C319.356 635.407 325.813 634.078 331.717 634.841C330.076 636.971 329.572 637.38 326.814 637.725Q325.475 637.881 324.133 638.005L318.204 638.175C316.245 638.036 313.543 638.449 312.172 637.064L312.604 635.458Z"/>
	<path fill="#E7E7EA" transform="matrix(1.2643 0 0 1.26465 0.00012207 -6.10352e-05)" d="M663.3 103.849C663.304 103.701 663.303 103.552 663.312 103.405C663.639 98.0837 665.802 93.322 669.854 89.8032C672.504 87.502 675.547 86.1841 679.041 85.8555C690.872 84.7426 703.33 85.4643 715.223 85.4706L781.849 85.4896L871.61 85.5063C889.388 85.5129 907.361 84.9748 925.103 86.0127C928.433 86.203 931.274 86.7425 933.626 89.3152C935.07 90.8953 935.894 92.9775 936.39 95.0287C935.986 103.042 936.145 111.085 936.191 119.107L927.58 119.106Q927.778 130.572 927.756 142.04L1015.83 141.631C1027.48 141.621 1043.94 140.186 1055.13 142.381C1059.32 143.204 1062.78 145.641 1065.9 148.452C1069.59 151.795 1069.4 161.458 1069.48 166.111C1069.77 183.785 1069.39 201.487 1069.5 219.166L1069.86 444.457L1069.84 614.577C1069.93 656.86 1070.55 699.109 1069.76 741.393C1069.71 744.386 1070.28 747.372 1068.07 749.68C1072.55 755.55 1080.3 777.973 1079.86 785.522C1079.82 786.209 1079.6 786.712 1079.33 787.334C1083.67 787.365 1088.64 787.877 1092.88 786.997L1093.47 786.416C1093.56 786.256 1093.67 786.102 1093.75 785.936C1095.31 782.766 1095.61 777.912 1094.41 774.603C1094.89 774.116 1094.98 774.077 1095.36 773.401C1096.91 770.644 1104.16 717.493 1103.41 714.56L1108.16 717.28L1108.98 717.226C1112.53 716.004 1116.03 714.778 1119.45 713.207C1120.16 714.534 1120.45 715.746 1120.55 717.244C1121.04 724.499 1121.42 780.67 1120.08 785.073C1119.91 785.615 1119.62 786.164 1119.33 786.655C1126.6 786.606 1158.34 784.6 1163.44 788.264C1167.06 794.588 1167.07 809.189 1164.88 816.014C1164.49 817.251 1164.05 818.815 1162.79 819.406C1160.03 820.69 1154.81 820.016 1151.69 820.395C1152.65 824.475 1139.45 916.321 1137.25 920.139C1136 922.298 1134.37 923.496 1132.16 924.549C1128.83 926.45 1059.4 925.779 1050.15 925.082C1050.04 923.424 1048.42 921.644 1047.49 920.301C1047.44 918.918 1046.91 916.748 1046.01 915.677C1043.77 913.005 1034.85 913.874 1031.34 913.427C1035.68 913.173 1040.12 913.355 1044.47 913.355C1044.6 912.999 1044.83 912.415 1044.9 912.008C1045.47 908.57 1042.74 891.486 1040.94 888.952C1040.19 889.479 1039.01 889.506 1038.15 889.515C930.627 890.609 823.004 889.351 715.471 889.448L602.389 889.358C586.644 889.35 565.204 890.799 550.369 889.331C546.724 888.971 543.686 886.932 541.153 884.387C538.796 882.02 536.808 879.206 536.166 875.867C534.197 865.633 535.935 840.937 535.982 829.234Q535.893 772.138 536.385 715.044L554.609 715.015L554.938 685.735L536.48 685.712L519.372 685.713L519.634 159.745C519.631 148.531 518.898 137.543 527.63 129.04C531.083 125.679 536.195 122.939 540.939 122.043C552.674 119.827 574.531 121.466 587.225 121.523L663.746 121.208C663.749 115.46 664.032 109.557 663.3 103.849Z"/>
	<path fill="#CCC" transform="matrix(1.2643 0 0 1.26465 0.00012207 -6.10352e-05)" d="M1046.2 718.639C1048.72 720.177 1052.05 724.501 1052.72 727.371C1052.75 727.502 1052.76 727.636 1052.77 727.769C1052.35 728.521 1052.52 728.31 1051.82 729.087C1045.72 735.86 1033.35 736.722 1024.79 737.072C1010.67 737.649 997.431 734.132 986.841 724.427C987.845 724.013 988.26 723.884 989.362 724.096C991.287 724.466 993.461 725.707 995.344 726.368Q997.474 727.131 999.662 727.707Q1001.85 728.284 1004.08 728.67Q1006.31 729.057 1008.56 729.25Q1010.82 729.443 1013.08 729.442C1025.32 729.424 1034.28 723.196 1045.57 719.888L1046.2 718.639Z"/>
	<path fill="#A54F4B" transform="matrix(1.2643 0 0 1.26465 0.00012207 -6.10352e-05)" d="M682.888 268.978C694.749 259.225 709.562 241.993 721.623 234.345Q709.747 247.509 698.305 261.052C694.545 265.443 690.735 270.988 686.286 274.623C679.151 281.353 664.484 302.273 657.899 305.326L650.418 297.902L659.005 289.922C667.006 283.021 675.219 276.248 682.888 268.978Z"/>
	<path fill="#CCC" transform="matrix(1.2643 0 0 1.26465 0.00012207 -6.10352e-05)" d="M729.922 634.722C772.776 634.218 815.728 634.316 858.585 634.596C874.963 634.704 891.677 633.624 908.004 634.451C910.35 634.57 913.768 634.775 915.846 635.922C917.463 636.816 917.611 637.663 917.982 639.365C917.365 641.276 916.594 642.275 915.162 643.667C902.845 643.86 731.713 644.242 730.719 643.754C728.858 642.84 728.459 641.802 727.802 640.01C727.983 637.754 728.628 636.556 729.922 634.722Z"/>
	<path fill="#DCDCDC" transform="matrix(1.2643 0 0 1.26465 0.00012207 -6.10352e-05)" d="M731.079 781.068C774.43 780.514 817.849 780.864 861.209 780.814C872.068 780.802 905.337 779.454 914.302 781.375C915.689 782.468 916.448 782.948 916.575 784.901C916.718 787.105 915.485 788.611 914.106 790.155C881.927 791.005 849.56 790.256 817.364 790.274C790.483 790.29 763.351 791.201 736.509 790.346C734.6 790.285 731.98 790.399 730.315 789.334C728.874 788.411 728.657 787.732 728.207 786.132C728.584 783.781 729.495 782.795 731.079 781.068Z"/>
	<path fill="#DCDCDC" transform="matrix(1.2643 0 0 1.26465 0.00012207 -6.10352e-05)" d="M730.573 487.628C747.463 487.591 913.059 486.943 917.25 488.956C918.377 490.3 918.992 491.037 918.95 492.867C918.907 494.775 917.747 496.089 916.446 497.329C880.357 498.393 844.01 497.459 807.893 497.513L758.29 497.73C750.837 497.781 743.215 498.298 735.785 498.004C733.744 497.923 731.082 497.507 729.354 496.336C727.732 495.237 727.641 494.23 727.304 492.479C727.875 490.147 728.784 489.181 730.573 487.628Z"/>
	<path fill="#DCDCDC" transform="matrix(1.2643 0 0 1.26465 0.00012207 -6.10352e-05)" d="M731.402 334.96C743.699 334.545 756.149 334.961 768.463 334.974L838.727 334.948L887.123 334.878C894.994 334.852 903.219 334.244 911.056 334.8C912.965 334.935 915.596 335.546 917.131 336.753C918.639 337.939 918.593 338.891 918.69 340.612C917.766 342.66 916.789 343.603 914.982 344.912C905.383 345.57 895.367 344.987 885.712 344.96L832.472 344.977L773.898 345.088C762.206 345.196 750.263 345.872 738.588 345.345C735.982 345.227 732.421 344.864 730.162 343.483C728.479 342.453 728.372 341.553 728.048 339.801C728.741 337.584 729.706 336.514 731.402 334.96Z"/>
	<path fill="#DCDCDC" transform="matrix(1.2643 0 0 1.26465 0.00012207 -6.10352e-05)" d="M1011.63 299.385C1013.25 299.372 1015.2 299.317 1016.65 300.166C1018.23 301.102 1018.81 302.452 1019.34 304.126C1019.12 305.292 1019.24 305.762 1018.37 306.647C1017.09 307.96 1015.48 308.117 1013.73 308.223C1002.7 308.888 991.472 308.487 980.415 308.485L922.511 308.469Q828.069 307.876 733.63 308.83C732.445 308.821 731.06 308.694 729.954 308.236C728.208 307.512 727.728 306.64 726.937 305.014C727.047 303.805 726.886 303.058 727.722 302.103C729.091 300.538 731.321 300.242 733.28 300.032C739.025 299.416 745.569 300.28 751.429 300.22Q779.705 299.794 807.983 299.961L919.93 299.829Q965.782 300.073 1011.63 299.385Z"/>
	<path fill="#DCDCDC" transform="matrix(1.2643 0 0 1.26465 0.00012207 -6.10352e-05)" d="M730.339 259.299Q828.087 260.265 925.84 259.976L982.396 259.92C993.427 259.873 1005.38 258.882 1016.28 260.483C1017.18 260.614 1017.72 260.816 1018.32 261.525C1019.64 263.075 1019.6 263.938 1019.44 265.809C1017.98 267.688 1017.57 267.906 1015.34 268.78C999.094 268.992 982.858 268.393 966.611 268.471Q886.609 269.159 806.607 268.642C782.627 268.443 758.389 269.696 734.46 268.948C732.168 268.877 730.305 268.319 728.365 267.101C727.581 265.947 727.061 265.501 727.154 264.003C727.282 261.94 728.874 260.546 730.339 259.299Z"/>
	<path fill="#DCDCDC" transform="matrix(1.2643 0 0 1.26465 0.00012207 -6.10352e-05)" d="M911.154 410.798C933.911 410.348 956.765 410.937 979.534 410.968C989.277 410.982 1005.46 409.203 1014.47 411.436C1017.08 412.081 1019.23 413.009 1020.61 415.376C1020.44 416.24 1020.44 416.498 1019.77 417.165C1017.66 419.292 1013.59 420.016 1010.68 420.244C1005.18 420.675 999.45 420.135 993.926 420.119L956.325 420.158L834.113 420.216Q798.024 420.073 761.935 420.321C753.502 420.356 739.015 421.697 731.09 419.896C728.763 419.367 728.064 418.293 726.99 416.373C727.188 414.296 727.332 414.039 728.635 412.399C730.835 411.276 732.979 411.083 735.405 410.987C753.504 410.264 772.036 411.087 790.184 411.09Q850.67 411.263 911.154 410.798Z"/>
	<path fill="#DCDCDC" transform="matrix(1.2643 0 0 1.26465 0.00012207 -6.10352e-05)" d="M729.502 449.73C743.508 448.936 757.84 449.524 771.879 449.529L849.343 449.568L954.282 449.59C972.86 449.575 991.548 449.083 1010.11 449.581C1012.25 449.638 1016.04 449.688 1017.79 451.043C1019.32 452.228 1019.3 453.187 1019.51 454.934C1018.62 457.044 1018.27 457.385 1016.43 458.783C946.729 459.835 876.952 459.223 807.239 459.291C797.117 459.301 737.112 460.606 732.121 458.774C729.651 457.867 728.699 456.471 727.778 454.199C727.904 452.232 728.29 451.282 729.502 449.73Z"/>
	<path fill="#DCDCDC" transform="matrix(1.2643 0 0 1.26465 0.00012207 -6.10352e-05)" d="M990.862 596.39C999.28 596.333 1009.77 595.209 1017.96 597.287C1019.24 598.478 1019.93 599.416 1020.15 601.233C1020.36 602.996 1019.73 603.899 1018.75 605.256C1016.42 606.363 1013.94 606.503 1011.4 606.61C984.895 607.725 957.879 606.538 931.307 606.555L756.036 606.714C748.334 606.938 737.863 608.46 730.625 605.798C728.466 605.004 727.477 604.253 726.551 602.212C726.791 601.609 727.001 601.032 727.42 600.524C729.531 597.967 734.648 597.162 737.806 596.941C746.51 596.332 755.553 596.839 764.301 596.822L819.09 596.785L990.862 596.39Z"/>
	<path fill="#DCDCDC" transform="matrix(1.2643 0 0 1.26465 0.00012207 -6.10352e-05)" d="M730.931 558.371C804.246 560.12 877.804 558.569 951.15 558.767L993.347 558.812C999.591 558.784 1005.96 558.301 1012.19 558.514C1014.37 558.588 1017.48 559.352 1018.91 561.126C1019.75 562.158 1020.11 563.134 1019.9 564.459C1019.6 566.389 1018.05 567.598 1016.63 568.74C1003.6 569.204 990.436 568.785 977.396 568.77L901.527 568.772L785.672 568.77C768.753 568.741 751.698 569.277 734.795 568.862C732.998 568.818 730.633 569.004 729.183 567.8C728.106 566.906 727.603 565.828 727.527 564.446C727.388 561.919 729.332 560.065 730.931 558.371Z"/>
	<path fill="#DCDCDC" transform="matrix(1.2643 0 0 1.26465 0.00012207 -6.10352e-05)" d="M1021.07 745.554L1033.75 745.216C1033.96 745.632 1034.02 745.704 1034.15 746.227C1034.84 749.161 1034.5 753.825 1032.98 756.442L741.332 755.715C738.373 755.778 735.278 755.946 732.343 755.493C729.982 755.13 729.084 754.42 727.763 752.542C727.587 750.574 727.615 749.676 728.626 747.956C730.229 746.657 732.131 746.602 734.122 746.507C753.921 745.564 774.156 746.644 794.009 746.526L955.213 746.309C977.153 746.16 999.142 746.402 1021.07 745.554Z"/>
	<path fill="#DCDCDC" transform="matrix(1.2643 0 0 1.26465 0.00012207 -6.10352e-05)" d="M1008.18 678.252L1012.97 682.724C1017.01 685.049 1030.72 696.672 1032.04 700.414C1033.46 701.227 1034.93 701.759 1035.26 703.59C1035.31 703.922 1035.3 704.262 1035.32 704.598C1038.49 706.537 1045.24 714.422 1046.13 718.048C1046.17 718.24 1046.18 718.442 1046.2 718.639L1045.57 719.888C1034.28 723.196 1025.32 729.424 1013.08 729.442Q1010.82 729.443 1008.56 729.25Q1006.31 729.057 1004.08 728.67Q1001.85 728.284 999.662 727.707Q997.474 727.131 995.344 726.368C993.461 725.707 991.287 724.466 989.362 724.096C988.26 723.884 987.845 724.013 986.841 724.427C983.752 722.102 981.31 718.275 978.912 715.237Q904.314 716.02 829.712 715.797L766.488 716.155C756.595 716.2 746.559 716.708 736.681 716.315C734.093 716.212 731.762 716.149 729.455 714.865C728.23 713.286 728.114 712.992 727.911 711.003C728.247 710.022 728.518 709.114 729.261 708.357C730.455 707.14 731.967 706.507 733.647 706.377C741.056 705.806 749.231 706.598 756.714 706.641L806.008 706.705L972.683 706.538Q968.211 696.506 963.557 686.558L962.251 684.588C969.71 679.205 998.253 678.9 1008.18 678.252Z"/>
	<path fill="#B8B8B8" transform="matrix(1.2643 0 0 1.26465 0.00012207 -6.10352e-05)" d="M1032.04 700.414C1033.46 701.227 1034.93 701.759 1035.26 703.59C1035.31 703.922 1035.3 704.262 1035.32 704.598C1016.42 707.446 998.353 713.234 979.193 715.141C990.688 710.846 1002.72 708.075 1014.61 705.096C1019.83 703.788 1027.46 702.976 1032.04 700.414Z"/>
	<path fill="#B8B8B8" transform="matrix(1.2643 0 0 1.26465 0.00012207 -6.10352e-05)" d="M1008.18 678.252L1012.97 682.724Q1000.56 682.816 988.196 683.775Q975.828 684.735 963.557 686.558L962.251 684.588C969.71 679.205 998.253 678.9 1008.18 678.252Z"/>
	<path fill="#DCDCDC" transform="matrix(1.2643 0 0 1.26465 0.00012207 -6.10352e-05)" d="M932.309 634.157C961.322 624.779 995.61 633.208 1021.94 646.714C1038.6 655.259 1056.19 672.03 1061.91 690.363C1065.25 701.041 1064.42 710.231 1059.2 719.96C1058.22 721.787 1056.93 723.686 1056.18 725.603L1055.49 724.993C1054.56 726.204 1054.09 727.035 1053.63 728.488L1052.77 727.769C1052.76 727.636 1052.75 727.502 1052.72 727.371C1052.05 724.501 1048.72 720.177 1046.2 718.639C1046.18 718.442 1046.17 718.24 1046.13 718.048C1045.24 714.422 1038.49 706.537 1035.32 704.598C1035.3 704.262 1035.31 703.922 1035.26 703.59C1034.93 701.759 1033.46 701.227 1032.04 700.414C1030.72 696.672 1017.01 685.049 1012.97 682.724L1008.18 678.252C998.253 678.9 969.71 679.205 962.251 684.588C952.502 667.596 942.175 651.061 932.309 634.157Z"/>
	<path fill="#B8B8B8" transform="matrix(1.2643 0 0 1.26465 0.00012207 -6.10352e-05)" d="M1010.85 676.563C1008.74 665.883 1008.44 655.975 1009.55 645.18C1010.93 656.43 1011.8 668.354 1014.3 679.381C1012.77 678.586 1011.94 677.88 1010.85 676.563Z"/>
	<path fill="#B8B8B8" transform="matrix(1.2643 0 0 1.26465 0.00012207 -6.10352e-05)" d="M1033.04 658.871C1037.28 662.836 1038 668.31 1038.17 673.866C1038.36 680.186 1037.82 692.862 1034.59 698.396C1033.87 697.646 1032.75 697.007 1031.89 696.385C1035.07 691.795 1035.51 669.895 1034.41 663.625C1034.13 662 1033.6 660.419 1033.04 658.871Z"/>
	<path fill="#A9A9A9" transform="matrix(1.2643 0 0 1.26465 0.00012207 -6.10352e-05)" d="M1008.18 678.252C996.013 667.819 981.988 660.653 968.066 652.905L966.528 654.15L966.876 652.141C978.441 654.375 1001.17 669.003 1010.85 676.563C1011.94 677.88 1012.77 678.586 1014.3 679.381C1017.55 681.602 1030.92 692.987 1031.89 696.385C1032.75 697.007 1033.87 697.646 1034.59 698.396C1039.75 703.266 1053.33 718.509 1055.49 724.993C1054.56 726.204 1054.09 727.035 1053.63 728.488L1052.77 727.769C1052.76 727.636 1052.75 727.502 1052.72 727.371C1052.05 724.501 1048.72 720.177 1046.2 718.639C1046.18 718.442 1046.17 718.24 1046.13 718.048C1045.24 714.422 1038.49 706.537 1035.32 704.598C1035.3 704.262 1035.31 703.922 1035.26 703.59C1034.93 701.759 1033.46 701.227 1032.04 700.414C1030.72 696.672 1017.01 685.049 1012.97 682.724L1008.18 678.252Z"/>
	<path fill="#878787" transform="matrix(1.2643 0 0 1.26465 0.00012207 -6.10352e-05)" d="M1108.98 717.226C1112.53 716.004 1116.03 714.778 1119.45 713.207C1120.16 714.534 1120.45 715.746 1120.55 717.244C1121.04 724.499 1121.42 780.67 1120.08 785.073C1119.91 785.615 1119.62 786.164 1119.33 786.655C1126.6 786.606 1158.34 784.6 1163.44 788.264C1167.06 794.588 1167.07 809.189 1164.88 816.014C1164.49 817.251 1164.05 818.815 1162.79 819.406C1160.03 820.69 1154.81 820.016 1151.69 820.395C1150.59 819.658 1150 819.625 1148.67 819.593C1121.85 818.957 1094.88 819.693 1068.04 819.686C1059.81 819.684 1038.97 818.526 1032.38 819.888C1031.22 820.128 1031.11 820.568 1030.34 821.415L1030.4 820.051C1027.9 818.189 1024.1 819.82 1020.96 817.269C1019.16 810.15 1019.49 795.566 1020.67 788.388C1026.61 785.765 1063.29 787.174 1072.29 787.186C1072.87 786.181 1073.15 785.196 1073.23 784.039C1074.03 771.466 1062.18 738.106 1053.63 728.488C1054.09 727.035 1054.56 726.204 1055.49 724.993L1056.18 725.603C1059.87 730.748 1068.38 743.302 1068.07 749.68C1072.55 755.55 1080.3 777.973 1079.86 785.522C1079.82 786.209 1079.6 786.712 1079.33 787.334C1083.67 787.365 1088.64 787.877 1092.88 786.997L1093.47 786.416C1093.56 786.256 1093.67 786.102 1093.75 785.936C1095.31 782.766 1095.61 777.912 1094.41 774.603C1094.89 774.116 1094.98 774.077 1095.36 773.401C1096.91 770.644 1104.16 717.493 1103.41 714.56L1108.16 717.28L1108.98 717.226Z"/>
	<path fill="#5D5F5D" transform="matrix(1.2643 0 0 1.26465 0.00012207 -6.10352e-05)" d="M1103.41 714.56L1108.16 717.28C1101.85 724.365 1103.48 773.071 1098.42 785.967C1096.77 786.91 1095.3 786.589 1093.47 786.416C1093.56 786.256 1093.67 786.102 1093.75 785.936C1095.31 782.766 1095.61 777.912 1094.41 774.603C1094.89 774.116 1094.98 774.077 1095.36 773.401C1096.91 770.644 1104.16 717.493 1103.41 714.56Z"/>
	<path fill="#878787" transform="matrix(1.2643 0 0 1.26465 0.00012207 -6.10352e-05)" d="M686.286 274.623C693.112 285.119 695.255 299.388 692.93 311.581Q692.667 312.904 692.338 314.213Q692.01 315.521 691.617 316.812Q691.225 318.103 690.77 319.372Q690.314 320.642 689.796 321.888Q689.279 323.134 688.7 324.352Q688.122 325.571 687.484 326.76Q686.847 327.948 686.151 329.104Q685.455 330.26 684.704 331.38Q683.952 332.5 683.146 333.582Q682.34 334.664 681.482 335.704Q680.623 336.745 679.715 337.742Q678.806 338.739 677.85 339.69Q676.893 340.641 675.891 341.543Q674.888 342.446 673.843 343.298Q672.797 344.15 671.711 344.95Q670.624 345.749 669.5 346.494C657.754 354.243 643.654 356.644 629.93 353.668C617.186 350.904 605.94 342.623 598.932 331.692C591.129 319.522 588.332 303.77 591.57 289.676C594.63 276.356 603.219 263.625 614.902 256.42C626.446 249.302 640.864 246.708 654.089 249.884C662.074 251.801 676.692 259.157 681.139 266.355C672.839 270.832 663.479 280.011 657.29 287.16C649.188 294.72 641.143 303.848 634.347 312.598Q628.34 303.615 622.792 294.342C616.18 300.682 609.359 306.076 601.81 311.248C610.628 312.607 619.308 314.323 628.033 316.172C630.508 320.713 632.83 325.479 635.689 329.787L657.899 305.326C664.484 302.273 679.151 281.353 686.286 274.623Z"/>
	<path fill="#DCDCDC" transform="matrix(1.2643 0 0 1.26465 0.00012207 -6.10352e-05)" d="M599.686 704.203C623.414 704.111 647.108 704.312 670.835 703.971C674.115 703.923 680.571 703.748 682.991 706.343C685.145 708.653 686.067 712.495 686.479 715.57C687.471 722.965 686.75 731.295 686.748 738.78L686.778 784.414C684.359 787.649 682.269 790.067 678.295 791.422C662.724 791.673 647.134 791.505 631.559 791.612C621.454 791.682 610.89 792.365 600.845 791.605C598.737 791.446 596.815 791.301 595.007 790.095C592.604 788.494 591.521 786.669 590.918 783.869C588.627 773.236 590.633 756.41 590.548 745.097C590.476 735.546 589.199 725.427 590.186 715.966C590.454 713.394 591.149 710.322 592.665 708.198C594.436 705.715 596.807 704.791 599.686 704.203Z"/>
	<path fill="#DCDCDC" transform="matrix(1.2643 0 0 1.26465 0.00012207 -6.10352e-05)" d="M595.598 558.336C606.621 557.715 617.905 558.203 628.952 558.211C644.552 558.222 660.198 557.925 675.792 558.173C679.094 558.225 683.191 558.465 685.503 561.15C687.003 562.893 687.189 565.599 687.337 567.811C688.205 580.734 686.942 594.23 686.869 607.206C686.813 616.96 688.108 627.343 687.091 637.011C686.545 642.208 685.298 644.437 681.273 647.655C672.411 649.222 661.806 648.078 652.741 648.047Q625.015 648.129 597.292 647.731C594.165 645.829 592.344 643.946 590.392 640.91Q590.076 619.227 590.235 597.543C590.244 587.616 589.907 577.535 590.401 567.624C590.635 562.931 592.279 561.309 595.598 558.336Z"/>
	<path fill="#BE6A63" transform="matrix(1.2643 0 0 1.26465 0.00012207 -6.10352e-05)" d="M656.195 584.176L664.757 592.534C654.259 603.156 644.169 614.172 633.619 624.748C630.447 621.09 626.934 617.712 623.524 614.277L614.61 605.368C617.48 602.215 620.551 599.221 623.535 596.176C627.333 599.654 630.235 603.598 634.404 606.769C641.053 598.792 648.801 591.464 656.195 584.176Z"/>
	<path fill="#DCDCDC" transform="matrix(1.2643 0 0 1.26465 0.00012207 -6.10352e-05)" d="M595.608 406.277C613.479 405.747 631.512 406.2 649.403 406.187C658.981 406.18 669.834 405.181 679.28 406.387C682.81 406.838 684.112 409.264 686.107 411.916C687.762 428.331 686.696 445.907 686.825 462.438C686.899 471.948 688.304 488.164 686.657 497.066C686.092 500.118 683.72 501.208 681.304 502.723C665.593 503.834 649.347 503.007 633.582 503.002C621.756 502.998 608.686 504.115 597.015 502.531C595.562 502.334 593.409 502.172 592.555 500.925C590.826 498.401 590.494 493.421 590.312 490.431C589.55 477.869 590.295 464.957 590.282 452.345C590.272 442.136 588.973 420.159 590.794 411.608C591.367 408.919 593.469 407.685 595.608 406.277Z"/>
	<path fill="#BE6A63" transform="matrix(1.2643 0 0 1.26465 0.00012207 -6.10352e-05)" d="M654.923 438.226C657.856 439.316 661.952 444.419 664.324 446.655C653.383 457.534 642.511 468.652 632.209 480.139L620.192 467.862C617.197 464.935 614.139 462.066 611.114 459.17C613.856 455.973 616.759 453.001 619.75 450.036C623.629 454.106 627.743 457.993 631.751 461.939C639.362 453.934 647.164 446.087 654.923 438.226Z"/>
	<path fill="#878787" transform="matrix(1.2643 0 0 1.26465 0.00012207 -6.10352e-05)" d="M1030.34 821.415C1031.11 820.568 1031.22 820.128 1032.38 819.888C1038.97 818.526 1059.81 819.684 1068.04 819.686C1094.88 819.693 1121.85 818.957 1148.67 819.593C1150 819.625 1150.59 819.658 1151.69 820.395C1152.65 824.475 1139.45 916.321 1137.25 920.139C1136 922.298 1134.37 923.496 1132.16 924.549C1128.83 926.45 1059.4 925.779 1050.15 925.082C1050.04 923.424 1048.42 921.644 1047.49 920.301C1047.44 918.918 1046.91 916.748 1046.01 915.677C1043.77 913.005 1034.85 913.874 1031.34 913.427C1035.68 913.173 1040.12 913.355 1044.47 913.355C1044.6 912.999 1044.83 912.415 1044.9 912.008C1045.47 908.57 1042.74 891.486 1040.94 888.952C1042.32 885.042 1034.45 839.587 1032.65 834.802C1033.39 830.82 1031.87 825.109 1030.34 821.415Z"/>
	<path fill="#4D4D4D" transform="matrix(1.2643 0 0 1.26465 0.00012207 -6.10352e-05)" d="M1030.34 821.415C1031.11 820.568 1031.22 820.128 1032.38 819.888C1038.97 818.526 1059.81 819.684 1068.04 819.686C1094.88 819.693 1121.85 818.957 1148.67 819.593C1150 819.625 1150.59 819.658 1151.69 820.395C1152.65 824.475 1139.45 916.321 1137.25 920.139C1136 922.298 1134.37 923.496 1132.16 924.549C1128.83 926.45 1059.4 925.779 1050.15 925.082C1050.04 923.424 1048.42 921.644 1047.49 920.301C1049.19 921.212 1050.85 922.097 1052.8 922.302C1069.22 924.04 1091.23 913.178 1103.25 903.007C1113.25 894.54 1125.62 879.537 1126.63 865.887C1126.96 861.43 1125.67 857.374 1122.66 854.042C1110.7 840.815 1051.87 835.77 1032.65 834.802C1033.39 830.82 1031.87 825.109 1030.34 821.415Z"/>
	<path fill="#A9A9A9" transform="matrix(1.2643 0 0 1.26465 0.00012207 -6.10352e-05)" d="M663.3 103.849C663.304 103.701 663.303 103.552 663.312 103.405C663.639 98.0837 665.802 93.322 669.854 89.8032C672.504 87.502 675.547 86.1841 679.041 85.8555C690.872 84.7426 703.33 85.4643 715.223 85.4706L781.849 85.4896L871.61 85.5063C889.388 85.5129 907.361 84.9748 925.103 86.0127C928.433 86.203 931.274 86.7425 933.626 89.3152C935.07 90.8953 935.894 92.9775 936.39 95.0287C935.986 103.042 936.145 111.085 936.191 119.107L927.58 119.106Q927.778 130.572 927.756 142.04L927.799 162.275C925.466 162.163 923.107 161.968 920.772 161.983L785.559 162.219C745.357 162.17 705.062 161.654 664.87 162.499C664.863 155.715 664.816 148.954 664.513 142.175Q624.818 142.472 585.123 142.182C574.504 142.155 559.109 140.781 549.008 142.677C545.898 143.26 543.424 145.14 541.276 147.372C539.009 149.727 537.353 152.214 537.079 155.535C535.426 175.571 536.884 196.46 536.823 216.611L536.414 340.623L536.475 557.674C536.456 600.345 535.992 643.043 536.48 685.712L519.372 685.713L519.634 159.745C519.631 148.531 518.898 137.543 527.63 129.04C531.083 125.679 536.195 122.939 540.939 122.043C552.674 119.827 574.531 121.466 587.225 121.523L663.746 121.208C663.749 115.46 664.032 109.557 663.3 103.849Z"/>
	<path fill="#878787" transform="matrix(1.2643 0 0 1.26465 0.00012207 -6.10352e-05)" d="M925.103 86.0127C928.433 86.203 931.274 86.7425 933.626 89.3152C935.07 90.8953 935.894 92.9775 936.39 95.0287C935.986 103.042 936.145 111.085 936.191 119.107L927.58 119.106Q927.778 130.572 927.756 142.04L927.799 162.275C925.466 162.163 923.107 161.968 920.772 161.983L920.896 120.973C920.931 113.069 921.492 104.676 920.575 96.8273C919.937 91.3657 918.229 89.5572 914.066 86.2229C917.749 86.2941 921.423 86.1432 925.103 86.0127Z"/>
</svg>
