<svg version="1.1" viewBox="0.0 0.0 600.0 371.0" fill="none" stroke="none" stroke-linecap="square" stroke-miterlimit="10" width="600" height="371" xmlns:xlink="http://www.w3.org/1999/xlink" xmlns="http://www.w3.org/2000/svg"><path fill="#ffffff" d="M0 0L600.0 0L600.0 371.0L0 371.0L0 0Z" fill-rule="nonzero"/><path stroke="#cccccc" stroke-width="1.0" stroke-linecap="butt" d="M84.5 61.5L84.5 300.5" fill-rule="nonzero"/><path stroke="#cccccc" stroke-width="1.0" stroke-linecap="butt" d="M160.5 61.5L160.5 300.5" fill-rule="nonzero"/><path stroke="#cccccc" stroke-width="1.0" stroke-linecap="butt" d="M237.5 61.5L237.5 300.5" fill-rule="nonzero"/><path stroke="#cccccc" stroke-width="1.0" stroke-linecap="butt" d="M313.5 61.5L313.5 300.5" fill-rule="nonzero"/><path stroke="#cccccc" stroke-width="1.0" stroke-linecap="butt" d="M390.5 61.5L390.5 300.5" fill-rule="nonzero"/><path stroke="#cccccc" stroke-width="1.0" stroke-linecap="butt" d="M466.5 61.5L466.5 300.5" fill-rule="nonzero"/><path stroke="#cccccc" stroke-width="1.0" stroke-linecap="butt" d="M543.5 61.5L543.5 300.5" fill-rule="nonzero"/><path stroke="#333333" stroke-width="1.0" stroke-linecap="butt" d="M84.5 300.5L581.5 300.5" fill-rule="nonzero"/><path stroke="#cccccc" stroke-width="1.0" stroke-linecap="butt" d="M84.5 240.5L581.5 240.5" fill-rule="nonzero"/><path stroke="#cccccc" stroke-width="1.0" stroke-linecap="butt" d="M84.5 181.5L581.5 181.5" fill-rule="nonzero"/><path stroke="#cccccc" stroke-width="1.0" stroke-linecap="butt" d="M84.5 121.5L581.5 121.5" fill-rule="nonzero"/><path stroke="#cccccc" stroke-width="1.0" stroke-linecap="butt" d="M84.5 61.5L581.5 61.5" fill-rule="nonzero"/><clipPath id="id_0"><path d="M84.55 61.916668L581.45 61.916668L581.45 300.45L84.55 300.45L84.55 61.916668Z" clip-rule="nonzero"/></clipPath><path stroke="#4285f4" stroke-width="2.0" stroke-linecap="butt" clip-path="url(#id_0)" d="M84.55 298.78027L122.77308 198.35773L160.99615 116.063736L199.21924 181.06407L237.4423 238.43134L275.66537 268.248L313.88846 278.50494L352.11154 277.43152L390.33463 289.716L428.55768 289.716L466.78076 295.67932L505.00385 296.5142L543.2269 298.78027L581.45 300.33072" fill-rule="nonzero"/><path fill="#000000" fill-opacity="0.0" clip-path="url(#id_0)" d="M87.55 298.78027C87.55 300.43713 86.206856 301.78027 84.55 301.78027C82.89314 301.78027 81.55 300.43713 81.55 298.78027C81.55 297.1234 82.89314 295.78027 84.55 295.78027C86.206856 295.78027 87.55 297.1234 87.55 298.78027Z" fill-rule="nonzero"/><path fill="#000000" fill-opacity="0.0" clip-path="url(#id_0)" d="M125.77308 198.35773C125.77308 200.01459 124.42993 201.35773 122.77308 201.35773C121.11623 201.35773 119.77308 200.01459 119.77308 198.35773C119.77308 196.70088 121.11623 195.35773 122.77308 195.35773C124.42993 195.35773 125.77308 196.70088 125.77308 198.35773Z" fill-rule="nonzero"/><path fill="#000000" fill-opacity="0.0" clip-path="url(#id_0)" d="M163.99615 116.063736C163.99615 117.72059 162.65302 119.063736 160.99615 119.063736C159.3393 119.063736 157.99615 117.72059 157.99615 116.063736C157.99615 114.406876 159.3393 113.063736 160.99615 113.063736C162.65302 113.063736 163.99615 114.406876 163.99615 116.063736Z" fill-rule="nonzero"/><path fill="#000000" fill-opacity="0.0" clip-path="url(#id_0)" d="M202.21924 181.06407C202.21924 182.72092 200.87608 184.06407 199.21924 184.06407C197.56238 184.06407 196.21924 182.72092 196.21924 181.06407C196.21924 179.40721 197.56238 178.06407 199.21924 178.06407C200.87608 178.06407 202.21924 179.40721 202.21924 181.06407Z" fill-rule="nonzero"/><path fill="#000000" fill-opacity="0.0" clip-path="url(#id_0)" d="M240.4423 238.43134C240.4423 240.08818 239.09917 241.43134 237.4423 241.43134C235.78545 241.43134 234.4423 240.08818 234.4423 238.43134C234.4423 236.77448 235.78545 235.43134 237.4423 235.43134C239.09917 235.43134 240.4423 236.77448 240.4423 238.43134Z" fill-rule="nonzero"/><path fill="#000000" fill-opacity="0.0" clip-path="url(#id_0)" d="M278.66537 268.248C278.66537 269.90485 277.32224 271.248 275.66537 271.248C274.00854 271.248 272.66537 269.90485 272.66537 268.248C272.66537 266.59116 274.00854 265.248 275.66537 265.248C277.32224 265.248 278.66537 266.59116 278.66537 268.248Z" fill-rule="nonzero"/><path fill="#000000" fill-opacity="0.0" clip-path="url(#id_0)" d="M316.88846 278.50494C316.88846 280.16177 315.54532 281.50494 313.88846 281.50494C312.2316 281.50494 310.88846 280.16177 310.88846 278.50494C310.88846 276.84808 312.2316 275.50494 313.88846 275.50494C315.54532 275.50494 316.88846 276.84808 316.88846 278.50494Z" fill-rule="nonzero"/><path fill="#000000" fill-opacity="0.0" clip-path="url(#id_0)" d="M355.11154 277.43152C355.11154 279.08838 353.7684 280.43152 352.11154 280.43152C350.45468 280.43152 349.11154 279.08838 349.11154 277.43152C349.11154 275.7747 350.45468 274.43152 352.11154 274.43152C353.7684 274.43152 355.11154 275.7747 355.11154 277.43152Z" fill-rule="nonzero"/><path fill="#000000" fill-opacity="0.0" clip-path="url(#id_0)" d="M393.33463 289.716C393.33463 291.37286 391.99146 292.716 390.33463 292.716C388.67776 292.716 387.33463 291.37286 387.33463 289.716C387.33463 288.05914 388.67776 286.716 390.33463 286.716C391.99146 286.716 393.33463 288.05914 393.33463 289.716Z" fill-rule="nonzero"/><path fill="#000000" fill-opacity="0.0" clip-path="url(#id_0)" d="M431.55768 289.716C431.55768 291.37286 430.21454 292.716 428.55768 292.716C426.90085 292.716 425.55768 291.37286 425.55768 289.716C425.55768 288.05914 426.90085 286.716 428.55768 286.716C430.21454 286.716 431.55768 288.05914 431.55768 289.716Z" fill-rule="nonzero"/><path fill="#000000" fill-opacity="0.0" clip-path="url(#id_0)" d="M469.78076 295.67932C469.78076 297.33618 468.43762 298.67932 466.78076 298.67932C465.1239 298.67932 463.78076 297.33618 463.78076 295.67932C463.78076 294.0225 465.1239 292.67932 466.78076 292.67932C468.43762 292.67932 469.78076 294.0225 469.78076 295.67932Z" fill-rule="nonzero"/><path fill="#000000" fill-opacity="0.0" clip-path="url(#id_0)" d="M508.00385 296.5142C508.00385 298.17105 506.6607 299.5142 505.00385 299.5142C503.347 299.5142 502.00385 298.17105 502.00385 296.5142C502.00385 294.85736 503.347 293.5142 505.00385 293.5142C506.6607 293.5142 508.00385 294.85736 508.00385 296.5142Z" fill-rule="nonzero"/><path fill="#000000" fill-opacity="0.0" clip-path="url(#id_0)" d="M546.2269 298.78027C546.2269 300.43713 544.8838 301.78027 543.2269 301.78027C541.57007 301.78027 540.2269 300.43713 540.2269 298.78027C540.2269 297.1234 541.57007 295.78027 543.2269 295.78027C544.8838 295.78027 546.2269 297.1234 546.2269 298.78027Z" fill-rule="nonzero"/><path fill="#000000" fill-opacity="0.0" clip-path="url(#id_0)" d="M584.45 300.33072C584.45 301.98758 583.1069 303.33072 581.45 303.33072C579.79315 303.33072 578.45 301.98758 578.45 300.33072C578.45 298.6739 579.79315 297.33072 581.45 297.33072C583.1069 297.33072 584.45 298.6739 584.45 300.33072Z" fill-rule="nonzero"/><path fill="#000000" d="M321.20312 340.85626L326.4375 340.85626L326.4375 348.4344L327.20312 348.4344L327.20312 351.45L326.1875 351.45L326.1875 349.45L320.51562 349.45L320.51562 351.45L319.5 351.45L319.5 348.4344L320.17188 348.4344Q321.20312 346.8719 321.20312 342.10626L321.20312 340.85626ZM325.29688 341.8719L322.29688 341.8719L322.29688 342.3094Q322.29688 343.40314 322.09375 345.3094Q321.90625 347.21564 321.32812 348.4344L325.29688 348.4344L325.29688 341.8719ZM332.35938 348.6844Q331.76562 349.1844 331.21875 349.3875Q330.6875 349.59064 330.0625 349.59064Q329.03125 349.59064 328.48438 349.09064Q327.9375 348.59064 327.9375 347.8094Q327.9375 347.35626 328.14062 346.98126Q328.34375 346.59064 328.6875 346.3719Q329.03125 346.1375 329.45312 346.02814Q329.75 345.9344 330.39062 345.85626Q331.65625 345.71564 332.26562 345.4969Q332.26562 345.27814 332.26562 345.23126Q332.26562 344.575 331.96875 344.3094Q331.5625 343.96564 330.76562 343.96564Q330.03125 343.96564 329.67188 344.23126Q329.3125 344.48126 329.14062 345.1375L328.10938 344.9969Q328.25 344.34064 328.57812 343.9344Q328.90625 343.52814 329.51562 343.3094Q330.125 343.09064 330.92188 343.09064Q331.71875 343.09064 332.21875 343.27814Q332.71875 343.46564 332.95312 343.7469Q333.1875 344.02814 333.28125 344.46564Q333.32812 344.73126 333.32812 345.4344L333.32812 346.84064Q333.32812 348.3094 333.39062 348.7Q333.46875 349.09064 333.67188 349.45L332.5625 349.45Q332.40625 349.1219 332.35938 348.6844ZM332.26562 346.325Q331.6875 346.5594 330.54688 346.73126Q329.89062 346.825 329.625 346.95Q329.35938 347.0594 329.20312 347.27814Q329.0625 347.4969 329.0625 347.77814Q329.0625 348.2 329.375 348.48126Q329.70312 348.7625 330.3125 348.7625Q330.92188 348.7625 331.39062 348.4969Q331.875 348.23126 332.09375 347.7625Q332.26562 347.40314 332.26562 346.71564L332.26562 346.325ZM334.71875 343.23126L339.78125 343.23126L339.78125 344.10626L337.78125 344.10626L337.78125 349.45L336.73438 349.45L336.73438 344.10626L334.71875 344.10626L334.71875 343.23126ZM344.35938 348.6844Q343.76562 349.1844 343.21875 349.3875Q342.6875 349.59064 342.0625 349.59064Q341.03125 349.59064 340.48438 349.09064Q339.9375 348.59064 339.9375 347.8094Q339.9375 347.35626 340.14062 346.98126Q340.34375 346.59064 340.6875 346.3719Q341.03125 346.1375 341.45312 346.02814Q341.75 345.9344 342.39062 345.85626Q343.65625 345.71564 344.26562 345.4969Q344.26562 345.27814 344.26562 345.23126Q344.26562 344.575 343.96875 344.3094Q343.5625 343.96564 342.76562 343.96564Q342.03125 343.96564 341.67188 344.23126Q341.3125 344.48126 341.14062 345.1375L340.10938 344.9969Q340.25 344.34064 340.57812 343.9344Q340.90625 343.52814 341.51562 343.3094Q342.125 343.09064 342.92188 343.09064Q343.71875 343.09064 344.21875 343.27814Q344.71875 343.46564 344.95312 343.7469Q345.1875 344.02814 345.28125 344.46564Q345.32812 344.73126 345.32812 345.4344L345.32812 346.84064Q345.32812 348.3094 345.39062 348.7Q345.46875 349.09064 345.67188 349.45L344.5625 349.45Q344.40625 349.1219 344.35938 348.6844ZM344.26562 346.325Q343.6875 346.5594 342.54688 346.73126Q341.89062 346.825 341.625 346.95Q341.35938 347.0594 341.20312 347.27814Q341.0625 347.4969 341.0625 347.77814Q341.0625 348.2 341.375 348.48126Q341.70312 348.7625 342.3125 348.7625Q342.92188 348.7625 343.39062 348.4969Q343.875 348.23126 344.09375 347.7625Q344.26562 347.40314 344.26562 346.71564L344.26562 346.325Z" fill-rule="nonzero"/><path fill="#000000" d="M29.550013 220.30833L20.956263 220.30833L20.956263 217.07396Q20.956263 216.08958 21.221888 215.49583Q21.487513 214.90208 22.034388 214.57396Q22.565638 214.23021 23.159388 214.23021Q23.706263 214.23021 24.190638 214.52708Q24.675013 214.82396 24.971888 215.43333Q25.206263 214.65208 25.768763 214.24583Q26.315638 213.82396 27.065638 213.82396Q27.659388 213.82396 28.190638 214.07396Q28.706263 214.32396 28.987513 214.69896Q29.268763 215.07396 29.409388 215.65208Q29.550013 216.21458 29.550013 217.02708L29.550013 220.30833ZM24.565638 219.16771L24.565638 217.30833Q24.565638 216.55833 24.471888 216.23021Q24.346888 215.79271 24.050013 215.57396Q23.737513 215.35521 23.284388 215.35521Q22.862513 215.35521 22.534388 215.55833Q22.206263 215.76146 22.096888 216.15208Q21.971888 216.52708 21.971888 217.44896L21.971888 219.16771L24.565638 219.16771ZM28.534388 219.16771L28.534388 217.02708Q28.534388 216.48021 28.487513 216.26146Q28.425013 215.85521 28.268763 215.60521Q28.096888 215.33958 27.784388 215.16771Q27.471888 214.99583 27.065638 214.99583Q26.581263 214.99583 26.221888 215.24583Q25.862513 215.48021 25.721888 215.91771Q25.581263 216.35521 25.581263 217.18333L25.581263 219.16771L28.534388 219.16771ZM23.331263 206.46458L23.331263 205.41771L29.550013 205.41771L29.550013 206.46458L23.331263 206.46458ZM23.331263 212.37083L23.331263 211.30833L25.753138 211.30833L25.753138 209.98021Q25.753138 208.66771 26.268763 207.96458Q26.768763 207.26146 27.659388 207.26146Q28.440638 207.26146 29.003138 207.85521Q29.550013 208.43333 29.550013 209.73021L29.550013 212.37083L23.331263 212.37083ZM28.675013 211.30833L28.675013 210.19896Q28.675013 209.19896 28.440638 208.77708Q28.190638 208.35521 27.675013 208.35521Q27.268763 208.35521 26.956263 208.66771Q26.628138 208.98021 26.628138 210.05833L26.628138 211.30833L28.675013 211.30833ZM23.331263 203.40208L23.331263 202.33958L26.018763 202.33958Q26.018763 201.83958 25.831263 201.63646Q25.628138 201.43333 24.690638 201.04271Q23.956263 200.73021 23.721888 200.54271Q23.487513 200.33958 23.409388 200.08958Q23.331263 199.83958 23.331263 199.27708L23.331263 199.07396L24.206263 199.07396L24.190638 199.37083Q24.190638 199.77708 24.315638 199.90208Q24.440638 200.02708 25.081263 200.27708Q25.690638 200.51146 25.925013 200.71458Q26.159388 200.91771 26.362513 201.32396Q26.534388 200.65208 27.628138 199.99583L29.550013 198.83958L29.550013 199.99583L27.628138 201.12083Q27.034388 201.46458 26.862513 201.73021Q26.675013 201.98021 26.675013 202.33958L29.550013 202.33958L29.550013 203.40208L23.331263 203.40208ZM31.940638 197.43333L30.956263 197.55833Q31.050013 197.21458 31.050013 196.94896Q31.050013 196.60521 30.925013 196.40208Q30.815638 196.18333 30.612513 196.04271Q30.440638 195.94896 29.815638 195.71458Q29.737513 195.69896 29.565638 195.62083L23.331263 197.99583L23.331263 196.85521L26.925013 195.55833Q27.612513 195.30833 28.378138 195.10521Q27.643763 194.91771 26.956263 194.66771L23.331263 193.33958L23.331263 192.29271L29.659388 194.65208Q30.675013 195.04271 31.065638 195.24583Q31.596888 195.52708 31.831263 195.90208Q32.08126 196.26146 32.08126 196.76146Q32.08126 197.05833 31.940638 197.43333ZM23.331263 192.38646L23.331263 187.48021L29.550013 187.48021L29.550013 188.52708L24.206263 188.52708L24.206263 191.32396L29.550013 191.32396L29.550013 192.38646L23.331263 192.38646ZM23.331263 179.46458L23.331263 178.41771L29.550013 178.41771L29.550013 179.46458L23.331263 179.46458ZM23.331263 185.37083L23.331263 184.30833L25.753138 184.30833L25.753138 182.98021Q25.753138 181.66771 26.268763 180.96458Q26.768763 180.26146 27.659388 180.26146Q28.440638 180.26146 29.003138 180.85521Q29.550013 181.43333 29.550013 182.73021L29.550013 185.37083L23.331263 185.37083ZM28.675013 184.30833L28.675013 183.19896Q28.675013 182.19896 28.440638 181.77708Q28.190638 181.35521 27.675013 181.35521Q27.268763 181.35521 26.956263 181.66771Q26.628138 181.98021 26.628138 183.05833L26.628138 184.30833L28.675013 184.30833ZM29.550013 176.12083L28.346888 176.12083L28.346888 174.91771L29.550013 174.91771Q30.206263 174.91771 30.612513 175.15208Q31.034388 175.38646 31.253138 175.88646L30.800013 176.18333Q30.659388 175.85521 30.362513 175.69896Q30.081263 175.54271 29.550013 175.51146L29.550013 176.12083ZM23.331263 170.35521L23.331263 169.30833L28.675013 169.30833L28.675013 166.90208L23.331263 166.90208L23.331263 165.83958L28.675013 165.83958L28.675013 163.43333L23.331263 163.43333L23.331263 162.38646L29.550013 162.38646L29.550013 170.35521L23.331263 170.35521ZM23.331263 161.96458L23.331263 156.90208L24.206263 156.90208L24.206263 158.90208L29.550013 158.90208L29.550013 159.94896L24.206263 159.94896L24.206263 161.96458L23.331263 161.96458ZM29.550013 156.08958L28.346888 156.08958L28.346888 154.88646L29.550013 154.88646L29.550013 156.08958Z" fill-rule="nonzero"/><path fill="#000000" d="M72.05 300.21564Q72.05 298.6844 72.3625 297.7625Q72.675 296.825 73.28438 296.325Q73.90938 295.825 74.84688 295.825Q75.53438 295.825 76.05 296.10626Q76.58125 296.3875 76.925 296.91876Q77.26875 297.4344 77.45625 298.1844Q77.64375 298.9344 77.64375 300.21564Q77.64375 301.73126 77.33125 302.65314Q77.03438 303.575 76.40938 304.09064Q75.8 304.59064 74.84688 304.59064Q73.6125 304.59064 72.89375 303.7Q72.05 302.6375 72.05 300.21564ZM73.12813 300.21564Q73.12813 302.325 73.62813 303.02814Q74.12813 303.73126 74.84688 303.73126Q75.58125 303.73126 76.06563 303.02814Q76.56563 302.325 76.56563 300.21564Q76.56563 298.09064 76.06563 297.40314Q75.58125 296.7 74.83125 296.7Q74.1125 296.7 73.675 297.3094Q73.12813 298.09064 73.12813 300.21564Z" fill-rule="nonzero"/><path fill="#000000" d="M58.05 242.56667L59.159374 242.47292Q59.284374 243.28542 59.721874 243.69167Q60.175 244.09792 60.815624 244.09792Q61.565624 244.09792 62.096874 243.51979Q62.628124 242.94167 62.628124 242.00417Q62.628124 241.09792 62.1125 240.58229Q61.6125 240.05104 60.784374 240.05104Q60.284374 240.05104 59.8625 240.28542Q59.45625 240.51979 59.221874 240.87917L58.2375 240.75417L59.065624 236.34792L63.346874 236.34792L63.346874 237.34792L59.909374 237.34792L59.45625 239.66042Q60.221874 239.11354 61.065624 239.11354Q62.190624 239.11354 62.95625 239.89479Q63.7375 240.67604 63.7375 241.91042Q63.7375 243.06667 63.065624 243.92604Q62.2375 244.95729 60.815624 244.95729Q59.64375 244.95729 58.89375 244.30104Q58.159374 243.64479 58.05 242.56667ZM65.05 240.58229Q65.05 239.05104 65.3625 238.12917Q65.675 237.19167 66.28438 236.69167Q66.90938 236.19167 67.84688 236.19167Q68.53438 236.19167 69.05 236.47292Q69.58125 236.75417 69.925 237.28542Q70.26875 237.80104 70.45625 238.55104Q70.64375 239.30104 70.64375 240.58229Q70.64375 242.09792 70.33125 243.01979Q70.03438 243.94167 69.40938 244.45729Q68.8 244.95729 67.84688 244.95729Q66.6125 244.95729 65.89375 244.06667Q65.05 243.00417 65.05 240.58229ZM66.12813 240.58229Q66.12813 242.69167 66.62813 243.39479Q67.12813 244.09792 67.84688 244.09792Q68.58125 244.09792 69.06563 243.39479Q69.56563 242.69167 69.56563 240.58229Q69.56563 238.45729 69.06563 237.76979Q68.58125 237.06667 67.83125 237.06667Q67.1125 237.06667 66.675 237.67604Q66.12813 238.45729 66.12813 240.58229ZM72.05 240.58229Q72.05 239.05104 72.3625 238.12917Q72.675 237.19167 73.28438 236.69167Q73.90938 236.19167 74.84688 236.19167Q75.53438 236.19167 76.05 236.47292Q76.58125 236.75417 76.925 237.28542Q77.26875 237.80104 77.45625 238.55104Q77.64375 239.30104 77.64375 240.58229Q77.64375 242.09792 77.33125 243.01979Q77.03438 243.94167 76.40938 244.45729Q75.8 244.95729 74.84688 244.95729Q73.6125 244.95729 72.89375 244.06667Q72.05 243.00417 72.05 240.58229ZM73.12813 240.58229Q73.12813 242.69167 73.62813 243.39479Q74.12813 244.09792 74.84688 244.09792Q75.58125 244.09792 76.06563 243.39479Q76.56563 242.69167 76.56563 240.58229Q76.56563 238.45729 76.06563 237.76979Q75.58125 237.06667 74.83125 237.06667Q74.1125 237.06667 73.675 237.67604Q73.12813 238.45729 73.12813 240.58229Z" fill-rule="nonzero"/><path fill="#000000" d="M55.01875 185.18333L53.971874 185.18333L53.971874 178.46458Q53.58125 178.82396 52.95625 179.19896Q52.346874 179.55833 51.8625 179.73021L51.8625 178.71458Q52.7375 178.29271 53.39375 177.71458Q54.065624 177.12083 54.346874 176.55833L55.01875 176.55833L55.01875 185.18333ZM58.05 180.94896Q58.05 179.41771 58.3625 178.49583Q58.675 177.55833 59.284374 177.05833Q59.909374 176.55833 60.846874 176.55833Q61.534374 176.55833 62.05 176.83958Q62.58125 177.12083 62.925 177.65208Q63.26875 178.16771 63.45625 178.91771Q63.64375 179.66771 63.64375 180.94896Q63.64375 182.46458 63.33125 183.38646Q63.034374 184.30833 62.409374 184.82396Q61.8 185.32396 60.846874 185.32396Q59.6125 185.32396 58.89375 184.43333Q58.05 183.37083 58.05 180.94896ZM59.128124 180.94896Q59.128124 183.05833 59.628124 183.76146Q60.128124 184.46458 60.846874 184.46458Q61.58125 184.46458 62.065624 183.76146Q62.565624 183.05833 62.565624 180.94896Q62.565624 178.82396 62.065624 178.13646Q61.58125 177.43333 60.83125 177.43333Q60.1125 177.43333 59.675 178.04271Q59.128124 178.82396 59.128124 180.94896ZM65.05 180.94896Q65.05 179.41771 65.3625 178.49583Q65.675 177.55833 66.28438 177.05833Q66.90938 176.55833 67.84688 176.55833Q68.53438 176.55833 69.05 176.83958Q69.58125 177.12083 69.925 177.65208Q70.26875 178.16771 70.45625 178.91771Q70.64375 179.66771 70.64375 180.94896Q70.64375 182.46458 70.33125 183.38646Q70.03438 184.30833 69.40938 184.82396Q68.8 185.32396 67.84688 185.32396Q66.6125 185.32396 65.89375 184.43333Q65.05 183.37083 65.05 180.94896ZM66.12813 180.94896Q66.12813 183.05833 66.62813 183.76146Q67.12813 184.46458 67.84688 184.46458Q68.58125 184.46458 69.06563 183.76146Q69.56563 183.05833 69.56563 180.94896Q69.56563 178.82396 69.06563 178.13646Q68.58125 177.43333 67.83125 177.43333Q67.1125 177.43333 66.675 178.04271Q66.12813 178.82396 66.12813 180.94896ZM72.05 180.94896Q72.05 179.41771 72.3625 178.49583Q72.675 177.55833 73.28438 177.05833Q73.90938 176.55833 74.84688 176.55833Q75.53438 176.55833 76.05 176.83958Q76.58125 177.12083 76.925 177.65208Q77.26875 178.16771 77.45625 178.91771Q77.64375 179.66771 77.64375 180.94896Q77.64375 182.46458 77.33125 183.38646Q77.03438 184.30833 76.40938 184.82396Q75.8 185.32396 74.84688 185.32396Q73.6125 185.32396 72.89375 184.43333Q72.05 183.37083 72.05 180.94896ZM73.12813 180.94896Q73.12813 183.05833 73.62813 183.76146Q74.12813 184.46458 74.84688 184.46458Q75.58125 184.46458 76.06563 183.76146Q76.56563 183.05833 76.56563 180.94896Q76.56563 178.82396 76.06563 178.13646Q75.58125 177.43333 74.83125 177.43333Q74.1125 177.43333 73.675 178.04271Q73.12813 178.82396 73.12813 180.94896Z" fill-rule="nonzero"/><path fill="#000000" d="M55.01875 125.55L53.971874 125.55L53.971874 118.83125Q53.58125 119.19063 52.95625 119.56563Q52.346874 119.925 51.8625 120.09688L51.8625 119.08125Q52.7375 118.65938 53.39375 118.08125Q54.065624 117.4875 54.346874 116.925L55.01875 116.925L55.01875 125.55ZM58.05 123.3L59.159374 123.20625Q59.284374 124.01875 59.721874 124.425Q60.175 124.83125 60.815624 124.83125Q61.565624 124.83125 62.096874 124.25313Q62.628124 123.675 62.628124 122.7375Q62.628124 121.83125 62.1125 121.31563Q61.6125 120.78438 60.784374 120.78438Q60.284374 120.78438 59.8625 121.01875Q59.45625 121.25313 59.221874 121.6125L58.2375 121.4875L59.065624 117.08125L63.346874 117.08125L63.346874 118.08125L59.909374 118.08125L59.45625 120.39375Q60.221874 119.84688 61.065624 119.84688Q62.190624 119.84688 62.95625 120.62813Q63.7375 121.40938 63.7375 122.64375Q63.7375 123.8 63.065624 124.65938Q62.2375 125.69063 60.815624 125.69063Q59.64375 125.69063 58.89375 125.03438Q58.159374 124.37813 58.05 123.3ZM65.05 121.31563Q65.05 119.78438 65.3625 118.8625Q65.675 117.925 66.28438 117.425Q66.90938 116.925 67.84688 116.925Q68.53438 116.925 69.05 117.20625Q69.58125 117.4875 69.925 118.01875Q70.26875 118.53438 70.45625 119.28438Q70.64375 120.03438 70.64375 121.31563Q70.64375 122.83125 70.33125 123.75313Q70.03438 124.675 69.40938 125.19063Q68.8 125.69063 67.84688 125.69063Q66.6125 125.69063 65.89375 124.8Q65.05 123.7375 65.05 121.31563ZM66.12813 121.31563Q66.12813 123.425 66.62813 124.12813Q67.12813 124.83125 67.84688 124.83125Q68.58125 124.83125 69.06563 124.12813Q69.56563 123.425 69.56563 121.31563Q69.56563 119.19063 69.06563 118.50313Q68.58125 117.8 67.83125 117.8Q67.1125 117.8 66.675 118.40938Q66.12813 119.19063 66.12813 121.31563ZM72.05 121.31563Q72.05 119.78438 72.3625 118.8625Q72.675 117.925 73.28438 117.425Q73.90938 116.925 74.84688 116.925Q75.53438 116.925 76.05 117.20625Q76.58125 117.4875 76.925 118.01875Q77.26875 118.53438 77.45625 119.28438Q77.64375 120.03438 77.64375 121.31563Q77.64375 122.83125 77.33125 123.75313Q77.03438 124.675 76.40938 125.19063Q75.8 125.69063 74.84688 125.69063Q73.6125 125.69063 72.89375 124.8Q72.05 123.7375 72.05 121.31563ZM73.12813 121.31563Q73.12813 123.425 73.62813 124.12813Q74.12813 124.83125 74.84688 124.83125Q75.58125 124.83125 76.06563 124.12813Q76.56563 123.425 76.56563 121.31563Q76.56563 119.19063 76.06563 118.50313Q75.58125 117.8 74.83125 117.8Q74.1125 117.8 73.675 118.40938Q73.12813 119.19063 73.12813 121.31563Z" fill-rule="nonzero"/><path fill="#000000" d="M56.596874 64.90104L56.596874 65.916664L50.909374 65.916664Q50.909374 65.541664 51.034374 65.18229Q51.253124 64.604164 51.721874 64.041664Q52.20625 63.479164 53.1125 62.74479Q54.51875 61.58854 55.003124 60.916664Q55.503124 60.24479 55.503124 59.65104Q55.503124 59.02604 55.05 58.604164Q54.596874 58.166664 53.878124 58.166664Q53.1125 58.166664 52.659374 58.61979Q52.20625 59.072914 52.190624 59.885414L51.1125 59.77604Q51.221874 58.55729 51.940624 57.93229Q52.675 57.291664 53.909374 57.291664Q55.14375 57.291664 55.8625 57.979164Q56.58125 58.666664 56.58125 59.68229Q56.58125 60.197914 56.3625 60.697914Q56.159374 61.18229 55.659374 61.74479Q55.175 62.291664 54.05 63.24479Q53.096874 64.041664 52.815624 64.33854Q52.55 64.61979 52.378124 64.90104L56.596874 64.90104ZM58.05 61.68229Q58.05 60.15104 58.3625 59.229164Q58.675 58.291664 59.284374 57.791664Q59.909374 57.291664 60.846874 57.291664Q61.534374 57.291664 62.05 57.572914Q62.58125 57.854164 62.925 58.385414Q63.26875 58.90104 63.45625 59.65104Q63.64375 60.40104 63.64375 61.68229Q63.64375 63.197914 63.33125 64.11979Q63.034374 65.041664 62.409374 65.55729Q61.8 66.05729 60.846874 66.05729Q59.6125 66.05729 58.89375 65.166664Q58.05 64.104164 58.05 61.68229ZM59.128124 61.68229Q59.128124 63.791664 59.628124 64.49479Q60.128124 65.197914 60.846874 65.197914Q61.58125 65.197914 62.065624 64.49479Q62.565624 63.791664 62.565624 61.68229Q62.565624 59.55729 62.065624 58.86979Q61.58125 58.166664 60.83125 58.166664Q60.1125 58.166664 59.675 58.77604Q59.128124 59.55729 59.128124 61.68229ZM65.05 61.68229Q65.05 60.15104 65.3625 59.229164Q65.675 58.291664 66.28438 57.791664Q66.90938 57.291664 67.84688 57.291664Q68.53438 57.291664 69.05 57.572914Q69.58125 57.854164 69.925 58.385414Q70.26875 58.90104 70.45625 59.65104Q70.64375 60.40104 70.64375 61.68229Q70.64375 63.197914 70.33125 64.11979Q70.03438 65.041664 69.40938 65.55729Q68.8 66.05729 67.84688 66.05729Q66.6125 66.05729 65.89375 65.166664Q65.05 64.104164 65.05 61.68229ZM66.12813 61.68229Q66.12813 63.791664 66.62813 64.49479Q67.12813 65.197914 67.84688 65.197914Q68.58125 65.197914 69.06563 64.49479Q69.56563 63.791664 69.56563 61.68229Q69.56563 59.55729 69.06563 58.86979Q68.58125 58.166664 67.83125 58.166664Q67.1125 58.166664 66.675 58.77604Q66.12813 59.55729 66.12813 61.68229ZM72.05 61.68229Q72.05 60.15104 72.3625 59.229164Q72.675 58.291664 73.28438 57.791664Q73.90938 57.291664 74.84688 57.291664Q75.53438 57.291664 76.05 57.572914Q76.58125 57.854164 76.925 58.385414Q77.26875 58.90104 77.45625 59.65104Q77.64375 60.40104 77.64375 61.68229Q77.64375 63.197914 77.33125 64.11979Q77.03438 65.041664 76.40938 65.55729Q75.8 66.05729 74.84688 66.05729Q73.6125 66.05729 72.89375 65.166664Q72.05 64.104164 72.05 61.68229ZM73.12813 61.68229Q73.12813 63.791664 73.62813 64.49479Q74.12813 65.197914 74.84688 65.197914Q75.58125 65.197914 76.06563 64.49479Q76.56563 63.791664 76.56563 61.68229Q76.56563 59.55729 76.06563 58.86979Q75.58125 58.166664 74.83125 58.166664Q74.1125 58.166664 73.675 58.77604Q73.12813 59.55729 73.12813 61.68229Z" fill-rule="nonzero"/><path fill="#000000" d="M59.596874 316.4344L59.596874 317.45L53.909374 317.45Q53.909374 317.075 54.034374 316.71564Q54.253124 316.1375 54.721874 315.575Q55.20625 315.0125 56.1125 314.27814Q57.51875 313.1219 58.003124 312.45Q58.503124 311.77814 58.503124 311.1844Q58.503124 310.5594 58.05 310.1375Q57.596874 309.7 56.878124 309.7Q56.1125 309.7 55.659374 310.15314Q55.20625 310.60626 55.190624 311.41876L54.1125 311.3094Q54.221874 310.09064 54.940624 309.46564Q55.675 308.825 56.909374 308.825Q58.14375 308.825 58.8625 309.5125Q59.58125 310.2 59.58125 311.21564Q59.58125 311.73126 59.3625 312.23126Q59.159374 312.71564 58.659374 313.27814Q58.175 313.825 57.05 314.77814Q56.096874 315.575 55.815624 315.8719Q55.55 316.15314 55.378124 316.4344L59.596874 316.4344ZM66.51875 310.96564L65.47188 311.04376Q65.33125 310.41876 65.08125 310.1375Q64.64375 309.6844 64.01875 309.6844Q63.51875 309.6844 63.128124 309.96564Q62.64375 310.34064 62.346874 311.04376Q62.065624 311.73126 62.05 313.0125Q62.425 312.4344 62.971874 312.15314Q63.534374 311.8719 64.14375 311.8719Q65.19063 311.8719 65.925 312.65314Q66.675 313.4344 66.675 314.65314Q66.675 315.46564 66.31563 316.16876Q65.97188 316.85626 65.3625 317.23126Q64.75313 317.59064 63.9875 317.59064Q62.659374 317.59064 61.83125 316.6219Q61.003124 315.65314 61.003124 313.4344Q61.003124 310.9344 61.925 309.8094Q62.721874 308.825 64.08125 308.825Q65.09688 308.825 65.7375 309.40314Q66.39375 309.96564 66.51875 310.96564ZM62.221874 314.66876Q62.221874 315.21564 62.440624 315.71564Q62.675 316.2 63.08125 316.46564Q63.503124 316.73126 63.971874 316.73126Q64.62813 316.73126 65.1125 316.2Q65.59688 315.65314 65.59688 314.73126Q65.59688 313.84064 65.1125 313.325Q64.64375 312.8094 63.925 312.8094Q63.20625 312.8094 62.70625 313.325Q62.221874 313.84064 62.221874 314.66876ZM68.64375 317.45L68.64375 316.2469L69.84688 316.2469L69.84688 317.45L68.64375 317.45ZM75.01875 317.45L73.97188 317.45L73.97188 310.73126Q73.58125 311.09064 72.95625 311.46564Q72.34688 311.825 71.8625 311.9969L71.8625 310.98126Q72.7375 310.5594 73.39375 309.98126Q74.06563 309.3875 74.34688 308.825L75.01875 308.825L75.01875 317.45ZM82.01875 317.45L80.97188 317.45L80.97188 310.73126Q80.58125 311.09064 79.95625 311.46564Q79.34688 311.825 78.8625 311.9969L78.8625 310.98126Q79.7375 310.5594 80.39375 309.98126Q81.06563 309.3875 81.34688 308.825L82.01875 308.825L82.01875 317.45ZM85.64375 317.45L85.64375 316.2469L86.84688 316.2469L86.84688 317.45L85.64375 317.45ZM93.59688 316.4344L93.59688 317.45L87.90938 317.45Q87.90938 317.075 88.03438 316.71564Q88.25313 316.1375 88.72188 315.575Q89.20625 315.0125 90.1125 314.27814Q91.51875 313.1219 92.00313 312.45Q92.50313 311.77814 92.50313 311.1844Q92.50313 310.5594 92.05 310.1375Q91.59688 309.7 90.87813 309.7Q90.1125 309.7 89.65938 310.15314Q89.20625 310.60626 89.19063 311.41876L88.1125 311.3094Q88.22188 310.09064 88.94063 309.46564Q89.675 308.825 90.90938 308.825Q92.14375 308.825 92.8625 309.5125Q93.58125 310.2 93.58125 311.21564Q93.58125 311.73126 93.3625 312.23126Q93.15938 312.71564 92.65938 313.27814Q92.175 313.825 91.05 314.77814Q90.09688 315.575 89.81563 315.8719Q89.55 316.15314 89.37813 316.4344L93.59688 316.4344ZM95.05 313.21564Q95.05 311.6844 95.3625 310.7625Q95.675 309.825 96.28438 309.325Q96.90938 308.825 97.84688 308.825Q98.53438 308.825 99.05 309.10626Q99.58125 309.3875 99.925 309.91876Q100.26875 310.4344 100.45625 311.1844Q100.64375 311.9344 100.64375 313.21564Q100.64375 314.73126 100.33125 315.65314Q100.03438 316.575 99.40938 317.09064Q98.8 317.59064 97.84688 317.59064Q96.6125 317.59064 95.89375 316.7Q95.05 315.6375 95.05 313.21564ZM96.12813 313.21564Q96.12813 315.325 96.62813 316.02814Q97.12813 316.73126 97.84688 316.73126Q98.58125 316.73126 99.06563 316.02814Q99.56563 315.325 99.56563 313.21564Q99.56563 311.09064 99.06563 310.40314Q98.58125 309.7 97.83125 309.7Q97.1125 309.7 96.675 310.3094Q96.12813 311.09064 96.12813 313.21564ZM107.59688 316.4344L107.59688 317.45L101.90938 317.45Q101.90938 317.075 102.03438 316.71564Q102.25313 316.1375 102.72188 315.575Q103.20625 315.0125 104.1125 314.27814Q105.51875 313.1219 106.00313 312.45Q106.50313 311.77814 106.50313 311.1844Q106.50313 310.5594 106.05 310.1375Q105.59688 309.7 104.87813 309.7Q104.1125 309.7 103.65938 310.15314Q103.20625 310.60626 103.19063 311.41876L102.1125 311.3094Q102.22188 310.09064 102.94063 309.46564Q103.675 308.825 104.90938 308.825Q106.14375 308.825 106.8625 309.5125Q107.58125 310.2 107.58125 311.21564Q107.58125 311.73126 107.3625 312.23126Q107.15938 312.71564 106.65938 313.27814Q106.175 313.825 105.05 314.77814Q104.09688 315.575 103.81563 315.8719Q103.55 316.15314 103.37813 316.4344L107.59688 316.4344ZM112.425 317.45L112.425 315.3875L108.70625 315.3875L108.70625 314.41876L112.62813 308.85626L113.4875 308.85626L113.4875 314.41876L114.64375 314.41876L114.64375 315.3875L113.4875 315.3875L113.4875 317.45L112.425 317.45ZM112.425 314.41876L112.425 310.5594L109.7375 314.41876L112.425 314.41876Z" fill-rule="nonzero"/><path fill="#000000" d="M136.04303 316.4344L136.04303 317.45L130.35553 317.45Q130.35553 317.075 130.48053 316.71564Q130.69928 316.1375 131.16803 315.575Q131.6524 315.0125 132.55865 314.27814Q133.9649 313.1219 134.44928 312.45Q134.94928 311.77814 134.94928 311.1844Q134.94928 310.5594 134.49615 310.1375Q134.04303 309.7 133.32428 309.7Q132.55865 309.7 132.10553 310.15314Q131.6524 310.60626 131.63678 311.41876L130.55865 311.3094Q130.66803 310.09064 131.38678 309.46564Q132.12115 308.825 133.35553 308.825Q134.5899 308.825 135.30865 309.5125Q136.0274 310.2 136.0274 311.21564Q136.0274 311.73126 135.80865 312.23126Q135.60553 312.71564 135.10553 313.27814Q134.62115 313.825 133.49615 314.77814Q132.54303 315.575 132.26178 315.8719Q131.99615 316.15314 131.82428 316.4344L136.04303 316.4344ZM139.12115 312.79376Q138.4649 312.54376 138.13678 312.10626Q137.82428 311.65314 137.82428 311.04376Q137.82428 310.10626 138.49615 309.46564Q139.18365 308.825 140.29303 308.825Q141.41803 308.825 142.10553 309.48126Q142.79303 310.1375 142.79303 311.075Q142.79303 311.66876 142.48053 312.10626Q142.16803 312.54376 141.5274 312.79376Q142.32428 313.04376 142.73053 313.6219Q143.13678 314.2 143.13678 314.9969Q143.13678 316.09064 142.35553 316.84064Q141.5899 317.59064 140.30865 317.59064Q139.04303 317.59064 138.26178 316.84064Q137.48053 316.09064 137.48053 314.96564Q137.48053 314.1219 137.9024 313.5594Q138.3399 312.9969 139.12115 312.79376ZM138.9024 310.9969Q138.9024 311.60626 139.29303 311.9969Q139.69928 312.3875 140.32428 312.3875Q140.93365 312.3875 141.32428 312.0125Q141.7149 311.6219 141.7149 311.0594Q141.7149 310.48126 141.30865 310.09064Q140.9024 309.6844 140.30865 309.6844Q139.69928 309.6844 139.29303 310.075Q138.9024 310.46564 138.9024 310.9969ZM138.57428 314.96564Q138.57428 315.41876 138.7774 315.84064Q138.99615 316.2625 139.41803 316.4969Q139.8399 316.73126 140.32428 316.73126Q141.07428 316.73126 141.55865 316.2469Q142.05865 315.7625 142.05865 315.0125Q142.05865 314.2469 141.55865 313.7469Q141.05865 313.2469 140.29303 313.2469Q139.54303 313.2469 139.05865 313.7469Q138.57428 314.23126 138.57428 314.96564ZM145.0899 317.45L145.0899 316.2469L146.29303 316.2469L146.29303 317.45L145.0899 317.45ZM151.4649 317.45L150.41803 317.45L150.41803 310.73126Q150.0274 311.09064 149.4024 311.46564Q148.79303 311.825 148.30865 311.9969L148.30865 310.98126Q149.18365 310.5594 149.8399 309.98126Q150.51178 309.3875 150.79303 308.825L151.4649 308.825L151.4649 317.45ZM158.4649 317.45L157.41803 317.45L157.41803 310.73126Q157.0274 311.09064 156.4024 311.46564Q155.79303 311.825 155.30865 311.9969L155.30865 310.98126Q156.18365 310.5594 156.8399 309.98126Q157.51178 309.3875 157.79303 308.825L158.4649 308.825L158.4649 317.45ZM162.0899 317.45L162.0899 316.2469L163.29303 316.2469L163.29303 317.45L162.0899 317.45ZM170.04303 316.4344L170.04303 317.45L164.35553 317.45Q164.35553 317.075 164.48053 316.71564Q164.69928 316.1375 165.16803 315.575Q165.6524 315.0125 166.55865 314.27814Q167.9649 313.1219 168.44928 312.45Q168.94928 311.77814 168.94928 311.1844Q168.94928 310.5594 168.49615 310.1375Q168.04303 309.7 167.32428 309.7Q166.55865 309.7 166.10553 310.15314Q165.6524 310.60626 165.63678 311.41876L164.55865 311.3094Q164.66803 310.09064 165.38678 309.46564Q166.12115 308.825 167.35553 308.825Q168.5899 308.825 169.30865 309.5125Q170.0274 310.2 170.0274 311.21564Q170.0274 311.73126 169.80865 312.23126Q169.60553 312.71564 169.10553 313.27814Q168.62115 313.825 167.49615 314.77814Q166.54303 315.575 166.26178 315.8719Q165.99615 316.15314 165.82428 316.4344L170.04303 316.4344ZM171.49615 313.21564Q171.49615 311.6844 171.80865 310.7625Q172.12115 309.825 172.73053 309.325Q173.35553 308.825 174.29303 308.825Q174.98053 308.825 175.49615 309.10626Q176.0274 309.3875 176.37115 309.91876Q176.7149 310.4344 176.9024 311.1844Q177.0899 311.9344 177.0899 313.21564Q177.0899 314.73126 176.7774 315.65314Q176.48053 316.575 175.85553 317.09064Q175.24615 317.59064 174.29303 317.59064Q173.05865 317.59064 172.3399 316.7Q171.49615 315.6375 171.49615 313.21564ZM172.57428 313.21564Q172.57428 315.325 173.07428 316.02814Q173.57428 316.73126 174.29303 316.73126Q175.0274 316.73126 175.51178 316.02814Q176.01178 315.325 176.01178 313.21564Q176.01178 311.09064 175.51178 310.40314Q175.0274 309.7 174.2774 309.7Q173.55865 309.7 173.12115 310.3094Q172.57428 311.09064 172.57428 313.21564ZM184.04303 316.4344L184.04303 317.45L178.35553 317.45Q178.35553 317.075 178.48053 316.71564Q178.69928 316.1375 179.16803 315.575Q179.6524 315.0125 180.55865 314.27814Q181.9649 313.1219 182.44928 312.45Q182.94928 311.77814 182.94928 311.1844Q182.94928 310.5594 182.49615 310.1375Q182.04303 309.7 181.32428 309.7Q180.55865 309.7 180.10553 310.15314Q179.6524 310.60626 179.63678 311.41876L178.55865 311.3094Q178.66803 310.09064 179.38678 309.46564Q180.12115 308.825 181.35553 308.825Q182.5899 308.825 183.30865 309.5125Q184.0274 310.2 184.0274 311.21564Q184.0274 311.73126 183.80865 312.23126Q183.60553 312.71564 183.10553 313.27814Q182.62115 313.825 181.49615 314.77814Q180.54303 315.575 180.26178 315.8719Q179.99615 316.15314 179.82428 316.4344L184.04303 316.4344ZM188.87115 317.45L188.87115 315.3875L185.1524 315.3875L185.1524 314.41876L189.07428 308.85626L189.93365 308.85626L189.93365 314.41876L191.0899 314.41876L191.0899 315.3875L189.93365 315.3875L189.93365 317.45L188.87115 317.45ZM188.87115 314.41876L188.87115 310.5594L186.18365 314.41876L188.87115 314.41876Z" fill-rule="nonzero"/><path fill="#000000" d="M206.9423 315.1844L208.0048 315.04376Q208.17668 315.9344 208.61418 316.34064Q209.05168 316.73126 209.67668 316.73126Q210.42668 316.73126 210.9423 316.21564Q211.45793 315.7 211.45793 314.9344Q211.45793 314.21564 210.97356 313.7469Q210.5048 313.2625 209.77043 313.2625Q209.47356 313.2625 209.02043 313.3875L209.14543 312.45Q209.2548 312.46564 209.3173 312.46564Q209.98918 312.46564 210.52043 312.1219Q211.0673 311.7625 211.0673 311.02814Q211.0673 310.45 210.67668 310.075Q210.28606 309.6844 209.66106 309.6844Q209.05168 309.6844 208.6298 310.075Q208.22356 310.46564 208.11418 311.23126L207.05168 311.04376Q207.23918 309.9969 207.92668 309.41876Q208.61418 308.825 209.6298 308.825Q210.33293 308.825 210.92668 309.1375Q211.52043 309.4344 211.83293 309.95Q212.14543 310.46564 212.14543 311.0594Q212.14543 311.60626 211.84856 312.075Q211.55168 312.52814 210.97356 312.79376Q211.72356 312.96564 212.14543 313.52814Q212.5673 314.075 212.5673 314.91876Q212.5673 316.04376 211.73918 316.825Q210.92668 317.60626 209.67668 317.60626Q208.55168 317.60626 207.80168 316.9344Q207.05168 316.2469 206.9423 315.1844ZM213.9423 313.21564Q213.9423 311.6844 214.2548 310.7625Q214.5673 309.825 215.17668 309.325Q215.80168 308.825 216.73918 308.825Q217.42668 308.825 217.9423 309.10626Q218.47356 309.3875 218.8173 309.91876Q219.16106 310.4344 219.34856 311.1844Q219.53606 311.9344 219.53606 313.21564Q219.53606 314.73126 219.22356 315.65314Q218.92668 316.575 218.30168 317.09064Q217.6923 317.59064 216.73918 317.59064Q215.5048 317.59064 214.78606 316.7Q213.9423 315.6375 213.9423 313.21564ZM215.02043 313.21564Q215.02043 315.325 215.52043 316.02814Q216.02043 316.73126 216.73918 316.73126Q217.47356 316.73126 217.95793 316.02814Q218.45793 315.325 218.45793 313.21564Q218.45793 311.09064 217.95793 310.40314Q217.47356 309.7 216.72356 309.7Q216.0048 309.7 215.5673 310.3094Q215.02043 311.09064 215.02043 313.21564ZM221.53606 317.45L221.53606 316.2469L222.73918 316.2469L222.73918 317.45L221.53606 317.45ZM227.91106 317.45L226.86418 317.45L226.86418 310.73126Q226.47356 311.09064 225.84856 311.46564Q225.23918 311.825 224.7548 311.9969L224.7548 310.98126Q225.6298 310.5594 226.28606 309.98126Q226.95793 309.3875 227.23918 308.825L227.91106 308.825L227.91106 317.45ZM234.91106 317.45L233.86418 317.45L233.86418 310.73126Q233.47356 311.09064 232.84856 311.46564Q232.23918 311.825 231.7548 311.9969L231.7548 310.98126Q232.6298 310.5594 233.28606 309.98126Q233.95793 309.3875 234.23918 308.825L234.91106 308.825L234.91106 317.45ZM238.53606 317.45L238.53606 316.2469L239.73918 316.2469L239.73918 317.45L238.53606 317.45ZM246.48918 316.4344L246.48918 317.45L240.80168 317.45Q240.80168 317.075 240.92668 316.71564Q241.14543 316.1375 241.61418 315.575Q242.09856 315.0125 243.0048 314.27814Q244.41106 313.1219 244.89543 312.45Q245.39543 311.77814 245.39543 311.1844Q245.39543 310.5594 244.9423 310.1375Q244.48918 309.7 243.77043 309.7Q243.0048 309.7 242.55168 310.15314Q242.09856 310.60626 242.08293 311.41876L241.0048 311.3094Q241.11418 310.09064 241.83293 309.46564Q242.5673 308.825 243.80168 308.825Q245.03606 308.825 245.7548 309.5125Q246.47356 310.2 246.47356 311.21564Q246.47356 311.73126 246.2548 312.23126Q246.05168 312.71564 245.55168 313.27814Q245.0673 313.825 243.9423 314.77814Q242.98918 315.575 242.70793 315.8719Q242.4423 316.15314 242.27043 316.4344L246.48918 316.4344ZM247.9423 313.21564Q247.9423 311.6844 248.2548 310.7625Q248.5673 309.825 249.17668 309.325Q249.80168 308.825 250.73918 308.825Q251.42668 308.825 251.9423 309.10626Q252.47356 309.3875 252.8173 309.91876Q253.16106 310.4344 253.34856 311.1844Q253.53606 311.9344 253.53606 313.21564Q253.53606 314.73126 253.22356 315.65314Q252.92668 316.575 252.30168 317.09064Q251.6923 317.59064 250.73918 317.59064Q249.5048 317.59064 248.78606 316.7Q247.9423 315.6375 247.9423 313.21564ZM249.02043 313.21564Q249.02043 315.325 249.52043 316.02814Q250.02043 316.73126 250.73918 316.73126Q251.47356 316.73126 251.95793 316.02814Q252.45793 315.325 252.45793 313.21564Q252.45793 311.09064 251.95793 310.40314Q251.47356 309.7 250.72356 309.7Q250.0048 309.7 249.5673 310.3094Q249.02043 311.09064 249.02043 313.21564ZM260.4892 316.4344L260.4892 317.45L254.80168 317.45Q254.80168 317.075 254.92668 316.71564Q255.14543 316.1375 255.61418 315.575Q256.09857 315.0125 257.00482 314.27814Q258.41107 313.1219 258.89545 312.45Q259.39545 311.77814 259.39545 311.1844Q259.39545 310.5594 258.94232 310.1375Q258.4892 309.7 257.77045 309.7Q257.00482 309.7 256.5517 310.15314Q256.09857 310.60626 256.08295 311.41876L255.0048 311.3094Q255.11418 310.09064 255.83293 309.46564Q256.56732 308.825 257.8017 308.825Q259.03607 308.825 259.75482 309.5125Q260.47357 310.2 260.47357 311.21564Q260.47357 311.73126 260.25482 312.23126Q260.0517 312.71564 259.5517 313.27814Q259.06732 313.825 257.94232 314.77814Q256.9892 315.575 256.70795 315.8719Q256.44232 316.15314 256.27045 316.4344L260.4892 316.4344ZM265.31732 317.45L265.31732 315.3875L261.59857 315.3875L261.59857 314.41876L265.52045 308.85626L266.37982 308.85626L266.37982 314.41876L267.53607 314.41876L267.53607 315.3875L266.37982 315.3875L266.37982 317.45L265.31732 317.45ZM265.31732 314.41876L265.31732 310.5594L262.62982 314.41876L265.31732 314.41876Z" fill-rule="nonzero"/><path fill="#000000" d="M283.38846 313.21564Q283.38846 311.6844 283.70096 310.7625Q284.01346 309.825 284.62283 309.325Q285.24783 308.825 286.18533 308.825Q286.87283 308.825 287.38846 309.10626Q287.9197 309.3875 288.26346 309.91876Q288.6072 310.4344 288.7947 311.1844Q288.9822 311.9344 288.9822 313.21564Q288.9822 314.73126 288.6697 315.65314Q288.37283 316.575 287.74783 317.09064Q287.13846 317.59064 286.18533 317.59064Q284.95096 317.59064 284.2322 316.7Q283.38846 315.6375 283.38846 313.21564ZM284.46658 313.21564Q284.46658 315.325 284.96658 316.02814Q285.46658 316.73126 286.18533 316.73126Q286.9197 316.73126 287.40408 316.02814Q287.90408 315.325 287.90408 313.21564Q287.90408 311.09064 287.40408 310.40314Q286.9197 309.7 286.1697 309.7Q285.45096 309.7 285.01346 310.3094Q284.46658 311.09064 284.46658 313.21564ZM295.93533 316.4344L295.93533 317.45L290.24783 317.45Q290.24783 317.075 290.37283 316.71564Q290.59158 316.1375 291.06033 315.575Q291.5447 315.0125 292.45096 314.27814Q293.8572 313.1219 294.34158 312.45Q294.84158 311.77814 294.84158 311.1844Q294.84158 310.5594 294.38846 310.1375Q293.93533 309.7 293.21658 309.7Q292.45096 309.7 291.99783 310.15314Q291.5447 310.60626 291.52908 311.41876L290.45096 311.3094Q290.56033 310.09064 291.27908 309.46564Q292.01346 308.825 293.24783 308.825Q294.4822 308.825 295.20096 309.5125Q295.9197 310.2 295.9197 311.21564Q295.9197 311.73126 295.70096 312.23126Q295.49783 312.71564 294.99783 313.27814Q294.51346 313.825 293.38846 314.77814Q292.43533 315.575 292.15408 315.8719Q291.88846 316.15314 291.71658 316.4344L295.93533 316.4344ZM297.9822 317.45L297.9822 316.2469L299.18533 316.2469L299.18533 317.45L297.9822 317.45ZM304.3572 317.45L303.31033 317.45L303.31033 310.73126Q302.9197 311.09064 302.2947 311.46564Q301.68533 311.825 301.20096 311.9969L301.20096 310.98126Q302.07596 310.5594 302.7322 309.98126Q303.40408 309.3875 303.68533 308.825L304.3572 308.825L304.3572 317.45ZM312.93533 316.4344L312.93533 317.45L307.24783 317.45Q307.24783 317.075 307.37283 316.71564Q307.59158 316.1375 308.06033 315.575Q308.5447 315.0125 309.45096 314.27814Q310.8572 313.1219 311.34158 312.45Q311.84158 311.77814 311.84158 311.1844Q311.84158 310.5594 311.38846 310.1375Q310.93533 309.7 310.21658 309.7Q309.45096 309.7 308.99783 310.15314Q308.5447 310.60626 308.52908 311.41876L307.45096 311.3094Q307.56033 310.09064 308.27908 309.46564Q309.01346 308.825 310.24783 308.825Q311.4822 308.825 312.20096 309.5125Q312.9197 310.2 312.9197 311.21564Q312.9197 311.73126 312.70096 312.23126Q312.49783 312.71564 311.99783 313.27814Q311.51346 313.825 310.38846 314.77814Q309.43533 315.575 309.15408 315.8719Q308.88846 316.15314 308.71658 316.4344L312.93533 316.4344ZM314.9822 317.45L314.9822 316.2469L316.18533 316.2469L316.18533 317.45L314.9822 317.45ZM322.93533 316.4344L322.93533 317.45L317.24783 317.45Q317.24783 317.075 317.37283 316.71564Q317.59158 316.1375 318.06033 315.575Q318.5447 315.0125 319.45096 314.27814Q320.8572 313.1219 321.34158 312.45Q321.84158 311.77814 321.84158 311.1844Q321.84158 310.5594 321.38846 310.1375Q320.93533 309.7 320.21658 309.7Q319.45096 309.7 318.99783 310.15314Q318.5447 310.60626 318.52908 311.41876L317.45096 311.3094Q317.56033 310.09064 318.27908 309.46564Q319.01346 308.825 320.24783 308.825Q321.4822 308.825 322.20096 309.5125Q322.9197 310.2 322.9197 311.21564Q322.9197 311.73126 322.70096 312.23126Q322.49783 312.71564 321.99783 313.27814Q321.51346 313.825 320.38846 314.77814Q319.43533 315.575 319.15408 315.8719Q318.88846 316.15314 318.71658 316.4344L322.93533 316.4344ZM324.38846 313.21564Q324.38846 311.6844 324.70096 310.7625Q325.01346 309.825 325.62283 309.325Q326.24783 308.825 327.18533 308.825Q327.87283 308.825 328.38846 309.10626Q328.9197 309.3875 329.26346 309.91876Q329.6072 310.4344 329.7947 311.1844Q329.9822 311.9344 329.9822 313.21564Q329.9822 314.73126 329.6697 315.65314Q329.37283 316.575 328.74783 317.09064Q328.13846 317.59064 327.18533 317.59064Q325.95096 317.59064 325.2322 316.7Q324.38846 315.6375 324.38846 313.21564ZM325.46658 313.21564Q325.46658 315.325 325.96658 316.02814Q326.46658 316.73126 327.18533 316.73126Q327.9197 316.73126 328.40408 316.02814Q328.90408 315.325 328.90408 313.21564Q328.90408 311.09064 328.40408 310.40314Q327.9197 309.7 327.1697 309.7Q326.45096 309.7 326.01346 310.3094Q325.46658 311.09064 325.46658 313.21564ZM336.93533 316.4344L336.93533 317.45L331.24783 317.45Q331.24783 317.075 331.37283 316.71564Q331.59158 316.1375 332.06033 315.575Q332.5447 315.0125 333.45096 314.27814Q334.8572 313.1219 335.34158 312.45Q335.84158 311.77814 335.84158 311.1844Q335.84158 310.5594 335.38846 310.1375Q334.93533 309.7 334.21658 309.7Q333.45096 309.7 332.99783 310.15314Q332.5447 310.60626 332.52908 311.41876L331.45096 311.3094Q331.56033 310.09064 332.27908 309.46564Q333.01346 308.825 334.24783 308.825Q335.4822 308.825 336.20096 309.5125Q336.9197 310.2 336.9197 311.21564Q336.9197 311.73126 336.70096 312.23126Q336.49783 312.71564 335.99783 313.27814Q335.51346 313.825 334.38846 314.77814Q333.43533 315.575 333.15408 315.8719Q332.88846 316.15314 332.71658 316.4344L336.93533 316.4344ZM341.76346 317.45L341.76346 315.3875L338.0447 315.3875L338.0447 314.41876L341.96658 308.85626L342.82596 308.85626L342.82596 314.41876L343.9822 314.41876L343.9822 315.3875L342.82596 315.3875L342.82596 317.45L341.76346 317.45ZM341.76346 314.41876L341.76346 310.5594L339.07596 314.41876L341.76346 314.41876Z" fill-rule="nonzero"/><path fill="#000000" d="M359.83463 313.21564Q359.83463 311.6844 360.14713 310.7625Q360.45963 309.825 361.069 309.325Q361.694 308.825 362.6315 308.825Q363.319 308.825 363.83463 309.10626Q364.36588 309.3875 364.70963 309.91876Q365.05338 310.4344 365.24088 311.1844Q365.42838 311.9344 365.42838 313.21564Q365.42838 314.73126 365.11588 315.65314Q364.819 316.575 364.194 317.09064Q363.58463 317.59064 362.6315 317.59064Q361.39713 317.59064 360.67838 316.7Q359.83463 315.6375 359.83463 313.21564ZM360.91275 313.21564Q360.91275 315.325 361.41275 316.02814Q361.91275 316.73126 362.6315 316.73126Q363.36588 316.73126 363.85025 316.02814Q364.35025 315.325 364.35025 313.21564Q364.35025 311.09064 363.85025 310.40314Q363.36588 309.7 362.61588 309.7Q361.89713 309.7 361.45963 310.3094Q360.91275 311.09064 360.91275 313.21564ZM370.20963 317.45L370.20963 315.3875L366.49088 315.3875L366.49088 314.41876L370.41275 308.85626L371.27213 308.85626L371.27213 314.41876L372.42838 314.41876L372.42838 315.3875L371.27213 315.3875L371.27213 317.45L370.20963 317.45ZM370.20963 314.41876L370.20963 310.5594L367.52213 314.41876L370.20963 314.41876ZM374.42838 317.45L374.42838 316.2469L375.6315 316.2469L375.6315 317.45L374.42838 317.45ZM380.80338 317.45L379.7565 317.45L379.7565 310.73126Q379.36588 311.09064 378.74088 311.46564Q378.1315 311.825 377.64713 311.9969L377.64713 310.98126Q378.52213 310.5594 379.17838 309.98126Q379.85025 309.3875 380.1315 308.825L380.80338 308.825L380.80338 317.45ZM389.3815 316.4344L389.3815 317.45L383.694 317.45Q383.694 317.075 383.819 316.71564Q384.03775 316.1375 384.5065 315.575Q384.99088 315.0125 385.89713 314.27814Q387.30338 313.1219 387.78775 312.45Q388.28775 311.77814 388.28775 311.1844Q388.28775 310.5594 387.83463 310.1375Q387.3815 309.7 386.66275 309.7Q385.89713 309.7 385.444 310.15314Q384.99088 310.60626 384.97525 311.41876L383.89713 311.3094Q384.0065 310.09064 384.72525 309.46564Q385.45963 308.825 386.694 308.825Q387.92838 308.825 388.64713 309.5125Q389.36588 310.2 389.36588 311.21564Q389.36588 311.73126 389.14713 312.23126Q388.944 312.71564 388.444 313.27814Q387.95963 313.825 386.83463 314.77814Q385.8815 315.575 385.60025 315.8719Q385.33463 316.15314 385.16275 316.4344L389.3815 316.4344ZM391.42838 317.45L391.42838 316.2469L392.6315 316.2469L392.6315 317.45L391.42838 317.45ZM399.3815 316.4344L399.3815 317.45L393.694 317.45Q393.694 317.075 393.819 316.71564Q394.03775 316.1375 394.5065 315.575Q394.99088 315.0125 395.89713 314.27814Q397.30338 313.1219 397.78775 312.45Q398.28775 311.77814 398.28775 311.1844Q398.28775 310.5594 397.83463 310.1375Q397.3815 309.7 396.66275 309.7Q395.89713 309.7 395.444 310.15314Q394.99088 310.60626 394.97525 311.41876L393.89713 311.3094Q394.0065 310.09064 394.72525 309.46564Q395.45963 308.825 396.694 308.825Q397.92838 308.825 398.64713 309.5125Q399.36588 310.2 399.36588 311.21564Q399.36588 311.73126 399.14713 312.23126Q398.944 312.71564 398.444 313.27814Q397.95963 313.825 396.83463 314.77814Q395.8815 315.575 395.60025 315.8719Q395.33463 316.15314 395.16275 316.4344L399.3815 316.4344ZM400.83463 313.21564Q400.83463 311.6844 401.14713 310.7625Q401.45963 309.825 402.069 309.325Q402.694 308.825 403.6315 308.825Q404.319 308.825 404.83463 309.10626Q405.36588 309.3875 405.70963 309.91876Q406.05338 310.4344 406.24088 311.1844Q406.42838 311.9344 406.42838 313.21564Q406.42838 314.73126 406.11588 315.65314Q405.819 316.575 405.194 317.09064Q404.58463 317.59064 403.6315 317.59064Q402.39713 317.59064 401.67838 316.7Q400.83463 315.6375 400.83463 313.21564ZM401.91275 313.21564Q401.91275 315.325 402.41275 316.02814Q402.91275 316.73126 403.6315 316.73126Q404.36588 316.73126 404.85025 316.02814Q405.35025 315.325 405.35025 313.21564Q405.35025 311.09064 404.85025 310.40314Q404.36588 309.7 403.61588 309.7Q402.89713 309.7 402.45963 310.3094Q401.91275 311.09064 401.91275 313.21564ZM413.3815 316.4344L413.3815 317.45L407.694 317.45Q407.694 317.075 407.819 316.71564Q408.03775 316.1375 408.5065 315.575Q408.99088 315.0125 409.89713 314.27814Q411.30338 313.1219 411.78775 312.45Q412.28775 311.77814 412.28775 311.1844Q412.28775 310.5594 411.83463 310.1375Q411.3815 309.7 410.66275 309.7Q409.89713 309.7 409.444 310.15314Q408.99088 310.60626 408.97525 311.41876L407.89713 311.3094Q408.0065 310.09064 408.72525 309.46564Q409.45963 308.825 410.694 308.825Q411.92838 308.825 412.64713 309.5125Q413.36588 310.2 413.36588 311.21564Q413.36588 311.73126 413.14713 312.23126Q412.944 312.71564 412.444 313.27814Q411.95963 313.825 410.83463 314.77814Q409.8815 315.575 409.60025 315.8719Q409.33463 316.15314 409.16275 316.4344L413.3815 316.4344ZM418.20963 317.45L418.20963 315.3875L414.49088 315.3875L414.49088 314.41876L418.41275 308.85626L419.27213 308.85626L419.27213 314.41876L420.42838 314.41876L420.42838 315.3875L419.27213 315.3875L419.27213 317.45L418.20963 317.45ZM418.20963 314.41876L418.20963 310.5594L415.52213 314.41876L418.20963 314.41876Z" fill-rule="nonzero"/><path fill="#000000" d="M436.28076 313.21564Q436.28076 311.6844 436.59326 310.7625Q436.90576 309.825 437.51514 309.325Q438.14014 308.825 439.07764 308.825Q439.76514 308.825 440.28076 309.10626Q440.812 309.3875 441.15576 309.91876Q441.4995 310.4344 441.687 311.1844Q441.8745 311.9344 441.8745 313.21564Q441.8745 314.73126 441.562 315.65314Q441.26514 316.575 440.64014 317.09064Q440.03076 317.59064 439.07764 317.59064Q437.84326 317.59064 437.1245 316.7Q436.28076 315.6375 436.28076 313.21564ZM437.3589 313.21564Q437.3589 315.325 437.8589 316.02814Q438.3589 316.73126 439.07764 316.73126Q439.812 316.73126 440.2964 316.02814Q440.7964 315.325 440.7964 313.21564Q440.7964 311.09064 440.2964 310.40314Q439.812 309.7 439.062 309.7Q438.34326 309.7 437.90576 310.3094Q437.3589 311.09064 437.3589 313.21564ZM448.7495 310.96564L447.70264 311.04376Q447.562 310.41876 447.312 310.1375Q446.8745 309.6844 446.2495 309.6844Q445.7495 309.6844 445.3589 309.96564Q444.8745 310.34064 444.57764 311.04376Q444.2964 311.73126 444.28076 313.0125Q444.65576 312.4344 445.20264 312.15314Q445.76514 311.8719 446.3745 311.8719Q447.4214 311.8719 448.15576 312.65314Q448.90576 313.4344 448.90576 314.65314Q448.90576 315.46564 448.5464 316.16876Q448.20264 316.85626 447.59326 317.23126Q446.9839 317.59064 446.21826 317.59064Q444.89014 317.59064 444.062 316.6219Q443.2339 315.65314 443.2339 313.4344Q443.2339 310.9344 444.15576 309.8094Q444.95264 308.825 446.312 308.825Q447.32764 308.825 447.96826 309.40314Q448.6245 309.96564 448.7495 310.96564ZM444.45264 314.66876Q444.45264 315.21564 444.6714 315.71564Q444.90576 316.2 445.312 316.46564Q445.7339 316.73126 446.20264 316.73126Q446.8589 316.73126 447.34326 316.2Q447.82764 315.65314 447.82764 314.73126Q447.82764 313.84064 447.34326 313.325Q446.8745 312.8094 446.15576 312.8094Q445.437 312.8094 444.937 313.325Q444.45264 313.84064 444.45264 314.66876ZM450.8745 317.45L450.8745 316.2469L452.07764 316.2469L452.07764 317.45L450.8745 317.45ZM457.2495 317.45L456.20264 317.45L456.20264 310.73126Q455.812 311.09064 455.187 311.46564Q454.57764 311.825 454.09326 311.9969L454.09326 310.98126Q454.96826 310.5594 455.6245 309.98126Q456.2964 309.3875 456.57764 308.825L457.2495 308.825L457.2495 317.45ZM465.82764 316.4344L465.82764 317.45L460.14014 317.45Q460.14014 317.075 460.26514 316.71564Q460.4839 316.1375 460.95264 315.575Q461.437 315.0125 462.34326 314.27814Q463.7495 313.1219 464.2339 312.45Q464.7339 311.77814 464.7339 311.1844Q464.7339 310.5594 464.28076 310.1375Q463.82764 309.7 463.1089 309.7Q462.34326 309.7 461.89014 310.15314Q461.437 310.60626 461.4214 311.41876L460.34326 311.3094Q460.45264 310.09064 461.1714 309.46564Q461.90576 308.825 463.14014 308.825Q464.3745 308.825 465.09326 309.5125Q465.812 310.2 465.812 311.21564Q465.812 311.73126 465.59326 312.23126Q465.39014 312.71564 464.89014 313.27814Q464.40576 313.825 463.28076 314.77814Q462.32764 315.575 462.0464 315.8719Q461.78076 316.15314 461.6089 316.4344L465.82764 316.4344ZM467.8745 317.45L467.8745 316.2469L469.07764 316.2469L469.07764 317.45L467.8745 317.45ZM475.82764 316.4344L475.82764 317.45L470.14014 317.45Q470.14014 317.075 470.26514 316.71564Q470.4839 316.1375 470.95264 315.575Q471.437 315.0125 472.34326 314.27814Q473.7495 313.1219 474.2339 312.45Q474.7339 311.77814 474.7339 311.1844Q474.7339 310.5594 474.28076 310.1375Q473.82764 309.7 473.1089 309.7Q472.34326 309.7 471.89014 310.15314Q471.437 310.60626 471.4214 311.41876L470.34326 311.3094Q470.45264 310.09064 471.1714 309.46564Q471.90576 308.825 473.14014 308.825Q474.3745 308.825 475.09326 309.5125Q475.812 310.2 475.812 311.21564Q475.812 311.73126 475.59326 312.23126Q475.39014 312.71564 474.89014 313.27814Q474.40576 313.825 473.28076 314.77814Q472.32764 315.575 472.0464 315.8719Q471.78076 316.15314 471.6089 316.4344L475.82764 316.4344ZM477.28076 313.21564Q477.28076 311.6844 477.59326 310.7625Q477.90576 309.825 478.51514 309.325Q479.14014 308.825 480.07764 308.825Q480.76514 308.825 481.28076 309.10626Q481.812 309.3875 482.15576 309.91876Q482.4995 310.4344 482.687 311.1844Q482.8745 311.9344 482.8745 313.21564Q482.8745 314.73126 482.562 315.65314Q482.26514 316.575 481.64014 317.09064Q481.03076 317.59064 480.07764 317.59064Q478.84326 317.59064 478.1245 316.7Q477.28076 315.6375 477.28076 313.21564ZM478.3589 313.21564Q478.3589 315.325 478.8589 316.02814Q479.3589 316.73126 480.07764 316.73126Q480.812 316.73126 481.2964 316.02814Q481.7964 315.325 481.7964 313.21564Q481.7964 311.09064 481.2964 310.40314Q480.812 309.7 480.062 309.7Q479.34326 309.7 478.90576 310.3094Q478.3589 311.09064 478.3589 313.21564ZM489.82764 316.4344L489.82764 317.45L484.14014 317.45Q484.14014 317.075 484.26514 316.71564Q484.4839 316.1375 484.95264 315.575Q485.437 315.0125 486.34326 314.27814Q487.7495 313.1219 488.2339 312.45Q488.7339 311.77814 488.7339 311.1844Q488.7339 310.5594 488.28076 310.1375Q487.82764 309.7 487.1089 309.7Q486.34326 309.7 485.89014 310.15314Q485.437 310.60626 485.4214 311.41876L484.34326 311.3094Q484.45264 310.09064 485.1714 309.46564Q485.90576 308.825 487.14014 308.825Q488.3745 308.825 489.09326 309.5125Q489.812 310.2 489.812 311.21564Q489.812 311.73126 489.59326 312.23126Q489.39014 312.71564 488.89014 313.27814Q488.40576 313.825 487.28076 314.77814Q486.32764 315.575 486.0464 315.8719Q485.78076 316.15314 485.6089 316.4344L489.82764 316.4344ZM494.65576 317.45L494.65576 315.3875L490.937 315.3875L490.937 314.41876L494.8589 308.85626L495.71826 308.85626L495.71826 314.41876L496.8745 314.41876L496.8745 315.3875L495.71826 315.3875L495.71826 317.45L494.65576 317.45ZM494.65576 314.41876L494.65576 310.5594L491.96826 314.41876L494.65576 314.41876Z" fill-rule="nonzero"/><path fill="#000000" d="M512.7269 313.21564Q512.7269 311.6844 513.0394 310.7625Q513.3519 309.825 513.9613 309.325Q514.5863 308.825 515.5238 308.825Q516.2113 308.825 516.7269 309.10626Q517.2582 309.3875 517.6019 309.91876Q517.9457 310.4344 518.1332 311.1844Q518.3207 311.9344 518.3207 313.21564Q518.3207 314.73126 518.0082 315.65314Q517.7113 316.575 517.0863 317.09064Q516.4769 317.59064 515.5238 317.59064Q514.2894 317.59064 513.5707 316.7Q512.7269 315.6375 512.7269 313.21564ZM513.80505 313.21564Q513.80505 315.325 514.30505 316.02814Q514.80505 316.73126 515.5238 316.73126Q516.2582 316.73126 516.74255 316.02814Q517.24255 315.325 517.24255 313.21564Q517.24255 311.09064 516.74255 310.40314Q516.2582 309.7 515.5082 309.7Q514.7894 309.7 514.3519 310.3094Q513.80505 311.09064 513.80505 313.21564ZM521.3519 312.79376Q520.6957 312.54376 520.36755 312.10626Q520.05505 311.65314 520.05505 311.04376Q520.05505 310.10626 520.7269 309.46564Q521.4144 308.825 522.5238 308.825Q523.6488 308.825 524.3363 309.48126Q525.0238 310.1375 525.0238 311.075Q525.0238 311.66876 524.7113 312.10626Q524.3988 312.54376 523.7582 312.79376Q524.55505 313.04376 524.9613 313.6219Q525.36755 314.2 525.36755 314.9969Q525.36755 316.09064 524.5863 316.84064Q523.8207 317.59064 522.5394 317.59064Q521.2738 317.59064 520.49255 316.84064Q519.7113 316.09064 519.7113 314.96564Q519.7113 314.1219 520.1332 313.5594Q520.5707 312.9969 521.3519 312.79376ZM521.1332 310.9969Q521.1332 311.60626 521.5238 311.9969Q521.93005 312.3875 522.55505 312.3875Q523.1644 312.3875 523.55505 312.0125Q523.9457 311.6219 523.9457 311.0594Q523.9457 310.48126 523.5394 310.09064Q523.1332 309.6844 522.5394 309.6844Q521.93005 309.6844 521.5238 310.075Q521.1332 310.46564 521.1332 310.9969ZM520.80505 314.96564Q520.80505 315.41876 521.0082 315.84064Q521.2269 316.2625 521.6488 316.4969Q522.0707 316.73126 522.55505 316.73126Q523.30505 316.73126 523.7894 316.2469Q524.2894 315.7625 524.2894 315.0125Q524.2894 314.2469 523.7894 313.7469Q523.2894 313.2469 522.5238 313.2469Q521.7738 313.2469 521.2894 313.7469Q520.80505 314.23126 520.80505 314.96564ZM527.3207 317.45L527.3207 316.2469L528.5238 316.2469L528.5238 317.45L527.3207 317.45ZM533.6957 317.45L532.6488 317.45L532.6488 310.73126Q532.2582 311.09064 531.6332 311.46564Q531.0238 311.825 530.5394 311.9969L530.5394 310.98126Q531.4144 310.5594 532.0707 309.98126Q532.74255 309.3875 533.0238 308.825L533.6957 308.825L533.6957 317.45ZM542.2738 316.4344L542.2738 317.45L536.5863 317.45Q536.5863 317.075 536.7113 316.71564Q536.93005 316.1375 537.3988 315.575Q537.8832 315.0125 538.7894 314.27814Q540.1957 313.1219 540.68005 312.45Q541.18005 311.77814 541.18005 311.1844Q541.18005 310.5594 540.7269 310.1375Q540.2738 309.7 539.55505 309.7Q538.7894 309.7 538.3363 310.15314Q537.8832 310.60626 537.86755 311.41876L536.7894 311.3094Q536.8988 310.09064 537.61755 309.46564Q538.3519 308.825 539.5863 308.825Q540.8207 308.825 541.5394 309.5125Q542.2582 310.2 542.2582 311.21564Q542.2582 311.73126 542.0394 312.23126Q541.8363 312.71564 541.3363 313.27814Q540.8519 313.825 539.7269 314.77814Q538.7738 315.575 538.49255 315.8719Q538.2269 316.15314 538.05505 316.4344L542.2738 316.4344ZM544.3207 317.45L544.3207 316.2469L545.5238 316.2469L545.5238 317.45L544.3207 317.45ZM552.2738 316.4344L552.2738 317.45L546.5863 317.45Q546.5863 317.075 546.7113 316.71564Q546.93005 316.1375 547.3988 315.575Q547.8832 315.0125 548.7894 314.27814Q550.1957 313.1219 550.68005 312.45Q551.18005 311.77814 551.18005 311.1844Q551.18005 310.5594 550.7269 310.1375Q550.2738 309.7 549.55505 309.7Q548.7894 309.7 548.3363 310.15314Q547.8832 310.60626 547.86755 311.41876L546.7894 311.3094Q546.8988 310.09064 547.61755 309.46564Q548.3519 308.825 549.5863 308.825Q550.8207 308.825 551.5394 309.5125Q552.2582 310.2 552.2582 311.21564Q552.2582 311.73126 552.0394 312.23126Q551.8363 312.71564 551.3363 313.27814Q550.8519 313.825 549.7269 314.77814Q548.7738 315.575 548.49255 315.8719Q548.2269 316.15314 548.05505 316.4344L552.2738 316.4344ZM553.7269 313.21564Q553.7269 311.6844 554.0394 310.7625Q554.3519 309.825 554.9613 309.325Q555.5863 308.825 556.5238 308.825Q557.2113 308.825 557.7269 309.10626Q558.2582 309.3875 558.6019 309.91876Q558.9457 310.4344 559.1332 311.1844Q559.3207 311.9344 559.3207 313.21564Q559.3207 314.73126 559.0082 315.65314Q558.7113 316.575 558.0863 317.09064Q557.4769 317.59064 556.5238 317.59064Q555.2894 317.59064 554.5707 316.7Q553.7269 315.6375 553.7269 313.21564ZM554.80505 313.21564Q554.80505 315.325 555.30505 316.02814Q555.80505 316.73126 556.5238 316.73126Q557.2582 316.73126 557.74255 316.02814Q558.24255 315.325 558.24255 313.21564Q558.24255 311.09064 557.74255 310.40314Q557.2582 309.7 556.5082 309.7Q555.7894 309.7 555.3519 310.3094Q554.80505 311.09064 554.80505 313.21564ZM566.2738 316.4344L566.2738 317.45L560.5863 317.45Q560.5863 317.075 560.7113 316.71564Q560.93005 316.1375 561.3988 315.575Q561.8832 315.0125 562.7894 314.27814Q564.1957 313.1219 564.68005 312.45Q565.18005 311.77814 565.18005 311.1844Q565.18005 310.5594 564.7269 310.1375Q564.2738 309.7 563.55505 309.7Q562.7894 309.7 562.3363 310.15314Q561.8832 310.60626 561.86755 311.41876L560.7894 311.3094Q560.8988 310.09064 561.61755 309.46564Q562.3519 308.825 563.5863 308.825Q564.8207 308.825 565.5394 309.5125Q566.2582 310.2 566.2582 311.21564Q566.2582 311.73126 566.0394 312.23126Q565.8363 312.71564 565.3363 313.27814Q564.8519 313.825 563.7269 314.77814Q562.7738 315.575 562.49255 315.8719Q562.2269 316.15314 562.05505 316.4344L566.2738 316.4344ZM571.1019 317.45L571.1019 315.3875L567.3832 315.3875L567.3832 314.41876L571.30505 308.85626L572.1644 308.85626L572.1644 314.41876L573.3207 314.41876L573.3207 315.3875L572.1644 315.3875L572.1644 317.45L571.1019 317.45ZM571.1019 314.41876L571.1019 310.5594L568.4144 314.41876L571.1019 314.41876Z" fill-rule="nonzero"/><path fill="#757575" d="M266.46875 37.55L266.46875 23.2375L271.84375 23.2375Q273.48438 23.2375 274.46875 23.675Q275.45312 24.096874 276.01562 25.003124Q276.57812 25.909374 276.57812 26.89375Q276.57812 27.815624 276.07812 28.628124Q275.59375 29.440624 274.57812 29.925Q275.875 30.315624 276.57812 31.2375Q277.28125 32.14375 277.28125 33.39375Q277.28125 34.409374 276.84375 35.26875Q276.42188 36.128124 275.79688 36.596874Q275.17188 37.065624 274.23438 37.315624Q273.29688 37.55 271.92188 37.55L266.46875 37.55ZM268.35938 29.253124L271.45312 29.253124Q272.71875 29.253124 273.26562 29.08125Q273.98438 28.8625 274.34375 28.378124Q274.71875 27.878124 274.71875 27.1125Q274.71875 26.409374 274.375 25.8625Q274.03125 25.315624 273.39062 25.128124Q272.76562 24.925 271.21875 24.925L268.35938 24.925L268.35938 29.253124ZM268.35938 35.8625L271.92188 35.8625Q272.84375 35.8625 273.21875 35.784374Q273.875 35.675 274.3125 35.409374Q274.75 35.128124 275.03125 34.6125Q275.3125 34.08125 275.3125 33.39375Q275.3125 32.596874 274.90625 32.003124Q274.5 31.409374 273.76562 31.175Q273.03125 30.940624 271.67188 30.940624L268.35938 30.940624L268.35938 35.8625ZM289.1875 27.175L290.95312 27.175L290.95312 37.55L289.1875 37.55L289.1875 27.175ZM279.35938 27.175L281.10938 27.175L281.10938 31.2375L283.34375 31.2375Q285.51562 31.2375 286.6875 32.08125Q287.875 32.925 287.875 34.409374Q287.875 35.70625 286.89062 36.628124Q285.90625 37.55 283.75 37.55L279.35938 37.55L279.35938 27.175ZM281.10938 36.096874L282.96875 36.096874Q284.625 36.096874 285.34375 35.690624Q286.0625 35.284374 286.0625 34.409374Q286.0625 33.7375 285.53125 33.221874Q285.0 32.690624 283.20312 32.690624L281.10938 32.690624L281.10938 36.096874ZM293.3125 27.175L295.0625 27.175L295.0625 31.659374Q295.90625 31.659374 296.23438 31.346874Q296.57812 31.01875 297.23438 29.45625Q297.75 28.2375 298.0625 27.846874Q298.39062 27.45625 298.8125 27.315624Q299.23438 27.175 300.17188 27.175L300.51562 27.175L300.51562 28.628124L300.03125 28.628124Q299.32812 28.628124 299.14062 28.83125Q298.9375 29.05 298.51562 30.1125Q298.10938 31.128124 297.78125 31.51875Q297.45312 31.909374 296.75 32.221874Q297.89062 32.534374 298.98438 34.33125L300.90625 37.55L298.96875 37.55L297.09375 34.33125Q296.51562 33.3625 296.07812 33.065624Q295.65625 32.753124 295.0625 32.753124L295.0625 37.55L293.3125 37.55L293.3125 27.175ZM302.23438 41.55L302.04688 39.89375Q302.625 40.05 303.04688 40.05Q303.64062 40.05 303.98438 39.846874Q304.34375 39.659374 304.5625 39.315624Q304.73438 39.05 305.10938 38.003124Q305.15625 37.846874 305.26562 37.565624L301.32812 27.175L303.21875 27.175L305.375 33.190624Q305.79688 34.33125 306.125 35.58125Q306.4375 34.378124 306.84375 33.221874L309.0625 27.175L310.82812 27.175L306.875 37.721874Q306.25 39.440624 305.89062 40.08125Q305.42188 40.95625 304.8125 41.346874Q304.21875 41.753124 303.375 41.753124Q302.85938 41.753124 302.23438 41.55ZM312.32812 27.175L320.51562 27.175L320.51562 37.55L318.75 37.55L318.75 28.628124L314.09375 28.628124L314.09375 37.55L312.32812 37.55L312.32812 27.175ZM332.1875 27.175L333.95312 27.175L333.95312 37.55L332.1875 37.55L332.1875 27.175ZM322.35938 27.175L324.10938 27.175L324.10938 31.2375L326.34375 31.2375Q328.51562 31.2375 329.6875 32.08125Q330.875 32.925 330.875 34.409374Q330.875 35.70625 329.89062 36.628124Q328.90625 37.55 326.75 37.55L322.35938 37.55L322.35938 27.175ZM324.10938 36.096874L325.96875 36.096874Q327.625 36.096874 328.34375 35.690624Q329.0625 35.284374 329.0625 34.409374Q329.0625 33.7375 328.53125 33.221874Q328.0 32.690624 326.20312 32.690624L324.10938 32.690624L324.10938 36.096874Z" fill-rule="nonzero"/></svg>